G75*
%MOIN*%
%OFA0B0*%
%FSLAX25Y25*%
%IPPOS*%
%LPD*%
%AMOC8*
5,1,8,0,0,1.08239X$1,22.5*
%
%ADD10C,0.00000*%
%ADD11R,0.04500X0.03000*%
%ADD12R,0.04724X0.15748*%
%ADD13R,0.02756X0.09843*%
%ADD14R,0.09843X0.02756*%
%ADD15R,0.05000X0.05000*%
%ADD16C,0.05740*%
%ADD17C,0.13843*%
%ADD18R,0.04724X0.02100*%
%ADD19R,0.04724X0.02165*%
%ADD20R,0.02600X0.08000*%
%ADD21R,0.02362X0.08661*%
%ADD22C,0.06496*%
%ADD23C,0.06000*%
%ADD24OC8,0.06000*%
%ADD25R,0.06693X0.03740*%
%ADD26C,0.05150*%
%ADD27R,0.06299X0.07087*%
%ADD28R,0.05118X0.05906*%
%ADD29C,0.02000*%
%ADD30C,0.03200*%
%ADD31C,0.00800*%
%ADD32C,0.02400*%
D10*
X0114898Y0038933D02*
X0114898Y0130232D01*
X0114900Y0130413D01*
X0114907Y0130594D01*
X0114918Y0130775D01*
X0114933Y0130956D01*
X0114953Y0131136D01*
X0114977Y0131316D01*
X0115005Y0131495D01*
X0115038Y0131673D01*
X0115075Y0131850D01*
X0115116Y0132027D01*
X0115161Y0132202D01*
X0115211Y0132377D01*
X0115265Y0132550D01*
X0115323Y0132721D01*
X0115385Y0132892D01*
X0115452Y0133060D01*
X0115522Y0133227D01*
X0115596Y0133393D01*
X0115675Y0133556D01*
X0115757Y0133717D01*
X0115843Y0133877D01*
X0115933Y0134034D01*
X0116027Y0134189D01*
X0116124Y0134342D01*
X0116226Y0134492D01*
X0116330Y0134640D01*
X0116439Y0134786D01*
X0116550Y0134928D01*
X0116666Y0135068D01*
X0116784Y0135205D01*
X0116906Y0135340D01*
X0117031Y0135471D01*
X0117159Y0135599D01*
X0117290Y0135724D01*
X0117425Y0135846D01*
X0117562Y0135964D01*
X0117702Y0136080D01*
X0117844Y0136191D01*
X0117990Y0136300D01*
X0118138Y0136404D01*
X0118288Y0136506D01*
X0118441Y0136603D01*
X0118596Y0136697D01*
X0118753Y0136787D01*
X0118913Y0136873D01*
X0119074Y0136955D01*
X0119237Y0137034D01*
X0119403Y0137108D01*
X0119570Y0137178D01*
X0119738Y0137245D01*
X0119909Y0137307D01*
X0120080Y0137365D01*
X0120253Y0137419D01*
X0120428Y0137469D01*
X0120603Y0137514D01*
X0120780Y0137555D01*
X0120957Y0137592D01*
X0121135Y0137625D01*
X0121314Y0137653D01*
X0121494Y0137677D01*
X0121674Y0137697D01*
X0121855Y0137712D01*
X0122036Y0137723D01*
X0122217Y0137730D01*
X0122398Y0137732D01*
X0292595Y0137732D01*
X0292776Y0137730D01*
X0292957Y0137723D01*
X0293138Y0137712D01*
X0293319Y0137697D01*
X0293499Y0137677D01*
X0293679Y0137653D01*
X0293858Y0137625D01*
X0294036Y0137592D01*
X0294213Y0137555D01*
X0294390Y0137514D01*
X0294565Y0137469D01*
X0294740Y0137419D01*
X0294913Y0137365D01*
X0295084Y0137307D01*
X0295255Y0137245D01*
X0295423Y0137178D01*
X0295590Y0137108D01*
X0295756Y0137034D01*
X0295919Y0136955D01*
X0296080Y0136873D01*
X0296240Y0136787D01*
X0296397Y0136697D01*
X0296552Y0136603D01*
X0296705Y0136506D01*
X0296855Y0136404D01*
X0297003Y0136300D01*
X0297149Y0136191D01*
X0297291Y0136080D01*
X0297431Y0135964D01*
X0297568Y0135846D01*
X0297703Y0135724D01*
X0297834Y0135599D01*
X0297962Y0135471D01*
X0298087Y0135340D01*
X0298209Y0135205D01*
X0298327Y0135068D01*
X0298443Y0134928D01*
X0298554Y0134786D01*
X0298663Y0134640D01*
X0298767Y0134492D01*
X0298869Y0134342D01*
X0298966Y0134189D01*
X0299060Y0134034D01*
X0299150Y0133877D01*
X0299236Y0133717D01*
X0299318Y0133556D01*
X0299397Y0133393D01*
X0299471Y0133227D01*
X0299541Y0133060D01*
X0299608Y0132892D01*
X0299670Y0132721D01*
X0299728Y0132550D01*
X0299782Y0132377D01*
X0299832Y0132202D01*
X0299877Y0132027D01*
X0299918Y0131850D01*
X0299955Y0131673D01*
X0299988Y0131495D01*
X0300016Y0131316D01*
X0300040Y0131136D01*
X0300060Y0130956D01*
X0300075Y0130775D01*
X0300086Y0130594D01*
X0300093Y0130413D01*
X0300095Y0130232D01*
X0300095Y0038933D01*
X0300093Y0038752D01*
X0300086Y0038571D01*
X0300075Y0038390D01*
X0300060Y0038209D01*
X0300040Y0038029D01*
X0300016Y0037849D01*
X0299988Y0037670D01*
X0299955Y0037492D01*
X0299918Y0037315D01*
X0299877Y0037138D01*
X0299832Y0036963D01*
X0299782Y0036788D01*
X0299728Y0036615D01*
X0299670Y0036444D01*
X0299608Y0036273D01*
X0299541Y0036105D01*
X0299471Y0035938D01*
X0299397Y0035772D01*
X0299318Y0035609D01*
X0299236Y0035448D01*
X0299150Y0035288D01*
X0299060Y0035131D01*
X0298966Y0034976D01*
X0298869Y0034823D01*
X0298767Y0034673D01*
X0298663Y0034525D01*
X0298554Y0034379D01*
X0298443Y0034237D01*
X0298327Y0034097D01*
X0298209Y0033960D01*
X0298087Y0033825D01*
X0297962Y0033694D01*
X0297834Y0033566D01*
X0297703Y0033441D01*
X0297568Y0033319D01*
X0297431Y0033201D01*
X0297291Y0033085D01*
X0297149Y0032974D01*
X0297003Y0032865D01*
X0296855Y0032761D01*
X0296705Y0032659D01*
X0296552Y0032562D01*
X0296397Y0032468D01*
X0296240Y0032378D01*
X0296080Y0032292D01*
X0295919Y0032210D01*
X0295756Y0032131D01*
X0295590Y0032057D01*
X0295423Y0031987D01*
X0295255Y0031920D01*
X0295084Y0031858D01*
X0294913Y0031800D01*
X0294740Y0031746D01*
X0294565Y0031696D01*
X0294390Y0031651D01*
X0294213Y0031610D01*
X0294036Y0031573D01*
X0293858Y0031540D01*
X0293679Y0031512D01*
X0293499Y0031488D01*
X0293319Y0031468D01*
X0293138Y0031453D01*
X0292957Y0031442D01*
X0292776Y0031435D01*
X0292595Y0031433D01*
X0122398Y0031433D01*
X0122217Y0031435D01*
X0122036Y0031442D01*
X0121855Y0031453D01*
X0121674Y0031468D01*
X0121494Y0031488D01*
X0121314Y0031512D01*
X0121135Y0031540D01*
X0120957Y0031573D01*
X0120780Y0031610D01*
X0120603Y0031651D01*
X0120428Y0031696D01*
X0120253Y0031746D01*
X0120080Y0031800D01*
X0119909Y0031858D01*
X0119738Y0031920D01*
X0119570Y0031987D01*
X0119403Y0032057D01*
X0119237Y0032131D01*
X0119074Y0032210D01*
X0118913Y0032292D01*
X0118753Y0032378D01*
X0118596Y0032468D01*
X0118441Y0032562D01*
X0118288Y0032659D01*
X0118138Y0032761D01*
X0117990Y0032865D01*
X0117844Y0032974D01*
X0117702Y0033085D01*
X0117562Y0033201D01*
X0117425Y0033319D01*
X0117290Y0033441D01*
X0117159Y0033566D01*
X0117031Y0033694D01*
X0116906Y0033825D01*
X0116784Y0033960D01*
X0116666Y0034097D01*
X0116550Y0034237D01*
X0116439Y0034379D01*
X0116330Y0034525D01*
X0116226Y0034673D01*
X0116124Y0034823D01*
X0116027Y0034976D01*
X0115933Y0035131D01*
X0115843Y0035288D01*
X0115757Y0035448D01*
X0115675Y0035609D01*
X0115596Y0035772D01*
X0115522Y0035938D01*
X0115452Y0036105D01*
X0115385Y0036273D01*
X0115323Y0036444D01*
X0115265Y0036615D01*
X0115211Y0036788D01*
X0115161Y0036963D01*
X0115116Y0037138D01*
X0115075Y0037315D01*
X0115038Y0037492D01*
X0115005Y0037670D01*
X0114977Y0037849D01*
X0114953Y0038029D01*
X0114933Y0038209D01*
X0114918Y0038390D01*
X0114907Y0038571D01*
X0114900Y0038752D01*
X0114898Y0038933D01*
X0120764Y0041433D02*
X0120766Y0041564D01*
X0120772Y0041696D01*
X0120782Y0041827D01*
X0120796Y0041958D01*
X0120814Y0042088D01*
X0120836Y0042217D01*
X0120861Y0042346D01*
X0120891Y0042474D01*
X0120925Y0042601D01*
X0120962Y0042728D01*
X0121003Y0042852D01*
X0121048Y0042976D01*
X0121097Y0043098D01*
X0121149Y0043219D01*
X0121205Y0043337D01*
X0121265Y0043455D01*
X0121328Y0043570D01*
X0121395Y0043683D01*
X0121465Y0043795D01*
X0121538Y0043904D01*
X0121614Y0044010D01*
X0121694Y0044115D01*
X0121777Y0044217D01*
X0121863Y0044316D01*
X0121952Y0044413D01*
X0122044Y0044507D01*
X0122139Y0044598D01*
X0122236Y0044687D01*
X0122336Y0044772D01*
X0122439Y0044854D01*
X0122544Y0044933D01*
X0122651Y0045009D01*
X0122761Y0045081D01*
X0122873Y0045150D01*
X0122987Y0045216D01*
X0123102Y0045278D01*
X0123220Y0045337D01*
X0123339Y0045392D01*
X0123460Y0045444D01*
X0123583Y0045491D01*
X0123707Y0045535D01*
X0123832Y0045576D01*
X0123958Y0045612D01*
X0124086Y0045645D01*
X0124214Y0045673D01*
X0124343Y0045698D01*
X0124473Y0045719D01*
X0124603Y0045736D01*
X0124734Y0045749D01*
X0124865Y0045758D01*
X0124996Y0045763D01*
X0125128Y0045764D01*
X0125259Y0045761D01*
X0125391Y0045754D01*
X0125522Y0045743D01*
X0125652Y0045728D01*
X0125782Y0045709D01*
X0125912Y0045686D01*
X0126040Y0045660D01*
X0126168Y0045629D01*
X0126295Y0045594D01*
X0126421Y0045556D01*
X0126545Y0045514D01*
X0126669Y0045468D01*
X0126790Y0045418D01*
X0126910Y0045365D01*
X0127029Y0045308D01*
X0127146Y0045248D01*
X0127260Y0045184D01*
X0127373Y0045116D01*
X0127484Y0045045D01*
X0127593Y0044971D01*
X0127699Y0044894D01*
X0127803Y0044813D01*
X0127904Y0044730D01*
X0128003Y0044643D01*
X0128099Y0044553D01*
X0128192Y0044460D01*
X0128283Y0044365D01*
X0128370Y0044267D01*
X0128455Y0044166D01*
X0128536Y0044063D01*
X0128614Y0043957D01*
X0128689Y0043849D01*
X0128761Y0043739D01*
X0128829Y0043627D01*
X0128894Y0043513D01*
X0128955Y0043396D01*
X0129013Y0043278D01*
X0129067Y0043158D01*
X0129118Y0043037D01*
X0129165Y0042914D01*
X0129208Y0042790D01*
X0129247Y0042665D01*
X0129283Y0042538D01*
X0129314Y0042410D01*
X0129342Y0042282D01*
X0129366Y0042153D01*
X0129386Y0042023D01*
X0129402Y0041892D01*
X0129414Y0041761D01*
X0129422Y0041630D01*
X0129426Y0041499D01*
X0129426Y0041367D01*
X0129422Y0041236D01*
X0129414Y0041105D01*
X0129402Y0040974D01*
X0129386Y0040843D01*
X0129366Y0040713D01*
X0129342Y0040584D01*
X0129314Y0040456D01*
X0129283Y0040328D01*
X0129247Y0040201D01*
X0129208Y0040076D01*
X0129165Y0039952D01*
X0129118Y0039829D01*
X0129067Y0039708D01*
X0129013Y0039588D01*
X0128955Y0039470D01*
X0128894Y0039353D01*
X0128829Y0039239D01*
X0128761Y0039127D01*
X0128689Y0039017D01*
X0128614Y0038909D01*
X0128536Y0038803D01*
X0128455Y0038700D01*
X0128370Y0038599D01*
X0128283Y0038501D01*
X0128192Y0038406D01*
X0128099Y0038313D01*
X0128003Y0038223D01*
X0127904Y0038136D01*
X0127803Y0038053D01*
X0127699Y0037972D01*
X0127593Y0037895D01*
X0127484Y0037821D01*
X0127373Y0037750D01*
X0127261Y0037682D01*
X0127146Y0037618D01*
X0127029Y0037558D01*
X0126910Y0037501D01*
X0126790Y0037448D01*
X0126669Y0037398D01*
X0126545Y0037352D01*
X0126421Y0037310D01*
X0126295Y0037272D01*
X0126168Y0037237D01*
X0126040Y0037206D01*
X0125912Y0037180D01*
X0125782Y0037157D01*
X0125652Y0037138D01*
X0125522Y0037123D01*
X0125391Y0037112D01*
X0125259Y0037105D01*
X0125128Y0037102D01*
X0124996Y0037103D01*
X0124865Y0037108D01*
X0124734Y0037117D01*
X0124603Y0037130D01*
X0124473Y0037147D01*
X0124343Y0037168D01*
X0124214Y0037193D01*
X0124086Y0037221D01*
X0123958Y0037254D01*
X0123832Y0037290D01*
X0123707Y0037331D01*
X0123583Y0037375D01*
X0123460Y0037422D01*
X0123339Y0037474D01*
X0123220Y0037529D01*
X0123102Y0037588D01*
X0122987Y0037650D01*
X0122873Y0037716D01*
X0122761Y0037785D01*
X0122651Y0037857D01*
X0122544Y0037933D01*
X0122439Y0038012D01*
X0122336Y0038094D01*
X0122236Y0038179D01*
X0122139Y0038268D01*
X0122044Y0038359D01*
X0121952Y0038453D01*
X0121863Y0038550D01*
X0121777Y0038649D01*
X0121694Y0038751D01*
X0121614Y0038856D01*
X0121538Y0038962D01*
X0121465Y0039071D01*
X0121395Y0039183D01*
X0121328Y0039296D01*
X0121265Y0039411D01*
X0121205Y0039529D01*
X0121149Y0039647D01*
X0121097Y0039768D01*
X0121048Y0039890D01*
X0121003Y0040014D01*
X0120962Y0040138D01*
X0120925Y0040265D01*
X0120891Y0040392D01*
X0120861Y0040520D01*
X0120836Y0040649D01*
X0120814Y0040778D01*
X0120796Y0040908D01*
X0120782Y0041039D01*
X0120772Y0041170D01*
X0120766Y0041302D01*
X0120764Y0041433D01*
X0248264Y0041433D02*
X0248266Y0041564D01*
X0248272Y0041696D01*
X0248282Y0041827D01*
X0248296Y0041958D01*
X0248314Y0042088D01*
X0248336Y0042217D01*
X0248361Y0042346D01*
X0248391Y0042474D01*
X0248425Y0042601D01*
X0248462Y0042728D01*
X0248503Y0042852D01*
X0248548Y0042976D01*
X0248597Y0043098D01*
X0248649Y0043219D01*
X0248705Y0043337D01*
X0248765Y0043455D01*
X0248828Y0043570D01*
X0248895Y0043683D01*
X0248965Y0043795D01*
X0249038Y0043904D01*
X0249114Y0044010D01*
X0249194Y0044115D01*
X0249277Y0044217D01*
X0249363Y0044316D01*
X0249452Y0044413D01*
X0249544Y0044507D01*
X0249639Y0044598D01*
X0249736Y0044687D01*
X0249836Y0044772D01*
X0249939Y0044854D01*
X0250044Y0044933D01*
X0250151Y0045009D01*
X0250261Y0045081D01*
X0250373Y0045150D01*
X0250487Y0045216D01*
X0250602Y0045278D01*
X0250720Y0045337D01*
X0250839Y0045392D01*
X0250960Y0045444D01*
X0251083Y0045491D01*
X0251207Y0045535D01*
X0251332Y0045576D01*
X0251458Y0045612D01*
X0251586Y0045645D01*
X0251714Y0045673D01*
X0251843Y0045698D01*
X0251973Y0045719D01*
X0252103Y0045736D01*
X0252234Y0045749D01*
X0252365Y0045758D01*
X0252496Y0045763D01*
X0252628Y0045764D01*
X0252759Y0045761D01*
X0252891Y0045754D01*
X0253022Y0045743D01*
X0253152Y0045728D01*
X0253282Y0045709D01*
X0253412Y0045686D01*
X0253540Y0045660D01*
X0253668Y0045629D01*
X0253795Y0045594D01*
X0253921Y0045556D01*
X0254045Y0045514D01*
X0254169Y0045468D01*
X0254290Y0045418D01*
X0254410Y0045365D01*
X0254529Y0045308D01*
X0254646Y0045248D01*
X0254760Y0045184D01*
X0254873Y0045116D01*
X0254984Y0045045D01*
X0255093Y0044971D01*
X0255199Y0044894D01*
X0255303Y0044813D01*
X0255404Y0044730D01*
X0255503Y0044643D01*
X0255599Y0044553D01*
X0255692Y0044460D01*
X0255783Y0044365D01*
X0255870Y0044267D01*
X0255955Y0044166D01*
X0256036Y0044063D01*
X0256114Y0043957D01*
X0256189Y0043849D01*
X0256261Y0043739D01*
X0256329Y0043627D01*
X0256394Y0043513D01*
X0256455Y0043396D01*
X0256513Y0043278D01*
X0256567Y0043158D01*
X0256618Y0043037D01*
X0256665Y0042914D01*
X0256708Y0042790D01*
X0256747Y0042665D01*
X0256783Y0042538D01*
X0256814Y0042410D01*
X0256842Y0042282D01*
X0256866Y0042153D01*
X0256886Y0042023D01*
X0256902Y0041892D01*
X0256914Y0041761D01*
X0256922Y0041630D01*
X0256926Y0041499D01*
X0256926Y0041367D01*
X0256922Y0041236D01*
X0256914Y0041105D01*
X0256902Y0040974D01*
X0256886Y0040843D01*
X0256866Y0040713D01*
X0256842Y0040584D01*
X0256814Y0040456D01*
X0256783Y0040328D01*
X0256747Y0040201D01*
X0256708Y0040076D01*
X0256665Y0039952D01*
X0256618Y0039829D01*
X0256567Y0039708D01*
X0256513Y0039588D01*
X0256455Y0039470D01*
X0256394Y0039353D01*
X0256329Y0039239D01*
X0256261Y0039127D01*
X0256189Y0039017D01*
X0256114Y0038909D01*
X0256036Y0038803D01*
X0255955Y0038700D01*
X0255870Y0038599D01*
X0255783Y0038501D01*
X0255692Y0038406D01*
X0255599Y0038313D01*
X0255503Y0038223D01*
X0255404Y0038136D01*
X0255303Y0038053D01*
X0255199Y0037972D01*
X0255093Y0037895D01*
X0254984Y0037821D01*
X0254873Y0037750D01*
X0254761Y0037682D01*
X0254646Y0037618D01*
X0254529Y0037558D01*
X0254410Y0037501D01*
X0254290Y0037448D01*
X0254169Y0037398D01*
X0254045Y0037352D01*
X0253921Y0037310D01*
X0253795Y0037272D01*
X0253668Y0037237D01*
X0253540Y0037206D01*
X0253412Y0037180D01*
X0253282Y0037157D01*
X0253152Y0037138D01*
X0253022Y0037123D01*
X0252891Y0037112D01*
X0252759Y0037105D01*
X0252628Y0037102D01*
X0252496Y0037103D01*
X0252365Y0037108D01*
X0252234Y0037117D01*
X0252103Y0037130D01*
X0251973Y0037147D01*
X0251843Y0037168D01*
X0251714Y0037193D01*
X0251586Y0037221D01*
X0251458Y0037254D01*
X0251332Y0037290D01*
X0251207Y0037331D01*
X0251083Y0037375D01*
X0250960Y0037422D01*
X0250839Y0037474D01*
X0250720Y0037529D01*
X0250602Y0037588D01*
X0250487Y0037650D01*
X0250373Y0037716D01*
X0250261Y0037785D01*
X0250151Y0037857D01*
X0250044Y0037933D01*
X0249939Y0038012D01*
X0249836Y0038094D01*
X0249736Y0038179D01*
X0249639Y0038268D01*
X0249544Y0038359D01*
X0249452Y0038453D01*
X0249363Y0038550D01*
X0249277Y0038649D01*
X0249194Y0038751D01*
X0249114Y0038856D01*
X0249038Y0038962D01*
X0248965Y0039071D01*
X0248895Y0039183D01*
X0248828Y0039296D01*
X0248765Y0039411D01*
X0248705Y0039529D01*
X0248649Y0039647D01*
X0248597Y0039768D01*
X0248548Y0039890D01*
X0248503Y0040014D01*
X0248462Y0040138D01*
X0248425Y0040265D01*
X0248391Y0040392D01*
X0248361Y0040520D01*
X0248336Y0040649D01*
X0248314Y0040778D01*
X0248296Y0040908D01*
X0248282Y0041039D01*
X0248272Y0041170D01*
X0248266Y0041302D01*
X0248264Y0041433D01*
X0286907Y0075724D02*
X0286909Y0075817D01*
X0286915Y0075909D01*
X0286925Y0076001D01*
X0286939Y0076092D01*
X0286956Y0076183D01*
X0286978Y0076273D01*
X0287003Y0076362D01*
X0287032Y0076450D01*
X0287065Y0076536D01*
X0287102Y0076621D01*
X0287142Y0076705D01*
X0287186Y0076786D01*
X0287233Y0076866D01*
X0287283Y0076944D01*
X0287337Y0077019D01*
X0287394Y0077092D01*
X0287454Y0077162D01*
X0287517Y0077230D01*
X0287583Y0077295D01*
X0287651Y0077357D01*
X0287722Y0077417D01*
X0287796Y0077473D01*
X0287872Y0077526D01*
X0287950Y0077575D01*
X0288030Y0077622D01*
X0288112Y0077664D01*
X0288196Y0077704D01*
X0288281Y0077739D01*
X0288368Y0077771D01*
X0288456Y0077800D01*
X0288545Y0077824D01*
X0288635Y0077845D01*
X0288726Y0077861D01*
X0288818Y0077874D01*
X0288910Y0077883D01*
X0289003Y0077888D01*
X0289095Y0077889D01*
X0289188Y0077886D01*
X0289280Y0077879D01*
X0289372Y0077868D01*
X0289463Y0077853D01*
X0289554Y0077835D01*
X0289644Y0077812D01*
X0289732Y0077786D01*
X0289820Y0077756D01*
X0289906Y0077722D01*
X0289990Y0077685D01*
X0290073Y0077643D01*
X0290154Y0077599D01*
X0290234Y0077551D01*
X0290311Y0077500D01*
X0290385Y0077445D01*
X0290458Y0077387D01*
X0290528Y0077327D01*
X0290595Y0077263D01*
X0290659Y0077197D01*
X0290721Y0077127D01*
X0290779Y0077056D01*
X0290834Y0076982D01*
X0290886Y0076905D01*
X0290935Y0076826D01*
X0290981Y0076746D01*
X0291023Y0076663D01*
X0291061Y0076579D01*
X0291096Y0076493D01*
X0291127Y0076406D01*
X0291154Y0076318D01*
X0291177Y0076228D01*
X0291197Y0076138D01*
X0291213Y0076047D01*
X0291225Y0075955D01*
X0291233Y0075863D01*
X0291237Y0075770D01*
X0291237Y0075678D01*
X0291233Y0075585D01*
X0291225Y0075493D01*
X0291213Y0075401D01*
X0291197Y0075310D01*
X0291177Y0075220D01*
X0291154Y0075130D01*
X0291127Y0075042D01*
X0291096Y0074955D01*
X0291061Y0074869D01*
X0291023Y0074785D01*
X0290981Y0074702D01*
X0290935Y0074622D01*
X0290886Y0074543D01*
X0290834Y0074466D01*
X0290779Y0074392D01*
X0290721Y0074321D01*
X0290659Y0074251D01*
X0290595Y0074185D01*
X0290528Y0074121D01*
X0290458Y0074061D01*
X0290385Y0074003D01*
X0290311Y0073948D01*
X0290234Y0073897D01*
X0290155Y0073849D01*
X0290073Y0073805D01*
X0289990Y0073763D01*
X0289906Y0073726D01*
X0289820Y0073692D01*
X0289732Y0073662D01*
X0289644Y0073636D01*
X0289554Y0073613D01*
X0289463Y0073595D01*
X0289372Y0073580D01*
X0289280Y0073569D01*
X0289188Y0073562D01*
X0289095Y0073559D01*
X0289003Y0073560D01*
X0288910Y0073565D01*
X0288818Y0073574D01*
X0288726Y0073587D01*
X0288635Y0073603D01*
X0288545Y0073624D01*
X0288456Y0073648D01*
X0288368Y0073677D01*
X0288281Y0073709D01*
X0288196Y0073744D01*
X0288112Y0073784D01*
X0288030Y0073826D01*
X0287950Y0073873D01*
X0287872Y0073922D01*
X0287796Y0073975D01*
X0287722Y0074031D01*
X0287651Y0074091D01*
X0287583Y0074153D01*
X0287517Y0074218D01*
X0287454Y0074286D01*
X0287394Y0074356D01*
X0287337Y0074429D01*
X0287283Y0074504D01*
X0287233Y0074582D01*
X0287186Y0074662D01*
X0287142Y0074743D01*
X0287102Y0074827D01*
X0287065Y0074912D01*
X0287032Y0074998D01*
X0287003Y0075086D01*
X0286978Y0075175D01*
X0286956Y0075265D01*
X0286939Y0075356D01*
X0286925Y0075447D01*
X0286915Y0075539D01*
X0286909Y0075631D01*
X0286907Y0075724D01*
X0286907Y0093441D02*
X0286909Y0093534D01*
X0286915Y0093626D01*
X0286925Y0093718D01*
X0286939Y0093809D01*
X0286956Y0093900D01*
X0286978Y0093990D01*
X0287003Y0094079D01*
X0287032Y0094167D01*
X0287065Y0094253D01*
X0287102Y0094338D01*
X0287142Y0094422D01*
X0287186Y0094503D01*
X0287233Y0094583D01*
X0287283Y0094661D01*
X0287337Y0094736D01*
X0287394Y0094809D01*
X0287454Y0094879D01*
X0287517Y0094947D01*
X0287583Y0095012D01*
X0287651Y0095074D01*
X0287722Y0095134D01*
X0287796Y0095190D01*
X0287872Y0095243D01*
X0287950Y0095292D01*
X0288030Y0095339D01*
X0288112Y0095381D01*
X0288196Y0095421D01*
X0288281Y0095456D01*
X0288368Y0095488D01*
X0288456Y0095517D01*
X0288545Y0095541D01*
X0288635Y0095562D01*
X0288726Y0095578D01*
X0288818Y0095591D01*
X0288910Y0095600D01*
X0289003Y0095605D01*
X0289095Y0095606D01*
X0289188Y0095603D01*
X0289280Y0095596D01*
X0289372Y0095585D01*
X0289463Y0095570D01*
X0289554Y0095552D01*
X0289644Y0095529D01*
X0289732Y0095503D01*
X0289820Y0095473D01*
X0289906Y0095439D01*
X0289990Y0095402D01*
X0290073Y0095360D01*
X0290154Y0095316D01*
X0290234Y0095268D01*
X0290311Y0095217D01*
X0290385Y0095162D01*
X0290458Y0095104D01*
X0290528Y0095044D01*
X0290595Y0094980D01*
X0290659Y0094914D01*
X0290721Y0094844D01*
X0290779Y0094773D01*
X0290834Y0094699D01*
X0290886Y0094622D01*
X0290935Y0094543D01*
X0290981Y0094463D01*
X0291023Y0094380D01*
X0291061Y0094296D01*
X0291096Y0094210D01*
X0291127Y0094123D01*
X0291154Y0094035D01*
X0291177Y0093945D01*
X0291197Y0093855D01*
X0291213Y0093764D01*
X0291225Y0093672D01*
X0291233Y0093580D01*
X0291237Y0093487D01*
X0291237Y0093395D01*
X0291233Y0093302D01*
X0291225Y0093210D01*
X0291213Y0093118D01*
X0291197Y0093027D01*
X0291177Y0092937D01*
X0291154Y0092847D01*
X0291127Y0092759D01*
X0291096Y0092672D01*
X0291061Y0092586D01*
X0291023Y0092502D01*
X0290981Y0092419D01*
X0290935Y0092339D01*
X0290886Y0092260D01*
X0290834Y0092183D01*
X0290779Y0092109D01*
X0290721Y0092038D01*
X0290659Y0091968D01*
X0290595Y0091902D01*
X0290528Y0091838D01*
X0290458Y0091778D01*
X0290385Y0091720D01*
X0290311Y0091665D01*
X0290234Y0091614D01*
X0290155Y0091566D01*
X0290073Y0091522D01*
X0289990Y0091480D01*
X0289906Y0091443D01*
X0289820Y0091409D01*
X0289732Y0091379D01*
X0289644Y0091353D01*
X0289554Y0091330D01*
X0289463Y0091312D01*
X0289372Y0091297D01*
X0289280Y0091286D01*
X0289188Y0091279D01*
X0289095Y0091276D01*
X0289003Y0091277D01*
X0288910Y0091282D01*
X0288818Y0091291D01*
X0288726Y0091304D01*
X0288635Y0091320D01*
X0288545Y0091341D01*
X0288456Y0091365D01*
X0288368Y0091394D01*
X0288281Y0091426D01*
X0288196Y0091461D01*
X0288112Y0091501D01*
X0288030Y0091543D01*
X0287950Y0091590D01*
X0287872Y0091639D01*
X0287796Y0091692D01*
X0287722Y0091748D01*
X0287651Y0091808D01*
X0287583Y0091870D01*
X0287517Y0091935D01*
X0287454Y0092003D01*
X0287394Y0092073D01*
X0287337Y0092146D01*
X0287283Y0092221D01*
X0287233Y0092299D01*
X0287186Y0092379D01*
X0287142Y0092460D01*
X0287102Y0092544D01*
X0287065Y0092629D01*
X0287032Y0092715D01*
X0287003Y0092803D01*
X0286978Y0092892D01*
X0286956Y0092982D01*
X0286939Y0093073D01*
X0286925Y0093164D01*
X0286915Y0093256D01*
X0286909Y0093348D01*
X0286907Y0093441D01*
X0248264Y0127732D02*
X0248266Y0127863D01*
X0248272Y0127995D01*
X0248282Y0128126D01*
X0248296Y0128257D01*
X0248314Y0128387D01*
X0248336Y0128516D01*
X0248361Y0128645D01*
X0248391Y0128773D01*
X0248425Y0128900D01*
X0248462Y0129027D01*
X0248503Y0129151D01*
X0248548Y0129275D01*
X0248597Y0129397D01*
X0248649Y0129518D01*
X0248705Y0129636D01*
X0248765Y0129754D01*
X0248828Y0129869D01*
X0248895Y0129982D01*
X0248965Y0130094D01*
X0249038Y0130203D01*
X0249114Y0130309D01*
X0249194Y0130414D01*
X0249277Y0130516D01*
X0249363Y0130615D01*
X0249452Y0130712D01*
X0249544Y0130806D01*
X0249639Y0130897D01*
X0249736Y0130986D01*
X0249836Y0131071D01*
X0249939Y0131153D01*
X0250044Y0131232D01*
X0250151Y0131308D01*
X0250261Y0131380D01*
X0250373Y0131449D01*
X0250487Y0131515D01*
X0250602Y0131577D01*
X0250720Y0131636D01*
X0250839Y0131691D01*
X0250960Y0131743D01*
X0251083Y0131790D01*
X0251207Y0131834D01*
X0251332Y0131875D01*
X0251458Y0131911D01*
X0251586Y0131944D01*
X0251714Y0131972D01*
X0251843Y0131997D01*
X0251973Y0132018D01*
X0252103Y0132035D01*
X0252234Y0132048D01*
X0252365Y0132057D01*
X0252496Y0132062D01*
X0252628Y0132063D01*
X0252759Y0132060D01*
X0252891Y0132053D01*
X0253022Y0132042D01*
X0253152Y0132027D01*
X0253282Y0132008D01*
X0253412Y0131985D01*
X0253540Y0131959D01*
X0253668Y0131928D01*
X0253795Y0131893D01*
X0253921Y0131855D01*
X0254045Y0131813D01*
X0254169Y0131767D01*
X0254290Y0131717D01*
X0254410Y0131664D01*
X0254529Y0131607D01*
X0254646Y0131547D01*
X0254760Y0131483D01*
X0254873Y0131415D01*
X0254984Y0131344D01*
X0255093Y0131270D01*
X0255199Y0131193D01*
X0255303Y0131112D01*
X0255404Y0131029D01*
X0255503Y0130942D01*
X0255599Y0130852D01*
X0255692Y0130759D01*
X0255783Y0130664D01*
X0255870Y0130566D01*
X0255955Y0130465D01*
X0256036Y0130362D01*
X0256114Y0130256D01*
X0256189Y0130148D01*
X0256261Y0130038D01*
X0256329Y0129926D01*
X0256394Y0129812D01*
X0256455Y0129695D01*
X0256513Y0129577D01*
X0256567Y0129457D01*
X0256618Y0129336D01*
X0256665Y0129213D01*
X0256708Y0129089D01*
X0256747Y0128964D01*
X0256783Y0128837D01*
X0256814Y0128709D01*
X0256842Y0128581D01*
X0256866Y0128452D01*
X0256886Y0128322D01*
X0256902Y0128191D01*
X0256914Y0128060D01*
X0256922Y0127929D01*
X0256926Y0127798D01*
X0256926Y0127666D01*
X0256922Y0127535D01*
X0256914Y0127404D01*
X0256902Y0127273D01*
X0256886Y0127142D01*
X0256866Y0127012D01*
X0256842Y0126883D01*
X0256814Y0126755D01*
X0256783Y0126627D01*
X0256747Y0126500D01*
X0256708Y0126375D01*
X0256665Y0126251D01*
X0256618Y0126128D01*
X0256567Y0126007D01*
X0256513Y0125887D01*
X0256455Y0125769D01*
X0256394Y0125652D01*
X0256329Y0125538D01*
X0256261Y0125426D01*
X0256189Y0125316D01*
X0256114Y0125208D01*
X0256036Y0125102D01*
X0255955Y0124999D01*
X0255870Y0124898D01*
X0255783Y0124800D01*
X0255692Y0124705D01*
X0255599Y0124612D01*
X0255503Y0124522D01*
X0255404Y0124435D01*
X0255303Y0124352D01*
X0255199Y0124271D01*
X0255093Y0124194D01*
X0254984Y0124120D01*
X0254873Y0124049D01*
X0254761Y0123981D01*
X0254646Y0123917D01*
X0254529Y0123857D01*
X0254410Y0123800D01*
X0254290Y0123747D01*
X0254169Y0123697D01*
X0254045Y0123651D01*
X0253921Y0123609D01*
X0253795Y0123571D01*
X0253668Y0123536D01*
X0253540Y0123505D01*
X0253412Y0123479D01*
X0253282Y0123456D01*
X0253152Y0123437D01*
X0253022Y0123422D01*
X0252891Y0123411D01*
X0252759Y0123404D01*
X0252628Y0123401D01*
X0252496Y0123402D01*
X0252365Y0123407D01*
X0252234Y0123416D01*
X0252103Y0123429D01*
X0251973Y0123446D01*
X0251843Y0123467D01*
X0251714Y0123492D01*
X0251586Y0123520D01*
X0251458Y0123553D01*
X0251332Y0123589D01*
X0251207Y0123630D01*
X0251083Y0123674D01*
X0250960Y0123721D01*
X0250839Y0123773D01*
X0250720Y0123828D01*
X0250602Y0123887D01*
X0250487Y0123949D01*
X0250373Y0124015D01*
X0250261Y0124084D01*
X0250151Y0124156D01*
X0250044Y0124232D01*
X0249939Y0124311D01*
X0249836Y0124393D01*
X0249736Y0124478D01*
X0249639Y0124567D01*
X0249544Y0124658D01*
X0249452Y0124752D01*
X0249363Y0124849D01*
X0249277Y0124948D01*
X0249194Y0125050D01*
X0249114Y0125155D01*
X0249038Y0125261D01*
X0248965Y0125370D01*
X0248895Y0125482D01*
X0248828Y0125595D01*
X0248765Y0125710D01*
X0248705Y0125828D01*
X0248649Y0125946D01*
X0248597Y0126067D01*
X0248548Y0126189D01*
X0248503Y0126313D01*
X0248462Y0126437D01*
X0248425Y0126564D01*
X0248391Y0126691D01*
X0248361Y0126819D01*
X0248336Y0126948D01*
X0248314Y0127077D01*
X0248296Y0127207D01*
X0248282Y0127338D01*
X0248272Y0127469D01*
X0248266Y0127601D01*
X0248264Y0127732D01*
X0120764Y0127732D02*
X0120766Y0127863D01*
X0120772Y0127995D01*
X0120782Y0128126D01*
X0120796Y0128257D01*
X0120814Y0128387D01*
X0120836Y0128516D01*
X0120861Y0128645D01*
X0120891Y0128773D01*
X0120925Y0128900D01*
X0120962Y0129027D01*
X0121003Y0129151D01*
X0121048Y0129275D01*
X0121097Y0129397D01*
X0121149Y0129518D01*
X0121205Y0129636D01*
X0121265Y0129754D01*
X0121328Y0129869D01*
X0121395Y0129982D01*
X0121465Y0130094D01*
X0121538Y0130203D01*
X0121614Y0130309D01*
X0121694Y0130414D01*
X0121777Y0130516D01*
X0121863Y0130615D01*
X0121952Y0130712D01*
X0122044Y0130806D01*
X0122139Y0130897D01*
X0122236Y0130986D01*
X0122336Y0131071D01*
X0122439Y0131153D01*
X0122544Y0131232D01*
X0122651Y0131308D01*
X0122761Y0131380D01*
X0122873Y0131449D01*
X0122987Y0131515D01*
X0123102Y0131577D01*
X0123220Y0131636D01*
X0123339Y0131691D01*
X0123460Y0131743D01*
X0123583Y0131790D01*
X0123707Y0131834D01*
X0123832Y0131875D01*
X0123958Y0131911D01*
X0124086Y0131944D01*
X0124214Y0131972D01*
X0124343Y0131997D01*
X0124473Y0132018D01*
X0124603Y0132035D01*
X0124734Y0132048D01*
X0124865Y0132057D01*
X0124996Y0132062D01*
X0125128Y0132063D01*
X0125259Y0132060D01*
X0125391Y0132053D01*
X0125522Y0132042D01*
X0125652Y0132027D01*
X0125782Y0132008D01*
X0125912Y0131985D01*
X0126040Y0131959D01*
X0126168Y0131928D01*
X0126295Y0131893D01*
X0126421Y0131855D01*
X0126545Y0131813D01*
X0126669Y0131767D01*
X0126790Y0131717D01*
X0126910Y0131664D01*
X0127029Y0131607D01*
X0127146Y0131547D01*
X0127260Y0131483D01*
X0127373Y0131415D01*
X0127484Y0131344D01*
X0127593Y0131270D01*
X0127699Y0131193D01*
X0127803Y0131112D01*
X0127904Y0131029D01*
X0128003Y0130942D01*
X0128099Y0130852D01*
X0128192Y0130759D01*
X0128283Y0130664D01*
X0128370Y0130566D01*
X0128455Y0130465D01*
X0128536Y0130362D01*
X0128614Y0130256D01*
X0128689Y0130148D01*
X0128761Y0130038D01*
X0128829Y0129926D01*
X0128894Y0129812D01*
X0128955Y0129695D01*
X0129013Y0129577D01*
X0129067Y0129457D01*
X0129118Y0129336D01*
X0129165Y0129213D01*
X0129208Y0129089D01*
X0129247Y0128964D01*
X0129283Y0128837D01*
X0129314Y0128709D01*
X0129342Y0128581D01*
X0129366Y0128452D01*
X0129386Y0128322D01*
X0129402Y0128191D01*
X0129414Y0128060D01*
X0129422Y0127929D01*
X0129426Y0127798D01*
X0129426Y0127666D01*
X0129422Y0127535D01*
X0129414Y0127404D01*
X0129402Y0127273D01*
X0129386Y0127142D01*
X0129366Y0127012D01*
X0129342Y0126883D01*
X0129314Y0126755D01*
X0129283Y0126627D01*
X0129247Y0126500D01*
X0129208Y0126375D01*
X0129165Y0126251D01*
X0129118Y0126128D01*
X0129067Y0126007D01*
X0129013Y0125887D01*
X0128955Y0125769D01*
X0128894Y0125652D01*
X0128829Y0125538D01*
X0128761Y0125426D01*
X0128689Y0125316D01*
X0128614Y0125208D01*
X0128536Y0125102D01*
X0128455Y0124999D01*
X0128370Y0124898D01*
X0128283Y0124800D01*
X0128192Y0124705D01*
X0128099Y0124612D01*
X0128003Y0124522D01*
X0127904Y0124435D01*
X0127803Y0124352D01*
X0127699Y0124271D01*
X0127593Y0124194D01*
X0127484Y0124120D01*
X0127373Y0124049D01*
X0127261Y0123981D01*
X0127146Y0123917D01*
X0127029Y0123857D01*
X0126910Y0123800D01*
X0126790Y0123747D01*
X0126669Y0123697D01*
X0126545Y0123651D01*
X0126421Y0123609D01*
X0126295Y0123571D01*
X0126168Y0123536D01*
X0126040Y0123505D01*
X0125912Y0123479D01*
X0125782Y0123456D01*
X0125652Y0123437D01*
X0125522Y0123422D01*
X0125391Y0123411D01*
X0125259Y0123404D01*
X0125128Y0123401D01*
X0124996Y0123402D01*
X0124865Y0123407D01*
X0124734Y0123416D01*
X0124603Y0123429D01*
X0124473Y0123446D01*
X0124343Y0123467D01*
X0124214Y0123492D01*
X0124086Y0123520D01*
X0123958Y0123553D01*
X0123832Y0123589D01*
X0123707Y0123630D01*
X0123583Y0123674D01*
X0123460Y0123721D01*
X0123339Y0123773D01*
X0123220Y0123828D01*
X0123102Y0123887D01*
X0122987Y0123949D01*
X0122873Y0124015D01*
X0122761Y0124084D01*
X0122651Y0124156D01*
X0122544Y0124232D01*
X0122439Y0124311D01*
X0122336Y0124393D01*
X0122236Y0124478D01*
X0122139Y0124567D01*
X0122044Y0124658D01*
X0121952Y0124752D01*
X0121863Y0124849D01*
X0121777Y0124948D01*
X0121694Y0125050D01*
X0121614Y0125155D01*
X0121538Y0125261D01*
X0121465Y0125370D01*
X0121395Y0125482D01*
X0121328Y0125595D01*
X0121265Y0125710D01*
X0121205Y0125828D01*
X0121149Y0125946D01*
X0121097Y0126067D01*
X0121048Y0126189D01*
X0121003Y0126313D01*
X0120962Y0126437D01*
X0120925Y0126564D01*
X0120891Y0126691D01*
X0120861Y0126819D01*
X0120836Y0126948D01*
X0120814Y0127077D01*
X0120796Y0127207D01*
X0120782Y0127338D01*
X0120772Y0127469D01*
X0120766Y0127601D01*
X0120764Y0127732D01*
D11*
X0153745Y0123933D03*
X0153745Y0118933D03*
X0153745Y0113933D03*
X0153745Y0108933D03*
X0153745Y0103933D03*
X0153745Y0098933D03*
X0153745Y0093933D03*
X0153745Y0088933D03*
X0153745Y0083933D03*
X0153745Y0078933D03*
X0191445Y0078933D03*
X0191445Y0083933D03*
X0191445Y0088933D03*
X0191445Y0093933D03*
X0191445Y0098933D03*
X0191445Y0103933D03*
X0191445Y0108933D03*
X0191445Y0113933D03*
X0191445Y0118933D03*
X0191445Y0123933D03*
D12*
X0225548Y0076433D03*
X0269642Y0076433D03*
D13*
X0161345Y0065752D03*
X0156345Y0065752D03*
X0151345Y0065752D03*
X0151345Y0047115D03*
X0156345Y0047115D03*
X0161345Y0047115D03*
D14*
X0165664Y0056433D03*
X0147027Y0056433D03*
D15*
X0203845Y0103933D03*
X0213845Y0103933D03*
X0223845Y0103933D03*
X0233845Y0103933D03*
X0233845Y0133933D03*
X0223845Y0133933D03*
X0213845Y0133933D03*
X0203845Y0133933D03*
D16*
X0279623Y0098362D03*
X0279623Y0088520D03*
X0279623Y0080646D03*
X0279623Y0070803D03*
D17*
X0289072Y0061551D03*
X0289072Y0107614D03*
D18*
X0262477Y0108933D03*
X0262477Y0105193D03*
X0262477Y0112673D03*
D19*
X0272713Y0112673D03*
X0272713Y0105193D03*
D20*
X0217595Y0067000D03*
X0212595Y0067000D03*
X0207595Y0067000D03*
X0202595Y0067000D03*
X0202595Y0045866D03*
X0207595Y0045866D03*
X0212595Y0045866D03*
X0217595Y0045866D03*
D21*
X0192595Y0046197D03*
X0187595Y0046197D03*
X0182595Y0046197D03*
X0177595Y0046197D03*
X0177595Y0066669D03*
X0182595Y0066669D03*
X0187595Y0066669D03*
X0192595Y0066669D03*
D22*
X0267300Y0126433D03*
X0292890Y0126433D03*
D23*
X0145595Y0128933D02*
X0139595Y0128933D01*
X0139595Y0118933D02*
X0145595Y0118933D01*
D24*
X0203845Y0093933D03*
X0213845Y0093933D03*
X0213845Y0083933D03*
X0203845Y0083933D03*
D25*
X0279780Y0046886D03*
X0290410Y0046886D03*
X0290410Y0040980D03*
X0279780Y0040980D03*
D26*
X0134032Y0063933D03*
X0126158Y0063933D03*
D27*
X0227083Y0046433D03*
X0238107Y0046433D03*
D28*
X0133835Y0056433D03*
X0126355Y0056433D03*
D29*
X0120589Y0052633D02*
X0119193Y0053212D01*
X0118124Y0054281D01*
X0117545Y0055677D01*
X0117545Y0057189D01*
X0118124Y0058586D01*
X0119193Y0059655D01*
X0120589Y0060233D01*
X0121333Y0060233D01*
X0121592Y0060859D01*
X0122255Y0061522D01*
X0122245Y0061535D01*
X0121918Y0062177D01*
X0121696Y0062862D01*
X0121583Y0063573D01*
X0121583Y0063933D01*
X0126158Y0063933D01*
X0126158Y0063933D01*
X0121583Y0063933D01*
X0121583Y0064293D01*
X0121696Y0065004D01*
X0121918Y0065689D01*
X0122245Y0066331D01*
X0122669Y0066913D01*
X0123178Y0067423D01*
X0123760Y0067846D01*
X0124402Y0068173D01*
X0125087Y0068395D01*
X0125798Y0068508D01*
X0126158Y0068508D01*
X0126158Y0063933D01*
X0126345Y0063933D01*
X0131970Y0069558D01*
X0138845Y0069558D01*
X0138845Y0067683D01*
X0139620Y0067406D02*
X0137877Y0067406D01*
X0138419Y0066864D02*
X0136963Y0068320D01*
X0135061Y0069108D01*
X0133003Y0069108D01*
X0131101Y0068320D01*
X0129667Y0066886D01*
X0129648Y0066913D01*
X0129138Y0067423D01*
X0128556Y0067846D01*
X0127914Y0068173D01*
X0127229Y0068395D01*
X0126518Y0068508D01*
X0126158Y0068508D01*
X0126158Y0063933D01*
X0126158Y0063933D01*
X0128857Y0063933D01*
X0128857Y0063933D01*
X0126158Y0063933D01*
X0126158Y0063933D01*
X0126158Y0065408D02*
X0126158Y0065408D01*
X0126158Y0067406D02*
X0126158Y0067406D01*
X0123162Y0067406D02*
X0116898Y0067406D01*
X0116898Y0069405D02*
X0139620Y0069405D01*
X0139620Y0067299D02*
X0138644Y0066323D01*
X0138419Y0066864D01*
X0139620Y0067299D02*
X0139620Y0077274D01*
X0139020Y0078723D01*
X0139020Y0080394D01*
X0139660Y0081937D01*
X0140841Y0083119D01*
X0142385Y0083758D01*
X0143995Y0083758D01*
X0143995Y0096024D01*
X0143395Y0097473D01*
X0143395Y0099144D01*
X0144029Y0100673D01*
X0142726Y0100133D01*
X0142413Y0100133D01*
X0140145Y0097865D01*
X0140145Y0097552D01*
X0139567Y0096156D01*
X0138498Y0095087D01*
X0137101Y0094508D01*
X0135589Y0094508D01*
X0134193Y0095087D01*
X0133124Y0096156D01*
X0132545Y0097552D01*
X0132545Y0099064D01*
X0133124Y0100461D01*
X0134193Y0101530D01*
X0135589Y0102108D01*
X0135902Y0102108D01*
X0138170Y0104376D01*
X0138170Y0104689D01*
X0138749Y0106086D01*
X0139818Y0107155D01*
X0140046Y0107249D01*
X0139595Y0108336D01*
X0139595Y0113333D01*
X0138481Y0113333D01*
X0136423Y0114186D01*
X0134848Y0115761D01*
X0133995Y0117819D01*
X0133995Y0120047D01*
X0134848Y0122105D01*
X0136423Y0123681D01*
X0137033Y0123933D01*
X0136423Y0124186D01*
X0135592Y0125016D01*
X0135199Y0123547D01*
X0133771Y0121075D01*
X0131753Y0119056D01*
X0129280Y0117629D01*
X0126523Y0116890D01*
X0123668Y0116890D01*
X0120910Y0117629D01*
X0118438Y0119056D01*
X0116898Y0120596D01*
X0116898Y0048570D01*
X0118438Y0050109D01*
X0120910Y0051537D01*
X0121819Y0051780D01*
X0121592Y0052008D01*
X0121333Y0052633D01*
X0120589Y0052633D01*
X0120705Y0051418D02*
X0116898Y0051418D01*
X0116898Y0049420D02*
X0117748Y0049420D01*
X0116898Y0053417D02*
X0118987Y0053417D01*
X0117654Y0055415D02*
X0116898Y0055415D01*
X0116898Y0057414D02*
X0117638Y0057414D01*
X0116898Y0059412D02*
X0118950Y0059412D01*
X0116898Y0061411D02*
X0122144Y0061411D01*
X0121609Y0063409D02*
X0116898Y0063409D01*
X0116898Y0065408D02*
X0121827Y0065408D01*
X0129155Y0067406D02*
X0130187Y0067406D01*
X0133845Y0063933D02*
X0134032Y0063933D01*
X0133845Y0063933D02*
X0133845Y0056433D01*
X0133835Y0056433D01*
X0134470Y0057058D01*
X0143220Y0065808D01*
X0143220Y0079558D01*
X0139020Y0079397D02*
X0116898Y0079397D01*
X0116898Y0077399D02*
X0139568Y0077399D01*
X0139620Y0075400D02*
X0116898Y0075400D01*
X0116898Y0073402D02*
X0139620Y0073402D01*
X0139620Y0071403D02*
X0116898Y0071403D01*
X0116898Y0081396D02*
X0139435Y0081396D01*
X0141507Y0083394D02*
X0116898Y0083394D01*
X0116898Y0085393D02*
X0143995Y0085393D01*
X0143995Y0087391D02*
X0116898Y0087391D01*
X0116898Y0089390D02*
X0143995Y0089390D01*
X0143995Y0091388D02*
X0116898Y0091388D01*
X0116898Y0093387D02*
X0143995Y0093387D01*
X0143995Y0095385D02*
X0138797Y0095385D01*
X0140075Y0097384D02*
X0143432Y0097384D01*
X0147595Y0098308D02*
X0147595Y0077683D01*
X0146970Y0077058D01*
X0146970Y0056433D01*
X0147027Y0056433D01*
X0161345Y0052455D02*
X0161345Y0052455D01*
X0161345Y0047115D01*
X0161345Y0047115D01*
X0161345Y0052455D01*
X0161345Y0051418D02*
X0161345Y0051418D01*
X0161345Y0049420D02*
X0161345Y0049420D01*
X0161345Y0047683D02*
X0161345Y0047115D01*
X0164723Y0047115D01*
X0164723Y0052299D01*
X0164681Y0052455D01*
X0171102Y0052455D01*
X0172058Y0052851D01*
X0172789Y0053582D01*
X0173185Y0054538D01*
X0173185Y0058328D01*
X0172789Y0059284D01*
X0172058Y0060015D01*
X0171220Y0060362D01*
X0171220Y0070358D01*
X0172806Y0070358D01*
X0173814Y0070776D01*
X0173814Y0061821D01*
X0174210Y0060866D01*
X0174941Y0060134D01*
X0175897Y0059739D01*
X0179293Y0059739D01*
X0180249Y0060134D01*
X0180609Y0060494D01*
X0180642Y0060475D01*
X0181151Y0060339D01*
X0182595Y0060339D01*
X0182595Y0066669D01*
X0182595Y0066669D01*
X0182595Y0060339D01*
X0184040Y0060339D01*
X0184548Y0060475D01*
X0184582Y0060494D01*
X0184941Y0060134D01*
X0185897Y0059739D01*
X0187566Y0059739D01*
X0187545Y0059689D01*
X0187545Y0058177D01*
X0188124Y0056781D01*
X0188345Y0056559D01*
X0188345Y0055836D01*
X0188802Y0054734D01*
X0189646Y0053890D01*
X0190045Y0053724D01*
X0190045Y0053177D01*
X0190423Y0052265D01*
X0190186Y0052128D01*
X0190095Y0052037D01*
X0190004Y0052128D01*
X0189548Y0052391D01*
X0189040Y0052528D01*
X0187595Y0052528D01*
X0186151Y0052528D01*
X0185642Y0052391D01*
X0185186Y0052128D01*
X0185095Y0052037D01*
X0185004Y0052128D01*
X0184548Y0052391D01*
X0184040Y0052528D01*
X0182595Y0052528D01*
X0181151Y0052528D01*
X0180642Y0052391D01*
X0180609Y0052372D01*
X0180249Y0052732D01*
X0179293Y0053128D01*
X0175897Y0053128D01*
X0174941Y0052732D01*
X0174210Y0052000D01*
X0173814Y0051045D01*
X0173814Y0041349D01*
X0174210Y0040393D01*
X0174941Y0039662D01*
X0175897Y0039266D01*
X0179293Y0039266D01*
X0180249Y0039662D01*
X0180609Y0040022D01*
X0180642Y0040002D01*
X0181151Y0039866D01*
X0182595Y0039866D01*
X0182595Y0046197D01*
X0182595Y0052528D01*
X0182595Y0046197D01*
X0182595Y0046197D01*
X0182595Y0060183D01*
X0181970Y0060183D01*
X0173220Y0051433D01*
X0173220Y0047683D01*
X0168220Y0047683D01*
X0161345Y0047683D01*
X0161345Y0047421D02*
X0161345Y0047421D01*
X0161345Y0047115D02*
X0161345Y0047114D01*
X0161345Y0047114D01*
X0161345Y0040193D01*
X0159704Y0040193D01*
X0159464Y0040258D01*
X0159345Y0040138D01*
X0159345Y0037086D01*
X0159023Y0036308D01*
X0187720Y0036308D01*
X0187720Y0036559D01*
X0187499Y0036781D01*
X0186920Y0038177D01*
X0186920Y0039689D01*
X0186994Y0039866D01*
X0186151Y0039866D01*
X0185642Y0040002D01*
X0185186Y0040266D01*
X0185095Y0040357D01*
X0185004Y0040266D01*
X0184548Y0040002D01*
X0184040Y0039866D01*
X0182595Y0039866D01*
X0182595Y0046197D01*
X0182595Y0046433D01*
X0187595Y0046433D01*
X0187595Y0046197D01*
X0187595Y0052528D01*
X0187595Y0046197D01*
X0187595Y0046197D01*
X0187595Y0046197D01*
X0182595Y0046197D01*
X0182595Y0046197D01*
X0182595Y0046197D01*
X0185776Y0046197D01*
X0187595Y0046197D01*
X0188220Y0046433D01*
X0192595Y0046433D01*
X0192595Y0046197D01*
X0192595Y0050338D01*
X0192595Y0050338D01*
X0192595Y0046197D01*
X0192595Y0046197D01*
X0192595Y0046197D01*
X0187595Y0046197D01*
X0187595Y0046197D01*
X0189414Y0046197D01*
X0192595Y0046197D01*
X0195776Y0046197D01*
X0195776Y0047759D01*
X0198695Y0044840D01*
X0198695Y0041349D01*
X0198788Y0041125D01*
X0198124Y0040461D01*
X0197545Y0039064D01*
X0197545Y0037552D01*
X0198124Y0036156D01*
X0198345Y0035934D01*
X0198345Y0033433D01*
X0193720Y0033433D01*
X0193720Y0036559D01*
X0193942Y0036781D01*
X0194520Y0038177D01*
X0194520Y0039689D01*
X0194406Y0039964D01*
X0194548Y0040002D01*
X0195004Y0040266D01*
X0195377Y0040638D01*
X0195640Y0041094D01*
X0195776Y0041603D01*
X0195776Y0046197D01*
X0192595Y0046197D01*
X0192595Y0046197D01*
X0192595Y0047421D02*
X0192595Y0047421D01*
X0195776Y0047421D02*
X0196114Y0047421D01*
X0195776Y0045423D02*
X0198113Y0045423D01*
X0198695Y0043424D02*
X0195776Y0043424D01*
X0195729Y0041426D02*
X0198695Y0041426D01*
X0197696Y0039427D02*
X0194520Y0039427D01*
X0194210Y0037429D02*
X0197596Y0037429D01*
X0198345Y0035430D02*
X0193720Y0035430D01*
X0187230Y0037429D02*
X0159345Y0037429D01*
X0159345Y0039427D02*
X0175508Y0039427D01*
X0173814Y0041426D02*
X0164588Y0041426D01*
X0164587Y0041421D02*
X0164723Y0041930D01*
X0164723Y0047114D01*
X0161345Y0047114D01*
X0161345Y0040193D01*
X0162986Y0040193D01*
X0163495Y0040330D01*
X0163951Y0040593D01*
X0164323Y0040965D01*
X0164587Y0041421D01*
X0161345Y0041426D02*
X0161345Y0041426D01*
X0161345Y0043424D02*
X0161345Y0043424D01*
X0161345Y0045423D02*
X0161345Y0045423D01*
X0164723Y0045423D02*
X0173814Y0045423D01*
X0173814Y0047421D02*
X0164723Y0047421D01*
X0164723Y0049420D02*
X0173814Y0049420D01*
X0173969Y0051418D02*
X0164723Y0051418D01*
X0172623Y0053417D02*
X0190045Y0053417D01*
X0188520Y0055415D02*
X0173185Y0055415D01*
X0173185Y0057414D02*
X0187861Y0057414D01*
X0187545Y0059412D02*
X0172661Y0059412D01*
X0173984Y0061411D02*
X0171220Y0061411D01*
X0171220Y0063409D02*
X0173814Y0063409D01*
X0173814Y0065408D02*
X0171220Y0065408D01*
X0171220Y0067406D02*
X0173814Y0067406D01*
X0173814Y0069405D02*
X0171220Y0069405D01*
X0177595Y0066669D02*
X0177595Y0074558D01*
X0181496Y0073000D02*
X0181795Y0073723D01*
X0181795Y0075394D01*
X0181156Y0076937D01*
X0180097Y0077996D01*
X0181156Y0079054D01*
X0181795Y0080598D01*
X0181795Y0082269D01*
X0181156Y0083812D01*
X0179974Y0084994D01*
X0178431Y0085633D01*
X0176760Y0085633D01*
X0175216Y0084994D01*
X0174035Y0083812D01*
X0173435Y0082364D01*
X0171220Y0080149D01*
X0171220Y0085933D01*
X0182602Y0085933D01*
X0182720Y0085815D01*
X0182720Y0083336D01*
X0183177Y0082234D01*
X0184021Y0081390D01*
X0185123Y0080933D01*
X0186595Y0080933D01*
X0186595Y0078426D01*
X0185896Y0077726D01*
X0185052Y0076882D01*
X0184595Y0075780D01*
X0184595Y0072858D01*
X0184582Y0072844D01*
X0184548Y0072864D01*
X0184040Y0073000D01*
X0182595Y0073000D01*
X0181496Y0073000D01*
X0181662Y0073402D02*
X0184595Y0073402D01*
X0184595Y0075400D02*
X0181792Y0075400D01*
X0182595Y0073000D02*
X0182595Y0066669D01*
X0181970Y0067058D01*
X0181970Y0085183D01*
X0182720Y0085393D02*
X0179010Y0085393D01*
X0176180Y0085393D02*
X0171220Y0085393D01*
X0171220Y0083394D02*
X0173861Y0083394D01*
X0172467Y0081396D02*
X0171220Y0081396D01*
X0173220Y0077058D02*
X0177595Y0081433D01*
X0181795Y0081396D02*
X0184015Y0081396D01*
X0182720Y0083394D02*
X0181329Y0083394D01*
X0181298Y0079397D02*
X0186595Y0079397D01*
X0185568Y0077399D02*
X0180694Y0077399D01*
X0173220Y0077058D02*
X0173220Y0075808D01*
X0171970Y0074558D01*
X0182595Y0073000D02*
X0182595Y0066669D01*
X0182595Y0060183D01*
X0182595Y0061411D02*
X0182595Y0061411D01*
X0182595Y0063409D02*
X0182595Y0063409D01*
X0182595Y0065408D02*
X0182595Y0065408D01*
X0182595Y0066669D02*
X0182595Y0066669D01*
X0182595Y0067406D02*
X0182595Y0067406D01*
X0182595Y0069405D02*
X0182595Y0069405D01*
X0182595Y0071403D02*
X0182595Y0071403D01*
X0201970Y0077683D02*
X0218845Y0077683D01*
X0218845Y0075183D01*
X0219470Y0074558D01*
X0219470Y0068933D01*
X0217595Y0067058D01*
X0217595Y0067000D01*
X0222595Y0064558D02*
X0222595Y0046433D01*
X0227083Y0046433D01*
X0222595Y0046433D02*
X0217595Y0046433D01*
X0217595Y0045866D01*
X0212595Y0045866D02*
X0212595Y0045866D01*
X0212595Y0053308D01*
X0215720Y0053308D01*
X0215778Y0052466D02*
X0214822Y0052070D01*
X0214521Y0051769D01*
X0214158Y0051866D01*
X0212595Y0051866D01*
X0211032Y0051866D01*
X0210669Y0051769D01*
X0210368Y0052070D01*
X0209412Y0052466D01*
X0208095Y0052466D01*
X0208095Y0060400D01*
X0209412Y0060400D01*
X0210368Y0060796D01*
X0210669Y0061097D01*
X0211032Y0061000D01*
X0212595Y0061000D01*
X0212595Y0067000D01*
X0212595Y0053308D01*
X0212595Y0051866D02*
X0212595Y0045866D01*
X0212595Y0051866D01*
X0212595Y0051418D02*
X0212595Y0051418D01*
X0212595Y0049420D02*
X0212595Y0049420D01*
X0212595Y0047421D02*
X0212595Y0047421D01*
X0215778Y0052466D02*
X0218995Y0052466D01*
X0218995Y0060400D01*
X0215778Y0060400D01*
X0214822Y0060796D01*
X0214521Y0061097D01*
X0214158Y0061000D01*
X0212595Y0061000D01*
X0212595Y0067000D01*
X0212595Y0073000D01*
X0211032Y0073000D01*
X0210669Y0072903D01*
X0210368Y0073204D01*
X0209412Y0073600D01*
X0205778Y0073600D01*
X0205095Y0073317D01*
X0204412Y0073600D01*
X0203088Y0073600D01*
X0204254Y0074083D01*
X0215270Y0074083D01*
X0215270Y0073723D01*
X0215388Y0073438D01*
X0214822Y0073204D01*
X0214521Y0072903D01*
X0214158Y0073000D01*
X0212595Y0073000D01*
X0212595Y0067000D01*
X0212595Y0067000D01*
X0212595Y0067000D01*
X0212595Y0067406D02*
X0212595Y0067406D01*
X0212595Y0069405D02*
X0212595Y0069405D01*
X0212595Y0071403D02*
X0212595Y0071403D01*
X0209891Y0073402D02*
X0215300Y0073402D01*
X0205300Y0073402D02*
X0204891Y0073402D01*
X0212595Y0065408D02*
X0212595Y0065408D01*
X0212595Y0063409D02*
X0212595Y0063409D01*
X0212595Y0061411D02*
X0212595Y0061411D01*
X0208095Y0059412D02*
X0218995Y0059412D01*
X0218995Y0057414D02*
X0208095Y0057414D01*
X0208095Y0055415D02*
X0218995Y0055415D01*
X0218995Y0053417D02*
X0208095Y0053417D01*
X0192595Y0049420D02*
X0192595Y0049420D01*
X0187595Y0049420D02*
X0187595Y0049420D01*
X0187595Y0051418D02*
X0187595Y0051418D01*
X0182595Y0051418D02*
X0182595Y0051418D01*
X0182595Y0049420D02*
X0182595Y0049420D01*
X0182595Y0047421D02*
X0182595Y0047421D01*
X0182595Y0045423D02*
X0182595Y0045423D01*
X0182595Y0043424D02*
X0182595Y0043424D01*
X0182595Y0041426D02*
X0182595Y0041426D01*
X0179682Y0039427D02*
X0186920Y0039427D01*
X0173814Y0043424D02*
X0164723Y0043424D01*
X0187595Y0047421D02*
X0187595Y0047421D01*
X0226195Y0052576D02*
X0229420Y0052576D01*
X0229420Y0054064D01*
X0229999Y0055461D01*
X0231068Y0056530D01*
X0232464Y0057108D01*
X0233976Y0057108D01*
X0235373Y0056530D01*
X0236442Y0055461D01*
X0237020Y0054064D01*
X0237020Y0052552D01*
X0236782Y0051976D01*
X0237532Y0051976D01*
X0237532Y0047008D01*
X0238682Y0047008D01*
X0243257Y0047008D01*
X0243257Y0050240D01*
X0243120Y0050748D01*
X0242857Y0051204D01*
X0242485Y0051577D01*
X0242029Y0051840D01*
X0241520Y0051976D01*
X0238682Y0051976D01*
X0238682Y0047008D01*
X0238682Y0045858D01*
X0242630Y0045858D01*
X0243919Y0048091D01*
X0245938Y0050109D01*
X0248410Y0051537D01*
X0251168Y0052276D01*
X0254023Y0052276D01*
X0256780Y0051537D01*
X0259253Y0050109D01*
X0259620Y0049742D01*
X0259620Y0056910D01*
X0259567Y0056781D01*
X0258498Y0055712D01*
X0257101Y0055133D01*
X0255589Y0055133D01*
X0254193Y0055712D01*
X0253124Y0056781D01*
X0252545Y0058177D01*
X0252545Y0058483D01*
X0251693Y0058837D01*
X0251471Y0059058D01*
X0239498Y0059058D01*
X0238396Y0059515D01*
X0237552Y0060359D01*
X0230677Y0067234D01*
X0230426Y0067839D01*
X0230114Y0067086D01*
X0229383Y0066355D01*
X0228427Y0065959D01*
X0226561Y0065959D01*
X0226795Y0065394D01*
X0226795Y0063723D01*
X0226195Y0062274D01*
X0226195Y0052576D01*
X0226195Y0053417D02*
X0229420Y0053417D01*
X0229980Y0055415D02*
X0226195Y0055415D01*
X0226195Y0057414D02*
X0252861Y0057414D01*
X0254908Y0055415D02*
X0236460Y0055415D01*
X0237020Y0053417D02*
X0259620Y0053417D01*
X0259620Y0055415D02*
X0257782Y0055415D01*
X0256985Y0051418D02*
X0259620Y0051418D01*
X0267111Y0048258D02*
X0268351Y0048258D01*
X0269748Y0048837D01*
X0270817Y0049906D01*
X0271395Y0051302D01*
X0271395Y0051615D01*
X0276170Y0056390D01*
X0277013Y0057234D01*
X0277470Y0058336D01*
X0277470Y0066434D01*
X0277753Y0066290D01*
X0278482Y0066053D01*
X0279239Y0065933D01*
X0279623Y0065933D01*
X0280006Y0065933D01*
X0280621Y0066031D01*
X0279550Y0063445D01*
X0279550Y0059657D01*
X0280362Y0057699D01*
X0279374Y0056711D01*
X0278795Y0055314D01*
X0278795Y0053802D01*
X0279374Y0052406D01*
X0280443Y0051337D01*
X0281839Y0050758D01*
X0282152Y0050758D01*
X0282155Y0050756D01*
X0279780Y0050756D01*
X0276170Y0050756D01*
X0275662Y0050620D01*
X0275206Y0050356D01*
X0274833Y0049984D01*
X0274570Y0049528D01*
X0274434Y0049019D01*
X0274434Y0046886D01*
X0279780Y0046886D01*
X0279780Y0050756D01*
X0279780Y0046886D01*
X0279780Y0046886D01*
X0279780Y0046886D01*
X0279470Y0047683D01*
X0278220Y0048933D01*
X0278220Y0068933D01*
X0279470Y0070183D01*
X0279623Y0070803D01*
X0279623Y0070803D01*
X0284493Y0070803D01*
X0284493Y0070420D01*
X0284415Y0069928D01*
X0287178Y0071072D01*
X0290965Y0071072D01*
X0294465Y0069623D01*
X0297143Y0066945D01*
X0298095Y0064646D01*
X0298095Y0091440D01*
X0285763Y0079109D01*
X0284920Y0078265D01*
X0284482Y0078084D01*
X0284260Y0077547D01*
X0282721Y0076008D01*
X0281245Y0075397D01*
X0281492Y0075316D01*
X0282175Y0074968D01*
X0282795Y0074518D01*
X0283337Y0073976D01*
X0283788Y0073356D01*
X0284136Y0072673D01*
X0284373Y0071944D01*
X0284493Y0071186D01*
X0284493Y0070803D01*
X0279623Y0070803D01*
X0279623Y0065933D01*
X0279623Y0070803D01*
X0279623Y0070803D01*
X0279623Y0069405D02*
X0279623Y0069405D01*
X0279623Y0067406D02*
X0279623Y0067406D01*
X0280363Y0065408D02*
X0277470Y0065408D01*
X0277470Y0063409D02*
X0279550Y0063409D01*
X0279550Y0061411D02*
X0277470Y0061411D01*
X0277470Y0059412D02*
X0279652Y0059412D01*
X0280077Y0057414D02*
X0277088Y0057414D01*
X0278837Y0055415D02*
X0275195Y0055415D01*
X0273196Y0053417D02*
X0278955Y0053417D01*
X0280361Y0051418D02*
X0271395Y0051418D01*
X0270331Y0049420D02*
X0274541Y0049420D01*
X0279780Y0049420D02*
X0279780Y0049420D01*
X0279780Y0047421D02*
X0279780Y0047421D01*
X0279780Y0046886D02*
X0280095Y0046433D01*
X0280095Y0041433D01*
X0279780Y0040980D01*
X0274434Y0040980D01*
X0274434Y0040936D01*
X0267111Y0048258D01*
X0267948Y0047421D02*
X0274434Y0047421D01*
X0274434Y0046886D02*
X0274434Y0044752D01*
X0274570Y0044244D01*
X0274749Y0043933D01*
X0274570Y0043622D01*
X0274434Y0043114D01*
X0274434Y0040980D01*
X0279780Y0040980D01*
X0279780Y0040980D01*
X0279780Y0044850D01*
X0279780Y0046886D01*
X0274434Y0046886D01*
X0274434Y0045423D02*
X0269947Y0045423D01*
X0271945Y0043424D02*
X0274517Y0043424D01*
X0279780Y0043424D02*
X0279780Y0043424D01*
X0279780Y0045423D02*
X0279780Y0045423D01*
X0279780Y0046886D02*
X0279780Y0040980D01*
X0279780Y0040980D01*
X0279780Y0041426D02*
X0279780Y0041426D01*
X0274434Y0041426D02*
X0273944Y0041426D01*
X0275720Y0034558D02*
X0263220Y0047058D01*
X0263220Y0083933D01*
X0265720Y0086433D01*
X0265720Y0087683D01*
X0268220Y0087683D01*
X0286712Y0079256D02*
X0288243Y0079890D01*
X0289900Y0079890D01*
X0291431Y0079256D01*
X0292603Y0078084D01*
X0293237Y0076553D01*
X0293237Y0074896D01*
X0292603Y0073365D01*
X0291431Y0072193D01*
X0289900Y0071559D01*
X0288243Y0071559D01*
X0286712Y0072193D01*
X0285540Y0073365D01*
X0284906Y0074896D01*
X0284906Y0076553D01*
X0285540Y0078084D01*
X0286712Y0079256D01*
X0287054Y0079397D02*
X0286052Y0079397D01*
X0285257Y0077399D02*
X0284112Y0077399D01*
X0284906Y0075400D02*
X0281253Y0075400D01*
X0283754Y0073402D02*
X0285525Y0073402D01*
X0284458Y0071403D02*
X0298095Y0071403D01*
X0298095Y0073402D02*
X0292618Y0073402D01*
X0293237Y0075400D02*
X0298095Y0075400D01*
X0298095Y0077399D02*
X0292886Y0077399D01*
X0291089Y0079397D02*
X0298095Y0079397D01*
X0298095Y0081396D02*
X0288051Y0081396D01*
X0290049Y0083394D02*
X0298095Y0083394D01*
X0298095Y0085393D02*
X0292048Y0085393D01*
X0294046Y0087391D02*
X0298095Y0087391D01*
X0298095Y0089390D02*
X0296045Y0089390D01*
X0298043Y0091388D02*
X0298095Y0091388D01*
X0279623Y0098362D02*
X0279470Y0098933D01*
X0273220Y0105183D01*
X0272713Y0105193D01*
X0262477Y0105193D02*
X0261970Y0105183D01*
X0258845Y0105183D01*
X0256970Y0103308D01*
X0255595Y0107285D02*
X0255595Y0109565D01*
X0257515Y0111485D01*
X0257515Y0111106D01*
X0257911Y0110150D01*
X0258115Y0109946D01*
X0258115Y0108933D01*
X0258115Y0108777D01*
X0256806Y0108235D01*
X0256040Y0107469D01*
X0255595Y0107285D01*
X0255595Y0107377D02*
X0255817Y0107377D01*
X0256345Y0108933D02*
X0262477Y0108933D01*
X0258115Y0108933D01*
X0262477Y0108933D01*
X0262477Y0108933D01*
X0258115Y0109375D02*
X0255595Y0109375D01*
X0257403Y0111374D02*
X0257515Y0111374D01*
X0258823Y0118808D02*
X0259253Y0119056D01*
X0261271Y0121075D01*
X0262412Y0123051D01*
X0263987Y0121475D01*
X0266137Y0120585D01*
X0268463Y0120585D01*
X0270613Y0121475D01*
X0272258Y0123120D01*
X0273148Y0125270D01*
X0273148Y0127596D01*
X0272258Y0129746D01*
X0270613Y0131391D01*
X0268463Y0132281D01*
X0266137Y0132281D01*
X0263987Y0131391D01*
X0263082Y0130486D01*
X0262699Y0131917D01*
X0261271Y0134390D01*
X0259929Y0135732D01*
X0292595Y0135732D01*
X0293456Y0135665D01*
X0295092Y0135133D01*
X0296484Y0134121D01*
X0297496Y0132729D01*
X0298027Y0131093D01*
X0298095Y0130232D01*
X0298095Y0127119D01*
X0298009Y0127662D01*
X0297754Y0128448D01*
X0297379Y0129184D01*
X0296893Y0129852D01*
X0296309Y0130436D01*
X0295641Y0130922D01*
X0294905Y0131297D01*
X0294119Y0131552D01*
X0293303Y0131681D01*
X0292973Y0131681D01*
X0292973Y0126516D01*
X0292808Y0126516D01*
X0292808Y0131681D01*
X0292477Y0131681D01*
X0291661Y0131552D01*
X0290876Y0131297D01*
X0290140Y0130922D01*
X0289472Y0130436D01*
X0288887Y0129852D01*
X0288402Y0129184D01*
X0288027Y0128448D01*
X0287772Y0127662D01*
X0287642Y0126846D01*
X0287642Y0126516D01*
X0292808Y0126516D01*
X0292808Y0126350D01*
X0292973Y0126350D01*
X0292973Y0121185D01*
X0293303Y0121185D01*
X0294119Y0121314D01*
X0294905Y0121570D01*
X0295641Y0121945D01*
X0296309Y0122430D01*
X0296893Y0123014D01*
X0297379Y0123682D01*
X0297754Y0124419D01*
X0298009Y0125204D01*
X0298095Y0125747D01*
X0298095Y0118808D01*
X0258823Y0118808D01*
X0259564Y0119368D02*
X0298095Y0119368D01*
X0298095Y0121366D02*
X0294279Y0121366D01*
X0292973Y0121366D02*
X0292808Y0121366D01*
X0292808Y0121185D02*
X0292808Y0126350D01*
X0287642Y0126350D01*
X0287642Y0126020D01*
X0287772Y0125204D01*
X0288027Y0124419D01*
X0288402Y0123682D01*
X0288887Y0123014D01*
X0289472Y0122430D01*
X0290140Y0121945D01*
X0290876Y0121570D01*
X0291661Y0121314D01*
X0292477Y0121185D01*
X0292808Y0121185D01*
X0291502Y0121366D02*
X0270349Y0121366D01*
X0272359Y0123365D02*
X0288633Y0123365D01*
X0287746Y0125363D02*
X0273148Y0125363D01*
X0273148Y0127362D02*
X0287724Y0127362D01*
X0288530Y0129360D02*
X0272417Y0129360D01*
X0270645Y0131359D02*
X0291067Y0131359D01*
X0292808Y0131359D02*
X0292973Y0131359D01*
X0294714Y0131359D02*
X0297941Y0131359D01*
X0297039Y0133357D02*
X0261867Y0133357D01*
X0262848Y0131359D02*
X0263955Y0131359D01*
X0260305Y0135356D02*
X0294406Y0135356D01*
X0292973Y0129360D02*
X0292808Y0129360D01*
X0292808Y0127362D02*
X0292973Y0127362D01*
X0297251Y0129360D02*
X0298095Y0129360D01*
X0298057Y0127362D02*
X0298095Y0127362D01*
X0298034Y0125363D02*
X0298095Y0125363D01*
X0298095Y0123365D02*
X0297148Y0123365D01*
X0292973Y0123365D02*
X0292808Y0123365D01*
X0292808Y0125363D02*
X0292973Y0125363D01*
X0264251Y0121366D02*
X0261439Y0121366D01*
X0240720Y0127058D02*
X0240720Y0097683D01*
X0245720Y0097683D02*
X0245720Y0073308D01*
X0242595Y0070183D01*
X0232503Y0065408D02*
X0226789Y0065408D01*
X0226665Y0063409D02*
X0234501Y0063409D01*
X0236500Y0061411D02*
X0226195Y0061411D01*
X0226195Y0059412D02*
X0238643Y0059412D01*
X0243845Y0052058D02*
X0238220Y0046433D01*
X0238107Y0046433D01*
X0237532Y0045858D02*
X0238682Y0045858D01*
X0238682Y0040890D01*
X0241520Y0040890D01*
X0241753Y0040952D01*
X0241753Y0040006D01*
X0242492Y0037248D01*
X0243919Y0034776D01*
X0245262Y0033433D01*
X0228213Y0033433D01*
X0235138Y0040359D01*
X0235358Y0040890D01*
X0237532Y0040890D01*
X0237532Y0045858D01*
X0237532Y0045423D02*
X0238682Y0045423D01*
X0238682Y0047421D02*
X0237532Y0047421D01*
X0237532Y0049420D02*
X0238682Y0049420D01*
X0238682Y0051418D02*
X0237532Y0051418D01*
X0242643Y0051418D02*
X0248205Y0051418D01*
X0245248Y0049420D02*
X0243257Y0049420D01*
X0243257Y0047421D02*
X0243533Y0047421D01*
X0238682Y0043424D02*
X0237532Y0043424D01*
X0237532Y0041426D02*
X0238682Y0041426D01*
X0241908Y0039427D02*
X0234207Y0039427D01*
X0232208Y0037429D02*
X0242443Y0037429D01*
X0243541Y0035430D02*
X0230210Y0035430D01*
X0275720Y0034558D02*
X0294470Y0034558D01*
X0279780Y0046886D02*
X0279780Y0046886D01*
X0297780Y0065408D02*
X0298095Y0065408D01*
X0298095Y0067406D02*
X0296682Y0067406D01*
X0298095Y0069405D02*
X0294683Y0069405D01*
X0230605Y0067406D02*
X0230247Y0067406D01*
X0213845Y0093933D02*
X0213845Y0103933D01*
X0203845Y0103933D02*
X0203845Y0093933D01*
X0220771Y0109375D02*
X0225044Y0109375D01*
X0224702Y0109033D02*
X0221113Y0109033D01*
X0218028Y0112117D01*
X0218317Y0112406D01*
X0218895Y0113802D01*
X0218895Y0115314D01*
X0218317Y0116711D01*
X0217248Y0117780D01*
X0215851Y0118358D01*
X0215538Y0118358D01*
X0204463Y0129433D01*
X0206608Y0129433D01*
X0207117Y0129569D01*
X0207573Y0129833D01*
X0207946Y0130205D01*
X0208209Y0130661D01*
X0208345Y0131170D01*
X0208345Y0133683D01*
X0204095Y0133683D01*
X0204095Y0134183D01*
X0208345Y0134183D01*
X0208345Y0135732D01*
X0208745Y0135732D01*
X0208745Y0130916D01*
X0209141Y0129960D01*
X0209872Y0129229D01*
X0210828Y0128833D01*
X0214702Y0128833D01*
X0216051Y0127484D01*
X0215670Y0126564D01*
X0215670Y0125052D01*
X0216249Y0123656D01*
X0217318Y0122587D01*
X0218714Y0122008D01*
X0220226Y0122008D01*
X0221623Y0122587D01*
X0222692Y0123656D01*
X0223270Y0125052D01*
X0223270Y0126564D01*
X0222692Y0127961D01*
X0222470Y0128182D01*
X0222470Y0128905D01*
X0222251Y0129433D01*
X0223595Y0129433D01*
X0223595Y0133683D01*
X0219345Y0133683D01*
X0219345Y0132676D01*
X0218945Y0133076D01*
X0218945Y0135732D01*
X0219345Y0135732D01*
X0219345Y0134183D01*
X0223595Y0134183D01*
X0223595Y0133683D01*
X0224095Y0133683D01*
X0224095Y0129433D01*
X0226608Y0129433D01*
X0227117Y0129569D01*
X0227573Y0129833D01*
X0227946Y0130205D01*
X0228209Y0130661D01*
X0228345Y0131170D01*
X0228345Y0133683D01*
X0224095Y0133683D01*
X0224095Y0134183D01*
X0228345Y0134183D01*
X0228345Y0135732D01*
X0228745Y0135732D01*
X0228745Y0130916D01*
X0229141Y0129960D01*
X0229872Y0129229D01*
X0230828Y0128833D01*
X0233854Y0128833D01*
X0237120Y0125567D01*
X0237120Y0122831D01*
X0237067Y0122961D01*
X0235998Y0124030D01*
X0234601Y0124608D01*
X0233089Y0124608D01*
X0231693Y0124030D01*
X0230624Y0122961D01*
X0230045Y0121564D01*
X0230045Y0120052D01*
X0230624Y0118656D01*
X0230845Y0118434D01*
X0230845Y0115176D01*
X0224702Y0109033D01*
X0221970Y0110183D02*
X0221970Y0121433D01*
X0216345Y0121433D01*
X0203845Y0133933D01*
X0208345Y0133357D02*
X0208745Y0133357D01*
X0208745Y0131359D02*
X0208345Y0131359D01*
X0209741Y0129360D02*
X0204536Y0129360D01*
X0206534Y0127362D02*
X0216001Y0127362D01*
X0215670Y0125363D02*
X0208533Y0125363D01*
X0210531Y0123365D02*
X0216540Y0123365D01*
X0222401Y0123365D02*
X0231028Y0123365D01*
X0236663Y0123365D02*
X0237120Y0123365D01*
X0237120Y0125363D02*
X0223270Y0125363D01*
X0222940Y0127362D02*
X0235325Y0127362D01*
X0240720Y0127058D02*
X0233845Y0133933D01*
X0228745Y0133357D02*
X0228345Y0133357D01*
X0228345Y0131359D02*
X0228745Y0131359D01*
X0224095Y0131359D02*
X0223595Y0131359D01*
X0223595Y0133357D02*
X0224095Y0133357D01*
X0223845Y0133933D02*
X0223845Y0121433D01*
X0221970Y0121433D01*
X0214528Y0119368D02*
X0230329Y0119368D01*
X0230045Y0121366D02*
X0212530Y0121366D01*
X0217658Y0117369D02*
X0230845Y0117369D01*
X0230845Y0115371D02*
X0218872Y0115371D01*
X0218717Y0113372D02*
X0229041Y0113372D01*
X0227043Y0111374D02*
X0218772Y0111374D01*
X0191445Y0123933D02*
X0185720Y0123933D01*
X0185589Y0122733D02*
X0184193Y0122155D01*
X0183971Y0121933D01*
X0178213Y0121933D01*
X0172013Y0128132D01*
X0171170Y0128976D01*
X0170067Y0129433D01*
X0161795Y0129433D01*
X0161795Y0130308D01*
X0176721Y0130308D01*
X0176249Y0129836D01*
X0175670Y0128439D01*
X0175670Y0126927D01*
X0176249Y0125531D01*
X0177318Y0124462D01*
X0178714Y0123883D01*
X0180226Y0123883D01*
X0181623Y0124462D01*
X0181844Y0124683D01*
X0187195Y0124683D01*
X0187195Y0123933D01*
X0187195Y0122694D01*
X0187101Y0122733D01*
X0185589Y0122733D01*
X0187195Y0123365D02*
X0176781Y0123365D01*
X0176416Y0125363D02*
X0174783Y0125363D01*
X0175670Y0127362D02*
X0172784Y0127362D01*
X0170243Y0129360D02*
X0176052Y0129360D01*
X0187195Y0123933D02*
X0191445Y0123933D01*
X0187195Y0123933D01*
X0191445Y0123933D02*
X0191445Y0123933D01*
X0218945Y0133357D02*
X0219345Y0133357D01*
X0219345Y0135356D02*
X0218945Y0135356D01*
X0228345Y0135356D02*
X0228745Y0135356D01*
X0229741Y0129360D02*
X0222282Y0129360D01*
X0208745Y0135356D02*
X0208345Y0135356D01*
X0165095Y0121433D02*
X0165095Y0103933D01*
X0143494Y0099382D02*
X0141662Y0099382D01*
X0137174Y0103379D02*
X0116898Y0103379D01*
X0116898Y0101381D02*
X0134044Y0101381D01*
X0132677Y0099382D02*
X0116898Y0099382D01*
X0116898Y0097384D02*
X0132615Y0097384D01*
X0133894Y0095385D02*
X0116898Y0095385D01*
X0116898Y0105378D02*
X0138456Y0105378D01*
X0139993Y0107377D02*
X0116898Y0107377D01*
X0116898Y0109375D02*
X0139595Y0109375D01*
X0139595Y0111374D02*
X0116898Y0111374D01*
X0116898Y0113372D02*
X0138387Y0113372D01*
X0135238Y0115371D02*
X0116898Y0115371D01*
X0116898Y0117369D02*
X0121879Y0117369D01*
X0118126Y0119368D02*
X0116898Y0119368D01*
X0128311Y0117369D02*
X0134182Y0117369D01*
X0133995Y0119368D02*
X0132064Y0119368D01*
X0133939Y0121366D02*
X0134542Y0121366D01*
X0135093Y0123365D02*
X0136107Y0123365D01*
X0153745Y0123933D02*
X0153845Y0123933D01*
X0156345Y0126433D01*
X0156345Y0128308D01*
X0157595Y0129558D01*
X0163845Y0122683D02*
X0165095Y0121433D01*
D30*
X0163845Y0122683D03*
X0157595Y0129558D03*
X0185720Y0123933D03*
X0221970Y0110183D03*
X0240720Y0097683D03*
X0245720Y0097683D03*
X0256970Y0103308D03*
X0256345Y0108933D03*
X0268220Y0087683D03*
X0242595Y0070183D03*
X0222595Y0064558D03*
X0219470Y0074558D03*
X0201970Y0077683D03*
X0181970Y0085183D03*
X0177595Y0081433D03*
X0177595Y0074558D03*
X0171970Y0074558D03*
X0143220Y0079558D03*
X0138845Y0067683D03*
X0168220Y0047683D03*
X0215720Y0053308D03*
X0243845Y0052058D03*
X0275720Y0034558D03*
X0294470Y0034558D03*
X0147595Y0098308D03*
X0165095Y0103933D03*
D31*
X0166970Y0100183D02*
X0168845Y0102058D01*
X0168845Y0113308D01*
X0173845Y0118308D01*
X0176345Y0118933D02*
X0186345Y0118933D01*
X0191445Y0118933D02*
X0200720Y0118933D01*
X0205095Y0119558D02*
X0198845Y0113308D01*
X0198845Y0093933D01*
X0191445Y0093933D01*
X0191445Y0098933D02*
X0195720Y0098933D01*
X0195720Y0099558D01*
X0191445Y0103933D02*
X0176345Y0103933D01*
X0176345Y0118933D01*
X0176345Y0119558D01*
X0169470Y0126433D01*
X0159470Y0126433D01*
X0159470Y0113933D01*
X0154470Y0108933D01*
X0153745Y0108933D01*
X0142595Y0108933D01*
X0142595Y0118933D01*
X0148220Y0122683D02*
X0148220Y0123933D01*
X0148220Y0122683D02*
X0150095Y0120808D01*
X0150095Y0118933D01*
X0153745Y0118933D01*
X0153745Y0113933D02*
X0148220Y0113933D01*
X0158220Y0106433D02*
X0158220Y0098933D01*
X0153745Y0098933D01*
X0160095Y0100183D02*
X0160095Y0095183D01*
X0158845Y0093933D01*
X0153745Y0093933D01*
X0153745Y0088933D02*
X0166345Y0088933D01*
X0166345Y0097683D01*
X0166970Y0100183D02*
X0160095Y0100183D01*
X0141970Y0103933D02*
X0136345Y0098308D01*
X0168220Y0088933D02*
X0168220Y0058933D01*
X0165720Y0056433D01*
X0165664Y0056433D01*
X0157595Y0058308D02*
X0156345Y0059558D01*
X0156345Y0065752D01*
X0161345Y0065752D02*
X0161345Y0071433D01*
X0153845Y0078933D01*
X0153745Y0078933D01*
X0158845Y0077683D02*
X0158845Y0083933D01*
X0153745Y0083933D01*
X0168220Y0088933D02*
X0183845Y0088933D01*
X0185720Y0087058D01*
X0185720Y0083933D01*
X0191445Y0083933D01*
X0195095Y0085808D02*
X0195095Y0069558D01*
X0192595Y0067058D01*
X0192595Y0066669D01*
X0187595Y0066669D02*
X0187595Y0075183D01*
X0191345Y0078933D01*
X0191445Y0078933D01*
X0195095Y0085808D02*
X0191970Y0088933D01*
X0191445Y0088933D01*
X0200095Y0088933D02*
X0206345Y0088933D01*
X0207595Y0087683D01*
X0210095Y0087683D01*
X0211345Y0088933D01*
X0216345Y0088933D01*
X0218845Y0086433D01*
X0218845Y0083933D01*
X0220720Y0082058D01*
X0227595Y0086433D02*
X0233220Y0080808D01*
X0233220Y0068933D01*
X0240095Y0062058D01*
X0253845Y0062058D01*
X0254470Y0064558D02*
X0254470Y0100183D01*
X0252595Y0102058D01*
X0252595Y0110808D01*
X0257595Y0115808D01*
X0297595Y0115808D01*
X0297595Y0095183D01*
X0283220Y0080808D01*
X0280095Y0080808D01*
X0279623Y0080646D01*
X0274470Y0083308D02*
X0279470Y0088308D01*
X0279623Y0088520D01*
X0284470Y0085808D02*
X0284470Y0092683D01*
X0266345Y0092683D01*
X0260095Y0086433D01*
X0260095Y0076433D01*
X0258845Y0075183D01*
X0251970Y0075183D02*
X0251970Y0066433D01*
X0240720Y0066433D01*
X0236970Y0070183D01*
X0236970Y0099558D01*
X0237595Y0100183D01*
X0237595Y0114558D01*
X0236345Y0115808D01*
X0233845Y0113933D02*
X0233845Y0120808D01*
X0245095Y0119558D02*
X0250720Y0113933D01*
X0250720Y0087058D01*
X0251970Y0085808D01*
X0256345Y0085183D02*
X0256345Y0058933D01*
X0254470Y0064558D02*
X0240095Y0064558D01*
X0235095Y0069558D01*
X0235095Y0089558D01*
X0230095Y0094558D01*
X0225095Y0092683D02*
X0225095Y0076433D01*
X0225548Y0076433D01*
X0227595Y0086433D02*
X0227595Y0098933D01*
X0221970Y0098933D01*
X0220095Y0100808D01*
X0220095Y0105808D01*
X0211345Y0114558D01*
X0208220Y0115183D02*
X0208220Y0107683D01*
X0208845Y0107058D01*
X0208845Y0090183D01*
X0221345Y0096433D02*
X0225095Y0092683D01*
X0223845Y0103933D02*
X0233845Y0113933D01*
X0215095Y0114558D02*
X0198845Y0130808D01*
X0198845Y0133308D01*
X0154470Y0133308D01*
X0152595Y0131433D01*
X0152595Y0128933D01*
X0142595Y0128933D01*
X0179470Y0127683D02*
X0196345Y0127683D01*
X0213845Y0133933D02*
X0219470Y0128308D01*
X0219470Y0125808D01*
X0208220Y0115183D02*
X0206970Y0116433D01*
X0196345Y0113933D02*
X0191445Y0113933D01*
X0191445Y0108933D02*
X0186345Y0108933D01*
X0186345Y0107058D01*
X0228845Y0103933D02*
X0233845Y0103933D01*
X0262595Y0112058D02*
X0262477Y0112673D01*
X0262595Y0112058D02*
X0266970Y0112058D01*
X0266970Y0095808D01*
X0256345Y0085183D01*
X0274470Y0083308D02*
X0274470Y0058933D01*
X0267595Y0052058D01*
X0282595Y0054558D02*
X0290095Y0047058D01*
X0290410Y0046886D01*
X0295095Y0044558D02*
X0291970Y0041433D01*
X0290720Y0041433D01*
X0290410Y0040980D01*
X0295095Y0044558D02*
X0296345Y0044558D01*
X0271345Y0066433D02*
X0270095Y0067683D01*
X0270095Y0076433D01*
X0269642Y0076433D01*
X0233220Y0053308D02*
X0232595Y0052683D01*
X0232595Y0042058D01*
X0224470Y0033933D01*
X0201345Y0033933D01*
X0201345Y0038308D01*
X0203845Y0039558D02*
X0205095Y0040808D01*
X0205095Y0062058D01*
X0199470Y0056433D01*
X0191345Y0056433D01*
X0191345Y0058933D01*
X0195095Y0058933D02*
X0202595Y0066433D01*
X0202595Y0067000D01*
X0205095Y0063933D02*
X0207595Y0066433D01*
X0207595Y0067000D01*
X0205095Y0063933D02*
X0205095Y0062058D01*
X0193845Y0053933D02*
X0201345Y0046433D01*
X0202595Y0046433D01*
X0202595Y0045866D01*
X0207595Y0045866D02*
X0207595Y0039558D01*
X0206345Y0038308D01*
X0203845Y0039558D02*
X0203845Y0035808D01*
X0207595Y0035808D01*
X0210095Y0038308D01*
X0190720Y0038933D02*
X0190720Y0033308D01*
X0153220Y0033308D01*
X0148220Y0038308D01*
X0154470Y0035808D02*
X0156345Y0037683D01*
X0156345Y0047115D01*
X0126355Y0056433D02*
X0121345Y0056433D01*
X0151345Y0065752D02*
X0151345Y0072683D01*
X0272713Y0112673D02*
X0273220Y0112683D01*
X0278220Y0112683D01*
X0278220Y0113308D01*
D32*
X0278220Y0113308D03*
X0245095Y0119558D03*
X0236345Y0115808D03*
X0233845Y0120808D03*
X0219470Y0125808D03*
X0205095Y0119558D03*
X0200720Y0118933D03*
X0206970Y0116433D03*
X0211345Y0114558D03*
X0215095Y0114558D03*
X0196345Y0113933D03*
X0186345Y0118933D03*
X0173845Y0118308D03*
X0179470Y0127683D03*
X0196345Y0127683D03*
X0148220Y0123933D03*
X0148220Y0113933D03*
X0158220Y0106433D03*
X0141970Y0103933D03*
X0136345Y0098308D03*
X0158845Y0093933D03*
X0166345Y0097683D03*
X0186345Y0107058D03*
X0195720Y0099558D03*
X0208845Y0090183D03*
X0200095Y0088933D03*
X0220720Y0082058D03*
X0251970Y0085808D03*
X0230095Y0094558D03*
X0221345Y0096433D03*
X0228845Y0103933D03*
X0284470Y0085808D03*
X0258845Y0075183D03*
X0251970Y0075183D03*
X0271345Y0066433D03*
X0256345Y0058933D03*
X0253845Y0062058D03*
X0233220Y0053308D03*
X0267595Y0052058D03*
X0282595Y0054558D03*
X0296345Y0044558D03*
X0210095Y0038308D03*
X0206345Y0038308D03*
X0201345Y0038308D03*
X0190720Y0038933D03*
X0154470Y0035808D03*
X0148220Y0038308D03*
X0193845Y0053933D03*
X0195095Y0058933D03*
X0191345Y0058933D03*
X0157595Y0058308D03*
X0121345Y0056433D03*
X0151345Y0072683D03*
X0158845Y0077683D03*
M02*
