G75*
%MOIN*%
%OFA0B0*%
%FSLAX25Y25*%
%IPPOS*%
%LPD*%
%AMOC8*
5,1,8,0,0,1.08239X$1,22.5*
%
%ADD10C,0.00000*%
%ADD11C,0.05740*%
%ADD12C,0.13843*%
%ADD13R,0.05118X0.06299*%
%ADD14R,0.05118X0.05906*%
%ADD15R,0.05906X0.05118*%
%ADD16C,0.06496*%
%ADD17R,0.06693X0.04134*%
%ADD18R,0.09055X0.01575*%
%ADD19C,0.06000*%
%ADD20OC8,0.06000*%
%ADD21C,0.05150*%
%ADD22R,0.07874X0.04331*%
%ADD23R,0.03150X0.04331*%
%ADD24R,0.04331X0.07874*%
%ADD25R,0.04331X0.03150*%
%ADD26R,0.06299X0.05118*%
%ADD27C,0.02000*%
%ADD28C,0.03200*%
%ADD29C,0.00800*%
%ADD30C,0.02400*%
D10*
X0114898Y0038933D02*
X0114898Y0130232D01*
X0114900Y0130413D01*
X0114907Y0130594D01*
X0114918Y0130775D01*
X0114933Y0130956D01*
X0114953Y0131136D01*
X0114977Y0131316D01*
X0115005Y0131495D01*
X0115038Y0131673D01*
X0115075Y0131850D01*
X0115116Y0132027D01*
X0115161Y0132202D01*
X0115211Y0132377D01*
X0115265Y0132550D01*
X0115323Y0132721D01*
X0115385Y0132892D01*
X0115452Y0133060D01*
X0115522Y0133227D01*
X0115596Y0133393D01*
X0115675Y0133556D01*
X0115757Y0133717D01*
X0115843Y0133877D01*
X0115933Y0134034D01*
X0116027Y0134189D01*
X0116124Y0134342D01*
X0116226Y0134492D01*
X0116330Y0134640D01*
X0116439Y0134786D01*
X0116550Y0134928D01*
X0116666Y0135068D01*
X0116784Y0135205D01*
X0116906Y0135340D01*
X0117031Y0135471D01*
X0117159Y0135599D01*
X0117290Y0135724D01*
X0117425Y0135846D01*
X0117562Y0135964D01*
X0117702Y0136080D01*
X0117844Y0136191D01*
X0117990Y0136300D01*
X0118138Y0136404D01*
X0118288Y0136506D01*
X0118441Y0136603D01*
X0118596Y0136697D01*
X0118753Y0136787D01*
X0118913Y0136873D01*
X0119074Y0136955D01*
X0119237Y0137034D01*
X0119403Y0137108D01*
X0119570Y0137178D01*
X0119738Y0137245D01*
X0119909Y0137307D01*
X0120080Y0137365D01*
X0120253Y0137419D01*
X0120428Y0137469D01*
X0120603Y0137514D01*
X0120780Y0137555D01*
X0120957Y0137592D01*
X0121135Y0137625D01*
X0121314Y0137653D01*
X0121494Y0137677D01*
X0121674Y0137697D01*
X0121855Y0137712D01*
X0122036Y0137723D01*
X0122217Y0137730D01*
X0122398Y0137732D01*
X0292595Y0137732D01*
X0292776Y0137730D01*
X0292957Y0137723D01*
X0293138Y0137712D01*
X0293319Y0137697D01*
X0293499Y0137677D01*
X0293679Y0137653D01*
X0293858Y0137625D01*
X0294036Y0137592D01*
X0294213Y0137555D01*
X0294390Y0137514D01*
X0294565Y0137469D01*
X0294740Y0137419D01*
X0294913Y0137365D01*
X0295084Y0137307D01*
X0295255Y0137245D01*
X0295423Y0137178D01*
X0295590Y0137108D01*
X0295756Y0137034D01*
X0295919Y0136955D01*
X0296080Y0136873D01*
X0296240Y0136787D01*
X0296397Y0136697D01*
X0296552Y0136603D01*
X0296705Y0136506D01*
X0296855Y0136404D01*
X0297003Y0136300D01*
X0297149Y0136191D01*
X0297291Y0136080D01*
X0297431Y0135964D01*
X0297568Y0135846D01*
X0297703Y0135724D01*
X0297834Y0135599D01*
X0297962Y0135471D01*
X0298087Y0135340D01*
X0298209Y0135205D01*
X0298327Y0135068D01*
X0298443Y0134928D01*
X0298554Y0134786D01*
X0298663Y0134640D01*
X0298767Y0134492D01*
X0298869Y0134342D01*
X0298966Y0134189D01*
X0299060Y0134034D01*
X0299150Y0133877D01*
X0299236Y0133717D01*
X0299318Y0133556D01*
X0299397Y0133393D01*
X0299471Y0133227D01*
X0299541Y0133060D01*
X0299608Y0132892D01*
X0299670Y0132721D01*
X0299728Y0132550D01*
X0299782Y0132377D01*
X0299832Y0132202D01*
X0299877Y0132027D01*
X0299918Y0131850D01*
X0299955Y0131673D01*
X0299988Y0131495D01*
X0300016Y0131316D01*
X0300040Y0131136D01*
X0300060Y0130956D01*
X0300075Y0130775D01*
X0300086Y0130594D01*
X0300093Y0130413D01*
X0300095Y0130232D01*
X0300095Y0038933D01*
X0300093Y0038752D01*
X0300086Y0038571D01*
X0300075Y0038390D01*
X0300060Y0038209D01*
X0300040Y0038029D01*
X0300016Y0037849D01*
X0299988Y0037670D01*
X0299955Y0037492D01*
X0299918Y0037315D01*
X0299877Y0037138D01*
X0299832Y0036963D01*
X0299782Y0036788D01*
X0299728Y0036615D01*
X0299670Y0036444D01*
X0299608Y0036273D01*
X0299541Y0036105D01*
X0299471Y0035938D01*
X0299397Y0035772D01*
X0299318Y0035609D01*
X0299236Y0035448D01*
X0299150Y0035288D01*
X0299060Y0035131D01*
X0298966Y0034976D01*
X0298869Y0034823D01*
X0298767Y0034673D01*
X0298663Y0034525D01*
X0298554Y0034379D01*
X0298443Y0034237D01*
X0298327Y0034097D01*
X0298209Y0033960D01*
X0298087Y0033825D01*
X0297962Y0033694D01*
X0297834Y0033566D01*
X0297703Y0033441D01*
X0297568Y0033319D01*
X0297431Y0033201D01*
X0297291Y0033085D01*
X0297149Y0032974D01*
X0297003Y0032865D01*
X0296855Y0032761D01*
X0296705Y0032659D01*
X0296552Y0032562D01*
X0296397Y0032468D01*
X0296240Y0032378D01*
X0296080Y0032292D01*
X0295919Y0032210D01*
X0295756Y0032131D01*
X0295590Y0032057D01*
X0295423Y0031987D01*
X0295255Y0031920D01*
X0295084Y0031858D01*
X0294913Y0031800D01*
X0294740Y0031746D01*
X0294565Y0031696D01*
X0294390Y0031651D01*
X0294213Y0031610D01*
X0294036Y0031573D01*
X0293858Y0031540D01*
X0293679Y0031512D01*
X0293499Y0031488D01*
X0293319Y0031468D01*
X0293138Y0031453D01*
X0292957Y0031442D01*
X0292776Y0031435D01*
X0292595Y0031433D01*
X0122398Y0031433D01*
X0122217Y0031435D01*
X0122036Y0031442D01*
X0121855Y0031453D01*
X0121674Y0031468D01*
X0121494Y0031488D01*
X0121314Y0031512D01*
X0121135Y0031540D01*
X0120957Y0031573D01*
X0120780Y0031610D01*
X0120603Y0031651D01*
X0120428Y0031696D01*
X0120253Y0031746D01*
X0120080Y0031800D01*
X0119909Y0031858D01*
X0119738Y0031920D01*
X0119570Y0031987D01*
X0119403Y0032057D01*
X0119237Y0032131D01*
X0119074Y0032210D01*
X0118913Y0032292D01*
X0118753Y0032378D01*
X0118596Y0032468D01*
X0118441Y0032562D01*
X0118288Y0032659D01*
X0118138Y0032761D01*
X0117990Y0032865D01*
X0117844Y0032974D01*
X0117702Y0033085D01*
X0117562Y0033201D01*
X0117425Y0033319D01*
X0117290Y0033441D01*
X0117159Y0033566D01*
X0117031Y0033694D01*
X0116906Y0033825D01*
X0116784Y0033960D01*
X0116666Y0034097D01*
X0116550Y0034237D01*
X0116439Y0034379D01*
X0116330Y0034525D01*
X0116226Y0034673D01*
X0116124Y0034823D01*
X0116027Y0034976D01*
X0115933Y0035131D01*
X0115843Y0035288D01*
X0115757Y0035448D01*
X0115675Y0035609D01*
X0115596Y0035772D01*
X0115522Y0035938D01*
X0115452Y0036105D01*
X0115385Y0036273D01*
X0115323Y0036444D01*
X0115265Y0036615D01*
X0115211Y0036788D01*
X0115161Y0036963D01*
X0115116Y0037138D01*
X0115075Y0037315D01*
X0115038Y0037492D01*
X0115005Y0037670D01*
X0114977Y0037849D01*
X0114953Y0038029D01*
X0114933Y0038209D01*
X0114918Y0038390D01*
X0114907Y0038571D01*
X0114900Y0038752D01*
X0114898Y0038933D01*
X0120764Y0041433D02*
X0120766Y0041564D01*
X0120772Y0041696D01*
X0120782Y0041827D01*
X0120796Y0041958D01*
X0120814Y0042088D01*
X0120836Y0042217D01*
X0120861Y0042346D01*
X0120891Y0042474D01*
X0120925Y0042601D01*
X0120962Y0042728D01*
X0121003Y0042852D01*
X0121048Y0042976D01*
X0121097Y0043098D01*
X0121149Y0043219D01*
X0121205Y0043337D01*
X0121265Y0043455D01*
X0121328Y0043570D01*
X0121395Y0043683D01*
X0121465Y0043795D01*
X0121538Y0043904D01*
X0121614Y0044010D01*
X0121694Y0044115D01*
X0121777Y0044217D01*
X0121863Y0044316D01*
X0121952Y0044413D01*
X0122044Y0044507D01*
X0122139Y0044598D01*
X0122236Y0044687D01*
X0122336Y0044772D01*
X0122439Y0044854D01*
X0122544Y0044933D01*
X0122651Y0045009D01*
X0122761Y0045081D01*
X0122873Y0045150D01*
X0122987Y0045216D01*
X0123102Y0045278D01*
X0123220Y0045337D01*
X0123339Y0045392D01*
X0123460Y0045444D01*
X0123583Y0045491D01*
X0123707Y0045535D01*
X0123832Y0045576D01*
X0123958Y0045612D01*
X0124086Y0045645D01*
X0124214Y0045673D01*
X0124343Y0045698D01*
X0124473Y0045719D01*
X0124603Y0045736D01*
X0124734Y0045749D01*
X0124865Y0045758D01*
X0124996Y0045763D01*
X0125128Y0045764D01*
X0125259Y0045761D01*
X0125391Y0045754D01*
X0125522Y0045743D01*
X0125652Y0045728D01*
X0125782Y0045709D01*
X0125912Y0045686D01*
X0126040Y0045660D01*
X0126168Y0045629D01*
X0126295Y0045594D01*
X0126421Y0045556D01*
X0126545Y0045514D01*
X0126669Y0045468D01*
X0126790Y0045418D01*
X0126910Y0045365D01*
X0127029Y0045308D01*
X0127146Y0045248D01*
X0127260Y0045184D01*
X0127373Y0045116D01*
X0127484Y0045045D01*
X0127593Y0044971D01*
X0127699Y0044894D01*
X0127803Y0044813D01*
X0127904Y0044730D01*
X0128003Y0044643D01*
X0128099Y0044553D01*
X0128192Y0044460D01*
X0128283Y0044365D01*
X0128370Y0044267D01*
X0128455Y0044166D01*
X0128536Y0044063D01*
X0128614Y0043957D01*
X0128689Y0043849D01*
X0128761Y0043739D01*
X0128829Y0043627D01*
X0128894Y0043513D01*
X0128955Y0043396D01*
X0129013Y0043278D01*
X0129067Y0043158D01*
X0129118Y0043037D01*
X0129165Y0042914D01*
X0129208Y0042790D01*
X0129247Y0042665D01*
X0129283Y0042538D01*
X0129314Y0042410D01*
X0129342Y0042282D01*
X0129366Y0042153D01*
X0129386Y0042023D01*
X0129402Y0041892D01*
X0129414Y0041761D01*
X0129422Y0041630D01*
X0129426Y0041499D01*
X0129426Y0041367D01*
X0129422Y0041236D01*
X0129414Y0041105D01*
X0129402Y0040974D01*
X0129386Y0040843D01*
X0129366Y0040713D01*
X0129342Y0040584D01*
X0129314Y0040456D01*
X0129283Y0040328D01*
X0129247Y0040201D01*
X0129208Y0040076D01*
X0129165Y0039952D01*
X0129118Y0039829D01*
X0129067Y0039708D01*
X0129013Y0039588D01*
X0128955Y0039470D01*
X0128894Y0039353D01*
X0128829Y0039239D01*
X0128761Y0039127D01*
X0128689Y0039017D01*
X0128614Y0038909D01*
X0128536Y0038803D01*
X0128455Y0038700D01*
X0128370Y0038599D01*
X0128283Y0038501D01*
X0128192Y0038406D01*
X0128099Y0038313D01*
X0128003Y0038223D01*
X0127904Y0038136D01*
X0127803Y0038053D01*
X0127699Y0037972D01*
X0127593Y0037895D01*
X0127484Y0037821D01*
X0127373Y0037750D01*
X0127261Y0037682D01*
X0127146Y0037618D01*
X0127029Y0037558D01*
X0126910Y0037501D01*
X0126790Y0037448D01*
X0126669Y0037398D01*
X0126545Y0037352D01*
X0126421Y0037310D01*
X0126295Y0037272D01*
X0126168Y0037237D01*
X0126040Y0037206D01*
X0125912Y0037180D01*
X0125782Y0037157D01*
X0125652Y0037138D01*
X0125522Y0037123D01*
X0125391Y0037112D01*
X0125259Y0037105D01*
X0125128Y0037102D01*
X0124996Y0037103D01*
X0124865Y0037108D01*
X0124734Y0037117D01*
X0124603Y0037130D01*
X0124473Y0037147D01*
X0124343Y0037168D01*
X0124214Y0037193D01*
X0124086Y0037221D01*
X0123958Y0037254D01*
X0123832Y0037290D01*
X0123707Y0037331D01*
X0123583Y0037375D01*
X0123460Y0037422D01*
X0123339Y0037474D01*
X0123220Y0037529D01*
X0123102Y0037588D01*
X0122987Y0037650D01*
X0122873Y0037716D01*
X0122761Y0037785D01*
X0122651Y0037857D01*
X0122544Y0037933D01*
X0122439Y0038012D01*
X0122336Y0038094D01*
X0122236Y0038179D01*
X0122139Y0038268D01*
X0122044Y0038359D01*
X0121952Y0038453D01*
X0121863Y0038550D01*
X0121777Y0038649D01*
X0121694Y0038751D01*
X0121614Y0038856D01*
X0121538Y0038962D01*
X0121465Y0039071D01*
X0121395Y0039183D01*
X0121328Y0039296D01*
X0121265Y0039411D01*
X0121205Y0039529D01*
X0121149Y0039647D01*
X0121097Y0039768D01*
X0121048Y0039890D01*
X0121003Y0040014D01*
X0120962Y0040138D01*
X0120925Y0040265D01*
X0120891Y0040392D01*
X0120861Y0040520D01*
X0120836Y0040649D01*
X0120814Y0040778D01*
X0120796Y0040908D01*
X0120782Y0041039D01*
X0120772Y0041170D01*
X0120766Y0041302D01*
X0120764Y0041433D01*
X0248264Y0041433D02*
X0248266Y0041564D01*
X0248272Y0041696D01*
X0248282Y0041827D01*
X0248296Y0041958D01*
X0248314Y0042088D01*
X0248336Y0042217D01*
X0248361Y0042346D01*
X0248391Y0042474D01*
X0248425Y0042601D01*
X0248462Y0042728D01*
X0248503Y0042852D01*
X0248548Y0042976D01*
X0248597Y0043098D01*
X0248649Y0043219D01*
X0248705Y0043337D01*
X0248765Y0043455D01*
X0248828Y0043570D01*
X0248895Y0043683D01*
X0248965Y0043795D01*
X0249038Y0043904D01*
X0249114Y0044010D01*
X0249194Y0044115D01*
X0249277Y0044217D01*
X0249363Y0044316D01*
X0249452Y0044413D01*
X0249544Y0044507D01*
X0249639Y0044598D01*
X0249736Y0044687D01*
X0249836Y0044772D01*
X0249939Y0044854D01*
X0250044Y0044933D01*
X0250151Y0045009D01*
X0250261Y0045081D01*
X0250373Y0045150D01*
X0250487Y0045216D01*
X0250602Y0045278D01*
X0250720Y0045337D01*
X0250839Y0045392D01*
X0250960Y0045444D01*
X0251083Y0045491D01*
X0251207Y0045535D01*
X0251332Y0045576D01*
X0251458Y0045612D01*
X0251586Y0045645D01*
X0251714Y0045673D01*
X0251843Y0045698D01*
X0251973Y0045719D01*
X0252103Y0045736D01*
X0252234Y0045749D01*
X0252365Y0045758D01*
X0252496Y0045763D01*
X0252628Y0045764D01*
X0252759Y0045761D01*
X0252891Y0045754D01*
X0253022Y0045743D01*
X0253152Y0045728D01*
X0253282Y0045709D01*
X0253412Y0045686D01*
X0253540Y0045660D01*
X0253668Y0045629D01*
X0253795Y0045594D01*
X0253921Y0045556D01*
X0254045Y0045514D01*
X0254169Y0045468D01*
X0254290Y0045418D01*
X0254410Y0045365D01*
X0254529Y0045308D01*
X0254646Y0045248D01*
X0254760Y0045184D01*
X0254873Y0045116D01*
X0254984Y0045045D01*
X0255093Y0044971D01*
X0255199Y0044894D01*
X0255303Y0044813D01*
X0255404Y0044730D01*
X0255503Y0044643D01*
X0255599Y0044553D01*
X0255692Y0044460D01*
X0255783Y0044365D01*
X0255870Y0044267D01*
X0255955Y0044166D01*
X0256036Y0044063D01*
X0256114Y0043957D01*
X0256189Y0043849D01*
X0256261Y0043739D01*
X0256329Y0043627D01*
X0256394Y0043513D01*
X0256455Y0043396D01*
X0256513Y0043278D01*
X0256567Y0043158D01*
X0256618Y0043037D01*
X0256665Y0042914D01*
X0256708Y0042790D01*
X0256747Y0042665D01*
X0256783Y0042538D01*
X0256814Y0042410D01*
X0256842Y0042282D01*
X0256866Y0042153D01*
X0256886Y0042023D01*
X0256902Y0041892D01*
X0256914Y0041761D01*
X0256922Y0041630D01*
X0256926Y0041499D01*
X0256926Y0041367D01*
X0256922Y0041236D01*
X0256914Y0041105D01*
X0256902Y0040974D01*
X0256886Y0040843D01*
X0256866Y0040713D01*
X0256842Y0040584D01*
X0256814Y0040456D01*
X0256783Y0040328D01*
X0256747Y0040201D01*
X0256708Y0040076D01*
X0256665Y0039952D01*
X0256618Y0039829D01*
X0256567Y0039708D01*
X0256513Y0039588D01*
X0256455Y0039470D01*
X0256394Y0039353D01*
X0256329Y0039239D01*
X0256261Y0039127D01*
X0256189Y0039017D01*
X0256114Y0038909D01*
X0256036Y0038803D01*
X0255955Y0038700D01*
X0255870Y0038599D01*
X0255783Y0038501D01*
X0255692Y0038406D01*
X0255599Y0038313D01*
X0255503Y0038223D01*
X0255404Y0038136D01*
X0255303Y0038053D01*
X0255199Y0037972D01*
X0255093Y0037895D01*
X0254984Y0037821D01*
X0254873Y0037750D01*
X0254761Y0037682D01*
X0254646Y0037618D01*
X0254529Y0037558D01*
X0254410Y0037501D01*
X0254290Y0037448D01*
X0254169Y0037398D01*
X0254045Y0037352D01*
X0253921Y0037310D01*
X0253795Y0037272D01*
X0253668Y0037237D01*
X0253540Y0037206D01*
X0253412Y0037180D01*
X0253282Y0037157D01*
X0253152Y0037138D01*
X0253022Y0037123D01*
X0252891Y0037112D01*
X0252759Y0037105D01*
X0252628Y0037102D01*
X0252496Y0037103D01*
X0252365Y0037108D01*
X0252234Y0037117D01*
X0252103Y0037130D01*
X0251973Y0037147D01*
X0251843Y0037168D01*
X0251714Y0037193D01*
X0251586Y0037221D01*
X0251458Y0037254D01*
X0251332Y0037290D01*
X0251207Y0037331D01*
X0251083Y0037375D01*
X0250960Y0037422D01*
X0250839Y0037474D01*
X0250720Y0037529D01*
X0250602Y0037588D01*
X0250487Y0037650D01*
X0250373Y0037716D01*
X0250261Y0037785D01*
X0250151Y0037857D01*
X0250044Y0037933D01*
X0249939Y0038012D01*
X0249836Y0038094D01*
X0249736Y0038179D01*
X0249639Y0038268D01*
X0249544Y0038359D01*
X0249452Y0038453D01*
X0249363Y0038550D01*
X0249277Y0038649D01*
X0249194Y0038751D01*
X0249114Y0038856D01*
X0249038Y0038962D01*
X0248965Y0039071D01*
X0248895Y0039183D01*
X0248828Y0039296D01*
X0248765Y0039411D01*
X0248705Y0039529D01*
X0248649Y0039647D01*
X0248597Y0039768D01*
X0248548Y0039890D01*
X0248503Y0040014D01*
X0248462Y0040138D01*
X0248425Y0040265D01*
X0248391Y0040392D01*
X0248361Y0040520D01*
X0248336Y0040649D01*
X0248314Y0040778D01*
X0248296Y0040908D01*
X0248282Y0041039D01*
X0248272Y0041170D01*
X0248266Y0041302D01*
X0248264Y0041433D01*
X0286907Y0075724D02*
X0286909Y0075817D01*
X0286915Y0075909D01*
X0286925Y0076001D01*
X0286939Y0076092D01*
X0286956Y0076183D01*
X0286978Y0076273D01*
X0287003Y0076362D01*
X0287032Y0076450D01*
X0287065Y0076536D01*
X0287102Y0076621D01*
X0287142Y0076705D01*
X0287186Y0076786D01*
X0287233Y0076866D01*
X0287283Y0076944D01*
X0287337Y0077019D01*
X0287394Y0077092D01*
X0287454Y0077162D01*
X0287517Y0077230D01*
X0287583Y0077295D01*
X0287651Y0077357D01*
X0287722Y0077417D01*
X0287796Y0077473D01*
X0287872Y0077526D01*
X0287950Y0077575D01*
X0288030Y0077622D01*
X0288112Y0077664D01*
X0288196Y0077704D01*
X0288281Y0077739D01*
X0288368Y0077771D01*
X0288456Y0077800D01*
X0288545Y0077824D01*
X0288635Y0077845D01*
X0288726Y0077861D01*
X0288818Y0077874D01*
X0288910Y0077883D01*
X0289003Y0077888D01*
X0289095Y0077889D01*
X0289188Y0077886D01*
X0289280Y0077879D01*
X0289372Y0077868D01*
X0289463Y0077853D01*
X0289554Y0077835D01*
X0289644Y0077812D01*
X0289732Y0077786D01*
X0289820Y0077756D01*
X0289906Y0077722D01*
X0289990Y0077685D01*
X0290073Y0077643D01*
X0290154Y0077599D01*
X0290234Y0077551D01*
X0290311Y0077500D01*
X0290385Y0077445D01*
X0290458Y0077387D01*
X0290528Y0077327D01*
X0290595Y0077263D01*
X0290659Y0077197D01*
X0290721Y0077127D01*
X0290779Y0077056D01*
X0290834Y0076982D01*
X0290886Y0076905D01*
X0290935Y0076826D01*
X0290981Y0076746D01*
X0291023Y0076663D01*
X0291061Y0076579D01*
X0291096Y0076493D01*
X0291127Y0076406D01*
X0291154Y0076318D01*
X0291177Y0076228D01*
X0291197Y0076138D01*
X0291213Y0076047D01*
X0291225Y0075955D01*
X0291233Y0075863D01*
X0291237Y0075770D01*
X0291237Y0075678D01*
X0291233Y0075585D01*
X0291225Y0075493D01*
X0291213Y0075401D01*
X0291197Y0075310D01*
X0291177Y0075220D01*
X0291154Y0075130D01*
X0291127Y0075042D01*
X0291096Y0074955D01*
X0291061Y0074869D01*
X0291023Y0074785D01*
X0290981Y0074702D01*
X0290935Y0074622D01*
X0290886Y0074543D01*
X0290834Y0074466D01*
X0290779Y0074392D01*
X0290721Y0074321D01*
X0290659Y0074251D01*
X0290595Y0074185D01*
X0290528Y0074121D01*
X0290458Y0074061D01*
X0290385Y0074003D01*
X0290311Y0073948D01*
X0290234Y0073897D01*
X0290155Y0073849D01*
X0290073Y0073805D01*
X0289990Y0073763D01*
X0289906Y0073726D01*
X0289820Y0073692D01*
X0289732Y0073662D01*
X0289644Y0073636D01*
X0289554Y0073613D01*
X0289463Y0073595D01*
X0289372Y0073580D01*
X0289280Y0073569D01*
X0289188Y0073562D01*
X0289095Y0073559D01*
X0289003Y0073560D01*
X0288910Y0073565D01*
X0288818Y0073574D01*
X0288726Y0073587D01*
X0288635Y0073603D01*
X0288545Y0073624D01*
X0288456Y0073648D01*
X0288368Y0073677D01*
X0288281Y0073709D01*
X0288196Y0073744D01*
X0288112Y0073784D01*
X0288030Y0073826D01*
X0287950Y0073873D01*
X0287872Y0073922D01*
X0287796Y0073975D01*
X0287722Y0074031D01*
X0287651Y0074091D01*
X0287583Y0074153D01*
X0287517Y0074218D01*
X0287454Y0074286D01*
X0287394Y0074356D01*
X0287337Y0074429D01*
X0287283Y0074504D01*
X0287233Y0074582D01*
X0287186Y0074662D01*
X0287142Y0074743D01*
X0287102Y0074827D01*
X0287065Y0074912D01*
X0287032Y0074998D01*
X0287003Y0075086D01*
X0286978Y0075175D01*
X0286956Y0075265D01*
X0286939Y0075356D01*
X0286925Y0075447D01*
X0286915Y0075539D01*
X0286909Y0075631D01*
X0286907Y0075724D01*
X0286907Y0093441D02*
X0286909Y0093534D01*
X0286915Y0093626D01*
X0286925Y0093718D01*
X0286939Y0093809D01*
X0286956Y0093900D01*
X0286978Y0093990D01*
X0287003Y0094079D01*
X0287032Y0094167D01*
X0287065Y0094253D01*
X0287102Y0094338D01*
X0287142Y0094422D01*
X0287186Y0094503D01*
X0287233Y0094583D01*
X0287283Y0094661D01*
X0287337Y0094736D01*
X0287394Y0094809D01*
X0287454Y0094879D01*
X0287517Y0094947D01*
X0287583Y0095012D01*
X0287651Y0095074D01*
X0287722Y0095134D01*
X0287796Y0095190D01*
X0287872Y0095243D01*
X0287950Y0095292D01*
X0288030Y0095339D01*
X0288112Y0095381D01*
X0288196Y0095421D01*
X0288281Y0095456D01*
X0288368Y0095488D01*
X0288456Y0095517D01*
X0288545Y0095541D01*
X0288635Y0095562D01*
X0288726Y0095578D01*
X0288818Y0095591D01*
X0288910Y0095600D01*
X0289003Y0095605D01*
X0289095Y0095606D01*
X0289188Y0095603D01*
X0289280Y0095596D01*
X0289372Y0095585D01*
X0289463Y0095570D01*
X0289554Y0095552D01*
X0289644Y0095529D01*
X0289732Y0095503D01*
X0289820Y0095473D01*
X0289906Y0095439D01*
X0289990Y0095402D01*
X0290073Y0095360D01*
X0290154Y0095316D01*
X0290234Y0095268D01*
X0290311Y0095217D01*
X0290385Y0095162D01*
X0290458Y0095104D01*
X0290528Y0095044D01*
X0290595Y0094980D01*
X0290659Y0094914D01*
X0290721Y0094844D01*
X0290779Y0094773D01*
X0290834Y0094699D01*
X0290886Y0094622D01*
X0290935Y0094543D01*
X0290981Y0094463D01*
X0291023Y0094380D01*
X0291061Y0094296D01*
X0291096Y0094210D01*
X0291127Y0094123D01*
X0291154Y0094035D01*
X0291177Y0093945D01*
X0291197Y0093855D01*
X0291213Y0093764D01*
X0291225Y0093672D01*
X0291233Y0093580D01*
X0291237Y0093487D01*
X0291237Y0093395D01*
X0291233Y0093302D01*
X0291225Y0093210D01*
X0291213Y0093118D01*
X0291197Y0093027D01*
X0291177Y0092937D01*
X0291154Y0092847D01*
X0291127Y0092759D01*
X0291096Y0092672D01*
X0291061Y0092586D01*
X0291023Y0092502D01*
X0290981Y0092419D01*
X0290935Y0092339D01*
X0290886Y0092260D01*
X0290834Y0092183D01*
X0290779Y0092109D01*
X0290721Y0092038D01*
X0290659Y0091968D01*
X0290595Y0091902D01*
X0290528Y0091838D01*
X0290458Y0091778D01*
X0290385Y0091720D01*
X0290311Y0091665D01*
X0290234Y0091614D01*
X0290155Y0091566D01*
X0290073Y0091522D01*
X0289990Y0091480D01*
X0289906Y0091443D01*
X0289820Y0091409D01*
X0289732Y0091379D01*
X0289644Y0091353D01*
X0289554Y0091330D01*
X0289463Y0091312D01*
X0289372Y0091297D01*
X0289280Y0091286D01*
X0289188Y0091279D01*
X0289095Y0091276D01*
X0289003Y0091277D01*
X0288910Y0091282D01*
X0288818Y0091291D01*
X0288726Y0091304D01*
X0288635Y0091320D01*
X0288545Y0091341D01*
X0288456Y0091365D01*
X0288368Y0091394D01*
X0288281Y0091426D01*
X0288196Y0091461D01*
X0288112Y0091501D01*
X0288030Y0091543D01*
X0287950Y0091590D01*
X0287872Y0091639D01*
X0287796Y0091692D01*
X0287722Y0091748D01*
X0287651Y0091808D01*
X0287583Y0091870D01*
X0287517Y0091935D01*
X0287454Y0092003D01*
X0287394Y0092073D01*
X0287337Y0092146D01*
X0287283Y0092221D01*
X0287233Y0092299D01*
X0287186Y0092379D01*
X0287142Y0092460D01*
X0287102Y0092544D01*
X0287065Y0092629D01*
X0287032Y0092715D01*
X0287003Y0092803D01*
X0286978Y0092892D01*
X0286956Y0092982D01*
X0286939Y0093073D01*
X0286925Y0093164D01*
X0286915Y0093256D01*
X0286909Y0093348D01*
X0286907Y0093441D01*
X0248264Y0127732D02*
X0248266Y0127863D01*
X0248272Y0127995D01*
X0248282Y0128126D01*
X0248296Y0128257D01*
X0248314Y0128387D01*
X0248336Y0128516D01*
X0248361Y0128645D01*
X0248391Y0128773D01*
X0248425Y0128900D01*
X0248462Y0129027D01*
X0248503Y0129151D01*
X0248548Y0129275D01*
X0248597Y0129397D01*
X0248649Y0129518D01*
X0248705Y0129636D01*
X0248765Y0129754D01*
X0248828Y0129869D01*
X0248895Y0129982D01*
X0248965Y0130094D01*
X0249038Y0130203D01*
X0249114Y0130309D01*
X0249194Y0130414D01*
X0249277Y0130516D01*
X0249363Y0130615D01*
X0249452Y0130712D01*
X0249544Y0130806D01*
X0249639Y0130897D01*
X0249736Y0130986D01*
X0249836Y0131071D01*
X0249939Y0131153D01*
X0250044Y0131232D01*
X0250151Y0131308D01*
X0250261Y0131380D01*
X0250373Y0131449D01*
X0250487Y0131515D01*
X0250602Y0131577D01*
X0250720Y0131636D01*
X0250839Y0131691D01*
X0250960Y0131743D01*
X0251083Y0131790D01*
X0251207Y0131834D01*
X0251332Y0131875D01*
X0251458Y0131911D01*
X0251586Y0131944D01*
X0251714Y0131972D01*
X0251843Y0131997D01*
X0251973Y0132018D01*
X0252103Y0132035D01*
X0252234Y0132048D01*
X0252365Y0132057D01*
X0252496Y0132062D01*
X0252628Y0132063D01*
X0252759Y0132060D01*
X0252891Y0132053D01*
X0253022Y0132042D01*
X0253152Y0132027D01*
X0253282Y0132008D01*
X0253412Y0131985D01*
X0253540Y0131959D01*
X0253668Y0131928D01*
X0253795Y0131893D01*
X0253921Y0131855D01*
X0254045Y0131813D01*
X0254169Y0131767D01*
X0254290Y0131717D01*
X0254410Y0131664D01*
X0254529Y0131607D01*
X0254646Y0131547D01*
X0254760Y0131483D01*
X0254873Y0131415D01*
X0254984Y0131344D01*
X0255093Y0131270D01*
X0255199Y0131193D01*
X0255303Y0131112D01*
X0255404Y0131029D01*
X0255503Y0130942D01*
X0255599Y0130852D01*
X0255692Y0130759D01*
X0255783Y0130664D01*
X0255870Y0130566D01*
X0255955Y0130465D01*
X0256036Y0130362D01*
X0256114Y0130256D01*
X0256189Y0130148D01*
X0256261Y0130038D01*
X0256329Y0129926D01*
X0256394Y0129812D01*
X0256455Y0129695D01*
X0256513Y0129577D01*
X0256567Y0129457D01*
X0256618Y0129336D01*
X0256665Y0129213D01*
X0256708Y0129089D01*
X0256747Y0128964D01*
X0256783Y0128837D01*
X0256814Y0128709D01*
X0256842Y0128581D01*
X0256866Y0128452D01*
X0256886Y0128322D01*
X0256902Y0128191D01*
X0256914Y0128060D01*
X0256922Y0127929D01*
X0256926Y0127798D01*
X0256926Y0127666D01*
X0256922Y0127535D01*
X0256914Y0127404D01*
X0256902Y0127273D01*
X0256886Y0127142D01*
X0256866Y0127012D01*
X0256842Y0126883D01*
X0256814Y0126755D01*
X0256783Y0126627D01*
X0256747Y0126500D01*
X0256708Y0126375D01*
X0256665Y0126251D01*
X0256618Y0126128D01*
X0256567Y0126007D01*
X0256513Y0125887D01*
X0256455Y0125769D01*
X0256394Y0125652D01*
X0256329Y0125538D01*
X0256261Y0125426D01*
X0256189Y0125316D01*
X0256114Y0125208D01*
X0256036Y0125102D01*
X0255955Y0124999D01*
X0255870Y0124898D01*
X0255783Y0124800D01*
X0255692Y0124705D01*
X0255599Y0124612D01*
X0255503Y0124522D01*
X0255404Y0124435D01*
X0255303Y0124352D01*
X0255199Y0124271D01*
X0255093Y0124194D01*
X0254984Y0124120D01*
X0254873Y0124049D01*
X0254761Y0123981D01*
X0254646Y0123917D01*
X0254529Y0123857D01*
X0254410Y0123800D01*
X0254290Y0123747D01*
X0254169Y0123697D01*
X0254045Y0123651D01*
X0253921Y0123609D01*
X0253795Y0123571D01*
X0253668Y0123536D01*
X0253540Y0123505D01*
X0253412Y0123479D01*
X0253282Y0123456D01*
X0253152Y0123437D01*
X0253022Y0123422D01*
X0252891Y0123411D01*
X0252759Y0123404D01*
X0252628Y0123401D01*
X0252496Y0123402D01*
X0252365Y0123407D01*
X0252234Y0123416D01*
X0252103Y0123429D01*
X0251973Y0123446D01*
X0251843Y0123467D01*
X0251714Y0123492D01*
X0251586Y0123520D01*
X0251458Y0123553D01*
X0251332Y0123589D01*
X0251207Y0123630D01*
X0251083Y0123674D01*
X0250960Y0123721D01*
X0250839Y0123773D01*
X0250720Y0123828D01*
X0250602Y0123887D01*
X0250487Y0123949D01*
X0250373Y0124015D01*
X0250261Y0124084D01*
X0250151Y0124156D01*
X0250044Y0124232D01*
X0249939Y0124311D01*
X0249836Y0124393D01*
X0249736Y0124478D01*
X0249639Y0124567D01*
X0249544Y0124658D01*
X0249452Y0124752D01*
X0249363Y0124849D01*
X0249277Y0124948D01*
X0249194Y0125050D01*
X0249114Y0125155D01*
X0249038Y0125261D01*
X0248965Y0125370D01*
X0248895Y0125482D01*
X0248828Y0125595D01*
X0248765Y0125710D01*
X0248705Y0125828D01*
X0248649Y0125946D01*
X0248597Y0126067D01*
X0248548Y0126189D01*
X0248503Y0126313D01*
X0248462Y0126437D01*
X0248425Y0126564D01*
X0248391Y0126691D01*
X0248361Y0126819D01*
X0248336Y0126948D01*
X0248314Y0127077D01*
X0248296Y0127207D01*
X0248282Y0127338D01*
X0248272Y0127469D01*
X0248266Y0127601D01*
X0248264Y0127732D01*
X0120764Y0127732D02*
X0120766Y0127863D01*
X0120772Y0127995D01*
X0120782Y0128126D01*
X0120796Y0128257D01*
X0120814Y0128387D01*
X0120836Y0128516D01*
X0120861Y0128645D01*
X0120891Y0128773D01*
X0120925Y0128900D01*
X0120962Y0129027D01*
X0121003Y0129151D01*
X0121048Y0129275D01*
X0121097Y0129397D01*
X0121149Y0129518D01*
X0121205Y0129636D01*
X0121265Y0129754D01*
X0121328Y0129869D01*
X0121395Y0129982D01*
X0121465Y0130094D01*
X0121538Y0130203D01*
X0121614Y0130309D01*
X0121694Y0130414D01*
X0121777Y0130516D01*
X0121863Y0130615D01*
X0121952Y0130712D01*
X0122044Y0130806D01*
X0122139Y0130897D01*
X0122236Y0130986D01*
X0122336Y0131071D01*
X0122439Y0131153D01*
X0122544Y0131232D01*
X0122651Y0131308D01*
X0122761Y0131380D01*
X0122873Y0131449D01*
X0122987Y0131515D01*
X0123102Y0131577D01*
X0123220Y0131636D01*
X0123339Y0131691D01*
X0123460Y0131743D01*
X0123583Y0131790D01*
X0123707Y0131834D01*
X0123832Y0131875D01*
X0123958Y0131911D01*
X0124086Y0131944D01*
X0124214Y0131972D01*
X0124343Y0131997D01*
X0124473Y0132018D01*
X0124603Y0132035D01*
X0124734Y0132048D01*
X0124865Y0132057D01*
X0124996Y0132062D01*
X0125128Y0132063D01*
X0125259Y0132060D01*
X0125391Y0132053D01*
X0125522Y0132042D01*
X0125652Y0132027D01*
X0125782Y0132008D01*
X0125912Y0131985D01*
X0126040Y0131959D01*
X0126168Y0131928D01*
X0126295Y0131893D01*
X0126421Y0131855D01*
X0126545Y0131813D01*
X0126669Y0131767D01*
X0126790Y0131717D01*
X0126910Y0131664D01*
X0127029Y0131607D01*
X0127146Y0131547D01*
X0127260Y0131483D01*
X0127373Y0131415D01*
X0127484Y0131344D01*
X0127593Y0131270D01*
X0127699Y0131193D01*
X0127803Y0131112D01*
X0127904Y0131029D01*
X0128003Y0130942D01*
X0128099Y0130852D01*
X0128192Y0130759D01*
X0128283Y0130664D01*
X0128370Y0130566D01*
X0128455Y0130465D01*
X0128536Y0130362D01*
X0128614Y0130256D01*
X0128689Y0130148D01*
X0128761Y0130038D01*
X0128829Y0129926D01*
X0128894Y0129812D01*
X0128955Y0129695D01*
X0129013Y0129577D01*
X0129067Y0129457D01*
X0129118Y0129336D01*
X0129165Y0129213D01*
X0129208Y0129089D01*
X0129247Y0128964D01*
X0129283Y0128837D01*
X0129314Y0128709D01*
X0129342Y0128581D01*
X0129366Y0128452D01*
X0129386Y0128322D01*
X0129402Y0128191D01*
X0129414Y0128060D01*
X0129422Y0127929D01*
X0129426Y0127798D01*
X0129426Y0127666D01*
X0129422Y0127535D01*
X0129414Y0127404D01*
X0129402Y0127273D01*
X0129386Y0127142D01*
X0129366Y0127012D01*
X0129342Y0126883D01*
X0129314Y0126755D01*
X0129283Y0126627D01*
X0129247Y0126500D01*
X0129208Y0126375D01*
X0129165Y0126251D01*
X0129118Y0126128D01*
X0129067Y0126007D01*
X0129013Y0125887D01*
X0128955Y0125769D01*
X0128894Y0125652D01*
X0128829Y0125538D01*
X0128761Y0125426D01*
X0128689Y0125316D01*
X0128614Y0125208D01*
X0128536Y0125102D01*
X0128455Y0124999D01*
X0128370Y0124898D01*
X0128283Y0124800D01*
X0128192Y0124705D01*
X0128099Y0124612D01*
X0128003Y0124522D01*
X0127904Y0124435D01*
X0127803Y0124352D01*
X0127699Y0124271D01*
X0127593Y0124194D01*
X0127484Y0124120D01*
X0127373Y0124049D01*
X0127261Y0123981D01*
X0127146Y0123917D01*
X0127029Y0123857D01*
X0126910Y0123800D01*
X0126790Y0123747D01*
X0126669Y0123697D01*
X0126545Y0123651D01*
X0126421Y0123609D01*
X0126295Y0123571D01*
X0126168Y0123536D01*
X0126040Y0123505D01*
X0125912Y0123479D01*
X0125782Y0123456D01*
X0125652Y0123437D01*
X0125522Y0123422D01*
X0125391Y0123411D01*
X0125259Y0123404D01*
X0125128Y0123401D01*
X0124996Y0123402D01*
X0124865Y0123407D01*
X0124734Y0123416D01*
X0124603Y0123429D01*
X0124473Y0123446D01*
X0124343Y0123467D01*
X0124214Y0123492D01*
X0124086Y0123520D01*
X0123958Y0123553D01*
X0123832Y0123589D01*
X0123707Y0123630D01*
X0123583Y0123674D01*
X0123460Y0123721D01*
X0123339Y0123773D01*
X0123220Y0123828D01*
X0123102Y0123887D01*
X0122987Y0123949D01*
X0122873Y0124015D01*
X0122761Y0124084D01*
X0122651Y0124156D01*
X0122544Y0124232D01*
X0122439Y0124311D01*
X0122336Y0124393D01*
X0122236Y0124478D01*
X0122139Y0124567D01*
X0122044Y0124658D01*
X0121952Y0124752D01*
X0121863Y0124849D01*
X0121777Y0124948D01*
X0121694Y0125050D01*
X0121614Y0125155D01*
X0121538Y0125261D01*
X0121465Y0125370D01*
X0121395Y0125482D01*
X0121328Y0125595D01*
X0121265Y0125710D01*
X0121205Y0125828D01*
X0121149Y0125946D01*
X0121097Y0126067D01*
X0121048Y0126189D01*
X0121003Y0126313D01*
X0120962Y0126437D01*
X0120925Y0126564D01*
X0120891Y0126691D01*
X0120861Y0126819D01*
X0120836Y0126948D01*
X0120814Y0127077D01*
X0120796Y0127207D01*
X0120782Y0127338D01*
X0120772Y0127469D01*
X0120766Y0127601D01*
X0120764Y0127732D01*
D11*
X0279623Y0098362D03*
X0279623Y0088520D03*
X0279623Y0080646D03*
X0279623Y0070803D03*
D12*
X0289072Y0061551D03*
X0289072Y0107614D03*
D13*
X0273835Y0108933D03*
X0266355Y0108933D03*
X0246335Y0086433D03*
X0238855Y0086433D03*
X0238855Y0076433D03*
X0246335Y0076433D03*
X0246335Y0058933D03*
X0238855Y0058933D03*
X0228835Y0048933D03*
X0221355Y0048933D03*
X0206335Y0043933D03*
X0198855Y0043933D03*
X0198855Y0053933D03*
X0206335Y0053933D03*
X0186335Y0058933D03*
X0178855Y0058933D03*
X0133835Y0056433D03*
X0126355Y0056433D03*
X0153855Y0041433D03*
X0161335Y0041433D03*
X0133835Y0073933D03*
X0126355Y0073933D03*
X0146355Y0091433D03*
X0153835Y0091433D03*
X0131335Y0098933D03*
X0123855Y0098933D03*
X0123855Y0111433D03*
X0131335Y0111433D03*
X0173855Y0112683D03*
X0181335Y0112683D03*
X0186355Y0093933D03*
X0193835Y0093933D03*
X0218855Y0131433D03*
X0226335Y0131433D03*
X0281355Y0048933D03*
X0288835Y0048933D03*
X0288835Y0038933D03*
X0281355Y0038933D03*
D14*
X0206335Y0063933D03*
X0198855Y0063933D03*
X0186335Y0048933D03*
X0178855Y0048933D03*
X0261355Y0093933D03*
X0268835Y0093933D03*
X0246335Y0103933D03*
X0238855Y0103933D03*
X0181335Y0103933D03*
X0173855Y0103933D03*
X0172585Y0131433D03*
X0165105Y0131433D03*
D15*
X0162595Y0060173D03*
X0150095Y0060173D03*
X0150095Y0052693D03*
X0162595Y0052693D03*
D16*
X0267300Y0126433D03*
X0292890Y0126433D03*
D17*
X0135410Y0089681D03*
X0124780Y0089681D03*
X0124780Y0083185D03*
X0135410Y0083185D03*
D18*
X0155095Y0112959D03*
X0155095Y0117683D03*
X0155095Y0122407D03*
D19*
X0145595Y0118933D02*
X0139595Y0118933D01*
X0139595Y0128933D02*
X0145595Y0128933D01*
D20*
X0203845Y0093933D03*
X0213845Y0093933D03*
X0213845Y0083933D03*
X0203845Y0083933D03*
D21*
X0134032Y0063933D03*
X0126158Y0063933D03*
D22*
X0220036Y0058933D03*
D23*
X0227516Y0058933D03*
D24*
X0140095Y0038874D03*
D25*
X0140095Y0046354D03*
D26*
X0268845Y0046423D03*
X0268845Y0038943D03*
X0215095Y0101443D03*
X0205095Y0101443D03*
X0205095Y0108923D03*
X0215095Y0108923D03*
D27*
X0215720Y0108308D01*
X0221970Y0108308D01*
X0221970Y0110183D01*
X0221970Y0108308D02*
X0240095Y0108308D01*
X0240720Y0107683D01*
X0239470Y0106433D01*
X0239470Y0103933D01*
X0238855Y0103933D01*
X0239135Y0103654D02*
X0239135Y0104213D01*
X0241176Y0104213D01*
X0241176Y0103654D01*
X0239135Y0103654D01*
X0239135Y0104213D02*
X0238575Y0104213D01*
X0238575Y0103654D01*
X0234296Y0103654D01*
X0234296Y0100717D01*
X0234432Y0100208D01*
X0234696Y0099752D01*
X0235068Y0099380D01*
X0235311Y0099240D01*
X0233049Y0096978D01*
X0232248Y0097780D01*
X0230851Y0098358D01*
X0229339Y0098358D01*
X0227943Y0097780D01*
X0227721Y0097558D01*
X0226713Y0097558D01*
X0229288Y0100133D01*
X0229601Y0100133D01*
X0230998Y0100712D01*
X0232067Y0101781D01*
X0232645Y0103177D01*
X0232645Y0104689D01*
X0232067Y0106086D01*
X0230998Y0107155D01*
X0229601Y0107733D01*
X0228089Y0107733D01*
X0226693Y0107155D01*
X0225624Y0106086D01*
X0225045Y0104689D01*
X0225045Y0104376D01*
X0220902Y0100233D01*
X0220845Y0100233D01*
X0220845Y0104519D01*
X0220449Y0105475D01*
X0220156Y0105768D01*
X0220245Y0106101D01*
X0220245Y0108644D01*
X0215375Y0108644D01*
X0215375Y0109203D01*
X0220245Y0109203D01*
X0220245Y0111558D01*
X0232602Y0111558D01*
X0233396Y0110765D01*
X0234498Y0110308D01*
X0261796Y0110308D01*
X0261796Y0109213D01*
X0266075Y0109213D01*
X0266075Y0108654D01*
X0261796Y0108654D01*
X0261796Y0105520D01*
X0261932Y0105011D01*
X0262196Y0104555D01*
X0262568Y0104183D01*
X0263024Y0103920D01*
X0263533Y0103783D01*
X0266075Y0103783D01*
X0266075Y0108653D01*
X0266635Y0108653D01*
X0266635Y0103783D01*
X0269177Y0103783D01*
X0269510Y0103873D01*
X0269803Y0103579D01*
X0270759Y0103183D01*
X0276912Y0103183D01*
X0277867Y0103579D01*
X0278599Y0104311D01*
X0278994Y0105266D01*
X0278994Y0109516D01*
X0279669Y0109795D01*
X0279550Y0109508D01*
X0279550Y0105720D01*
X0280332Y0103832D01*
X0278535Y0103832D01*
X0276524Y0103000D01*
X0274985Y0101461D01*
X0274153Y0099450D01*
X0274153Y0098082D01*
X0273842Y0097771D01*
X0273599Y0098359D01*
X0272867Y0099090D01*
X0271912Y0099486D01*
X0265759Y0099486D01*
X0264803Y0099090D01*
X0264510Y0098797D01*
X0264177Y0098886D01*
X0261635Y0098886D01*
X0261635Y0094213D01*
X0261075Y0094213D01*
X0261075Y0093654D01*
X0256796Y0093654D01*
X0256796Y0090717D01*
X0256932Y0090208D01*
X0257196Y0089752D01*
X0257568Y0089380D01*
X0258024Y0089117D01*
X0258533Y0088980D01*
X0261075Y0088980D01*
X0261075Y0093653D01*
X0261635Y0093653D01*
X0261635Y0088980D01*
X0264177Y0088980D01*
X0264216Y0088991D01*
X0264020Y0088519D01*
X0264020Y0086848D01*
X0264660Y0085304D01*
X0265841Y0084122D01*
X0267385Y0083483D01*
X0269056Y0083483D01*
X0270599Y0084122D01*
X0271781Y0085304D01*
X0272420Y0086848D01*
X0272420Y0088519D01*
X0272395Y0088580D01*
X0272867Y0088776D01*
X0273599Y0089508D01*
X0273940Y0090333D01*
X0274453Y0090333D01*
X0274153Y0089608D01*
X0274153Y0087432D01*
X0274985Y0085421D01*
X0275824Y0084583D01*
X0274985Y0083744D01*
X0274153Y0081734D01*
X0274153Y0079558D01*
X0274985Y0077547D01*
X0276524Y0076008D01*
X0278001Y0075397D01*
X0277753Y0075316D01*
X0277070Y0074968D01*
X0276450Y0074518D01*
X0275908Y0073976D01*
X0275457Y0073356D01*
X0275109Y0072673D01*
X0274873Y0071944D01*
X0274753Y0071186D01*
X0274753Y0070803D01*
X0274753Y0070420D01*
X0274873Y0069663D01*
X0275109Y0068934D01*
X0275457Y0068251D01*
X0275908Y0067630D01*
X0276450Y0067088D01*
X0277070Y0066638D01*
X0277753Y0066290D01*
X0278482Y0066053D01*
X0279239Y0065933D01*
X0279623Y0065933D01*
X0280006Y0065933D01*
X0280621Y0066031D01*
X0279550Y0063445D01*
X0279550Y0059657D01*
X0280362Y0057699D01*
X0279374Y0056711D01*
X0278795Y0055314D01*
X0278795Y0054683D01*
X0278279Y0054683D01*
X0277323Y0054287D01*
X0276703Y0053667D01*
X0258986Y0071383D01*
X0259601Y0071383D01*
X0260998Y0071962D01*
X0261286Y0072250D01*
X0267545Y0065990D01*
X0267545Y0065677D01*
X0268124Y0064281D01*
X0269193Y0063212D01*
X0270589Y0062633D01*
X0272101Y0062633D01*
X0273498Y0063212D01*
X0274567Y0064281D01*
X0275145Y0065677D01*
X0275145Y0067189D01*
X0274567Y0068586D01*
X0273498Y0069655D01*
X0272101Y0070233D01*
X0271788Y0070233D01*
X0255770Y0086251D01*
X0255770Y0086564D01*
X0255192Y0087961D01*
X0254123Y0089030D01*
X0252726Y0089608D01*
X0251494Y0089608D01*
X0251494Y0090100D01*
X0251099Y0091055D01*
X0250367Y0091787D01*
X0249412Y0092183D01*
X0243259Y0092183D01*
X0242595Y0091908D01*
X0241931Y0092183D01*
X0238436Y0092183D01*
X0239780Y0093527D01*
X0239885Y0093483D01*
X0241556Y0093483D01*
X0243099Y0094122D01*
X0243220Y0094243D01*
X0243341Y0094122D01*
X0244885Y0093483D01*
X0246556Y0093483D01*
X0248099Y0094122D01*
X0249281Y0095304D01*
X0249920Y0096848D01*
X0249920Y0098519D01*
X0249895Y0098580D01*
X0250367Y0098776D01*
X0251099Y0099508D01*
X0251182Y0099708D01*
X0254686Y0099708D01*
X0256135Y0099108D01*
X0257806Y0099108D01*
X0259349Y0099747D01*
X0260531Y0100929D01*
X0261170Y0102473D01*
X0261170Y0104144D01*
X0260531Y0105687D01*
X0259349Y0106869D01*
X0257806Y0107508D01*
X0256135Y0107508D01*
X0254686Y0106908D01*
X0251494Y0106908D01*
X0251494Y0107403D01*
X0251099Y0108359D01*
X0250367Y0109090D01*
X0249412Y0109486D01*
X0243259Y0109486D01*
X0242303Y0109090D01*
X0242010Y0108797D01*
X0241677Y0108886D01*
X0239135Y0108886D01*
X0239135Y0104213D01*
X0238575Y0104213D02*
X0238575Y0108886D01*
X0236033Y0108886D01*
X0235524Y0108750D01*
X0235068Y0108486D01*
X0234696Y0108114D01*
X0234432Y0107658D01*
X0234296Y0107149D01*
X0234296Y0104213D01*
X0238575Y0104213D01*
X0238575Y0105378D02*
X0239135Y0105378D01*
X0239135Y0107377D02*
X0238575Y0107377D01*
X0240720Y0107683D02*
X0242595Y0109558D01*
X0255720Y0109558D01*
X0256345Y0108933D01*
X0261345Y0108933D01*
X0261345Y0093933D01*
X0261355Y0093933D01*
X0261970Y0093308D01*
X0261970Y0087683D01*
X0266345Y0083308D01*
X0266970Y0083308D01*
X0279470Y0070808D01*
X0279623Y0070803D01*
X0279623Y0070803D01*
X0284493Y0070803D01*
X0284493Y0070420D01*
X0284415Y0069928D01*
X0287178Y0071072D01*
X0290965Y0071072D01*
X0294465Y0069623D01*
X0294595Y0069493D01*
X0294595Y0071440D01*
X0292623Y0073413D01*
X0292603Y0073365D01*
X0291431Y0072193D01*
X0289900Y0071559D01*
X0288243Y0071559D01*
X0286712Y0072193D01*
X0285540Y0073365D01*
X0284906Y0074896D01*
X0284906Y0076553D01*
X0285540Y0078084D01*
X0286712Y0079256D01*
X0286760Y0079276D01*
X0285093Y0080943D01*
X0285093Y0079558D01*
X0284260Y0077547D01*
X0282721Y0076008D01*
X0281245Y0075397D01*
X0281492Y0075316D01*
X0282175Y0074968D01*
X0282795Y0074518D01*
X0283337Y0073976D01*
X0283788Y0073356D01*
X0284136Y0072673D01*
X0284373Y0071944D01*
X0284493Y0071186D01*
X0284493Y0070803D01*
X0279623Y0070803D01*
X0279623Y0065933D01*
X0279623Y0070803D01*
X0279623Y0070803D01*
X0274753Y0070803D01*
X0279623Y0070803D01*
X0279623Y0070803D01*
X0279623Y0069405D02*
X0279623Y0069405D01*
X0279623Y0067406D02*
X0279623Y0067406D01*
X0276132Y0067406D02*
X0275055Y0067406D01*
X0274956Y0069405D02*
X0273747Y0069405D01*
X0274787Y0071403D02*
X0270618Y0071403D01*
X0268619Y0073402D02*
X0275491Y0073402D01*
X0277992Y0075400D02*
X0266621Y0075400D01*
X0264622Y0077399D02*
X0275134Y0077399D01*
X0274219Y0079397D02*
X0262623Y0079397D01*
X0260625Y0081396D02*
X0274153Y0081396D01*
X0274840Y0083394D02*
X0258626Y0083394D01*
X0256628Y0085393D02*
X0264623Y0085393D01*
X0264020Y0087391D02*
X0255427Y0087391D01*
X0257558Y0089390D02*
X0253253Y0089390D01*
X0250766Y0091388D02*
X0256796Y0091388D01*
X0256796Y0093387D02*
X0239640Y0093387D01*
X0238845Y0097683D02*
X0230720Y0089558D01*
X0222595Y0089558D01*
X0216970Y0083933D01*
X0213845Y0083933D01*
X0213220Y0083308D01*
X0205720Y0083308D01*
X0203845Y0083933D01*
X0206345Y0081433D01*
X0206345Y0069558D01*
X0186970Y0069558D01*
X0185095Y0067683D01*
X0177908Y0074871D01*
X0177595Y0074558D01*
X0177908Y0074871D02*
X0173220Y0079558D01*
X0173220Y0085183D01*
X0160095Y0098308D01*
X0160095Y0098933D01*
X0165095Y0103933D01*
X0169947Y0098917D02*
X0170285Y0099255D01*
X0170524Y0099117D01*
X0171033Y0098980D01*
X0173575Y0098980D01*
X0173575Y0103653D01*
X0174135Y0103653D01*
X0174135Y0098980D01*
X0176677Y0098980D01*
X0177010Y0099069D01*
X0177303Y0098776D01*
X0178259Y0098380D01*
X0182265Y0098380D01*
X0182196Y0098311D01*
X0181932Y0097855D01*
X0181796Y0097346D01*
X0181796Y0094213D01*
X0186075Y0094213D01*
X0186075Y0093654D01*
X0181796Y0093654D01*
X0181796Y0090520D01*
X0181932Y0090011D01*
X0182196Y0089555D01*
X0182568Y0089183D01*
X0183024Y0088920D01*
X0183533Y0088783D01*
X0186075Y0088783D01*
X0186075Y0093653D01*
X0186635Y0093653D01*
X0186635Y0088783D01*
X0189177Y0088783D01*
X0189510Y0088873D01*
X0189803Y0088579D01*
X0190759Y0088183D01*
X0196295Y0088183D01*
X0196295Y0088177D01*
X0196874Y0086781D01*
X0197943Y0085712D01*
X0198245Y0085586D01*
X0198245Y0081613D01*
X0198576Y0081283D01*
X0184711Y0081283D01*
X0181509Y0084485D01*
X0180186Y0085033D01*
X0179879Y0085033D01*
X0178431Y0085633D01*
X0176820Y0085633D01*
X0176820Y0085899D01*
X0176272Y0087222D01*
X0175259Y0088235D01*
X0168765Y0094729D01*
X0169567Y0095531D01*
X0170145Y0096927D01*
X0170145Y0098439D01*
X0169947Y0098917D01*
X0170145Y0097384D02*
X0181806Y0097384D01*
X0181796Y0095385D02*
X0169421Y0095385D01*
X0170107Y0093387D02*
X0181796Y0093387D01*
X0181970Y0093933D02*
X0181970Y0085183D01*
X0182600Y0083394D02*
X0198245Y0083394D01*
X0198463Y0081396D02*
X0184599Y0081396D01*
X0183220Y0077683D02*
X0179470Y0081433D01*
X0177595Y0081433D01*
X0179010Y0085393D02*
X0198245Y0085393D01*
X0196621Y0087391D02*
X0176103Y0087391D01*
X0174104Y0089390D02*
X0182361Y0089390D01*
X0186075Y0089390D02*
X0186635Y0089390D01*
X0186635Y0091388D02*
X0186075Y0091388D01*
X0186075Y0093387D02*
X0186635Y0093387D01*
X0186355Y0093933D02*
X0181970Y0093933D01*
X0174470Y0101433D01*
X0174470Y0103933D01*
X0173855Y0103933D01*
X0174135Y0103654D02*
X0174135Y0104213D01*
X0176176Y0104213D01*
X0176176Y0103654D01*
X0174135Y0103654D01*
X0174135Y0103379D02*
X0173575Y0103379D01*
X0173575Y0101381D02*
X0174135Y0101381D01*
X0174135Y0099382D02*
X0173575Y0099382D01*
X0185674Y0099083D02*
X0186099Y0099508D01*
X0186494Y0100463D01*
X0186494Y0103258D01*
X0187101Y0103258D01*
X0188498Y0103837D01*
X0189567Y0104906D01*
X0190145Y0106302D01*
X0190145Y0107814D01*
X0189567Y0109211D01*
X0188498Y0110280D01*
X0187101Y0110858D01*
X0185894Y0110858D01*
X0185894Y0112404D01*
X0181615Y0112404D01*
X0181615Y0112963D01*
X0181056Y0112963D01*
X0181056Y0117833D01*
X0178513Y0117833D01*
X0178180Y0117743D01*
X0177887Y0118037D01*
X0177645Y0118137D01*
X0177645Y0119064D01*
X0177067Y0120461D01*
X0176778Y0120749D01*
X0179913Y0123883D01*
X0180226Y0123883D01*
X0181623Y0124462D01*
X0182692Y0125531D01*
X0183270Y0126927D01*
X0183270Y0128439D01*
X0182692Y0129836D01*
X0181623Y0130905D01*
X0180226Y0131483D01*
X0178714Y0131483D01*
X0177318Y0130905D01*
X0177144Y0130731D01*
X0177144Y0131154D01*
X0172865Y0131154D01*
X0172865Y0131713D01*
X0177144Y0131713D01*
X0177144Y0134649D01*
X0177008Y0135158D01*
X0176745Y0135614D01*
X0176626Y0135732D01*
X0213958Y0135732D01*
X0213696Y0135100D01*
X0213696Y0130683D01*
X0198719Y0130683D01*
X0198498Y0130905D01*
X0197101Y0131483D01*
X0195589Y0131483D01*
X0194193Y0130905D01*
X0193124Y0129836D01*
X0192545Y0128439D01*
X0192545Y0126927D01*
X0193124Y0125531D01*
X0193596Y0125058D01*
X0188873Y0125058D01*
X0187771Y0124601D01*
X0185902Y0122733D01*
X0185589Y0122733D01*
X0184193Y0122155D01*
X0183124Y0121086D01*
X0182545Y0119689D01*
X0182545Y0118177D01*
X0182688Y0117833D01*
X0181615Y0117833D01*
X0181615Y0112963D01*
X0185894Y0112963D01*
X0185894Y0115133D01*
X0187101Y0115133D01*
X0188498Y0115712D01*
X0189567Y0116781D01*
X0190145Y0118177D01*
X0190145Y0118490D01*
X0190713Y0119058D01*
X0196920Y0119058D01*
X0196920Y0118177D01*
X0197105Y0117731D01*
X0197101Y0117733D01*
X0195589Y0117733D01*
X0194193Y0117155D01*
X0193124Y0116086D01*
X0192545Y0114689D01*
X0192545Y0113177D01*
X0193124Y0111781D01*
X0194193Y0110712D01*
X0195589Y0110133D01*
X0197101Y0110133D01*
X0198498Y0110712D01*
X0198719Y0110933D01*
X0199946Y0110933D01*
X0199946Y0109203D01*
X0204816Y0109203D01*
X0204816Y0108644D01*
X0199946Y0108644D01*
X0199946Y0106101D01*
X0200035Y0105768D01*
X0199741Y0105475D01*
X0199346Y0104519D01*
X0199346Y0100735D01*
X0198942Y0101711D01*
X0197873Y0102780D01*
X0196476Y0103358D01*
X0194964Y0103358D01*
X0193568Y0102780D01*
X0192499Y0101711D01*
X0191920Y0100314D01*
X0191920Y0099683D01*
X0190759Y0099683D01*
X0189803Y0099287D01*
X0189510Y0098993D01*
X0189177Y0099083D01*
X0186635Y0099083D01*
X0186635Y0094213D01*
X0186075Y0094213D01*
X0186075Y0099083D01*
X0185674Y0099083D01*
X0185973Y0099382D02*
X0190034Y0099382D01*
X0192362Y0101381D02*
X0186494Y0101381D01*
X0187394Y0103379D02*
X0199346Y0103379D01*
X0199346Y0101381D02*
X0199078Y0101381D01*
X0205095Y0101443D02*
X0205095Y0095183D01*
X0203845Y0093933D01*
X0213845Y0093933D02*
X0215095Y0095183D01*
X0215095Y0101443D01*
X0220845Y0101381D02*
X0222050Y0101381D01*
X0220845Y0103379D02*
X0224049Y0103379D01*
X0225331Y0105378D02*
X0220489Y0105378D01*
X0220245Y0107377D02*
X0227228Y0107377D01*
X0230462Y0107377D02*
X0234357Y0107377D01*
X0234296Y0105378D02*
X0232360Y0105378D01*
X0232645Y0103379D02*
X0234296Y0103379D01*
X0234296Y0101381D02*
X0231667Y0101381D01*
X0228537Y0099382D02*
X0235065Y0099382D01*
X0233455Y0097384D02*
X0232643Y0097384D01*
X0238845Y0097683D02*
X0240720Y0097683D01*
X0245720Y0097683D02*
X0245720Y0103308D01*
X0246335Y0103933D01*
X0246345Y0103933D01*
X0246970Y0103308D01*
X0256970Y0103308D01*
X0261170Y0103379D02*
X0270286Y0103379D01*
X0266635Y0105378D02*
X0266075Y0105378D01*
X0266075Y0107377D02*
X0266635Y0107377D01*
X0266355Y0108933D02*
X0261345Y0108933D01*
X0261796Y0109375D02*
X0249679Y0109375D01*
X0251494Y0107377D02*
X0255817Y0107377D01*
X0258123Y0107377D02*
X0261796Y0107377D01*
X0261834Y0105378D02*
X0260659Y0105378D01*
X0264470Y0109558D02*
X0266355Y0108933D01*
X0264470Y0109558D02*
X0281345Y0126433D01*
X0292890Y0126433D01*
X0292808Y0126350D02*
X0292973Y0126350D01*
X0292973Y0121185D01*
X0293303Y0121185D01*
X0294119Y0121314D01*
X0294905Y0121570D01*
X0295220Y0121730D01*
X0295220Y0117676D01*
X0293592Y0116047D01*
X0290965Y0117135D01*
X0287178Y0117135D01*
X0283678Y0115686D01*
X0282020Y0114028D01*
X0282020Y0114064D01*
X0281442Y0115461D01*
X0280373Y0116530D01*
X0278976Y0117108D01*
X0277464Y0117108D01*
X0276068Y0116530D01*
X0274999Y0115461D01*
X0274676Y0114683D01*
X0270759Y0114683D01*
X0269803Y0114287D01*
X0269510Y0113993D01*
X0269177Y0114083D01*
X0266987Y0114083D01*
X0281963Y0129058D01*
X0288338Y0129058D01*
X0288027Y0128448D01*
X0287772Y0127662D01*
X0287642Y0126846D01*
X0287642Y0126516D01*
X0292808Y0126516D01*
X0292808Y0126350D01*
X0292808Y0121185D01*
X0292477Y0121185D01*
X0291661Y0121314D01*
X0290876Y0121570D01*
X0290140Y0121945D01*
X0289472Y0122430D01*
X0288887Y0123014D01*
X0288402Y0123682D01*
X0288027Y0124419D01*
X0287772Y0125204D01*
X0287642Y0126020D01*
X0287642Y0126350D01*
X0292808Y0126350D01*
X0292808Y0125363D02*
X0292973Y0125363D01*
X0292973Y0123365D02*
X0292808Y0123365D01*
X0288633Y0123365D02*
X0276269Y0123365D01*
X0278268Y0125363D02*
X0287746Y0125363D01*
X0287724Y0127362D02*
X0280266Y0127362D01*
X0274271Y0121366D02*
X0291502Y0121366D01*
X0292808Y0121366D02*
X0292973Y0121366D01*
X0294279Y0121366D02*
X0295220Y0121366D01*
X0295220Y0119368D02*
X0272272Y0119368D01*
X0270274Y0117369D02*
X0294913Y0117369D01*
X0283363Y0115371D02*
X0281479Y0115371D01*
X0274961Y0115371D02*
X0268275Y0115371D01*
X0278994Y0109375D02*
X0279550Y0109375D01*
X0279550Y0107377D02*
X0278994Y0107377D01*
X0278994Y0105378D02*
X0279692Y0105378D01*
X0277441Y0103379D02*
X0277385Y0103379D01*
X0274952Y0101381D02*
X0260718Y0101381D01*
X0258468Y0099382D02*
X0265510Y0099382D01*
X0261075Y0098886D02*
X0258533Y0098886D01*
X0258024Y0098750D01*
X0257568Y0098486D01*
X0257196Y0098114D01*
X0256932Y0097658D01*
X0256796Y0097149D01*
X0256796Y0094213D01*
X0261075Y0094213D01*
X0261075Y0098886D01*
X0261075Y0097384D02*
X0261635Y0097384D01*
X0261635Y0095385D02*
X0261075Y0095385D01*
X0256796Y0095385D02*
X0249314Y0095385D01*
X0249920Y0097384D02*
X0256859Y0097384D01*
X0255472Y0099382D02*
X0250973Y0099382D01*
X0261075Y0093387D02*
X0261635Y0093387D01*
X0261635Y0091388D02*
X0261075Y0091388D01*
X0261075Y0089390D02*
X0261635Y0089390D01*
X0268220Y0087683D02*
X0268220Y0093308D01*
X0268835Y0093933D01*
X0275095Y0093933D01*
X0279470Y0098308D01*
X0279623Y0098362D01*
X0274153Y0099382D02*
X0272161Y0099382D01*
X0273481Y0089390D02*
X0274153Y0089390D01*
X0274169Y0087391D02*
X0272420Y0087391D01*
X0271818Y0085393D02*
X0275014Y0085393D01*
X0285026Y0079397D02*
X0286638Y0079397D01*
X0285257Y0077399D02*
X0284112Y0077399D01*
X0284906Y0075400D02*
X0281253Y0075400D01*
X0283754Y0073402D02*
X0285525Y0073402D01*
X0284458Y0071403D02*
X0294595Y0071403D01*
X0292634Y0073402D02*
X0292618Y0073402D01*
X0280363Y0065408D02*
X0275034Y0065408D01*
X0273695Y0063409D02*
X0279550Y0063409D01*
X0279550Y0061411D02*
X0268959Y0061411D01*
X0270957Y0059412D02*
X0279652Y0059412D01*
X0280077Y0057414D02*
X0272956Y0057414D01*
X0274954Y0055415D02*
X0278837Y0055415D01*
X0275095Y0050183D02*
X0254470Y0070808D01*
X0250720Y0070808D01*
X0245720Y0075808D01*
X0246335Y0076433D01*
X0246345Y0076433D01*
X0246345Y0086433D01*
X0246335Y0086433D01*
X0230095Y0074558D02*
X0219470Y0074558D01*
X0225912Y0070958D02*
X0228604Y0070958D01*
X0231418Y0068144D01*
X0232431Y0067131D01*
X0233754Y0066583D01*
X0240311Y0066583D01*
X0241760Y0065983D01*
X0243431Y0065983D01*
X0244974Y0066622D01*
X0246156Y0067804D01*
X0246795Y0069348D01*
X0246795Y0069642D01*
X0248681Y0067756D01*
X0250004Y0067208D01*
X0252979Y0067208D01*
X0254329Y0065858D01*
X0253089Y0065858D01*
X0251693Y0065280D01*
X0250624Y0064211D01*
X0250322Y0063483D01*
X0250122Y0063683D01*
X0249666Y0063946D01*
X0249158Y0064083D01*
X0246615Y0064083D01*
X0246615Y0059213D01*
X0246056Y0059213D01*
X0246056Y0064083D01*
X0243513Y0064083D01*
X0243180Y0063993D01*
X0242887Y0064287D01*
X0241931Y0064683D01*
X0235779Y0064683D01*
X0234823Y0064287D01*
X0234092Y0063555D01*
X0233908Y0063113D01*
X0226170Y0070851D01*
X0225912Y0070958D01*
X0227616Y0069405D02*
X0230157Y0069405D01*
X0229615Y0067406D02*
X0232156Y0067406D01*
X0231613Y0065408D02*
X0252002Y0065408D01*
X0246615Y0063409D02*
X0246056Y0063409D01*
X0246056Y0061411D02*
X0246615Y0061411D01*
X0246615Y0059412D02*
X0246056Y0059412D01*
X0246056Y0059213D02*
X0246056Y0058654D01*
X0244014Y0058654D01*
X0244014Y0059213D01*
X0246056Y0059213D01*
X0246335Y0058933D02*
X0245720Y0058933D01*
X0245720Y0055808D01*
X0242595Y0052683D01*
X0243220Y0052058D01*
X0243845Y0052058D01*
X0242595Y0052683D02*
X0232595Y0042683D01*
X0225095Y0042683D01*
X0222595Y0045183D01*
X0211345Y0033933D01*
X0190095Y0033933D01*
X0175720Y0048308D01*
X0175720Y0048933D01*
X0178855Y0048933D01*
X0179135Y0048653D02*
X0179135Y0043980D01*
X0181677Y0043980D01*
X0182010Y0044069D01*
X0182303Y0043776D01*
X0183259Y0043380D01*
X0187655Y0043380D01*
X0187720Y0043315D01*
X0187720Y0041307D01*
X0187499Y0041086D01*
X0186920Y0039689D01*
X0186920Y0038177D01*
X0187499Y0036781D01*
X0188568Y0035712D01*
X0189964Y0035133D01*
X0191476Y0035133D01*
X0192873Y0035712D01*
X0193942Y0036781D01*
X0194520Y0038177D01*
X0194520Y0038882D01*
X0194823Y0038579D01*
X0195779Y0038183D01*
X0197545Y0038183D01*
X0197545Y0037552D01*
X0198124Y0036156D01*
X0199193Y0035087D01*
X0200589Y0034508D01*
X0202101Y0034508D01*
X0203498Y0035087D01*
X0203719Y0035308D01*
X0203971Y0035308D01*
X0204193Y0035087D01*
X0205589Y0034508D01*
X0207101Y0034508D01*
X0208220Y0034972D01*
X0209339Y0034508D01*
X0210851Y0034508D01*
X0212248Y0035087D01*
X0213317Y0036156D01*
X0213895Y0037552D01*
X0213895Y0039064D01*
X0213317Y0040461D01*
X0213095Y0040682D01*
X0213095Y0052065D01*
X0215310Y0054280D01*
X0215582Y0054168D01*
X0224490Y0054168D01*
X0224957Y0054361D01*
X0224970Y0054356D01*
X0224803Y0054287D01*
X0224510Y0053993D01*
X0224177Y0054083D01*
X0221635Y0054083D01*
X0221635Y0049213D01*
X0223676Y0049213D01*
X0223676Y0048654D01*
X0221635Y0048654D01*
X0221635Y0049213D01*
X0221075Y0049213D01*
X0221075Y0048654D01*
X0216796Y0048654D01*
X0216796Y0045520D01*
X0216932Y0045011D01*
X0217196Y0044555D01*
X0217568Y0044183D01*
X0218024Y0043920D01*
X0218533Y0043783D01*
X0221075Y0043783D01*
X0221075Y0048653D01*
X0221635Y0048653D01*
X0221635Y0043783D01*
X0224177Y0043783D01*
X0224510Y0043873D01*
X0224803Y0043579D01*
X0225759Y0043183D01*
X0231912Y0043183D01*
X0232867Y0043579D01*
X0233599Y0044311D01*
X0233994Y0045266D01*
X0233994Y0049516D01*
X0235373Y0050087D01*
X0236442Y0051156D01*
X0237020Y0052552D01*
X0237020Y0053183D01*
X0241931Y0053183D01*
X0242887Y0053579D01*
X0243180Y0053873D01*
X0243513Y0053783D01*
X0246056Y0053783D01*
X0246056Y0058653D01*
X0246615Y0058653D01*
X0246615Y0053783D01*
X0249158Y0053783D01*
X0249666Y0053920D01*
X0250122Y0054183D01*
X0250495Y0054555D01*
X0250758Y0055011D01*
X0250894Y0055520D01*
X0250894Y0058654D01*
X0246615Y0058654D01*
X0246615Y0059213D01*
X0250894Y0059213D01*
X0250894Y0059635D01*
X0251693Y0058837D01*
X0252545Y0058483D01*
X0252545Y0058177D01*
X0253124Y0056781D01*
X0254193Y0055712D01*
X0255589Y0055133D01*
X0255902Y0055133D01*
X0263096Y0047940D01*
X0263096Y0044137D01*
X0262699Y0045618D01*
X0261271Y0048091D01*
X0259253Y0050109D01*
X0256780Y0051537D01*
X0254023Y0052276D01*
X0251168Y0052276D01*
X0248410Y0051537D01*
X0245938Y0050109D01*
X0243919Y0048091D01*
X0242492Y0045618D01*
X0241753Y0042861D01*
X0241753Y0040006D01*
X0242492Y0037248D01*
X0243919Y0034776D01*
X0245262Y0033433D01*
X0157469Y0033433D01*
X0157692Y0033656D01*
X0158270Y0035052D01*
X0158270Y0036349D01*
X0158513Y0036283D01*
X0161056Y0036283D01*
X0161056Y0041153D01*
X0161615Y0041153D01*
X0161615Y0036283D01*
X0164158Y0036283D01*
X0164666Y0036420D01*
X0165122Y0036683D01*
X0165495Y0037055D01*
X0165758Y0037511D01*
X0165894Y0038020D01*
X0165894Y0041154D01*
X0161615Y0041154D01*
X0161615Y0041713D01*
X0161056Y0041713D01*
X0161056Y0046583D01*
X0158513Y0046583D01*
X0158180Y0046493D01*
X0157887Y0046787D01*
X0156931Y0047183D01*
X0150779Y0047183D01*
X0149823Y0046787D01*
X0149092Y0046055D01*
X0148696Y0045100D01*
X0148696Y0042108D01*
X0147464Y0042108D01*
X0146068Y0041530D01*
X0145846Y0041308D01*
X0144860Y0041308D01*
X0144860Y0043328D01*
X0144667Y0043795D01*
X0144860Y0044262D01*
X0144860Y0048446D01*
X0144465Y0049402D01*
X0143733Y0050133D01*
X0143095Y0050398D01*
X0143095Y0050780D01*
X0142638Y0051882D01*
X0138994Y0055527D01*
X0138994Y0060100D01*
X0138599Y0061055D01*
X0138487Y0061167D01*
X0139207Y0062904D01*
X0139207Y0064962D01*
X0138419Y0066864D01*
X0137045Y0068239D01*
X0137867Y0068579D01*
X0138599Y0069311D01*
X0138994Y0070266D01*
X0138994Y0070933D01*
X0143817Y0070933D01*
X0144920Y0071390D01*
X0145763Y0072234D01*
X0147953Y0074423D01*
X0147545Y0073439D01*
X0147545Y0073116D01*
X0147095Y0072030D01*
X0147095Y0065332D01*
X0146625Y0065332D01*
X0145670Y0064936D01*
X0144938Y0064205D01*
X0144542Y0063249D01*
X0144542Y0057097D01*
X0144938Y0056141D01*
X0145232Y0055848D01*
X0145142Y0055515D01*
X0145142Y0052972D01*
X0149816Y0052972D01*
X0149816Y0052413D01*
X0150375Y0052413D01*
X0150375Y0052972D01*
X0155048Y0052972D01*
X0155048Y0055481D01*
X0155443Y0055087D01*
X0156839Y0054508D01*
X0157642Y0054508D01*
X0157642Y0052972D01*
X0162316Y0052972D01*
X0162316Y0052413D01*
X0162875Y0052413D01*
X0162875Y0052972D01*
X0167548Y0052972D01*
X0167548Y0055515D01*
X0167459Y0055848D01*
X0167752Y0056141D01*
X0168148Y0057097D01*
X0168148Y0063249D01*
X0167752Y0064205D01*
X0167021Y0064936D01*
X0166065Y0065332D01*
X0159125Y0065332D01*
X0158170Y0064936D01*
X0157438Y0064205D01*
X0157042Y0063249D01*
X0157042Y0062108D01*
X0156839Y0062108D01*
X0155648Y0061615D01*
X0155648Y0063249D01*
X0155252Y0064205D01*
X0154521Y0064936D01*
X0153565Y0065332D01*
X0153095Y0065332D01*
X0153095Y0069295D01*
X0153498Y0069462D01*
X0154567Y0070531D01*
X0155145Y0071927D01*
X0155145Y0073439D01*
X0154630Y0074683D01*
X0156471Y0074683D01*
X0156693Y0074462D01*
X0158089Y0073883D01*
X0159601Y0073883D01*
X0160998Y0074462D01*
X0162067Y0075531D01*
X0162645Y0076927D01*
X0162645Y0078439D01*
X0162637Y0078458D01*
X0162979Y0078458D01*
X0167810Y0073627D01*
X0168410Y0072179D01*
X0169591Y0070997D01*
X0171135Y0070358D01*
X0172806Y0070358D01*
X0174349Y0070997D01*
X0174783Y0071431D01*
X0175216Y0070997D01*
X0176760Y0070358D01*
X0177329Y0070358D01*
X0180004Y0067683D01*
X0177004Y0064683D01*
X0175779Y0064683D01*
X0174823Y0064287D01*
X0174092Y0063555D01*
X0173696Y0062600D01*
X0173696Y0055266D01*
X0174092Y0054311D01*
X0174823Y0053579D01*
X0175062Y0053480D01*
X0174696Y0053114D01*
X0174432Y0052658D01*
X0174296Y0052149D01*
X0174296Y0049213D01*
X0178575Y0049213D01*
X0178575Y0048654D01*
X0174296Y0048654D01*
X0174296Y0045717D01*
X0174432Y0045208D01*
X0174696Y0044752D01*
X0175068Y0044380D01*
X0175524Y0044117D01*
X0176033Y0043980D01*
X0178575Y0043980D01*
X0178575Y0048653D01*
X0179135Y0048653D01*
X0179135Y0047421D02*
X0178575Y0047421D01*
X0178575Y0045423D02*
X0179135Y0045423D01*
X0183153Y0043424D02*
X0165894Y0043424D01*
X0165894Y0044846D02*
X0165758Y0045355D01*
X0165495Y0045811D01*
X0165122Y0046183D01*
X0164666Y0046446D01*
X0164158Y0046583D01*
X0161615Y0046583D01*
X0161615Y0041713D01*
X0165894Y0041713D01*
X0165894Y0044846D01*
X0165719Y0045423D02*
X0174375Y0045423D01*
X0174296Y0047421D02*
X0144860Y0047421D01*
X0145914Y0048533D02*
X0146370Y0048270D01*
X0146879Y0048134D01*
X0149816Y0048134D01*
X0149816Y0052413D01*
X0145142Y0052413D01*
X0145142Y0049871D01*
X0145279Y0049362D01*
X0145542Y0048906D01*
X0145914Y0048533D01*
X0145263Y0049420D02*
X0144447Y0049420D01*
X0145142Y0051418D02*
X0142831Y0051418D01*
X0141104Y0053417D02*
X0145142Y0053417D01*
X0145142Y0055415D02*
X0139106Y0055415D01*
X0138994Y0057414D02*
X0144542Y0057414D01*
X0144470Y0056433D02*
X0147595Y0053308D01*
X0149470Y0053308D01*
X0150095Y0052693D01*
X0150095Y0052683D01*
X0162595Y0052683D01*
X0162595Y0052693D01*
X0163220Y0052058D01*
X0166345Y0048933D01*
X0168220Y0048933D01*
X0168220Y0048308D01*
X0167908Y0047996D01*
X0168220Y0047683D01*
X0167908Y0047996D02*
X0161345Y0041433D01*
X0161335Y0041433D01*
X0161615Y0041426D02*
X0187720Y0041426D01*
X0186920Y0039427D02*
X0165894Y0039427D01*
X0165710Y0037429D02*
X0187230Y0037429D01*
X0189247Y0035430D02*
X0158270Y0035430D01*
X0161056Y0037429D02*
X0161615Y0037429D01*
X0161615Y0039427D02*
X0161056Y0039427D01*
X0161056Y0043424D02*
X0161615Y0043424D01*
X0161615Y0045423D02*
X0161056Y0045423D01*
X0162316Y0048134D02*
X0159379Y0048134D01*
X0158870Y0048270D01*
X0158414Y0048533D01*
X0158042Y0048906D01*
X0157779Y0049362D01*
X0157642Y0049871D01*
X0157642Y0052413D01*
X0162316Y0052413D01*
X0162316Y0048134D01*
X0162875Y0048134D02*
X0165811Y0048134D01*
X0166320Y0048270D01*
X0166776Y0048533D01*
X0167148Y0048906D01*
X0167412Y0049362D01*
X0167548Y0049871D01*
X0167548Y0052413D01*
X0162875Y0052413D01*
X0162875Y0048134D01*
X0162875Y0049420D02*
X0162316Y0049420D01*
X0162316Y0051418D02*
X0162875Y0051418D01*
X0167548Y0051418D02*
X0174296Y0051418D01*
X0174296Y0049420D02*
X0167427Y0049420D01*
X0168220Y0048933D02*
X0175720Y0048933D01*
X0174998Y0053417D02*
X0167548Y0053417D01*
X0167548Y0055415D02*
X0173696Y0055415D01*
X0173696Y0057414D02*
X0168148Y0057414D01*
X0168148Y0059412D02*
X0173696Y0059412D01*
X0173696Y0061411D02*
X0168148Y0061411D01*
X0168082Y0063409D02*
X0174031Y0063409D01*
X0177729Y0065408D02*
X0153095Y0065408D01*
X0155582Y0063409D02*
X0157109Y0063409D01*
X0153095Y0067406D02*
X0179727Y0067406D01*
X0178282Y0069405D02*
X0153361Y0069405D01*
X0154928Y0071403D02*
X0169185Y0071403D01*
X0167903Y0073402D02*
X0155145Y0073402D01*
X0161936Y0075400D02*
X0166037Y0075400D01*
X0171970Y0074558D02*
X0164470Y0082058D01*
X0146970Y0082058D01*
X0146345Y0082683D01*
X0143220Y0079558D01*
X0146345Y0082683D02*
X0146345Y0091433D01*
X0146355Y0091433D01*
X0147595Y0098308D02*
X0141970Y0098308D01*
X0135095Y0105183D01*
X0127595Y0105183D01*
X0124470Y0108308D01*
X0124470Y0111433D01*
X0123855Y0111433D01*
X0118696Y0111374D02*
X0116898Y0111374D01*
X0116898Y0109375D02*
X0118696Y0109375D01*
X0118696Y0107766D02*
X0119092Y0106811D01*
X0119823Y0106079D01*
X0120779Y0105683D01*
X0122004Y0105683D01*
X0123004Y0104683D01*
X0120779Y0104683D01*
X0119823Y0104287D01*
X0119092Y0103555D01*
X0118696Y0102600D01*
X0118696Y0095266D01*
X0119092Y0094311D01*
X0119823Y0093579D01*
X0120279Y0093391D01*
X0120206Y0093348D01*
X0119833Y0092976D01*
X0119570Y0092520D01*
X0119434Y0092011D01*
X0119434Y0089715D01*
X0124747Y0089715D01*
X0124747Y0089648D01*
X0119434Y0089648D01*
X0119434Y0087351D01*
X0119570Y0086842D01*
X0119806Y0086433D01*
X0119570Y0086024D01*
X0119434Y0085515D01*
X0119434Y0083219D01*
X0124747Y0083219D01*
X0124747Y0089648D01*
X0124814Y0089648D01*
X0124814Y0085614D01*
X0124814Y0083219D01*
X0124747Y0083219D01*
X0124747Y0083152D01*
X0119434Y0083152D01*
X0119434Y0080855D01*
X0119570Y0080346D01*
X0119833Y0079890D01*
X0120206Y0079518D01*
X0120662Y0079254D01*
X0121170Y0079118D01*
X0122154Y0079118D01*
X0121592Y0078555D01*
X0121196Y0077600D01*
X0121196Y0070266D01*
X0121592Y0069311D01*
X0122323Y0068579D01*
X0123279Y0068183D01*
X0124435Y0068183D01*
X0124402Y0068173D01*
X0123760Y0067846D01*
X0123178Y0067423D01*
X0122669Y0066913D01*
X0122245Y0066331D01*
X0121918Y0065689D01*
X0121696Y0065004D01*
X0121583Y0064293D01*
X0121583Y0063933D01*
X0121583Y0063573D01*
X0121696Y0062862D01*
X0121918Y0062177D01*
X0122187Y0061650D01*
X0121592Y0061055D01*
X0121251Y0060233D01*
X0120589Y0060233D01*
X0119193Y0059655D01*
X0118124Y0058586D01*
X0117545Y0057189D01*
X0117545Y0055677D01*
X0118124Y0054281D01*
X0119193Y0053212D01*
X0120589Y0052633D01*
X0121251Y0052633D01*
X0121592Y0051811D01*
X0121664Y0051739D01*
X0120910Y0051537D01*
X0118438Y0050109D01*
X0116898Y0048570D01*
X0116898Y0120596D01*
X0118438Y0119056D01*
X0120910Y0117629D01*
X0122575Y0117183D01*
X0120779Y0117183D01*
X0119823Y0116787D01*
X0119092Y0116055D01*
X0118696Y0115100D01*
X0118696Y0107766D01*
X0118857Y0107377D02*
X0116898Y0107377D01*
X0116898Y0105378D02*
X0122309Y0105378D01*
X0119019Y0103379D02*
X0116898Y0103379D01*
X0116898Y0101381D02*
X0118696Y0101381D01*
X0118696Y0099382D02*
X0116898Y0099382D01*
X0116898Y0097384D02*
X0118696Y0097384D01*
X0118696Y0095385D02*
X0116898Y0095385D01*
X0116898Y0093387D02*
X0120272Y0093387D01*
X0119434Y0091388D02*
X0116898Y0091388D01*
X0116898Y0089390D02*
X0119434Y0089390D01*
X0119434Y0087391D02*
X0116898Y0087391D01*
X0116898Y0085393D02*
X0119434Y0085393D01*
X0124747Y0085393D02*
X0124814Y0085393D01*
X0124814Y0087391D02*
X0124747Y0087391D01*
X0124747Y0089390D02*
X0124814Y0089390D01*
X0124780Y0089681D02*
X0125095Y0089558D01*
X0125095Y0083308D01*
X0124780Y0083185D01*
X0124470Y0082683D01*
X0120720Y0078933D01*
X0120720Y0068933D01*
X0125720Y0063933D01*
X0126158Y0063933D01*
X0121583Y0063933D01*
X0126158Y0063933D01*
X0126158Y0063933D01*
X0121827Y0065408D02*
X0116898Y0065408D01*
X0116898Y0063409D02*
X0121609Y0063409D01*
X0121947Y0061411D02*
X0116898Y0061411D01*
X0116898Y0059412D02*
X0118950Y0059412D01*
X0117638Y0057414D02*
X0116898Y0057414D01*
X0116898Y0055415D02*
X0117654Y0055415D01*
X0116898Y0053417D02*
X0118987Y0053417D01*
X0120705Y0051418D02*
X0116898Y0051418D01*
X0116898Y0049420D02*
X0117748Y0049420D01*
X0138994Y0059412D02*
X0144542Y0059412D01*
X0144470Y0060808D02*
X0144470Y0056433D01*
X0144470Y0060808D02*
X0138845Y0066433D01*
X0138845Y0067683D01*
X0137877Y0067406D02*
X0147095Y0067406D01*
X0147095Y0069405D02*
X0138637Y0069405D01*
X0144933Y0071403D02*
X0147095Y0071403D01*
X0146932Y0073402D02*
X0147545Y0073402D01*
X0162645Y0077399D02*
X0164038Y0077399D01*
X0174755Y0071403D02*
X0174810Y0071403D01*
X0179470Y0062058D02*
X0185095Y0067683D01*
X0179470Y0062058D02*
X0179470Y0058933D01*
X0178855Y0058933D01*
X0157642Y0053417D02*
X0155048Y0053417D01*
X0155048Y0052413D02*
X0150375Y0052413D01*
X0150375Y0048134D01*
X0153311Y0048134D01*
X0153820Y0048270D01*
X0154276Y0048533D01*
X0154648Y0048906D01*
X0154912Y0049362D01*
X0155048Y0049871D01*
X0155048Y0052413D01*
X0155048Y0051418D02*
X0157642Y0051418D01*
X0157763Y0049420D02*
X0154927Y0049420D01*
X0150375Y0049420D02*
X0149816Y0049420D01*
X0149816Y0051418D02*
X0150375Y0051418D01*
X0155048Y0055415D02*
X0155114Y0055415D01*
X0144542Y0061411D02*
X0138589Y0061411D01*
X0139207Y0063409D02*
X0144609Y0063409D01*
X0147095Y0065408D02*
X0139022Y0065408D01*
X0123162Y0067406D02*
X0116898Y0067406D01*
X0116898Y0069405D02*
X0121553Y0069405D01*
X0121196Y0071403D02*
X0116898Y0071403D01*
X0116898Y0073402D02*
X0121196Y0073402D01*
X0121196Y0075400D02*
X0116898Y0075400D01*
X0116898Y0077399D02*
X0121196Y0077399D01*
X0120414Y0079397D02*
X0116898Y0079397D01*
X0116898Y0081396D02*
X0119434Y0081396D01*
X0119434Y0083394D02*
X0116898Y0083394D01*
X0124747Y0083394D02*
X0124814Y0083394D01*
X0147595Y0098308D02*
X0160095Y0098308D01*
X0172106Y0091388D02*
X0181796Y0091388D01*
X0186355Y0093933D02*
X0186970Y0094558D01*
X0186970Y0097058D01*
X0194470Y0104558D01*
X0186970Y0112058D01*
X0181970Y0112058D01*
X0181335Y0112683D01*
X0181345Y0112683D01*
X0181345Y0119558D01*
X0185720Y0123933D01*
X0185095Y0124558D01*
X0185095Y0127683D01*
X0180720Y0132058D01*
X0173220Y0132058D01*
X0172585Y0131433D01*
X0171970Y0131433D01*
X0171970Y0124558D01*
X0165095Y0117683D01*
X0155095Y0117683D01*
X0155095Y0117683D01*
X0161623Y0117683D01*
X0161623Y0116632D01*
X0161486Y0116124D01*
X0161280Y0115766D01*
X0161827Y0115219D01*
X0162101Y0114557D01*
X0174025Y0126480D01*
X0172865Y0126480D01*
X0172865Y0131153D01*
X0172306Y0131153D01*
X0172306Y0126480D01*
X0169763Y0126480D01*
X0169430Y0126569D01*
X0169137Y0126276D01*
X0168181Y0125880D01*
X0167445Y0125880D01*
X0167445Y0124967D01*
X0168045Y0123519D01*
X0168045Y0121848D01*
X0167406Y0120304D01*
X0166224Y0119122D01*
X0164681Y0118483D01*
X0163010Y0118483D01*
X0161525Y0119098D01*
X0161623Y0118734D01*
X0161623Y0117683D01*
X0155095Y0117683D01*
X0161623Y0117369D02*
X0164913Y0117369D01*
X0162915Y0115371D02*
X0161675Y0115371D01*
X0166469Y0119368D02*
X0166912Y0119368D01*
X0167846Y0121366D02*
X0168911Y0121366D01*
X0163845Y0122683D02*
X0163845Y0128933D01*
X0165105Y0131433D01*
X0165095Y0131433D01*
X0163220Y0129558D01*
X0157595Y0129558D01*
X0167445Y0125363D02*
X0172908Y0125363D01*
X0170909Y0123365D02*
X0168045Y0123365D01*
X0172306Y0127362D02*
X0172865Y0127362D01*
X0172865Y0129360D02*
X0172306Y0129360D01*
X0172306Y0131154D02*
X0170264Y0131154D01*
X0170264Y0131713D01*
X0172306Y0131713D01*
X0172306Y0131154D01*
X0172306Y0131359D02*
X0170264Y0131359D01*
X0172865Y0131359D02*
X0178414Y0131359D01*
X0180526Y0131359D02*
X0195289Y0131359D01*
X0197401Y0131359D02*
X0213696Y0131359D01*
X0213696Y0133357D02*
X0177144Y0133357D01*
X0176894Y0135356D02*
X0213802Y0135356D01*
X0192927Y0129360D02*
X0182889Y0129360D01*
X0183270Y0127362D02*
X0192545Y0127362D01*
X0193291Y0125363D02*
X0182524Y0125363D01*
X0179394Y0123365D02*
X0186534Y0123365D01*
X0183404Y0121366D02*
X0177396Y0121366D01*
X0177519Y0119368D02*
X0182545Y0119368D01*
X0181615Y0117369D02*
X0181056Y0117369D01*
X0181056Y0115371D02*
X0181615Y0115371D01*
X0181615Y0113372D02*
X0181056Y0113372D01*
X0185894Y0113372D02*
X0192545Y0113372D01*
X0192827Y0115371D02*
X0187674Y0115371D01*
X0189810Y0117369D02*
X0194710Y0117369D01*
X0193531Y0111374D02*
X0185894Y0111374D01*
X0189402Y0109375D02*
X0199946Y0109375D01*
X0198220Y0108308D02*
X0204470Y0108308D01*
X0205095Y0108923D01*
X0205095Y0108933D01*
X0215095Y0108933D01*
X0215095Y0108923D01*
X0214816Y0108644D02*
X0205375Y0108644D01*
X0205375Y0109203D01*
X0210245Y0109203D01*
X0214816Y0109203D01*
X0214816Y0108644D01*
X0220245Y0109375D02*
X0242992Y0109375D01*
X0232787Y0111374D02*
X0220245Y0111374D01*
X0199946Y0107377D02*
X0190145Y0107377D01*
X0189762Y0105378D02*
X0199701Y0105378D01*
X0198220Y0108308D02*
X0194470Y0104558D01*
X0186635Y0097384D02*
X0186075Y0097384D01*
X0186075Y0095385D02*
X0186635Y0095385D01*
X0183220Y0077683D02*
X0201970Y0077683D01*
X0206345Y0069558D02*
X0206345Y0063933D01*
X0206335Y0063933D01*
X0206970Y0064558D01*
X0222595Y0064558D01*
X0233612Y0063409D02*
X0234031Y0063409D01*
X0245758Y0067406D02*
X0249526Y0067406D01*
X0247032Y0069405D02*
X0246795Y0069405D01*
X0242595Y0070183D02*
X0234470Y0070183D01*
X0230095Y0074558D01*
X0259650Y0071403D02*
X0262132Y0071403D01*
X0260965Y0069405D02*
X0264131Y0069405D01*
X0262963Y0067406D02*
X0266129Y0067406D01*
X0264962Y0065408D02*
X0267657Y0065408D01*
X0266960Y0063409D02*
X0268995Y0063409D01*
X0252861Y0057414D02*
X0250894Y0057414D01*
X0250894Y0059412D02*
X0251117Y0059412D01*
X0246615Y0057414D02*
X0246056Y0057414D01*
X0246056Y0055415D02*
X0246615Y0055415D01*
X0250866Y0055415D02*
X0254908Y0055415D01*
X0257619Y0053417D02*
X0242494Y0053417D01*
X0248205Y0051418D02*
X0236550Y0051418D01*
X0233994Y0049420D02*
X0245248Y0049420D01*
X0243533Y0047421D02*
X0233994Y0047421D01*
X0233994Y0045423D02*
X0242439Y0045423D01*
X0241904Y0043424D02*
X0232493Y0043424D01*
X0225178Y0043424D02*
X0213095Y0043424D01*
X0213095Y0045423D02*
X0216822Y0045423D01*
X0216796Y0047421D02*
X0213095Y0047421D01*
X0213095Y0049420D02*
X0216796Y0049420D01*
X0216796Y0049213D02*
X0221075Y0049213D01*
X0221075Y0054083D01*
X0218533Y0054083D01*
X0218024Y0053946D01*
X0217568Y0053683D01*
X0217196Y0053311D01*
X0216932Y0052855D01*
X0216796Y0052346D01*
X0216796Y0049213D01*
X0216796Y0051418D02*
X0213095Y0051418D01*
X0214446Y0053417D02*
X0217302Y0053417D01*
X0215720Y0053308D02*
X0220720Y0048308D01*
X0221355Y0048933D01*
X0221970Y0048933D01*
X0221970Y0045808D01*
X0222595Y0045183D01*
X0221635Y0045423D02*
X0221075Y0045423D01*
X0221075Y0047421D02*
X0221635Y0047421D01*
X0221635Y0049420D02*
X0221075Y0049420D01*
X0221075Y0051418D02*
X0221635Y0051418D01*
X0221635Y0053417D02*
X0221075Y0053417D01*
X0213095Y0041426D02*
X0241753Y0041426D01*
X0241908Y0039427D02*
X0213745Y0039427D01*
X0213844Y0037429D02*
X0242443Y0037429D01*
X0243541Y0035430D02*
X0212591Y0035430D01*
X0198849Y0035430D02*
X0192193Y0035430D01*
X0194210Y0037429D02*
X0197596Y0037429D01*
X0148696Y0043424D02*
X0144821Y0043424D01*
X0144860Y0045423D02*
X0148830Y0045423D01*
X0145964Y0041426D02*
X0144860Y0041426D01*
X0256985Y0051418D02*
X0259617Y0051418D01*
X0259942Y0049420D02*
X0261616Y0049420D01*
X0261658Y0047421D02*
X0263096Y0047421D01*
X0263096Y0045423D02*
X0262751Y0045423D01*
X0268845Y0039558D02*
X0268845Y0038943D01*
X0271345Y0038933D01*
X0275720Y0034558D01*
X0271970Y0039558D02*
X0268845Y0039558D01*
X0271970Y0039558D02*
X0275095Y0042683D01*
X0275095Y0050183D01*
X0288835Y0038933D02*
X0290095Y0038933D01*
X0294470Y0034558D01*
X0118696Y0113372D02*
X0116898Y0113372D01*
X0116898Y0115371D02*
X0118808Y0115371D01*
X0116898Y0117369D02*
X0121879Y0117369D01*
X0118126Y0119368D02*
X0116898Y0119368D01*
D28*
X0157595Y0129558D03*
X0163845Y0122683D03*
X0185720Y0123933D03*
X0221970Y0110183D03*
X0240720Y0097683D03*
X0245720Y0097683D03*
X0256970Y0103308D03*
X0256345Y0108933D03*
X0268220Y0087683D03*
X0242595Y0070183D03*
X0222595Y0064558D03*
X0219470Y0074558D03*
X0201970Y0077683D03*
X0181970Y0085183D03*
X0177595Y0081433D03*
X0177595Y0074558D03*
X0171970Y0074558D03*
X0143220Y0079558D03*
X0138845Y0067683D03*
X0168220Y0047683D03*
X0215720Y0053308D03*
X0243845Y0052058D03*
X0275720Y0034558D03*
X0294470Y0034558D03*
X0147595Y0098308D03*
X0165095Y0103933D03*
D29*
X0163220Y0107683D02*
X0159470Y0103933D01*
X0141970Y0103933D01*
X0136345Y0098308D02*
X0131970Y0098308D01*
X0131345Y0098933D01*
X0131335Y0098933D01*
X0126970Y0096433D02*
X0126970Y0095808D01*
X0132595Y0090183D01*
X0135095Y0090183D01*
X0135410Y0089681D01*
X0135095Y0083308D02*
X0135410Y0083185D01*
X0135095Y0083308D02*
X0126970Y0075183D01*
X0126970Y0073933D01*
X0126355Y0073933D01*
X0133835Y0073933D02*
X0143220Y0073933D01*
X0146970Y0077683D01*
X0158845Y0077683D01*
X0151345Y0072683D02*
X0150095Y0071433D01*
X0150095Y0060173D01*
X0157595Y0058308D02*
X0158845Y0059558D01*
X0162595Y0059558D01*
X0162595Y0060173D01*
X0186335Y0058933D02*
X0186345Y0058933D01*
X0191345Y0058933D01*
X0191345Y0055183D02*
X0195095Y0058933D01*
X0198845Y0062683D01*
X0198845Y0063933D01*
X0198855Y0063933D01*
X0186345Y0058933D02*
X0186345Y0048933D01*
X0186335Y0048933D01*
X0186345Y0048933D02*
X0190720Y0044558D01*
X0190720Y0038933D01*
X0201345Y0038308D02*
X0206345Y0038308D01*
X0206345Y0043933D01*
X0206335Y0043933D01*
X0198855Y0043933D02*
X0198845Y0043933D01*
X0191345Y0051433D01*
X0191345Y0055183D01*
X0193845Y0053933D02*
X0198855Y0053933D01*
X0206335Y0053933D02*
X0210095Y0053933D01*
X0210095Y0038308D01*
X0228835Y0048933D02*
X0228845Y0048933D01*
X0233220Y0053308D01*
X0233845Y0058933D02*
X0227516Y0058933D01*
X0233845Y0058933D02*
X0224470Y0068308D01*
X0220095Y0068308D01*
X0215720Y0072683D01*
X0215720Y0076433D01*
X0217595Y0078308D01*
X0230720Y0078308D01*
X0232595Y0076433D01*
X0238855Y0076433D01*
X0251970Y0075183D02*
X0258845Y0075183D01*
X0251970Y0085808D02*
X0271345Y0066433D01*
X0257595Y0062058D02*
X0267595Y0052058D01*
X0268845Y0046433D02*
X0268845Y0046423D01*
X0268845Y0046433D02*
X0256345Y0058933D01*
X0257595Y0062058D02*
X0253845Y0062058D01*
X0238855Y0058933D02*
X0233845Y0058933D01*
X0220036Y0058933D02*
X0215720Y0058933D01*
X0210720Y0053933D01*
X0210095Y0053933D01*
X0154470Y0041433D02*
X0154470Y0035808D01*
X0148220Y0038308D02*
X0140095Y0038308D01*
X0140095Y0038874D01*
X0153855Y0041433D02*
X0154470Y0041433D01*
X0140095Y0046354D02*
X0140095Y0050183D01*
X0133845Y0056433D01*
X0133835Y0056433D01*
X0126355Y0056433D02*
X0121345Y0056433D01*
X0194470Y0094558D02*
X0200095Y0088933D01*
X0208845Y0090183D02*
X0210095Y0090183D01*
X0211345Y0088933D01*
X0217595Y0088933D01*
X0223220Y0094558D01*
X0230095Y0094558D01*
X0221345Y0096433D02*
X0228845Y0103933D01*
X0235095Y0113308D02*
X0233845Y0114558D01*
X0215095Y0114558D01*
X0211345Y0114558D02*
X0210720Y0113933D01*
X0196345Y0113933D01*
X0201970Y0118933D02*
X0204470Y0116433D01*
X0206970Y0116433D01*
X0205095Y0119558D02*
X0210720Y0119558D01*
X0211345Y0120183D01*
X0213845Y0120183D01*
X0217595Y0116433D01*
X0235720Y0116433D01*
X0236345Y0115808D01*
X0235095Y0113308D02*
X0261970Y0113308D01*
X0280720Y0132058D01*
X0295095Y0132058D01*
X0298220Y0128933D01*
X0298220Y0116433D01*
X0289470Y0107683D01*
X0289072Y0107614D01*
X0278220Y0113308D02*
X0273845Y0108933D01*
X0273835Y0108933D01*
X0257595Y0117058D02*
X0238845Y0117058D01*
X0237595Y0118308D01*
X0218220Y0118308D01*
X0214470Y0122058D01*
X0189470Y0122058D01*
X0186345Y0118933D01*
X0173845Y0118308D02*
X0173845Y0112683D01*
X0173855Y0112683D01*
X0168845Y0105808D02*
X0166970Y0107683D01*
X0163220Y0107683D01*
X0158220Y0106433D02*
X0179470Y0127683D01*
X0196345Y0127683D02*
X0215095Y0127683D01*
X0218845Y0131433D01*
X0218855Y0131433D01*
X0220720Y0125808D02*
X0226345Y0131433D01*
X0226335Y0131433D01*
X0220720Y0125808D02*
X0219470Y0125808D01*
X0233845Y0120808D02*
X0243845Y0120808D01*
X0245095Y0119558D01*
X0257595Y0117058D02*
X0266970Y0126433D01*
X0267300Y0126433D01*
X0201970Y0118933D02*
X0200720Y0118933D01*
X0186345Y0107058D02*
X0184470Y0107058D01*
X0181345Y0103933D01*
X0181335Y0103933D01*
X0168845Y0102058D02*
X0166345Y0099558D01*
X0166345Y0097683D01*
X0158845Y0093933D02*
X0156345Y0093933D01*
X0153845Y0091433D01*
X0153835Y0091433D01*
X0126970Y0096433D02*
X0124470Y0098933D01*
X0123855Y0098933D01*
X0131335Y0111433D02*
X0135095Y0111433D01*
X0142595Y0118933D01*
X0148220Y0123933D02*
X0153845Y0123933D01*
X0155095Y0122683D01*
X0155095Y0122407D01*
X0154470Y0113933D02*
X0148220Y0113933D01*
X0154470Y0113933D02*
X0155095Y0113308D01*
X0155095Y0112959D01*
X0168845Y0105808D02*
X0168845Y0102058D01*
X0193835Y0093933D02*
X0194470Y0094558D01*
X0195720Y0095808D01*
X0195720Y0099558D01*
X0194470Y0094558D02*
X0193845Y0093933D01*
X0193835Y0093933D01*
X0220720Y0082058D02*
X0225095Y0086433D01*
X0238855Y0086433D01*
X0284470Y0085808D02*
X0297595Y0072683D01*
X0297595Y0057683D01*
X0288845Y0048933D01*
X0288835Y0048933D01*
X0281970Y0048933D02*
X0281355Y0048933D01*
X0281970Y0048933D02*
X0281970Y0053933D01*
X0282595Y0054558D01*
X0285720Y0044558D02*
X0296345Y0044558D01*
X0285720Y0044558D02*
X0281970Y0040808D01*
X0281970Y0038933D01*
X0281355Y0038933D01*
D30*
X0296345Y0044558D03*
X0282595Y0054558D03*
X0267595Y0052058D03*
X0256345Y0058933D03*
X0253845Y0062058D03*
X0271345Y0066433D03*
X0258845Y0075183D03*
X0251970Y0075183D03*
X0251970Y0085808D03*
X0230095Y0094558D03*
X0221345Y0096433D03*
X0228845Y0103933D03*
X0215095Y0114558D03*
X0211345Y0114558D03*
X0206970Y0116433D03*
X0205095Y0119558D03*
X0200720Y0118933D03*
X0196345Y0113933D03*
X0186345Y0118933D03*
X0173845Y0118308D03*
X0179470Y0127683D03*
X0196345Y0127683D03*
X0219470Y0125808D03*
X0233845Y0120808D03*
X0236345Y0115808D03*
X0245095Y0119558D03*
X0278220Y0113308D03*
X0284470Y0085808D03*
X0220720Y0082058D03*
X0208845Y0090183D03*
X0200095Y0088933D03*
X0195720Y0099558D03*
X0186345Y0107058D03*
X0166345Y0097683D03*
X0158845Y0093933D03*
X0141970Y0103933D03*
X0136345Y0098308D03*
X0158220Y0106433D03*
X0148220Y0113933D03*
X0148220Y0123933D03*
X0158845Y0077683D03*
X0151345Y0072683D03*
X0157595Y0058308D03*
X0191345Y0058933D03*
X0195095Y0058933D03*
X0193845Y0053933D03*
X0190720Y0038933D03*
X0201345Y0038308D03*
X0206345Y0038308D03*
X0210095Y0038308D03*
X0233220Y0053308D03*
X0154470Y0035808D03*
X0148220Y0038308D03*
X0121345Y0056433D03*
M02*
