G75*
%MOIN*%
%OFA0B0*%
%FSLAX25Y25*%
%IPPOS*%
%LPD*%
%AMOC8*
5,1,8,0,0,1.08239X$1,22.5*
%
%ADD10C,0.00000*%
%ADD11C,0.00300*%
%ADD12C,0.00600*%
%ADD13C,0.00400*%
%ADD14C,0.00500*%
%ADD15C,0.00800*%
%ADD16C,0.01969*%
%ADD17C,0.00200*%
%ADD18R,0.02406X0.09843*%
D10*
X0114898Y0038933D02*
X0114898Y0130232D01*
X0114900Y0130413D01*
X0114907Y0130594D01*
X0114918Y0130775D01*
X0114933Y0130956D01*
X0114953Y0131136D01*
X0114977Y0131316D01*
X0115005Y0131495D01*
X0115038Y0131673D01*
X0115075Y0131850D01*
X0115116Y0132027D01*
X0115161Y0132202D01*
X0115211Y0132377D01*
X0115265Y0132550D01*
X0115323Y0132721D01*
X0115385Y0132892D01*
X0115452Y0133060D01*
X0115522Y0133227D01*
X0115596Y0133393D01*
X0115675Y0133556D01*
X0115757Y0133717D01*
X0115843Y0133877D01*
X0115933Y0134034D01*
X0116027Y0134189D01*
X0116124Y0134342D01*
X0116226Y0134492D01*
X0116330Y0134640D01*
X0116439Y0134786D01*
X0116550Y0134928D01*
X0116666Y0135068D01*
X0116784Y0135205D01*
X0116906Y0135340D01*
X0117031Y0135471D01*
X0117159Y0135599D01*
X0117290Y0135724D01*
X0117425Y0135846D01*
X0117562Y0135964D01*
X0117702Y0136080D01*
X0117844Y0136191D01*
X0117990Y0136300D01*
X0118138Y0136404D01*
X0118288Y0136506D01*
X0118441Y0136603D01*
X0118596Y0136697D01*
X0118753Y0136787D01*
X0118913Y0136873D01*
X0119074Y0136955D01*
X0119237Y0137034D01*
X0119403Y0137108D01*
X0119570Y0137178D01*
X0119738Y0137245D01*
X0119909Y0137307D01*
X0120080Y0137365D01*
X0120253Y0137419D01*
X0120428Y0137469D01*
X0120603Y0137514D01*
X0120780Y0137555D01*
X0120957Y0137592D01*
X0121135Y0137625D01*
X0121314Y0137653D01*
X0121494Y0137677D01*
X0121674Y0137697D01*
X0121855Y0137712D01*
X0122036Y0137723D01*
X0122217Y0137730D01*
X0122398Y0137732D01*
X0292595Y0137732D01*
X0292776Y0137730D01*
X0292957Y0137723D01*
X0293138Y0137712D01*
X0293319Y0137697D01*
X0293499Y0137677D01*
X0293679Y0137653D01*
X0293858Y0137625D01*
X0294036Y0137592D01*
X0294213Y0137555D01*
X0294390Y0137514D01*
X0294565Y0137469D01*
X0294740Y0137419D01*
X0294913Y0137365D01*
X0295084Y0137307D01*
X0295255Y0137245D01*
X0295423Y0137178D01*
X0295590Y0137108D01*
X0295756Y0137034D01*
X0295919Y0136955D01*
X0296080Y0136873D01*
X0296240Y0136787D01*
X0296397Y0136697D01*
X0296552Y0136603D01*
X0296705Y0136506D01*
X0296855Y0136404D01*
X0297003Y0136300D01*
X0297149Y0136191D01*
X0297291Y0136080D01*
X0297431Y0135964D01*
X0297568Y0135846D01*
X0297703Y0135724D01*
X0297834Y0135599D01*
X0297962Y0135471D01*
X0298087Y0135340D01*
X0298209Y0135205D01*
X0298327Y0135068D01*
X0298443Y0134928D01*
X0298554Y0134786D01*
X0298663Y0134640D01*
X0298767Y0134492D01*
X0298869Y0134342D01*
X0298966Y0134189D01*
X0299060Y0134034D01*
X0299150Y0133877D01*
X0299236Y0133717D01*
X0299318Y0133556D01*
X0299397Y0133393D01*
X0299471Y0133227D01*
X0299541Y0133060D01*
X0299608Y0132892D01*
X0299670Y0132721D01*
X0299728Y0132550D01*
X0299782Y0132377D01*
X0299832Y0132202D01*
X0299877Y0132027D01*
X0299918Y0131850D01*
X0299955Y0131673D01*
X0299988Y0131495D01*
X0300016Y0131316D01*
X0300040Y0131136D01*
X0300060Y0130956D01*
X0300075Y0130775D01*
X0300086Y0130594D01*
X0300093Y0130413D01*
X0300095Y0130232D01*
X0300095Y0038933D01*
X0300093Y0038752D01*
X0300086Y0038571D01*
X0300075Y0038390D01*
X0300060Y0038209D01*
X0300040Y0038029D01*
X0300016Y0037849D01*
X0299988Y0037670D01*
X0299955Y0037492D01*
X0299918Y0037315D01*
X0299877Y0037138D01*
X0299832Y0036963D01*
X0299782Y0036788D01*
X0299728Y0036615D01*
X0299670Y0036444D01*
X0299608Y0036273D01*
X0299541Y0036105D01*
X0299471Y0035938D01*
X0299397Y0035772D01*
X0299318Y0035609D01*
X0299236Y0035448D01*
X0299150Y0035288D01*
X0299060Y0035131D01*
X0298966Y0034976D01*
X0298869Y0034823D01*
X0298767Y0034673D01*
X0298663Y0034525D01*
X0298554Y0034379D01*
X0298443Y0034237D01*
X0298327Y0034097D01*
X0298209Y0033960D01*
X0298087Y0033825D01*
X0297962Y0033694D01*
X0297834Y0033566D01*
X0297703Y0033441D01*
X0297568Y0033319D01*
X0297431Y0033201D01*
X0297291Y0033085D01*
X0297149Y0032974D01*
X0297003Y0032865D01*
X0296855Y0032761D01*
X0296705Y0032659D01*
X0296552Y0032562D01*
X0296397Y0032468D01*
X0296240Y0032378D01*
X0296080Y0032292D01*
X0295919Y0032210D01*
X0295756Y0032131D01*
X0295590Y0032057D01*
X0295423Y0031987D01*
X0295255Y0031920D01*
X0295084Y0031858D01*
X0294913Y0031800D01*
X0294740Y0031746D01*
X0294565Y0031696D01*
X0294390Y0031651D01*
X0294213Y0031610D01*
X0294036Y0031573D01*
X0293858Y0031540D01*
X0293679Y0031512D01*
X0293499Y0031488D01*
X0293319Y0031468D01*
X0293138Y0031453D01*
X0292957Y0031442D01*
X0292776Y0031435D01*
X0292595Y0031433D01*
X0122398Y0031433D01*
X0122217Y0031435D01*
X0122036Y0031442D01*
X0121855Y0031453D01*
X0121674Y0031468D01*
X0121494Y0031488D01*
X0121314Y0031512D01*
X0121135Y0031540D01*
X0120957Y0031573D01*
X0120780Y0031610D01*
X0120603Y0031651D01*
X0120428Y0031696D01*
X0120253Y0031746D01*
X0120080Y0031800D01*
X0119909Y0031858D01*
X0119738Y0031920D01*
X0119570Y0031987D01*
X0119403Y0032057D01*
X0119237Y0032131D01*
X0119074Y0032210D01*
X0118913Y0032292D01*
X0118753Y0032378D01*
X0118596Y0032468D01*
X0118441Y0032562D01*
X0118288Y0032659D01*
X0118138Y0032761D01*
X0117990Y0032865D01*
X0117844Y0032974D01*
X0117702Y0033085D01*
X0117562Y0033201D01*
X0117425Y0033319D01*
X0117290Y0033441D01*
X0117159Y0033566D01*
X0117031Y0033694D01*
X0116906Y0033825D01*
X0116784Y0033960D01*
X0116666Y0034097D01*
X0116550Y0034237D01*
X0116439Y0034379D01*
X0116330Y0034525D01*
X0116226Y0034673D01*
X0116124Y0034823D01*
X0116027Y0034976D01*
X0115933Y0035131D01*
X0115843Y0035288D01*
X0115757Y0035448D01*
X0115675Y0035609D01*
X0115596Y0035772D01*
X0115522Y0035938D01*
X0115452Y0036105D01*
X0115385Y0036273D01*
X0115323Y0036444D01*
X0115265Y0036615D01*
X0115211Y0036788D01*
X0115161Y0036963D01*
X0115116Y0037138D01*
X0115075Y0037315D01*
X0115038Y0037492D01*
X0115005Y0037670D01*
X0114977Y0037849D01*
X0114953Y0038029D01*
X0114933Y0038209D01*
X0114918Y0038390D01*
X0114907Y0038571D01*
X0114900Y0038752D01*
X0114898Y0038933D01*
X0120764Y0041433D02*
X0120766Y0041564D01*
X0120772Y0041696D01*
X0120782Y0041827D01*
X0120796Y0041958D01*
X0120814Y0042088D01*
X0120836Y0042217D01*
X0120861Y0042346D01*
X0120891Y0042474D01*
X0120925Y0042601D01*
X0120962Y0042728D01*
X0121003Y0042852D01*
X0121048Y0042976D01*
X0121097Y0043098D01*
X0121149Y0043219D01*
X0121205Y0043337D01*
X0121265Y0043455D01*
X0121328Y0043570D01*
X0121395Y0043683D01*
X0121465Y0043795D01*
X0121538Y0043904D01*
X0121614Y0044010D01*
X0121694Y0044115D01*
X0121777Y0044217D01*
X0121863Y0044316D01*
X0121952Y0044413D01*
X0122044Y0044507D01*
X0122139Y0044598D01*
X0122236Y0044687D01*
X0122336Y0044772D01*
X0122439Y0044854D01*
X0122544Y0044933D01*
X0122651Y0045009D01*
X0122761Y0045081D01*
X0122873Y0045150D01*
X0122987Y0045216D01*
X0123102Y0045278D01*
X0123220Y0045337D01*
X0123339Y0045392D01*
X0123460Y0045444D01*
X0123583Y0045491D01*
X0123707Y0045535D01*
X0123832Y0045576D01*
X0123958Y0045612D01*
X0124086Y0045645D01*
X0124214Y0045673D01*
X0124343Y0045698D01*
X0124473Y0045719D01*
X0124603Y0045736D01*
X0124734Y0045749D01*
X0124865Y0045758D01*
X0124996Y0045763D01*
X0125128Y0045764D01*
X0125259Y0045761D01*
X0125391Y0045754D01*
X0125522Y0045743D01*
X0125652Y0045728D01*
X0125782Y0045709D01*
X0125912Y0045686D01*
X0126040Y0045660D01*
X0126168Y0045629D01*
X0126295Y0045594D01*
X0126421Y0045556D01*
X0126545Y0045514D01*
X0126669Y0045468D01*
X0126790Y0045418D01*
X0126910Y0045365D01*
X0127029Y0045308D01*
X0127146Y0045248D01*
X0127260Y0045184D01*
X0127373Y0045116D01*
X0127484Y0045045D01*
X0127593Y0044971D01*
X0127699Y0044894D01*
X0127803Y0044813D01*
X0127904Y0044730D01*
X0128003Y0044643D01*
X0128099Y0044553D01*
X0128192Y0044460D01*
X0128283Y0044365D01*
X0128370Y0044267D01*
X0128455Y0044166D01*
X0128536Y0044063D01*
X0128614Y0043957D01*
X0128689Y0043849D01*
X0128761Y0043739D01*
X0128829Y0043627D01*
X0128894Y0043513D01*
X0128955Y0043396D01*
X0129013Y0043278D01*
X0129067Y0043158D01*
X0129118Y0043037D01*
X0129165Y0042914D01*
X0129208Y0042790D01*
X0129247Y0042665D01*
X0129283Y0042538D01*
X0129314Y0042410D01*
X0129342Y0042282D01*
X0129366Y0042153D01*
X0129386Y0042023D01*
X0129402Y0041892D01*
X0129414Y0041761D01*
X0129422Y0041630D01*
X0129426Y0041499D01*
X0129426Y0041367D01*
X0129422Y0041236D01*
X0129414Y0041105D01*
X0129402Y0040974D01*
X0129386Y0040843D01*
X0129366Y0040713D01*
X0129342Y0040584D01*
X0129314Y0040456D01*
X0129283Y0040328D01*
X0129247Y0040201D01*
X0129208Y0040076D01*
X0129165Y0039952D01*
X0129118Y0039829D01*
X0129067Y0039708D01*
X0129013Y0039588D01*
X0128955Y0039470D01*
X0128894Y0039353D01*
X0128829Y0039239D01*
X0128761Y0039127D01*
X0128689Y0039017D01*
X0128614Y0038909D01*
X0128536Y0038803D01*
X0128455Y0038700D01*
X0128370Y0038599D01*
X0128283Y0038501D01*
X0128192Y0038406D01*
X0128099Y0038313D01*
X0128003Y0038223D01*
X0127904Y0038136D01*
X0127803Y0038053D01*
X0127699Y0037972D01*
X0127593Y0037895D01*
X0127484Y0037821D01*
X0127373Y0037750D01*
X0127261Y0037682D01*
X0127146Y0037618D01*
X0127029Y0037558D01*
X0126910Y0037501D01*
X0126790Y0037448D01*
X0126669Y0037398D01*
X0126545Y0037352D01*
X0126421Y0037310D01*
X0126295Y0037272D01*
X0126168Y0037237D01*
X0126040Y0037206D01*
X0125912Y0037180D01*
X0125782Y0037157D01*
X0125652Y0037138D01*
X0125522Y0037123D01*
X0125391Y0037112D01*
X0125259Y0037105D01*
X0125128Y0037102D01*
X0124996Y0037103D01*
X0124865Y0037108D01*
X0124734Y0037117D01*
X0124603Y0037130D01*
X0124473Y0037147D01*
X0124343Y0037168D01*
X0124214Y0037193D01*
X0124086Y0037221D01*
X0123958Y0037254D01*
X0123832Y0037290D01*
X0123707Y0037331D01*
X0123583Y0037375D01*
X0123460Y0037422D01*
X0123339Y0037474D01*
X0123220Y0037529D01*
X0123102Y0037588D01*
X0122987Y0037650D01*
X0122873Y0037716D01*
X0122761Y0037785D01*
X0122651Y0037857D01*
X0122544Y0037933D01*
X0122439Y0038012D01*
X0122336Y0038094D01*
X0122236Y0038179D01*
X0122139Y0038268D01*
X0122044Y0038359D01*
X0121952Y0038453D01*
X0121863Y0038550D01*
X0121777Y0038649D01*
X0121694Y0038751D01*
X0121614Y0038856D01*
X0121538Y0038962D01*
X0121465Y0039071D01*
X0121395Y0039183D01*
X0121328Y0039296D01*
X0121265Y0039411D01*
X0121205Y0039529D01*
X0121149Y0039647D01*
X0121097Y0039768D01*
X0121048Y0039890D01*
X0121003Y0040014D01*
X0120962Y0040138D01*
X0120925Y0040265D01*
X0120891Y0040392D01*
X0120861Y0040520D01*
X0120836Y0040649D01*
X0120814Y0040778D01*
X0120796Y0040908D01*
X0120782Y0041039D01*
X0120772Y0041170D01*
X0120766Y0041302D01*
X0120764Y0041433D01*
X0248264Y0041433D02*
X0248266Y0041564D01*
X0248272Y0041696D01*
X0248282Y0041827D01*
X0248296Y0041958D01*
X0248314Y0042088D01*
X0248336Y0042217D01*
X0248361Y0042346D01*
X0248391Y0042474D01*
X0248425Y0042601D01*
X0248462Y0042728D01*
X0248503Y0042852D01*
X0248548Y0042976D01*
X0248597Y0043098D01*
X0248649Y0043219D01*
X0248705Y0043337D01*
X0248765Y0043455D01*
X0248828Y0043570D01*
X0248895Y0043683D01*
X0248965Y0043795D01*
X0249038Y0043904D01*
X0249114Y0044010D01*
X0249194Y0044115D01*
X0249277Y0044217D01*
X0249363Y0044316D01*
X0249452Y0044413D01*
X0249544Y0044507D01*
X0249639Y0044598D01*
X0249736Y0044687D01*
X0249836Y0044772D01*
X0249939Y0044854D01*
X0250044Y0044933D01*
X0250151Y0045009D01*
X0250261Y0045081D01*
X0250373Y0045150D01*
X0250487Y0045216D01*
X0250602Y0045278D01*
X0250720Y0045337D01*
X0250839Y0045392D01*
X0250960Y0045444D01*
X0251083Y0045491D01*
X0251207Y0045535D01*
X0251332Y0045576D01*
X0251458Y0045612D01*
X0251586Y0045645D01*
X0251714Y0045673D01*
X0251843Y0045698D01*
X0251973Y0045719D01*
X0252103Y0045736D01*
X0252234Y0045749D01*
X0252365Y0045758D01*
X0252496Y0045763D01*
X0252628Y0045764D01*
X0252759Y0045761D01*
X0252891Y0045754D01*
X0253022Y0045743D01*
X0253152Y0045728D01*
X0253282Y0045709D01*
X0253412Y0045686D01*
X0253540Y0045660D01*
X0253668Y0045629D01*
X0253795Y0045594D01*
X0253921Y0045556D01*
X0254045Y0045514D01*
X0254169Y0045468D01*
X0254290Y0045418D01*
X0254410Y0045365D01*
X0254529Y0045308D01*
X0254646Y0045248D01*
X0254760Y0045184D01*
X0254873Y0045116D01*
X0254984Y0045045D01*
X0255093Y0044971D01*
X0255199Y0044894D01*
X0255303Y0044813D01*
X0255404Y0044730D01*
X0255503Y0044643D01*
X0255599Y0044553D01*
X0255692Y0044460D01*
X0255783Y0044365D01*
X0255870Y0044267D01*
X0255955Y0044166D01*
X0256036Y0044063D01*
X0256114Y0043957D01*
X0256189Y0043849D01*
X0256261Y0043739D01*
X0256329Y0043627D01*
X0256394Y0043513D01*
X0256455Y0043396D01*
X0256513Y0043278D01*
X0256567Y0043158D01*
X0256618Y0043037D01*
X0256665Y0042914D01*
X0256708Y0042790D01*
X0256747Y0042665D01*
X0256783Y0042538D01*
X0256814Y0042410D01*
X0256842Y0042282D01*
X0256866Y0042153D01*
X0256886Y0042023D01*
X0256902Y0041892D01*
X0256914Y0041761D01*
X0256922Y0041630D01*
X0256926Y0041499D01*
X0256926Y0041367D01*
X0256922Y0041236D01*
X0256914Y0041105D01*
X0256902Y0040974D01*
X0256886Y0040843D01*
X0256866Y0040713D01*
X0256842Y0040584D01*
X0256814Y0040456D01*
X0256783Y0040328D01*
X0256747Y0040201D01*
X0256708Y0040076D01*
X0256665Y0039952D01*
X0256618Y0039829D01*
X0256567Y0039708D01*
X0256513Y0039588D01*
X0256455Y0039470D01*
X0256394Y0039353D01*
X0256329Y0039239D01*
X0256261Y0039127D01*
X0256189Y0039017D01*
X0256114Y0038909D01*
X0256036Y0038803D01*
X0255955Y0038700D01*
X0255870Y0038599D01*
X0255783Y0038501D01*
X0255692Y0038406D01*
X0255599Y0038313D01*
X0255503Y0038223D01*
X0255404Y0038136D01*
X0255303Y0038053D01*
X0255199Y0037972D01*
X0255093Y0037895D01*
X0254984Y0037821D01*
X0254873Y0037750D01*
X0254761Y0037682D01*
X0254646Y0037618D01*
X0254529Y0037558D01*
X0254410Y0037501D01*
X0254290Y0037448D01*
X0254169Y0037398D01*
X0254045Y0037352D01*
X0253921Y0037310D01*
X0253795Y0037272D01*
X0253668Y0037237D01*
X0253540Y0037206D01*
X0253412Y0037180D01*
X0253282Y0037157D01*
X0253152Y0037138D01*
X0253022Y0037123D01*
X0252891Y0037112D01*
X0252759Y0037105D01*
X0252628Y0037102D01*
X0252496Y0037103D01*
X0252365Y0037108D01*
X0252234Y0037117D01*
X0252103Y0037130D01*
X0251973Y0037147D01*
X0251843Y0037168D01*
X0251714Y0037193D01*
X0251586Y0037221D01*
X0251458Y0037254D01*
X0251332Y0037290D01*
X0251207Y0037331D01*
X0251083Y0037375D01*
X0250960Y0037422D01*
X0250839Y0037474D01*
X0250720Y0037529D01*
X0250602Y0037588D01*
X0250487Y0037650D01*
X0250373Y0037716D01*
X0250261Y0037785D01*
X0250151Y0037857D01*
X0250044Y0037933D01*
X0249939Y0038012D01*
X0249836Y0038094D01*
X0249736Y0038179D01*
X0249639Y0038268D01*
X0249544Y0038359D01*
X0249452Y0038453D01*
X0249363Y0038550D01*
X0249277Y0038649D01*
X0249194Y0038751D01*
X0249114Y0038856D01*
X0249038Y0038962D01*
X0248965Y0039071D01*
X0248895Y0039183D01*
X0248828Y0039296D01*
X0248765Y0039411D01*
X0248705Y0039529D01*
X0248649Y0039647D01*
X0248597Y0039768D01*
X0248548Y0039890D01*
X0248503Y0040014D01*
X0248462Y0040138D01*
X0248425Y0040265D01*
X0248391Y0040392D01*
X0248361Y0040520D01*
X0248336Y0040649D01*
X0248314Y0040778D01*
X0248296Y0040908D01*
X0248282Y0041039D01*
X0248272Y0041170D01*
X0248266Y0041302D01*
X0248264Y0041433D01*
X0286907Y0075724D02*
X0286909Y0075817D01*
X0286915Y0075909D01*
X0286925Y0076001D01*
X0286939Y0076092D01*
X0286956Y0076183D01*
X0286978Y0076273D01*
X0287003Y0076362D01*
X0287032Y0076450D01*
X0287065Y0076536D01*
X0287102Y0076621D01*
X0287142Y0076705D01*
X0287186Y0076786D01*
X0287233Y0076866D01*
X0287283Y0076944D01*
X0287337Y0077019D01*
X0287394Y0077092D01*
X0287454Y0077162D01*
X0287517Y0077230D01*
X0287583Y0077295D01*
X0287651Y0077357D01*
X0287722Y0077417D01*
X0287796Y0077473D01*
X0287872Y0077526D01*
X0287950Y0077575D01*
X0288030Y0077622D01*
X0288112Y0077664D01*
X0288196Y0077704D01*
X0288281Y0077739D01*
X0288368Y0077771D01*
X0288456Y0077800D01*
X0288545Y0077824D01*
X0288635Y0077845D01*
X0288726Y0077861D01*
X0288818Y0077874D01*
X0288910Y0077883D01*
X0289003Y0077888D01*
X0289095Y0077889D01*
X0289188Y0077886D01*
X0289280Y0077879D01*
X0289372Y0077868D01*
X0289463Y0077853D01*
X0289554Y0077835D01*
X0289644Y0077812D01*
X0289732Y0077786D01*
X0289820Y0077756D01*
X0289906Y0077722D01*
X0289990Y0077685D01*
X0290073Y0077643D01*
X0290154Y0077599D01*
X0290234Y0077551D01*
X0290311Y0077500D01*
X0290385Y0077445D01*
X0290458Y0077387D01*
X0290528Y0077327D01*
X0290595Y0077263D01*
X0290659Y0077197D01*
X0290721Y0077127D01*
X0290779Y0077056D01*
X0290834Y0076982D01*
X0290886Y0076905D01*
X0290935Y0076826D01*
X0290981Y0076746D01*
X0291023Y0076663D01*
X0291061Y0076579D01*
X0291096Y0076493D01*
X0291127Y0076406D01*
X0291154Y0076318D01*
X0291177Y0076228D01*
X0291197Y0076138D01*
X0291213Y0076047D01*
X0291225Y0075955D01*
X0291233Y0075863D01*
X0291237Y0075770D01*
X0291237Y0075678D01*
X0291233Y0075585D01*
X0291225Y0075493D01*
X0291213Y0075401D01*
X0291197Y0075310D01*
X0291177Y0075220D01*
X0291154Y0075130D01*
X0291127Y0075042D01*
X0291096Y0074955D01*
X0291061Y0074869D01*
X0291023Y0074785D01*
X0290981Y0074702D01*
X0290935Y0074622D01*
X0290886Y0074543D01*
X0290834Y0074466D01*
X0290779Y0074392D01*
X0290721Y0074321D01*
X0290659Y0074251D01*
X0290595Y0074185D01*
X0290528Y0074121D01*
X0290458Y0074061D01*
X0290385Y0074003D01*
X0290311Y0073948D01*
X0290234Y0073897D01*
X0290155Y0073849D01*
X0290073Y0073805D01*
X0289990Y0073763D01*
X0289906Y0073726D01*
X0289820Y0073692D01*
X0289732Y0073662D01*
X0289644Y0073636D01*
X0289554Y0073613D01*
X0289463Y0073595D01*
X0289372Y0073580D01*
X0289280Y0073569D01*
X0289188Y0073562D01*
X0289095Y0073559D01*
X0289003Y0073560D01*
X0288910Y0073565D01*
X0288818Y0073574D01*
X0288726Y0073587D01*
X0288635Y0073603D01*
X0288545Y0073624D01*
X0288456Y0073648D01*
X0288368Y0073677D01*
X0288281Y0073709D01*
X0288196Y0073744D01*
X0288112Y0073784D01*
X0288030Y0073826D01*
X0287950Y0073873D01*
X0287872Y0073922D01*
X0287796Y0073975D01*
X0287722Y0074031D01*
X0287651Y0074091D01*
X0287583Y0074153D01*
X0287517Y0074218D01*
X0287454Y0074286D01*
X0287394Y0074356D01*
X0287337Y0074429D01*
X0287283Y0074504D01*
X0287233Y0074582D01*
X0287186Y0074662D01*
X0287142Y0074743D01*
X0287102Y0074827D01*
X0287065Y0074912D01*
X0287032Y0074998D01*
X0287003Y0075086D01*
X0286978Y0075175D01*
X0286956Y0075265D01*
X0286939Y0075356D01*
X0286925Y0075447D01*
X0286915Y0075539D01*
X0286909Y0075631D01*
X0286907Y0075724D01*
X0286907Y0093441D02*
X0286909Y0093534D01*
X0286915Y0093626D01*
X0286925Y0093718D01*
X0286939Y0093809D01*
X0286956Y0093900D01*
X0286978Y0093990D01*
X0287003Y0094079D01*
X0287032Y0094167D01*
X0287065Y0094253D01*
X0287102Y0094338D01*
X0287142Y0094422D01*
X0287186Y0094503D01*
X0287233Y0094583D01*
X0287283Y0094661D01*
X0287337Y0094736D01*
X0287394Y0094809D01*
X0287454Y0094879D01*
X0287517Y0094947D01*
X0287583Y0095012D01*
X0287651Y0095074D01*
X0287722Y0095134D01*
X0287796Y0095190D01*
X0287872Y0095243D01*
X0287950Y0095292D01*
X0288030Y0095339D01*
X0288112Y0095381D01*
X0288196Y0095421D01*
X0288281Y0095456D01*
X0288368Y0095488D01*
X0288456Y0095517D01*
X0288545Y0095541D01*
X0288635Y0095562D01*
X0288726Y0095578D01*
X0288818Y0095591D01*
X0288910Y0095600D01*
X0289003Y0095605D01*
X0289095Y0095606D01*
X0289188Y0095603D01*
X0289280Y0095596D01*
X0289372Y0095585D01*
X0289463Y0095570D01*
X0289554Y0095552D01*
X0289644Y0095529D01*
X0289732Y0095503D01*
X0289820Y0095473D01*
X0289906Y0095439D01*
X0289990Y0095402D01*
X0290073Y0095360D01*
X0290154Y0095316D01*
X0290234Y0095268D01*
X0290311Y0095217D01*
X0290385Y0095162D01*
X0290458Y0095104D01*
X0290528Y0095044D01*
X0290595Y0094980D01*
X0290659Y0094914D01*
X0290721Y0094844D01*
X0290779Y0094773D01*
X0290834Y0094699D01*
X0290886Y0094622D01*
X0290935Y0094543D01*
X0290981Y0094463D01*
X0291023Y0094380D01*
X0291061Y0094296D01*
X0291096Y0094210D01*
X0291127Y0094123D01*
X0291154Y0094035D01*
X0291177Y0093945D01*
X0291197Y0093855D01*
X0291213Y0093764D01*
X0291225Y0093672D01*
X0291233Y0093580D01*
X0291237Y0093487D01*
X0291237Y0093395D01*
X0291233Y0093302D01*
X0291225Y0093210D01*
X0291213Y0093118D01*
X0291197Y0093027D01*
X0291177Y0092937D01*
X0291154Y0092847D01*
X0291127Y0092759D01*
X0291096Y0092672D01*
X0291061Y0092586D01*
X0291023Y0092502D01*
X0290981Y0092419D01*
X0290935Y0092339D01*
X0290886Y0092260D01*
X0290834Y0092183D01*
X0290779Y0092109D01*
X0290721Y0092038D01*
X0290659Y0091968D01*
X0290595Y0091902D01*
X0290528Y0091838D01*
X0290458Y0091778D01*
X0290385Y0091720D01*
X0290311Y0091665D01*
X0290234Y0091614D01*
X0290155Y0091566D01*
X0290073Y0091522D01*
X0289990Y0091480D01*
X0289906Y0091443D01*
X0289820Y0091409D01*
X0289732Y0091379D01*
X0289644Y0091353D01*
X0289554Y0091330D01*
X0289463Y0091312D01*
X0289372Y0091297D01*
X0289280Y0091286D01*
X0289188Y0091279D01*
X0289095Y0091276D01*
X0289003Y0091277D01*
X0288910Y0091282D01*
X0288818Y0091291D01*
X0288726Y0091304D01*
X0288635Y0091320D01*
X0288545Y0091341D01*
X0288456Y0091365D01*
X0288368Y0091394D01*
X0288281Y0091426D01*
X0288196Y0091461D01*
X0288112Y0091501D01*
X0288030Y0091543D01*
X0287950Y0091590D01*
X0287872Y0091639D01*
X0287796Y0091692D01*
X0287722Y0091748D01*
X0287651Y0091808D01*
X0287583Y0091870D01*
X0287517Y0091935D01*
X0287454Y0092003D01*
X0287394Y0092073D01*
X0287337Y0092146D01*
X0287283Y0092221D01*
X0287233Y0092299D01*
X0287186Y0092379D01*
X0287142Y0092460D01*
X0287102Y0092544D01*
X0287065Y0092629D01*
X0287032Y0092715D01*
X0287003Y0092803D01*
X0286978Y0092892D01*
X0286956Y0092982D01*
X0286939Y0093073D01*
X0286925Y0093164D01*
X0286915Y0093256D01*
X0286909Y0093348D01*
X0286907Y0093441D01*
X0248264Y0127732D02*
X0248266Y0127863D01*
X0248272Y0127995D01*
X0248282Y0128126D01*
X0248296Y0128257D01*
X0248314Y0128387D01*
X0248336Y0128516D01*
X0248361Y0128645D01*
X0248391Y0128773D01*
X0248425Y0128900D01*
X0248462Y0129027D01*
X0248503Y0129151D01*
X0248548Y0129275D01*
X0248597Y0129397D01*
X0248649Y0129518D01*
X0248705Y0129636D01*
X0248765Y0129754D01*
X0248828Y0129869D01*
X0248895Y0129982D01*
X0248965Y0130094D01*
X0249038Y0130203D01*
X0249114Y0130309D01*
X0249194Y0130414D01*
X0249277Y0130516D01*
X0249363Y0130615D01*
X0249452Y0130712D01*
X0249544Y0130806D01*
X0249639Y0130897D01*
X0249736Y0130986D01*
X0249836Y0131071D01*
X0249939Y0131153D01*
X0250044Y0131232D01*
X0250151Y0131308D01*
X0250261Y0131380D01*
X0250373Y0131449D01*
X0250487Y0131515D01*
X0250602Y0131577D01*
X0250720Y0131636D01*
X0250839Y0131691D01*
X0250960Y0131743D01*
X0251083Y0131790D01*
X0251207Y0131834D01*
X0251332Y0131875D01*
X0251458Y0131911D01*
X0251586Y0131944D01*
X0251714Y0131972D01*
X0251843Y0131997D01*
X0251973Y0132018D01*
X0252103Y0132035D01*
X0252234Y0132048D01*
X0252365Y0132057D01*
X0252496Y0132062D01*
X0252628Y0132063D01*
X0252759Y0132060D01*
X0252891Y0132053D01*
X0253022Y0132042D01*
X0253152Y0132027D01*
X0253282Y0132008D01*
X0253412Y0131985D01*
X0253540Y0131959D01*
X0253668Y0131928D01*
X0253795Y0131893D01*
X0253921Y0131855D01*
X0254045Y0131813D01*
X0254169Y0131767D01*
X0254290Y0131717D01*
X0254410Y0131664D01*
X0254529Y0131607D01*
X0254646Y0131547D01*
X0254760Y0131483D01*
X0254873Y0131415D01*
X0254984Y0131344D01*
X0255093Y0131270D01*
X0255199Y0131193D01*
X0255303Y0131112D01*
X0255404Y0131029D01*
X0255503Y0130942D01*
X0255599Y0130852D01*
X0255692Y0130759D01*
X0255783Y0130664D01*
X0255870Y0130566D01*
X0255955Y0130465D01*
X0256036Y0130362D01*
X0256114Y0130256D01*
X0256189Y0130148D01*
X0256261Y0130038D01*
X0256329Y0129926D01*
X0256394Y0129812D01*
X0256455Y0129695D01*
X0256513Y0129577D01*
X0256567Y0129457D01*
X0256618Y0129336D01*
X0256665Y0129213D01*
X0256708Y0129089D01*
X0256747Y0128964D01*
X0256783Y0128837D01*
X0256814Y0128709D01*
X0256842Y0128581D01*
X0256866Y0128452D01*
X0256886Y0128322D01*
X0256902Y0128191D01*
X0256914Y0128060D01*
X0256922Y0127929D01*
X0256926Y0127798D01*
X0256926Y0127666D01*
X0256922Y0127535D01*
X0256914Y0127404D01*
X0256902Y0127273D01*
X0256886Y0127142D01*
X0256866Y0127012D01*
X0256842Y0126883D01*
X0256814Y0126755D01*
X0256783Y0126627D01*
X0256747Y0126500D01*
X0256708Y0126375D01*
X0256665Y0126251D01*
X0256618Y0126128D01*
X0256567Y0126007D01*
X0256513Y0125887D01*
X0256455Y0125769D01*
X0256394Y0125652D01*
X0256329Y0125538D01*
X0256261Y0125426D01*
X0256189Y0125316D01*
X0256114Y0125208D01*
X0256036Y0125102D01*
X0255955Y0124999D01*
X0255870Y0124898D01*
X0255783Y0124800D01*
X0255692Y0124705D01*
X0255599Y0124612D01*
X0255503Y0124522D01*
X0255404Y0124435D01*
X0255303Y0124352D01*
X0255199Y0124271D01*
X0255093Y0124194D01*
X0254984Y0124120D01*
X0254873Y0124049D01*
X0254761Y0123981D01*
X0254646Y0123917D01*
X0254529Y0123857D01*
X0254410Y0123800D01*
X0254290Y0123747D01*
X0254169Y0123697D01*
X0254045Y0123651D01*
X0253921Y0123609D01*
X0253795Y0123571D01*
X0253668Y0123536D01*
X0253540Y0123505D01*
X0253412Y0123479D01*
X0253282Y0123456D01*
X0253152Y0123437D01*
X0253022Y0123422D01*
X0252891Y0123411D01*
X0252759Y0123404D01*
X0252628Y0123401D01*
X0252496Y0123402D01*
X0252365Y0123407D01*
X0252234Y0123416D01*
X0252103Y0123429D01*
X0251973Y0123446D01*
X0251843Y0123467D01*
X0251714Y0123492D01*
X0251586Y0123520D01*
X0251458Y0123553D01*
X0251332Y0123589D01*
X0251207Y0123630D01*
X0251083Y0123674D01*
X0250960Y0123721D01*
X0250839Y0123773D01*
X0250720Y0123828D01*
X0250602Y0123887D01*
X0250487Y0123949D01*
X0250373Y0124015D01*
X0250261Y0124084D01*
X0250151Y0124156D01*
X0250044Y0124232D01*
X0249939Y0124311D01*
X0249836Y0124393D01*
X0249736Y0124478D01*
X0249639Y0124567D01*
X0249544Y0124658D01*
X0249452Y0124752D01*
X0249363Y0124849D01*
X0249277Y0124948D01*
X0249194Y0125050D01*
X0249114Y0125155D01*
X0249038Y0125261D01*
X0248965Y0125370D01*
X0248895Y0125482D01*
X0248828Y0125595D01*
X0248765Y0125710D01*
X0248705Y0125828D01*
X0248649Y0125946D01*
X0248597Y0126067D01*
X0248548Y0126189D01*
X0248503Y0126313D01*
X0248462Y0126437D01*
X0248425Y0126564D01*
X0248391Y0126691D01*
X0248361Y0126819D01*
X0248336Y0126948D01*
X0248314Y0127077D01*
X0248296Y0127207D01*
X0248282Y0127338D01*
X0248272Y0127469D01*
X0248266Y0127601D01*
X0248264Y0127732D01*
X0120764Y0127732D02*
X0120766Y0127863D01*
X0120772Y0127995D01*
X0120782Y0128126D01*
X0120796Y0128257D01*
X0120814Y0128387D01*
X0120836Y0128516D01*
X0120861Y0128645D01*
X0120891Y0128773D01*
X0120925Y0128900D01*
X0120962Y0129027D01*
X0121003Y0129151D01*
X0121048Y0129275D01*
X0121097Y0129397D01*
X0121149Y0129518D01*
X0121205Y0129636D01*
X0121265Y0129754D01*
X0121328Y0129869D01*
X0121395Y0129982D01*
X0121465Y0130094D01*
X0121538Y0130203D01*
X0121614Y0130309D01*
X0121694Y0130414D01*
X0121777Y0130516D01*
X0121863Y0130615D01*
X0121952Y0130712D01*
X0122044Y0130806D01*
X0122139Y0130897D01*
X0122236Y0130986D01*
X0122336Y0131071D01*
X0122439Y0131153D01*
X0122544Y0131232D01*
X0122651Y0131308D01*
X0122761Y0131380D01*
X0122873Y0131449D01*
X0122987Y0131515D01*
X0123102Y0131577D01*
X0123220Y0131636D01*
X0123339Y0131691D01*
X0123460Y0131743D01*
X0123583Y0131790D01*
X0123707Y0131834D01*
X0123832Y0131875D01*
X0123958Y0131911D01*
X0124086Y0131944D01*
X0124214Y0131972D01*
X0124343Y0131997D01*
X0124473Y0132018D01*
X0124603Y0132035D01*
X0124734Y0132048D01*
X0124865Y0132057D01*
X0124996Y0132062D01*
X0125128Y0132063D01*
X0125259Y0132060D01*
X0125391Y0132053D01*
X0125522Y0132042D01*
X0125652Y0132027D01*
X0125782Y0132008D01*
X0125912Y0131985D01*
X0126040Y0131959D01*
X0126168Y0131928D01*
X0126295Y0131893D01*
X0126421Y0131855D01*
X0126545Y0131813D01*
X0126669Y0131767D01*
X0126790Y0131717D01*
X0126910Y0131664D01*
X0127029Y0131607D01*
X0127146Y0131547D01*
X0127260Y0131483D01*
X0127373Y0131415D01*
X0127484Y0131344D01*
X0127593Y0131270D01*
X0127699Y0131193D01*
X0127803Y0131112D01*
X0127904Y0131029D01*
X0128003Y0130942D01*
X0128099Y0130852D01*
X0128192Y0130759D01*
X0128283Y0130664D01*
X0128370Y0130566D01*
X0128455Y0130465D01*
X0128536Y0130362D01*
X0128614Y0130256D01*
X0128689Y0130148D01*
X0128761Y0130038D01*
X0128829Y0129926D01*
X0128894Y0129812D01*
X0128955Y0129695D01*
X0129013Y0129577D01*
X0129067Y0129457D01*
X0129118Y0129336D01*
X0129165Y0129213D01*
X0129208Y0129089D01*
X0129247Y0128964D01*
X0129283Y0128837D01*
X0129314Y0128709D01*
X0129342Y0128581D01*
X0129366Y0128452D01*
X0129386Y0128322D01*
X0129402Y0128191D01*
X0129414Y0128060D01*
X0129422Y0127929D01*
X0129426Y0127798D01*
X0129426Y0127666D01*
X0129422Y0127535D01*
X0129414Y0127404D01*
X0129402Y0127273D01*
X0129386Y0127142D01*
X0129366Y0127012D01*
X0129342Y0126883D01*
X0129314Y0126755D01*
X0129283Y0126627D01*
X0129247Y0126500D01*
X0129208Y0126375D01*
X0129165Y0126251D01*
X0129118Y0126128D01*
X0129067Y0126007D01*
X0129013Y0125887D01*
X0128955Y0125769D01*
X0128894Y0125652D01*
X0128829Y0125538D01*
X0128761Y0125426D01*
X0128689Y0125316D01*
X0128614Y0125208D01*
X0128536Y0125102D01*
X0128455Y0124999D01*
X0128370Y0124898D01*
X0128283Y0124800D01*
X0128192Y0124705D01*
X0128099Y0124612D01*
X0128003Y0124522D01*
X0127904Y0124435D01*
X0127803Y0124352D01*
X0127699Y0124271D01*
X0127593Y0124194D01*
X0127484Y0124120D01*
X0127373Y0124049D01*
X0127261Y0123981D01*
X0127146Y0123917D01*
X0127029Y0123857D01*
X0126910Y0123800D01*
X0126790Y0123747D01*
X0126669Y0123697D01*
X0126545Y0123651D01*
X0126421Y0123609D01*
X0126295Y0123571D01*
X0126168Y0123536D01*
X0126040Y0123505D01*
X0125912Y0123479D01*
X0125782Y0123456D01*
X0125652Y0123437D01*
X0125522Y0123422D01*
X0125391Y0123411D01*
X0125259Y0123404D01*
X0125128Y0123401D01*
X0124996Y0123402D01*
X0124865Y0123407D01*
X0124734Y0123416D01*
X0124603Y0123429D01*
X0124473Y0123446D01*
X0124343Y0123467D01*
X0124214Y0123492D01*
X0124086Y0123520D01*
X0123958Y0123553D01*
X0123832Y0123589D01*
X0123707Y0123630D01*
X0123583Y0123674D01*
X0123460Y0123721D01*
X0123339Y0123773D01*
X0123220Y0123828D01*
X0123102Y0123887D01*
X0122987Y0123949D01*
X0122873Y0124015D01*
X0122761Y0124084D01*
X0122651Y0124156D01*
X0122544Y0124232D01*
X0122439Y0124311D01*
X0122336Y0124393D01*
X0122236Y0124478D01*
X0122139Y0124567D01*
X0122044Y0124658D01*
X0121952Y0124752D01*
X0121863Y0124849D01*
X0121777Y0124948D01*
X0121694Y0125050D01*
X0121614Y0125155D01*
X0121538Y0125261D01*
X0121465Y0125370D01*
X0121395Y0125482D01*
X0121328Y0125595D01*
X0121265Y0125710D01*
X0121205Y0125828D01*
X0121149Y0125946D01*
X0121097Y0126067D01*
X0121048Y0126189D01*
X0121003Y0126313D01*
X0120962Y0126437D01*
X0120925Y0126564D01*
X0120891Y0126691D01*
X0120861Y0126819D01*
X0120836Y0126948D01*
X0120814Y0127077D01*
X0120796Y0127207D01*
X0120782Y0127338D01*
X0120772Y0127469D01*
X0120766Y0127601D01*
X0120764Y0127732D01*
D11*
X0147445Y0134267D02*
X0147929Y0133783D01*
X0148413Y0133783D01*
X0148896Y0134267D01*
X0148896Y0136686D01*
X0148413Y0136686D02*
X0149380Y0136686D01*
X0150392Y0136686D02*
X0151843Y0136686D01*
X0152327Y0136202D01*
X0152327Y0135234D01*
X0151843Y0134751D01*
X0150392Y0134751D01*
X0150392Y0133783D02*
X0150392Y0136686D01*
X0153338Y0135234D02*
X0155273Y0135234D01*
X0154789Y0133783D02*
X0154789Y0136686D01*
X0153338Y0135234D01*
X0214173Y0120036D02*
X0215408Y0120036D01*
X0214791Y0120036D02*
X0214791Y0116333D01*
X0215408Y0116333D02*
X0214173Y0116333D01*
X0216629Y0116950D02*
X0217246Y0116333D01*
X0218480Y0116333D01*
X0219098Y0116950D01*
X0220312Y0116950D02*
X0220929Y0116333D01*
X0222164Y0116333D01*
X0222781Y0116950D01*
X0222781Y0117567D01*
X0222164Y0118185D01*
X0221546Y0118185D01*
X0222164Y0118185D02*
X0222781Y0118802D01*
X0222781Y0119419D01*
X0222164Y0120036D01*
X0220929Y0120036D01*
X0220312Y0119419D01*
X0219098Y0119419D02*
X0218480Y0120036D01*
X0217246Y0120036D01*
X0216629Y0119419D01*
X0216629Y0116950D01*
X0252795Y0115036D02*
X0253763Y0115036D01*
X0253279Y0115036D02*
X0253279Y0112133D01*
X0252795Y0112133D02*
X0253763Y0112133D01*
X0254759Y0112617D02*
X0255243Y0112133D01*
X0256211Y0112133D01*
X0256694Y0112617D01*
X0257706Y0113584D02*
X0259641Y0113584D01*
X0259157Y0112133D02*
X0259157Y0115036D01*
X0257706Y0113584D01*
X0256694Y0114552D02*
X0256211Y0115036D01*
X0255243Y0115036D01*
X0254759Y0114552D01*
X0254759Y0112617D01*
X0274745Y0124700D02*
X0275362Y0124083D01*
X0276597Y0124083D01*
X0277214Y0124700D01*
X0277214Y0125317D01*
X0276597Y0125935D01*
X0275362Y0125935D01*
X0274745Y0126552D01*
X0274745Y0127169D01*
X0275362Y0127786D01*
X0276597Y0127786D01*
X0277214Y0127169D01*
X0278428Y0127786D02*
X0278428Y0124083D01*
X0279663Y0125317D01*
X0280897Y0124083D01*
X0280897Y0127786D01*
X0282111Y0126552D02*
X0283346Y0127786D01*
X0283346Y0124083D01*
X0284580Y0124083D02*
X0282111Y0124083D01*
X0251346Y0077786D02*
X0251346Y0074083D01*
X0252580Y0074083D02*
X0250111Y0074083D01*
X0248280Y0075317D02*
X0248897Y0075935D01*
X0248897Y0077169D01*
X0248280Y0077786D01*
X0246428Y0077786D01*
X0246428Y0074083D01*
X0246428Y0075317D02*
X0248280Y0075317D01*
X0250111Y0076552D02*
X0251346Y0077786D01*
X0245214Y0077169D02*
X0244597Y0077786D01*
X0243362Y0077786D01*
X0242745Y0077169D01*
X0242745Y0076552D01*
X0243362Y0075935D01*
X0244597Y0075935D01*
X0245214Y0075317D01*
X0245214Y0074700D01*
X0244597Y0074083D01*
X0243362Y0074083D01*
X0242745Y0074700D01*
X0213073Y0074567D02*
X0212589Y0074083D01*
X0211622Y0074083D01*
X0211138Y0074567D01*
X0211138Y0075534D02*
X0212106Y0076018D01*
X0212589Y0076018D01*
X0213073Y0075534D01*
X0213073Y0074567D01*
X0211138Y0075534D02*
X0211138Y0076986D01*
X0213073Y0076986D01*
X0210127Y0076502D02*
X0210127Y0075534D01*
X0209643Y0075051D01*
X0208192Y0075051D01*
X0208192Y0074083D02*
X0208192Y0076986D01*
X0209643Y0076986D01*
X0210127Y0076502D01*
X0207180Y0076986D02*
X0206213Y0076986D01*
X0206696Y0076986D02*
X0206696Y0074567D01*
X0206213Y0074083D01*
X0205729Y0074083D01*
X0205245Y0074567D01*
X0190102Y0058286D02*
X0187634Y0058286D01*
X0187634Y0056435D01*
X0188868Y0057052D01*
X0189485Y0057052D01*
X0190102Y0056435D01*
X0190102Y0055200D01*
X0189485Y0054583D01*
X0188251Y0054583D01*
X0187634Y0055200D01*
X0186419Y0055200D02*
X0185802Y0054583D01*
X0184568Y0054583D01*
X0183951Y0055200D01*
X0183951Y0057669D01*
X0184568Y0058286D01*
X0185802Y0058286D01*
X0186419Y0057669D01*
X0182730Y0058286D02*
X0181495Y0058286D01*
X0182112Y0058286D02*
X0182112Y0054583D01*
X0181495Y0054583D02*
X0182730Y0054583D01*
X0145395Y0054140D02*
X0145395Y0051672D01*
X0142926Y0054140D01*
X0142309Y0054140D01*
X0141692Y0053523D01*
X0141692Y0052289D01*
X0142309Y0051672D01*
X0142309Y0050457D02*
X0141692Y0049840D01*
X0141692Y0048606D01*
X0142309Y0047988D01*
X0144778Y0047988D01*
X0145395Y0048606D01*
X0145395Y0049840D01*
X0144778Y0050457D01*
X0145395Y0046767D02*
X0145395Y0045533D01*
X0145395Y0046150D02*
X0141692Y0046150D01*
X0141692Y0045533D02*
X0141692Y0046767D01*
X0119395Y0051174D02*
X0119395Y0052141D01*
X0118911Y0052625D01*
X0118911Y0053637D02*
X0119395Y0054120D01*
X0119395Y0055088D01*
X0118911Y0055572D01*
X0116976Y0055572D01*
X0116493Y0055088D01*
X0116493Y0054120D01*
X0116976Y0053637D01*
X0117460Y0053637D01*
X0117944Y0054120D01*
X0117944Y0055572D01*
X0116976Y0052625D02*
X0116493Y0052141D01*
X0116493Y0051174D01*
X0116976Y0050690D01*
X0118911Y0050690D01*
X0119395Y0051174D01*
X0135468Y0036636D02*
X0135468Y0033733D01*
X0136919Y0033733D01*
X0137403Y0034217D01*
X0137403Y0035184D01*
X0136919Y0035668D01*
X0135468Y0035668D01*
X0134456Y0035668D02*
X0133005Y0035668D01*
X0132521Y0035184D01*
X0133005Y0034701D01*
X0133972Y0034701D01*
X0134456Y0034217D01*
X0133972Y0033733D01*
X0132521Y0033733D01*
X0131510Y0033733D02*
X0131510Y0035668D01*
X0131510Y0033733D02*
X0130058Y0033733D01*
X0129575Y0034217D01*
X0129575Y0035668D01*
X0141361Y0035184D02*
X0141844Y0034701D01*
X0142812Y0034701D01*
X0143296Y0034217D01*
X0142812Y0033733D01*
X0141361Y0033733D01*
X0141361Y0035184D02*
X0141844Y0035668D01*
X0143296Y0035668D01*
X0144307Y0035184D02*
X0144791Y0035668D01*
X0145758Y0035668D01*
X0146242Y0035184D01*
X0146242Y0033733D01*
X0147254Y0034217D02*
X0147737Y0033733D01*
X0148705Y0033733D01*
X0149189Y0034217D01*
X0149189Y0035184D01*
X0148705Y0035668D01*
X0147737Y0035668D01*
X0147254Y0035184D01*
X0147254Y0034217D01*
X0150200Y0034217D02*
X0150200Y0035184D01*
X0150684Y0035668D01*
X0152135Y0035668D01*
X0153147Y0034701D02*
X0154598Y0035668D01*
X0153147Y0034701D02*
X0154598Y0033733D01*
X0153147Y0033733D02*
X0153147Y0036636D01*
X0158549Y0036636D02*
X0158549Y0033733D01*
X0160000Y0033733D01*
X0160484Y0034217D01*
X0160484Y0035184D01*
X0160000Y0035668D01*
X0158549Y0035668D01*
X0161495Y0035668D02*
X0161495Y0034217D01*
X0161979Y0033733D01*
X0163430Y0033733D01*
X0163430Y0035668D01*
X0164442Y0035668D02*
X0166377Y0035668D01*
X0164442Y0033733D01*
X0166377Y0033733D01*
X0167388Y0033733D02*
X0169323Y0033733D01*
X0170335Y0034217D02*
X0170335Y0035184D01*
X0170818Y0035668D01*
X0171786Y0035668D01*
X0172270Y0035184D01*
X0172270Y0034701D01*
X0170335Y0034701D01*
X0170335Y0034217D02*
X0170818Y0033733D01*
X0171786Y0033733D01*
X0173281Y0033733D02*
X0173281Y0035668D01*
X0173281Y0034701D02*
X0174249Y0035668D01*
X0174732Y0035668D01*
X0178683Y0035668D02*
X0179651Y0033733D01*
X0180618Y0035668D01*
X0181630Y0036152D02*
X0182113Y0036636D01*
X0183081Y0036636D01*
X0183565Y0036152D01*
X0181630Y0034217D01*
X0182113Y0033733D01*
X0183081Y0033733D01*
X0183565Y0034217D01*
X0183565Y0036152D01*
X0181630Y0036152D02*
X0181630Y0034217D01*
X0184576Y0034217D02*
X0185060Y0034217D01*
X0185060Y0033733D01*
X0184576Y0033733D01*
X0184576Y0034217D01*
X0186049Y0033733D02*
X0187984Y0033733D01*
X0187017Y0033733D02*
X0187017Y0036636D01*
X0186049Y0035668D01*
X0188996Y0034217D02*
X0189480Y0034217D01*
X0189480Y0033733D01*
X0188996Y0033733D01*
X0188996Y0034217D01*
X0190469Y0034217D02*
X0192404Y0036152D01*
X0192404Y0034217D01*
X0191920Y0033733D01*
X0190953Y0033733D01*
X0190469Y0034217D01*
X0190469Y0036152D01*
X0190953Y0036636D01*
X0191920Y0036636D01*
X0192404Y0036152D01*
X0169323Y0035668D02*
X0167388Y0033733D01*
X0167388Y0035668D02*
X0169323Y0035668D01*
X0152135Y0033733D02*
X0150684Y0033733D01*
X0150200Y0034217D01*
X0144307Y0033733D02*
X0144307Y0036636D01*
X0131828Y0069083D02*
X0129359Y0069083D01*
X0128742Y0069700D01*
X0128742Y0070935D01*
X0129359Y0071552D01*
X0129359Y0072766D02*
X0131828Y0072766D01*
X0132445Y0073383D01*
X0132445Y0074618D01*
X0131828Y0075235D01*
X0129359Y0075235D01*
X0128742Y0074618D01*
X0128742Y0073383D01*
X0129359Y0072766D01*
X0131828Y0071552D02*
X0132445Y0070935D01*
X0132445Y0069700D01*
X0131828Y0069083D01*
X0132445Y0076449D02*
X0128742Y0076449D01*
X0132445Y0078918D01*
X0128742Y0078918D01*
X0129976Y0080133D02*
X0128742Y0081367D01*
X0132445Y0081367D01*
X0132445Y0080133D02*
X0132445Y0082601D01*
X0230645Y0040902D02*
X0230645Y0038967D01*
X0231129Y0038483D01*
X0232096Y0038483D01*
X0232580Y0038967D01*
X0233592Y0038967D02*
X0233592Y0039451D01*
X0234075Y0039934D01*
X0235043Y0039934D01*
X0235527Y0039451D01*
X0235527Y0038967D01*
X0235043Y0038483D01*
X0234075Y0038483D01*
X0233592Y0038967D01*
X0234075Y0039934D02*
X0233592Y0040418D01*
X0233592Y0040902D01*
X0234075Y0041386D01*
X0235043Y0041386D01*
X0235527Y0040902D01*
X0235527Y0040418D01*
X0235043Y0039934D01*
X0232580Y0040902D02*
X0232096Y0041386D01*
X0231129Y0041386D01*
X0230645Y0040902D01*
X0280945Y0036836D02*
X0280945Y0033933D01*
X0282880Y0033933D01*
X0283892Y0033933D02*
X0285827Y0033933D01*
X0286838Y0033933D02*
X0288289Y0033933D01*
X0288773Y0034417D01*
X0288773Y0036352D01*
X0288289Y0036836D01*
X0286838Y0036836D01*
X0286838Y0033933D01*
X0284859Y0035384D02*
X0283892Y0035384D01*
X0283892Y0033933D02*
X0283892Y0036836D01*
X0285827Y0036836D01*
X0289785Y0035868D02*
X0290752Y0036836D01*
X0290752Y0033933D01*
X0289785Y0033933D02*
X0291720Y0033933D01*
D12*
X0220095Y0050233D02*
X0220095Y0062633D01*
X0220093Y0062709D01*
X0220087Y0062785D01*
X0220078Y0062860D01*
X0220064Y0062935D01*
X0220047Y0063009D01*
X0220026Y0063082D01*
X0220002Y0063154D01*
X0219973Y0063225D01*
X0219942Y0063294D01*
X0219907Y0063361D01*
X0219868Y0063426D01*
X0219826Y0063490D01*
X0219781Y0063551D01*
X0219733Y0063610D01*
X0219682Y0063666D01*
X0219628Y0063720D01*
X0219572Y0063771D01*
X0219513Y0063819D01*
X0219452Y0063864D01*
X0219388Y0063906D01*
X0219323Y0063945D01*
X0219256Y0063980D01*
X0219187Y0064011D01*
X0219116Y0064040D01*
X0219044Y0064064D01*
X0218971Y0064085D01*
X0218897Y0064102D01*
X0218822Y0064116D01*
X0218747Y0064125D01*
X0218671Y0064131D01*
X0218595Y0064133D01*
X0201595Y0064133D01*
X0201519Y0064131D01*
X0201443Y0064125D01*
X0201368Y0064116D01*
X0201293Y0064102D01*
X0201219Y0064085D01*
X0201146Y0064064D01*
X0201074Y0064040D01*
X0201003Y0064011D01*
X0200934Y0063980D01*
X0200867Y0063945D01*
X0200802Y0063906D01*
X0200738Y0063864D01*
X0200677Y0063819D01*
X0200618Y0063771D01*
X0200562Y0063720D01*
X0200508Y0063666D01*
X0200457Y0063610D01*
X0200409Y0063551D01*
X0200364Y0063490D01*
X0200322Y0063426D01*
X0200283Y0063361D01*
X0200248Y0063294D01*
X0200217Y0063225D01*
X0200188Y0063154D01*
X0200164Y0063082D01*
X0200143Y0063009D01*
X0200126Y0062935D01*
X0200112Y0062860D01*
X0200103Y0062785D01*
X0200097Y0062709D01*
X0200095Y0062633D01*
X0200095Y0050233D01*
X0200097Y0050157D01*
X0200103Y0050081D01*
X0200112Y0050006D01*
X0200126Y0049931D01*
X0200143Y0049857D01*
X0200164Y0049784D01*
X0200188Y0049712D01*
X0200217Y0049641D01*
X0200248Y0049572D01*
X0200283Y0049505D01*
X0200322Y0049440D01*
X0200364Y0049376D01*
X0200409Y0049315D01*
X0200457Y0049256D01*
X0200508Y0049200D01*
X0200562Y0049146D01*
X0200618Y0049095D01*
X0200677Y0049047D01*
X0200738Y0049002D01*
X0200802Y0048960D01*
X0200867Y0048921D01*
X0200934Y0048886D01*
X0201003Y0048855D01*
X0201074Y0048826D01*
X0201146Y0048802D01*
X0201219Y0048781D01*
X0201293Y0048764D01*
X0201368Y0048750D01*
X0201443Y0048741D01*
X0201519Y0048735D01*
X0201595Y0048733D01*
X0218595Y0048733D01*
X0218671Y0048735D01*
X0218747Y0048741D01*
X0218822Y0048750D01*
X0218897Y0048764D01*
X0218971Y0048781D01*
X0219044Y0048802D01*
X0219116Y0048826D01*
X0219187Y0048855D01*
X0219256Y0048886D01*
X0219323Y0048921D01*
X0219388Y0048960D01*
X0219452Y0049002D01*
X0219513Y0049047D01*
X0219572Y0049095D01*
X0219628Y0049146D01*
X0219682Y0049200D01*
X0219733Y0049256D01*
X0219781Y0049315D01*
X0219826Y0049376D01*
X0219868Y0049440D01*
X0219907Y0049505D01*
X0219942Y0049572D01*
X0219973Y0049641D01*
X0220002Y0049712D01*
X0220026Y0049784D01*
X0220047Y0049857D01*
X0220064Y0049931D01*
X0220078Y0050006D01*
X0220087Y0050081D01*
X0220093Y0050157D01*
X0220095Y0050233D01*
X0200095Y0054433D02*
X0200183Y0054435D01*
X0200272Y0054441D01*
X0200360Y0054451D01*
X0200447Y0054464D01*
X0200534Y0054482D01*
X0200620Y0054503D01*
X0200705Y0054528D01*
X0200788Y0054557D01*
X0200871Y0054590D01*
X0200951Y0054626D01*
X0201030Y0054665D01*
X0201108Y0054708D01*
X0201183Y0054755D01*
X0201256Y0054805D01*
X0201327Y0054858D01*
X0201396Y0054914D01*
X0201462Y0054973D01*
X0201525Y0055035D01*
X0201585Y0055099D01*
X0201643Y0055166D01*
X0201697Y0055236D01*
X0201749Y0055308D01*
X0201797Y0055382D01*
X0201842Y0055459D01*
X0201883Y0055537D01*
X0201921Y0055617D01*
X0201955Y0055698D01*
X0201986Y0055781D01*
X0202013Y0055866D01*
X0202036Y0055951D01*
X0202055Y0056037D01*
X0202071Y0056125D01*
X0202083Y0056212D01*
X0202091Y0056300D01*
X0202095Y0056389D01*
X0202095Y0056477D01*
X0202091Y0056566D01*
X0202083Y0056654D01*
X0202071Y0056741D01*
X0202055Y0056829D01*
X0202036Y0056915D01*
X0202013Y0057000D01*
X0201986Y0057085D01*
X0201955Y0057168D01*
X0201921Y0057249D01*
X0201883Y0057329D01*
X0201842Y0057407D01*
X0201797Y0057484D01*
X0201749Y0057558D01*
X0201697Y0057630D01*
X0201643Y0057700D01*
X0201585Y0057767D01*
X0201525Y0057831D01*
X0201462Y0057893D01*
X0201396Y0057952D01*
X0201327Y0058008D01*
X0201256Y0058061D01*
X0201183Y0058111D01*
X0201108Y0058158D01*
X0201030Y0058201D01*
X0200951Y0058240D01*
X0200871Y0058276D01*
X0200788Y0058309D01*
X0200705Y0058338D01*
X0200620Y0058363D01*
X0200534Y0058384D01*
X0200447Y0058402D01*
X0200360Y0058415D01*
X0200272Y0058425D01*
X0200183Y0058431D01*
X0200095Y0058433D01*
X0187359Y0076236D02*
X0157831Y0076236D01*
X0157831Y0126630D01*
X0187359Y0126630D01*
X0187359Y0076236D01*
X0198845Y0081433D02*
X0198845Y0096433D01*
X0201345Y0098933D01*
X0206345Y0098933D01*
X0208845Y0096433D01*
X0208845Y0081433D01*
X0211345Y0078933D01*
X0216345Y0078933D01*
X0218845Y0081433D01*
X0218845Y0096433D01*
X0216345Y0098933D01*
X0211345Y0098933D01*
X0208845Y0096433D01*
X0198845Y0106433D02*
X0198845Y0131433D01*
X0159545Y0122333D02*
X0159547Y0122425D01*
X0159553Y0122516D01*
X0159563Y0122607D01*
X0159577Y0122698D01*
X0159595Y0122788D01*
X0159617Y0122877D01*
X0159642Y0122964D01*
X0159672Y0123051D01*
X0159705Y0123137D01*
X0159742Y0123220D01*
X0159782Y0123303D01*
X0159826Y0123383D01*
X0159874Y0123461D01*
X0159925Y0123538D01*
X0159979Y0123611D01*
X0160036Y0123683D01*
X0160097Y0123752D01*
X0160160Y0123818D01*
X0160226Y0123881D01*
X0160295Y0123942D01*
X0160367Y0123999D01*
X0160440Y0124053D01*
X0160517Y0124104D01*
X0160595Y0124152D01*
X0160675Y0124196D01*
X0160758Y0124236D01*
X0160841Y0124273D01*
X0160927Y0124306D01*
X0161014Y0124336D01*
X0161101Y0124361D01*
X0161190Y0124383D01*
X0161280Y0124401D01*
X0161371Y0124415D01*
X0161462Y0124425D01*
X0161553Y0124431D01*
X0161645Y0124433D01*
X0161737Y0124431D01*
X0161828Y0124425D01*
X0161919Y0124415D01*
X0162010Y0124401D01*
X0162100Y0124383D01*
X0162189Y0124361D01*
X0162276Y0124336D01*
X0162363Y0124306D01*
X0162449Y0124273D01*
X0162532Y0124236D01*
X0162615Y0124196D01*
X0162695Y0124152D01*
X0162773Y0124104D01*
X0162850Y0124053D01*
X0162923Y0123999D01*
X0162995Y0123942D01*
X0163064Y0123881D01*
X0163130Y0123818D01*
X0163193Y0123752D01*
X0163254Y0123683D01*
X0163311Y0123611D01*
X0163365Y0123538D01*
X0163416Y0123461D01*
X0163464Y0123383D01*
X0163508Y0123303D01*
X0163548Y0123220D01*
X0163585Y0123137D01*
X0163618Y0123051D01*
X0163648Y0122964D01*
X0163673Y0122877D01*
X0163695Y0122788D01*
X0163713Y0122698D01*
X0163727Y0122607D01*
X0163737Y0122516D01*
X0163743Y0122425D01*
X0163745Y0122333D01*
X0163743Y0122241D01*
X0163737Y0122150D01*
X0163727Y0122059D01*
X0163713Y0121968D01*
X0163695Y0121878D01*
X0163673Y0121789D01*
X0163648Y0121702D01*
X0163618Y0121615D01*
X0163585Y0121529D01*
X0163548Y0121446D01*
X0163508Y0121363D01*
X0163464Y0121283D01*
X0163416Y0121205D01*
X0163365Y0121128D01*
X0163311Y0121055D01*
X0163254Y0120983D01*
X0163193Y0120914D01*
X0163130Y0120848D01*
X0163064Y0120785D01*
X0162995Y0120724D01*
X0162923Y0120667D01*
X0162850Y0120613D01*
X0162773Y0120562D01*
X0162695Y0120514D01*
X0162615Y0120470D01*
X0162532Y0120430D01*
X0162449Y0120393D01*
X0162363Y0120360D01*
X0162276Y0120330D01*
X0162189Y0120305D01*
X0162100Y0120283D01*
X0162010Y0120265D01*
X0161919Y0120251D01*
X0161828Y0120241D01*
X0161737Y0120235D01*
X0161645Y0120233D01*
X0161553Y0120235D01*
X0161462Y0120241D01*
X0161371Y0120251D01*
X0161280Y0120265D01*
X0161190Y0120283D01*
X0161101Y0120305D01*
X0161014Y0120330D01*
X0160927Y0120360D01*
X0160841Y0120393D01*
X0160758Y0120430D01*
X0160675Y0120470D01*
X0160595Y0120514D01*
X0160517Y0120562D01*
X0160440Y0120613D01*
X0160367Y0120667D01*
X0160295Y0120724D01*
X0160226Y0120785D01*
X0160160Y0120848D01*
X0160097Y0120914D01*
X0160036Y0120983D01*
X0159979Y0121055D01*
X0159925Y0121128D01*
X0159874Y0121205D01*
X0159826Y0121283D01*
X0159782Y0121363D01*
X0159742Y0121446D01*
X0159705Y0121529D01*
X0159672Y0121615D01*
X0159642Y0121702D01*
X0159617Y0121789D01*
X0159595Y0121878D01*
X0159577Y0121968D01*
X0159563Y0122059D01*
X0159553Y0122150D01*
X0159547Y0122241D01*
X0159545Y0122333D01*
X0147595Y0121433D02*
X0147595Y0116433D01*
X0145095Y0113933D01*
X0140095Y0113933D01*
X0137595Y0116433D01*
X0137595Y0121433D01*
X0140095Y0123933D01*
X0137595Y0126433D01*
X0137595Y0131433D01*
X0140095Y0133933D01*
X0145095Y0133933D01*
X0147595Y0131433D01*
X0147595Y0126433D01*
X0145095Y0123933D01*
X0147595Y0121433D01*
X0145095Y0123933D02*
X0140095Y0123933D01*
X0238845Y0121433D02*
X0238845Y0131433D01*
X0238845Y0121433D02*
X0238747Y0121431D01*
X0238649Y0121425D01*
X0238551Y0121416D01*
X0238454Y0121402D01*
X0238357Y0121385D01*
X0238261Y0121364D01*
X0238166Y0121339D01*
X0238072Y0121311D01*
X0237980Y0121278D01*
X0237888Y0121243D01*
X0237798Y0121203D01*
X0237710Y0121161D01*
X0237623Y0121114D01*
X0237539Y0121065D01*
X0237456Y0121012D01*
X0237376Y0120956D01*
X0237297Y0120896D01*
X0237221Y0120834D01*
X0237148Y0120769D01*
X0237077Y0120701D01*
X0237009Y0120630D01*
X0236944Y0120557D01*
X0236882Y0120481D01*
X0236822Y0120402D01*
X0236766Y0120322D01*
X0236713Y0120239D01*
X0236664Y0120155D01*
X0236617Y0120068D01*
X0236575Y0119980D01*
X0236535Y0119890D01*
X0236500Y0119798D01*
X0236467Y0119706D01*
X0236439Y0119612D01*
X0236414Y0119517D01*
X0236393Y0119421D01*
X0236376Y0119324D01*
X0236362Y0119227D01*
X0236353Y0119129D01*
X0236347Y0119031D01*
X0236345Y0118933D01*
X0236347Y0118835D01*
X0236353Y0118737D01*
X0236362Y0118639D01*
X0236376Y0118542D01*
X0236393Y0118445D01*
X0236414Y0118349D01*
X0236439Y0118254D01*
X0236467Y0118160D01*
X0236500Y0118068D01*
X0236535Y0117976D01*
X0236575Y0117886D01*
X0236617Y0117798D01*
X0236664Y0117711D01*
X0236713Y0117627D01*
X0236766Y0117544D01*
X0236822Y0117464D01*
X0236882Y0117385D01*
X0236944Y0117309D01*
X0237009Y0117236D01*
X0237077Y0117165D01*
X0237148Y0117097D01*
X0237221Y0117032D01*
X0237297Y0116970D01*
X0237376Y0116910D01*
X0237456Y0116854D01*
X0237539Y0116801D01*
X0237623Y0116752D01*
X0237710Y0116705D01*
X0237798Y0116663D01*
X0237888Y0116623D01*
X0237980Y0116588D01*
X0238072Y0116555D01*
X0238166Y0116527D01*
X0238261Y0116502D01*
X0238357Y0116481D01*
X0238454Y0116464D01*
X0238551Y0116450D01*
X0238649Y0116441D01*
X0238747Y0116435D01*
X0238845Y0116433D01*
X0238845Y0106433D01*
X0264406Y0106878D02*
X0264406Y0107248D01*
X0264406Y0103705D02*
X0264406Y0103335D01*
X0270784Y0103335D01*
X0270784Y0103705D01*
X0270784Y0106878D02*
X0270784Y0110988D01*
X0270784Y0114161D02*
X0270784Y0114531D01*
X0264406Y0114531D01*
X0264406Y0114161D01*
X0264406Y0110988D02*
X0264406Y0110618D01*
X0208845Y0081433D02*
X0206345Y0078933D01*
X0201345Y0078933D01*
X0198845Y0081433D01*
D13*
X0177586Y0099233D02*
X0175184Y0099233D01*
X0176385Y0099233D02*
X0176385Y0102836D01*
X0175184Y0101635D01*
X0173903Y0102236D02*
X0173302Y0102836D01*
X0172101Y0102836D01*
X0171501Y0102236D01*
X0171501Y0099834D01*
X0172101Y0099233D01*
X0173302Y0099233D01*
X0173903Y0099834D01*
X0170246Y0099233D02*
X0169045Y0099233D01*
X0169646Y0099233D02*
X0169646Y0102836D01*
X0170246Y0102836D02*
X0169045Y0102836D01*
X0206545Y0057986D02*
X0207746Y0057986D01*
X0207146Y0057986D02*
X0207146Y0054383D01*
X0207746Y0054383D02*
X0206545Y0054383D01*
X0209001Y0054984D02*
X0209601Y0054383D01*
X0210802Y0054383D01*
X0211403Y0054984D01*
X0212684Y0054984D02*
X0213284Y0054383D01*
X0214485Y0054383D01*
X0215086Y0054984D01*
X0215086Y0055584D01*
X0214485Y0056185D01*
X0212684Y0056185D01*
X0212684Y0054984D01*
X0212684Y0056185D02*
X0213885Y0057386D01*
X0215086Y0057986D01*
X0211403Y0057386D02*
X0210802Y0057986D01*
X0209601Y0057986D01*
X0209001Y0057386D01*
X0209001Y0054984D01*
D14*
X0223973Y0052811D02*
X0223973Y0065055D01*
X0223973Y0052811D02*
X0271217Y0052811D01*
X0271217Y0065055D01*
X0285135Y0060961D02*
X0300489Y0060961D01*
X0285135Y0060961D02*
X0285135Y0108205D01*
X0300489Y0108205D01*
X0291906Y0119543D02*
X0291906Y0133323D01*
X0268284Y0133323D01*
X0268284Y0119543D01*
X0291906Y0119543D01*
X0271217Y0100055D02*
X0271217Y0087811D01*
X0271217Y0100055D02*
X0223973Y0100055D01*
X0223973Y0087811D01*
X0227345Y0103185D02*
X0230345Y0103185D01*
X0237345Y0103185D02*
X0240499Y0103185D01*
X0240499Y0134681D01*
X0237345Y0134681D01*
X0230345Y0134681D02*
X0227345Y0134681D01*
X0220345Y0134681D02*
X0217345Y0134681D01*
X0210345Y0134681D02*
X0207345Y0134681D01*
X0200345Y0134681D02*
X0197192Y0134681D01*
X0197192Y0103185D01*
X0200345Y0103185D01*
X0207345Y0103185D02*
X0210345Y0103185D01*
X0217345Y0103185D02*
X0220345Y0103185D01*
X0141709Y0088539D02*
X0118481Y0088539D01*
X0118481Y0058618D01*
X0120095Y0058618D01*
X0120095Y0061433D01*
X0140095Y0061433D01*
X0140095Y0058618D01*
X0141709Y0058618D01*
X0141709Y0088539D01*
X0279190Y0048854D02*
X0279190Y0039012D01*
X0291001Y0039012D01*
X0291001Y0048854D01*
X0279190Y0048854D01*
D15*
X0194544Y0048953D02*
X0175646Y0048953D01*
X0175646Y0063913D01*
X0194544Y0063913D01*
X0194544Y0048953D01*
X0165794Y0047772D02*
X0165737Y0047763D01*
X0165681Y0047752D01*
X0165626Y0047736D01*
X0165572Y0047717D01*
X0165519Y0047695D01*
X0165468Y0047670D01*
X0165418Y0047641D01*
X0165371Y0047609D01*
X0165326Y0047574D01*
X0165283Y0047536D01*
X0165242Y0047495D01*
X0165204Y0047452D01*
X0165169Y0047407D01*
X0165137Y0047360D01*
X0165108Y0047310D01*
X0165083Y0047259D01*
X0165061Y0047206D01*
X0165042Y0047152D01*
X0165026Y0047097D01*
X0165015Y0047041D01*
X0165006Y0046984D01*
X0165007Y0046984D02*
X0164022Y0046984D01*
X0165794Y0047772D02*
X0165794Y0053480D01*
X0165794Y0059189D02*
X0165794Y0065094D01*
X0165737Y0065103D01*
X0165681Y0065114D01*
X0165626Y0065130D01*
X0165572Y0065149D01*
X0165519Y0065171D01*
X0165468Y0065196D01*
X0165418Y0065225D01*
X0165371Y0065257D01*
X0165326Y0065292D01*
X0165283Y0065330D01*
X0165242Y0065371D01*
X0165204Y0065414D01*
X0165169Y0065459D01*
X0165137Y0065506D01*
X0165108Y0065556D01*
X0165083Y0065607D01*
X0165061Y0065660D01*
X0165042Y0065714D01*
X0165026Y0065769D01*
X0165015Y0065825D01*
X0165006Y0065882D01*
X0165007Y0065882D02*
X0164022Y0065882D01*
X0148668Y0065882D02*
X0147684Y0065882D01*
X0147675Y0065825D01*
X0147664Y0065769D01*
X0147648Y0065714D01*
X0147629Y0065660D01*
X0147607Y0065607D01*
X0147582Y0065556D01*
X0147553Y0065506D01*
X0147521Y0065459D01*
X0147486Y0065414D01*
X0147448Y0065371D01*
X0147407Y0065330D01*
X0147364Y0065292D01*
X0147319Y0065257D01*
X0147272Y0065225D01*
X0147222Y0065196D01*
X0147171Y0065171D01*
X0147118Y0065149D01*
X0147064Y0065130D01*
X0147009Y0065114D01*
X0146953Y0065103D01*
X0146896Y0065094D01*
X0146896Y0058992D01*
X0146896Y0053874D02*
X0146896Y0047772D01*
X0146953Y0047763D01*
X0147009Y0047752D01*
X0147064Y0047736D01*
X0147118Y0047717D01*
X0147171Y0047695D01*
X0147222Y0047670D01*
X0147272Y0047641D01*
X0147319Y0047609D01*
X0147364Y0047574D01*
X0147407Y0047536D01*
X0147448Y0047495D01*
X0147486Y0047452D01*
X0147521Y0047407D01*
X0147553Y0047360D01*
X0147582Y0047310D01*
X0147607Y0047259D01*
X0147629Y0047206D01*
X0147648Y0047152D01*
X0147664Y0047097D01*
X0147675Y0047041D01*
X0147684Y0046984D01*
X0148668Y0046984D01*
D16*
X0153983Y0056433D03*
X0178595Y0052795D03*
D17*
X0200095Y0050133D02*
X0220095Y0050133D01*
D18*
X0280392Y0043933D03*
M02*
