%
M48
M72
T01C0.0120
T02C0.0200
T03C0.0315
T04C0.0374
T05C0.0400
T06C0.0433
T07C0.0866
T08C0.0984
%
T01
X14822Y3831
X15447Y3581
X19072Y3893
X20135Y3831
X20635Y3831
X21010Y3831
X19385Y5393
X19510Y5893
X19135Y5893
X15760Y5831
X12135Y5643
X15135Y7268
X15885Y7768
X20010Y8893
X20885Y9018
X22135Y9643
X23010Y9456
X25197Y8581
X25197Y7518
X25885Y7518
X27135Y6643
X25635Y5893
X25385Y6206
X23322Y5331
X26760Y5206
X28260Y5456
X29635Y4456
X28447Y8581
X27822Y11331
X24510Y11956
X23635Y11581
X23385Y12081
X21947Y12581
X20510Y11956
X20072Y11893
X20697Y11643
X21135Y11456
X21510Y11456
X19635Y11393
X18635Y11893
X17385Y11831
X17947Y12768
X19635Y12768
X14822Y12393
X14822Y11393
X15822Y10643
X14197Y10393
X13635Y9831
X15885Y9393
X16635Y9768
X18635Y10706
X19572Y9956
X22885Y10393
X22072Y8206
T02
X29447Y3456
X15760Y12956
X16385Y12268
X18572Y12393
X22197Y11018
X24072Y9768
X24572Y9768
X25697Y10331
X25635Y10893
X26822Y8768
X24260Y7018
X22260Y6456
X21947Y7456
X20197Y7768
X18197Y8518
X17760Y8143
X17760Y7456
X17197Y7456
X14322Y7956
X13885Y6768
X16822Y4768
X21572Y5331
X24385Y5206
X27572Y3456
X14760Y9831
X16510Y10393
T03
X13403Y6393
X12616Y6393
T04
X27962Y7080
X27962Y8065
X27962Y8852
X27962Y9836
T05
X14260Y12893
X14260Y11893
X20385Y9393
X21385Y9393
X21385Y8393
X20385Y8393
T06
X28907Y7572
X28907Y9344
X29289Y12643
X26730Y12643
T07
X12510Y12773
X25260Y12773
X25260Y4143
X12510Y4143
T08
X28907Y6155
X28907Y10761
M30
