G75*
%MOIN*%
%OFA0B0*%
%FSLAX25Y25*%
%IPPOS*%
%LPD*%
%AMOC8*
5,1,8,0,0,1.08239X$1,22.5*
%
%ADD10C,0.00000*%
%ADD11R,0.03937X0.05118*%
%ADD12R,0.06000X0.06000*%
%ADD13OC8,0.06000*%
%ADD14R,0.06299X0.05118*%
%ADD15C,0.05600*%
%ADD16R,0.04500X0.03000*%
%ADD17C,0.05543*%
%ADD18OC8,0.06300*%
%ADD19R,0.05118X0.06299*%
%ADD20C,0.01000*%
%ADD21C,0.02400*%
%ADD22C,0.02400*%
D10*
X0001000Y0001000D02*
X0256906Y0001000D01*
X0256906Y0221472D01*
X0001000Y0221472D01*
X0001000Y0001000D01*
X0009367Y0014780D02*
X0009369Y0014927D01*
X0009375Y0015073D01*
X0009385Y0015219D01*
X0009399Y0015365D01*
X0009417Y0015511D01*
X0009438Y0015656D01*
X0009464Y0015800D01*
X0009494Y0015944D01*
X0009527Y0016086D01*
X0009564Y0016228D01*
X0009605Y0016369D01*
X0009650Y0016508D01*
X0009699Y0016647D01*
X0009751Y0016784D01*
X0009808Y0016919D01*
X0009867Y0017053D01*
X0009931Y0017185D01*
X0009998Y0017315D01*
X0010068Y0017444D01*
X0010142Y0017571D01*
X0010219Y0017695D01*
X0010300Y0017818D01*
X0010384Y0017938D01*
X0010471Y0018056D01*
X0010561Y0018171D01*
X0010654Y0018284D01*
X0010751Y0018395D01*
X0010850Y0018503D01*
X0010952Y0018608D01*
X0011057Y0018710D01*
X0011165Y0018809D01*
X0011276Y0018906D01*
X0011389Y0018999D01*
X0011504Y0019089D01*
X0011622Y0019176D01*
X0011742Y0019260D01*
X0011865Y0019341D01*
X0011989Y0019418D01*
X0012116Y0019492D01*
X0012245Y0019562D01*
X0012375Y0019629D01*
X0012507Y0019693D01*
X0012641Y0019752D01*
X0012776Y0019809D01*
X0012913Y0019861D01*
X0013052Y0019910D01*
X0013191Y0019955D01*
X0013332Y0019996D01*
X0013474Y0020033D01*
X0013616Y0020066D01*
X0013760Y0020096D01*
X0013904Y0020122D01*
X0014049Y0020143D01*
X0014195Y0020161D01*
X0014341Y0020175D01*
X0014487Y0020185D01*
X0014633Y0020191D01*
X0014780Y0020193D01*
X0014927Y0020191D01*
X0015073Y0020185D01*
X0015219Y0020175D01*
X0015365Y0020161D01*
X0015511Y0020143D01*
X0015656Y0020122D01*
X0015800Y0020096D01*
X0015944Y0020066D01*
X0016086Y0020033D01*
X0016228Y0019996D01*
X0016369Y0019955D01*
X0016508Y0019910D01*
X0016647Y0019861D01*
X0016784Y0019809D01*
X0016919Y0019752D01*
X0017053Y0019693D01*
X0017185Y0019629D01*
X0017315Y0019562D01*
X0017444Y0019492D01*
X0017571Y0019418D01*
X0017695Y0019341D01*
X0017818Y0019260D01*
X0017938Y0019176D01*
X0018056Y0019089D01*
X0018171Y0018999D01*
X0018284Y0018906D01*
X0018395Y0018809D01*
X0018503Y0018710D01*
X0018608Y0018608D01*
X0018710Y0018503D01*
X0018809Y0018395D01*
X0018906Y0018284D01*
X0018999Y0018171D01*
X0019089Y0018056D01*
X0019176Y0017938D01*
X0019260Y0017818D01*
X0019341Y0017695D01*
X0019418Y0017571D01*
X0019492Y0017444D01*
X0019562Y0017315D01*
X0019629Y0017185D01*
X0019693Y0017053D01*
X0019752Y0016919D01*
X0019809Y0016784D01*
X0019861Y0016647D01*
X0019910Y0016508D01*
X0019955Y0016369D01*
X0019996Y0016228D01*
X0020033Y0016086D01*
X0020066Y0015944D01*
X0020096Y0015800D01*
X0020122Y0015656D01*
X0020143Y0015511D01*
X0020161Y0015365D01*
X0020175Y0015219D01*
X0020185Y0015073D01*
X0020191Y0014927D01*
X0020193Y0014780D01*
X0020191Y0014633D01*
X0020185Y0014487D01*
X0020175Y0014341D01*
X0020161Y0014195D01*
X0020143Y0014049D01*
X0020122Y0013904D01*
X0020096Y0013760D01*
X0020066Y0013616D01*
X0020033Y0013474D01*
X0019996Y0013332D01*
X0019955Y0013191D01*
X0019910Y0013052D01*
X0019861Y0012913D01*
X0019809Y0012776D01*
X0019752Y0012641D01*
X0019693Y0012507D01*
X0019629Y0012375D01*
X0019562Y0012245D01*
X0019492Y0012116D01*
X0019418Y0011989D01*
X0019341Y0011865D01*
X0019260Y0011742D01*
X0019176Y0011622D01*
X0019089Y0011504D01*
X0018999Y0011389D01*
X0018906Y0011276D01*
X0018809Y0011165D01*
X0018710Y0011057D01*
X0018608Y0010952D01*
X0018503Y0010850D01*
X0018395Y0010751D01*
X0018284Y0010654D01*
X0018171Y0010561D01*
X0018056Y0010471D01*
X0017938Y0010384D01*
X0017818Y0010300D01*
X0017695Y0010219D01*
X0017571Y0010142D01*
X0017444Y0010068D01*
X0017315Y0009998D01*
X0017185Y0009931D01*
X0017053Y0009867D01*
X0016919Y0009808D01*
X0016784Y0009751D01*
X0016647Y0009699D01*
X0016508Y0009650D01*
X0016369Y0009605D01*
X0016228Y0009564D01*
X0016086Y0009527D01*
X0015944Y0009494D01*
X0015800Y0009464D01*
X0015656Y0009438D01*
X0015511Y0009417D01*
X0015365Y0009399D01*
X0015219Y0009385D01*
X0015073Y0009375D01*
X0014927Y0009369D01*
X0014780Y0009367D01*
X0014633Y0009369D01*
X0014487Y0009375D01*
X0014341Y0009385D01*
X0014195Y0009399D01*
X0014049Y0009417D01*
X0013904Y0009438D01*
X0013760Y0009464D01*
X0013616Y0009494D01*
X0013474Y0009527D01*
X0013332Y0009564D01*
X0013191Y0009605D01*
X0013052Y0009650D01*
X0012913Y0009699D01*
X0012776Y0009751D01*
X0012641Y0009808D01*
X0012507Y0009867D01*
X0012375Y0009931D01*
X0012245Y0009998D01*
X0012116Y0010068D01*
X0011989Y0010142D01*
X0011865Y0010219D01*
X0011742Y0010300D01*
X0011622Y0010384D01*
X0011504Y0010471D01*
X0011389Y0010561D01*
X0011276Y0010654D01*
X0011165Y0010751D01*
X0011057Y0010850D01*
X0010952Y0010952D01*
X0010850Y0011057D01*
X0010751Y0011165D01*
X0010654Y0011276D01*
X0010561Y0011389D01*
X0010471Y0011504D01*
X0010384Y0011622D01*
X0010300Y0011742D01*
X0010219Y0011865D01*
X0010142Y0011989D01*
X0010068Y0012116D01*
X0009998Y0012245D01*
X0009931Y0012375D01*
X0009867Y0012507D01*
X0009808Y0012641D01*
X0009751Y0012776D01*
X0009699Y0012913D01*
X0009650Y0013052D01*
X0009605Y0013191D01*
X0009564Y0013332D01*
X0009527Y0013474D01*
X0009494Y0013616D01*
X0009464Y0013760D01*
X0009438Y0013904D01*
X0009417Y0014049D01*
X0009399Y0014195D01*
X0009385Y0014341D01*
X0009375Y0014487D01*
X0009369Y0014633D01*
X0009367Y0014780D01*
X0009367Y0207693D02*
X0009369Y0207840D01*
X0009375Y0207986D01*
X0009385Y0208132D01*
X0009399Y0208278D01*
X0009417Y0208424D01*
X0009438Y0208569D01*
X0009464Y0208713D01*
X0009494Y0208857D01*
X0009527Y0208999D01*
X0009564Y0209141D01*
X0009605Y0209282D01*
X0009650Y0209421D01*
X0009699Y0209560D01*
X0009751Y0209697D01*
X0009808Y0209832D01*
X0009867Y0209966D01*
X0009931Y0210098D01*
X0009998Y0210228D01*
X0010068Y0210357D01*
X0010142Y0210484D01*
X0010219Y0210608D01*
X0010300Y0210731D01*
X0010384Y0210851D01*
X0010471Y0210969D01*
X0010561Y0211084D01*
X0010654Y0211197D01*
X0010751Y0211308D01*
X0010850Y0211416D01*
X0010952Y0211521D01*
X0011057Y0211623D01*
X0011165Y0211722D01*
X0011276Y0211819D01*
X0011389Y0211912D01*
X0011504Y0212002D01*
X0011622Y0212089D01*
X0011742Y0212173D01*
X0011865Y0212254D01*
X0011989Y0212331D01*
X0012116Y0212405D01*
X0012245Y0212475D01*
X0012375Y0212542D01*
X0012507Y0212606D01*
X0012641Y0212665D01*
X0012776Y0212722D01*
X0012913Y0212774D01*
X0013052Y0212823D01*
X0013191Y0212868D01*
X0013332Y0212909D01*
X0013474Y0212946D01*
X0013616Y0212979D01*
X0013760Y0213009D01*
X0013904Y0213035D01*
X0014049Y0213056D01*
X0014195Y0213074D01*
X0014341Y0213088D01*
X0014487Y0213098D01*
X0014633Y0213104D01*
X0014780Y0213106D01*
X0014927Y0213104D01*
X0015073Y0213098D01*
X0015219Y0213088D01*
X0015365Y0213074D01*
X0015511Y0213056D01*
X0015656Y0213035D01*
X0015800Y0213009D01*
X0015944Y0212979D01*
X0016086Y0212946D01*
X0016228Y0212909D01*
X0016369Y0212868D01*
X0016508Y0212823D01*
X0016647Y0212774D01*
X0016784Y0212722D01*
X0016919Y0212665D01*
X0017053Y0212606D01*
X0017185Y0212542D01*
X0017315Y0212475D01*
X0017444Y0212405D01*
X0017571Y0212331D01*
X0017695Y0212254D01*
X0017818Y0212173D01*
X0017938Y0212089D01*
X0018056Y0212002D01*
X0018171Y0211912D01*
X0018284Y0211819D01*
X0018395Y0211722D01*
X0018503Y0211623D01*
X0018608Y0211521D01*
X0018710Y0211416D01*
X0018809Y0211308D01*
X0018906Y0211197D01*
X0018999Y0211084D01*
X0019089Y0210969D01*
X0019176Y0210851D01*
X0019260Y0210731D01*
X0019341Y0210608D01*
X0019418Y0210484D01*
X0019492Y0210357D01*
X0019562Y0210228D01*
X0019629Y0210098D01*
X0019693Y0209966D01*
X0019752Y0209832D01*
X0019809Y0209697D01*
X0019861Y0209560D01*
X0019910Y0209421D01*
X0019955Y0209282D01*
X0019996Y0209141D01*
X0020033Y0208999D01*
X0020066Y0208857D01*
X0020096Y0208713D01*
X0020122Y0208569D01*
X0020143Y0208424D01*
X0020161Y0208278D01*
X0020175Y0208132D01*
X0020185Y0207986D01*
X0020191Y0207840D01*
X0020193Y0207693D01*
X0020191Y0207546D01*
X0020185Y0207400D01*
X0020175Y0207254D01*
X0020161Y0207108D01*
X0020143Y0206962D01*
X0020122Y0206817D01*
X0020096Y0206673D01*
X0020066Y0206529D01*
X0020033Y0206387D01*
X0019996Y0206245D01*
X0019955Y0206104D01*
X0019910Y0205965D01*
X0019861Y0205826D01*
X0019809Y0205689D01*
X0019752Y0205554D01*
X0019693Y0205420D01*
X0019629Y0205288D01*
X0019562Y0205158D01*
X0019492Y0205029D01*
X0019418Y0204902D01*
X0019341Y0204778D01*
X0019260Y0204655D01*
X0019176Y0204535D01*
X0019089Y0204417D01*
X0018999Y0204302D01*
X0018906Y0204189D01*
X0018809Y0204078D01*
X0018710Y0203970D01*
X0018608Y0203865D01*
X0018503Y0203763D01*
X0018395Y0203664D01*
X0018284Y0203567D01*
X0018171Y0203474D01*
X0018056Y0203384D01*
X0017938Y0203297D01*
X0017818Y0203213D01*
X0017695Y0203132D01*
X0017571Y0203055D01*
X0017444Y0202981D01*
X0017315Y0202911D01*
X0017185Y0202844D01*
X0017053Y0202780D01*
X0016919Y0202721D01*
X0016784Y0202664D01*
X0016647Y0202612D01*
X0016508Y0202563D01*
X0016369Y0202518D01*
X0016228Y0202477D01*
X0016086Y0202440D01*
X0015944Y0202407D01*
X0015800Y0202377D01*
X0015656Y0202351D01*
X0015511Y0202330D01*
X0015365Y0202312D01*
X0015219Y0202298D01*
X0015073Y0202288D01*
X0014927Y0202282D01*
X0014780Y0202280D01*
X0014633Y0202282D01*
X0014487Y0202288D01*
X0014341Y0202298D01*
X0014195Y0202312D01*
X0014049Y0202330D01*
X0013904Y0202351D01*
X0013760Y0202377D01*
X0013616Y0202407D01*
X0013474Y0202440D01*
X0013332Y0202477D01*
X0013191Y0202518D01*
X0013052Y0202563D01*
X0012913Y0202612D01*
X0012776Y0202664D01*
X0012641Y0202721D01*
X0012507Y0202780D01*
X0012375Y0202844D01*
X0012245Y0202911D01*
X0012116Y0202981D01*
X0011989Y0203055D01*
X0011865Y0203132D01*
X0011742Y0203213D01*
X0011622Y0203297D01*
X0011504Y0203384D01*
X0011389Y0203474D01*
X0011276Y0203567D01*
X0011165Y0203664D01*
X0011057Y0203763D01*
X0010952Y0203865D01*
X0010850Y0203970D01*
X0010751Y0204078D01*
X0010654Y0204189D01*
X0010561Y0204302D01*
X0010471Y0204417D01*
X0010384Y0204535D01*
X0010300Y0204655D01*
X0010219Y0204778D01*
X0010142Y0204902D01*
X0010068Y0205029D01*
X0009998Y0205158D01*
X0009931Y0205288D01*
X0009867Y0205420D01*
X0009808Y0205554D01*
X0009751Y0205689D01*
X0009699Y0205826D01*
X0009650Y0205965D01*
X0009605Y0206104D01*
X0009564Y0206245D01*
X0009527Y0206387D01*
X0009494Y0206529D01*
X0009464Y0206673D01*
X0009438Y0206817D01*
X0009417Y0206962D01*
X0009399Y0207108D01*
X0009385Y0207254D01*
X0009375Y0207400D01*
X0009369Y0207546D01*
X0009367Y0207693D01*
X0237713Y0207693D02*
X0237715Y0207840D01*
X0237721Y0207986D01*
X0237731Y0208132D01*
X0237745Y0208278D01*
X0237763Y0208424D01*
X0237784Y0208569D01*
X0237810Y0208713D01*
X0237840Y0208857D01*
X0237873Y0208999D01*
X0237910Y0209141D01*
X0237951Y0209282D01*
X0237996Y0209421D01*
X0238045Y0209560D01*
X0238097Y0209697D01*
X0238154Y0209832D01*
X0238213Y0209966D01*
X0238277Y0210098D01*
X0238344Y0210228D01*
X0238414Y0210357D01*
X0238488Y0210484D01*
X0238565Y0210608D01*
X0238646Y0210731D01*
X0238730Y0210851D01*
X0238817Y0210969D01*
X0238907Y0211084D01*
X0239000Y0211197D01*
X0239097Y0211308D01*
X0239196Y0211416D01*
X0239298Y0211521D01*
X0239403Y0211623D01*
X0239511Y0211722D01*
X0239622Y0211819D01*
X0239735Y0211912D01*
X0239850Y0212002D01*
X0239968Y0212089D01*
X0240088Y0212173D01*
X0240211Y0212254D01*
X0240335Y0212331D01*
X0240462Y0212405D01*
X0240591Y0212475D01*
X0240721Y0212542D01*
X0240853Y0212606D01*
X0240987Y0212665D01*
X0241122Y0212722D01*
X0241259Y0212774D01*
X0241398Y0212823D01*
X0241537Y0212868D01*
X0241678Y0212909D01*
X0241820Y0212946D01*
X0241962Y0212979D01*
X0242106Y0213009D01*
X0242250Y0213035D01*
X0242395Y0213056D01*
X0242541Y0213074D01*
X0242687Y0213088D01*
X0242833Y0213098D01*
X0242979Y0213104D01*
X0243126Y0213106D01*
X0243273Y0213104D01*
X0243419Y0213098D01*
X0243565Y0213088D01*
X0243711Y0213074D01*
X0243857Y0213056D01*
X0244002Y0213035D01*
X0244146Y0213009D01*
X0244290Y0212979D01*
X0244432Y0212946D01*
X0244574Y0212909D01*
X0244715Y0212868D01*
X0244854Y0212823D01*
X0244993Y0212774D01*
X0245130Y0212722D01*
X0245265Y0212665D01*
X0245399Y0212606D01*
X0245531Y0212542D01*
X0245661Y0212475D01*
X0245790Y0212405D01*
X0245917Y0212331D01*
X0246041Y0212254D01*
X0246164Y0212173D01*
X0246284Y0212089D01*
X0246402Y0212002D01*
X0246517Y0211912D01*
X0246630Y0211819D01*
X0246741Y0211722D01*
X0246849Y0211623D01*
X0246954Y0211521D01*
X0247056Y0211416D01*
X0247155Y0211308D01*
X0247252Y0211197D01*
X0247345Y0211084D01*
X0247435Y0210969D01*
X0247522Y0210851D01*
X0247606Y0210731D01*
X0247687Y0210608D01*
X0247764Y0210484D01*
X0247838Y0210357D01*
X0247908Y0210228D01*
X0247975Y0210098D01*
X0248039Y0209966D01*
X0248098Y0209832D01*
X0248155Y0209697D01*
X0248207Y0209560D01*
X0248256Y0209421D01*
X0248301Y0209282D01*
X0248342Y0209141D01*
X0248379Y0208999D01*
X0248412Y0208857D01*
X0248442Y0208713D01*
X0248468Y0208569D01*
X0248489Y0208424D01*
X0248507Y0208278D01*
X0248521Y0208132D01*
X0248531Y0207986D01*
X0248537Y0207840D01*
X0248539Y0207693D01*
X0248537Y0207546D01*
X0248531Y0207400D01*
X0248521Y0207254D01*
X0248507Y0207108D01*
X0248489Y0206962D01*
X0248468Y0206817D01*
X0248442Y0206673D01*
X0248412Y0206529D01*
X0248379Y0206387D01*
X0248342Y0206245D01*
X0248301Y0206104D01*
X0248256Y0205965D01*
X0248207Y0205826D01*
X0248155Y0205689D01*
X0248098Y0205554D01*
X0248039Y0205420D01*
X0247975Y0205288D01*
X0247908Y0205158D01*
X0247838Y0205029D01*
X0247764Y0204902D01*
X0247687Y0204778D01*
X0247606Y0204655D01*
X0247522Y0204535D01*
X0247435Y0204417D01*
X0247345Y0204302D01*
X0247252Y0204189D01*
X0247155Y0204078D01*
X0247056Y0203970D01*
X0246954Y0203865D01*
X0246849Y0203763D01*
X0246741Y0203664D01*
X0246630Y0203567D01*
X0246517Y0203474D01*
X0246402Y0203384D01*
X0246284Y0203297D01*
X0246164Y0203213D01*
X0246041Y0203132D01*
X0245917Y0203055D01*
X0245790Y0202981D01*
X0245661Y0202911D01*
X0245531Y0202844D01*
X0245399Y0202780D01*
X0245265Y0202721D01*
X0245130Y0202664D01*
X0244993Y0202612D01*
X0244854Y0202563D01*
X0244715Y0202518D01*
X0244574Y0202477D01*
X0244432Y0202440D01*
X0244290Y0202407D01*
X0244146Y0202377D01*
X0244002Y0202351D01*
X0243857Y0202330D01*
X0243711Y0202312D01*
X0243565Y0202298D01*
X0243419Y0202288D01*
X0243273Y0202282D01*
X0243126Y0202280D01*
X0242979Y0202282D01*
X0242833Y0202288D01*
X0242687Y0202298D01*
X0242541Y0202312D01*
X0242395Y0202330D01*
X0242250Y0202351D01*
X0242106Y0202377D01*
X0241962Y0202407D01*
X0241820Y0202440D01*
X0241678Y0202477D01*
X0241537Y0202518D01*
X0241398Y0202563D01*
X0241259Y0202612D01*
X0241122Y0202664D01*
X0240987Y0202721D01*
X0240853Y0202780D01*
X0240721Y0202844D01*
X0240591Y0202911D01*
X0240462Y0202981D01*
X0240335Y0203055D01*
X0240211Y0203132D01*
X0240088Y0203213D01*
X0239968Y0203297D01*
X0239850Y0203384D01*
X0239735Y0203474D01*
X0239622Y0203567D01*
X0239511Y0203664D01*
X0239403Y0203763D01*
X0239298Y0203865D01*
X0239196Y0203970D01*
X0239097Y0204078D01*
X0239000Y0204189D01*
X0238907Y0204302D01*
X0238817Y0204417D01*
X0238730Y0204535D01*
X0238646Y0204655D01*
X0238565Y0204778D01*
X0238488Y0204902D01*
X0238414Y0205029D01*
X0238344Y0205158D01*
X0238277Y0205288D01*
X0238213Y0205420D01*
X0238154Y0205554D01*
X0238097Y0205689D01*
X0238045Y0205826D01*
X0237996Y0205965D01*
X0237951Y0206104D01*
X0237910Y0206245D01*
X0237873Y0206387D01*
X0237840Y0206529D01*
X0237810Y0206673D01*
X0237784Y0206817D01*
X0237763Y0206962D01*
X0237745Y0207108D01*
X0237731Y0207254D01*
X0237721Y0207400D01*
X0237715Y0207546D01*
X0237713Y0207693D01*
X0237713Y0014780D02*
X0237715Y0014927D01*
X0237721Y0015073D01*
X0237731Y0015219D01*
X0237745Y0015365D01*
X0237763Y0015511D01*
X0237784Y0015656D01*
X0237810Y0015800D01*
X0237840Y0015944D01*
X0237873Y0016086D01*
X0237910Y0016228D01*
X0237951Y0016369D01*
X0237996Y0016508D01*
X0238045Y0016647D01*
X0238097Y0016784D01*
X0238154Y0016919D01*
X0238213Y0017053D01*
X0238277Y0017185D01*
X0238344Y0017315D01*
X0238414Y0017444D01*
X0238488Y0017571D01*
X0238565Y0017695D01*
X0238646Y0017818D01*
X0238730Y0017938D01*
X0238817Y0018056D01*
X0238907Y0018171D01*
X0239000Y0018284D01*
X0239097Y0018395D01*
X0239196Y0018503D01*
X0239298Y0018608D01*
X0239403Y0018710D01*
X0239511Y0018809D01*
X0239622Y0018906D01*
X0239735Y0018999D01*
X0239850Y0019089D01*
X0239968Y0019176D01*
X0240088Y0019260D01*
X0240211Y0019341D01*
X0240335Y0019418D01*
X0240462Y0019492D01*
X0240591Y0019562D01*
X0240721Y0019629D01*
X0240853Y0019693D01*
X0240987Y0019752D01*
X0241122Y0019809D01*
X0241259Y0019861D01*
X0241398Y0019910D01*
X0241537Y0019955D01*
X0241678Y0019996D01*
X0241820Y0020033D01*
X0241962Y0020066D01*
X0242106Y0020096D01*
X0242250Y0020122D01*
X0242395Y0020143D01*
X0242541Y0020161D01*
X0242687Y0020175D01*
X0242833Y0020185D01*
X0242979Y0020191D01*
X0243126Y0020193D01*
X0243273Y0020191D01*
X0243419Y0020185D01*
X0243565Y0020175D01*
X0243711Y0020161D01*
X0243857Y0020143D01*
X0244002Y0020122D01*
X0244146Y0020096D01*
X0244290Y0020066D01*
X0244432Y0020033D01*
X0244574Y0019996D01*
X0244715Y0019955D01*
X0244854Y0019910D01*
X0244993Y0019861D01*
X0245130Y0019809D01*
X0245265Y0019752D01*
X0245399Y0019693D01*
X0245531Y0019629D01*
X0245661Y0019562D01*
X0245790Y0019492D01*
X0245917Y0019418D01*
X0246041Y0019341D01*
X0246164Y0019260D01*
X0246284Y0019176D01*
X0246402Y0019089D01*
X0246517Y0018999D01*
X0246630Y0018906D01*
X0246741Y0018809D01*
X0246849Y0018710D01*
X0246954Y0018608D01*
X0247056Y0018503D01*
X0247155Y0018395D01*
X0247252Y0018284D01*
X0247345Y0018171D01*
X0247435Y0018056D01*
X0247522Y0017938D01*
X0247606Y0017818D01*
X0247687Y0017695D01*
X0247764Y0017571D01*
X0247838Y0017444D01*
X0247908Y0017315D01*
X0247975Y0017185D01*
X0248039Y0017053D01*
X0248098Y0016919D01*
X0248155Y0016784D01*
X0248207Y0016647D01*
X0248256Y0016508D01*
X0248301Y0016369D01*
X0248342Y0016228D01*
X0248379Y0016086D01*
X0248412Y0015944D01*
X0248442Y0015800D01*
X0248468Y0015656D01*
X0248489Y0015511D01*
X0248507Y0015365D01*
X0248521Y0015219D01*
X0248531Y0015073D01*
X0248537Y0014927D01*
X0248539Y0014780D01*
X0248537Y0014633D01*
X0248531Y0014487D01*
X0248521Y0014341D01*
X0248507Y0014195D01*
X0248489Y0014049D01*
X0248468Y0013904D01*
X0248442Y0013760D01*
X0248412Y0013616D01*
X0248379Y0013474D01*
X0248342Y0013332D01*
X0248301Y0013191D01*
X0248256Y0013052D01*
X0248207Y0012913D01*
X0248155Y0012776D01*
X0248098Y0012641D01*
X0248039Y0012507D01*
X0247975Y0012375D01*
X0247908Y0012245D01*
X0247838Y0012116D01*
X0247764Y0011989D01*
X0247687Y0011865D01*
X0247606Y0011742D01*
X0247522Y0011622D01*
X0247435Y0011504D01*
X0247345Y0011389D01*
X0247252Y0011276D01*
X0247155Y0011165D01*
X0247056Y0011057D01*
X0246954Y0010952D01*
X0246849Y0010850D01*
X0246741Y0010751D01*
X0246630Y0010654D01*
X0246517Y0010561D01*
X0246402Y0010471D01*
X0246284Y0010384D01*
X0246164Y0010300D01*
X0246041Y0010219D01*
X0245917Y0010142D01*
X0245790Y0010068D01*
X0245661Y0009998D01*
X0245531Y0009931D01*
X0245399Y0009867D01*
X0245265Y0009808D01*
X0245130Y0009751D01*
X0244993Y0009699D01*
X0244854Y0009650D01*
X0244715Y0009605D01*
X0244574Y0009564D01*
X0244432Y0009527D01*
X0244290Y0009494D01*
X0244146Y0009464D01*
X0244002Y0009438D01*
X0243857Y0009417D01*
X0243711Y0009399D01*
X0243565Y0009385D01*
X0243419Y0009375D01*
X0243273Y0009369D01*
X0243126Y0009367D01*
X0242979Y0009369D01*
X0242833Y0009375D01*
X0242687Y0009385D01*
X0242541Y0009399D01*
X0242395Y0009417D01*
X0242250Y0009438D01*
X0242106Y0009464D01*
X0241962Y0009494D01*
X0241820Y0009527D01*
X0241678Y0009564D01*
X0241537Y0009605D01*
X0241398Y0009650D01*
X0241259Y0009699D01*
X0241122Y0009751D01*
X0240987Y0009808D01*
X0240853Y0009867D01*
X0240721Y0009931D01*
X0240591Y0009998D01*
X0240462Y0010068D01*
X0240335Y0010142D01*
X0240211Y0010219D01*
X0240088Y0010300D01*
X0239968Y0010384D01*
X0239850Y0010471D01*
X0239735Y0010561D01*
X0239622Y0010654D01*
X0239511Y0010751D01*
X0239403Y0010850D01*
X0239298Y0010952D01*
X0239196Y0011057D01*
X0239097Y0011165D01*
X0239000Y0011276D01*
X0238907Y0011389D01*
X0238817Y0011504D01*
X0238730Y0011622D01*
X0238646Y0011742D01*
X0238565Y0011865D01*
X0238488Y0011989D01*
X0238414Y0012116D01*
X0238344Y0012245D01*
X0238277Y0012375D01*
X0238213Y0012507D01*
X0238154Y0012641D01*
X0238097Y0012776D01*
X0238045Y0012913D01*
X0237996Y0013052D01*
X0237951Y0013191D01*
X0237910Y0013332D01*
X0237873Y0013474D01*
X0237840Y0013616D01*
X0237810Y0013760D01*
X0237784Y0013904D01*
X0237763Y0014049D01*
X0237745Y0014195D01*
X0237731Y0014341D01*
X0237721Y0014487D01*
X0237715Y0014633D01*
X0237713Y0014780D01*
D11*
X0101709Y0069780D03*
X0096197Y0069780D03*
X0037959Y0086030D03*
X0032447Y0086030D03*
X0032447Y0099780D03*
X0037959Y0099780D03*
X0032959Y0147280D03*
X0027447Y0147280D03*
X0073697Y0177280D03*
X0079209Y0177280D03*
D12*
X0088953Y0192280D03*
X0013953Y0167280D03*
X0218953Y0192280D03*
X0223953Y0009780D03*
D13*
X0223953Y0019780D03*
X0213953Y0019780D03*
X0203953Y0019780D03*
X0193953Y0019780D03*
X0183953Y0019780D03*
X0173953Y0019780D03*
X0163953Y0019780D03*
X0153953Y0019780D03*
X0143953Y0019780D03*
X0133953Y0019780D03*
X0123953Y0019780D03*
X0113953Y0019780D03*
X0103953Y0019780D03*
X0093953Y0019780D03*
X0083953Y0019780D03*
X0073953Y0019780D03*
X0063953Y0019780D03*
X0053953Y0019780D03*
X0043953Y0019780D03*
X0033953Y0019780D03*
X0033953Y0009780D03*
X0043953Y0009780D03*
X0053953Y0009780D03*
X0063953Y0009780D03*
X0073953Y0009780D03*
X0083953Y0009780D03*
X0093953Y0009780D03*
X0103953Y0009780D03*
X0113953Y0009780D03*
X0123953Y0009780D03*
X0133953Y0009780D03*
X0143953Y0009780D03*
X0153953Y0009780D03*
X0163953Y0009780D03*
X0173953Y0009780D03*
X0183953Y0009780D03*
X0193953Y0009780D03*
X0203953Y0009780D03*
X0213953Y0009780D03*
X0013953Y0127280D03*
X0013953Y0137280D03*
X0013953Y0147280D03*
X0013953Y0157280D03*
X0088953Y0202280D03*
X0218953Y0202280D03*
D14*
X0153953Y0168520D03*
X0153953Y0161039D03*
X0123953Y0161039D03*
X0123953Y0168520D03*
X0113953Y0168520D03*
X0113953Y0161039D03*
X0113953Y0133520D03*
X0113953Y0126039D03*
X0123953Y0126039D03*
X0133953Y0126039D03*
X0133953Y0133520D03*
X0123953Y0133520D03*
X0143953Y0133520D03*
X0143953Y0126039D03*
X0103953Y0126039D03*
X0103953Y0133520D03*
D15*
X0103953Y0117280D03*
X0113953Y0117280D03*
X0123953Y0117280D03*
X0133953Y0117280D03*
X0143953Y0117280D03*
X0153953Y0117280D03*
X0153953Y0177280D03*
X0143953Y0177280D03*
X0133953Y0177280D03*
X0123953Y0177280D03*
X0113953Y0177280D03*
X0103953Y0177280D03*
D16*
X0080303Y0167280D03*
X0080303Y0162280D03*
X0080303Y0157280D03*
X0080303Y0152280D03*
X0080303Y0147280D03*
X0080303Y0142280D03*
X0080303Y0137280D03*
X0080303Y0132280D03*
X0080303Y0127280D03*
X0080303Y0122280D03*
X0086803Y0090280D03*
X0086803Y0085280D03*
X0086803Y0080280D03*
X0086803Y0075280D03*
X0086803Y0070280D03*
X0086803Y0065280D03*
X0086803Y0060280D03*
X0086803Y0055280D03*
X0086803Y0050280D03*
X0086803Y0045280D03*
X0049103Y0045280D03*
X0049103Y0050280D03*
X0049103Y0055280D03*
X0049103Y0060280D03*
X0049103Y0065280D03*
X0049103Y0070280D03*
X0049103Y0075280D03*
X0049103Y0080280D03*
X0049103Y0085280D03*
X0049103Y0090280D03*
X0042603Y0122280D03*
X0042603Y0127280D03*
X0042603Y0132280D03*
X0042603Y0137280D03*
X0042603Y0142280D03*
X0042603Y0147280D03*
X0042603Y0152280D03*
X0042603Y0157280D03*
X0042603Y0162280D03*
X0042603Y0167280D03*
X0178853Y0164780D03*
X0178853Y0159780D03*
X0178853Y0154780D03*
X0178853Y0149780D03*
X0178853Y0144780D03*
X0178853Y0139780D03*
X0178853Y0134780D03*
X0178853Y0129780D03*
X0178853Y0124780D03*
X0214053Y0124780D03*
X0214053Y0129780D03*
X0214053Y0134780D03*
X0214053Y0139780D03*
X0214053Y0144780D03*
X0214053Y0149780D03*
X0214053Y0154780D03*
X0214053Y0159780D03*
X0214053Y0164780D03*
D17*
X0120406Y0066780D03*
X0014500Y0071780D03*
X0014500Y0061780D03*
D18*
X0133953Y0062280D03*
X0143953Y0062280D03*
X0153953Y0062280D03*
X0163953Y0062280D03*
X0173953Y0062280D03*
X0183953Y0062280D03*
X0193953Y0062280D03*
X0203953Y0062280D03*
X0213953Y0062280D03*
X0223953Y0062280D03*
X0223953Y0052280D03*
X0213953Y0052280D03*
X0203953Y0052280D03*
X0193953Y0052280D03*
X0183953Y0052280D03*
X0173953Y0052280D03*
X0163953Y0052280D03*
X0153953Y0052280D03*
X0143953Y0052280D03*
X0133953Y0052280D03*
X0133953Y0042280D03*
X0143953Y0042280D03*
X0153953Y0042280D03*
X0163953Y0042280D03*
X0173953Y0042280D03*
X0183953Y0042280D03*
X0193953Y0042280D03*
X0203953Y0042280D03*
X0213953Y0042280D03*
X0223953Y0042280D03*
X0223953Y0032280D03*
X0213953Y0032280D03*
X0203953Y0032280D03*
X0193953Y0032280D03*
X0183953Y0032280D03*
X0173953Y0032280D03*
X0163953Y0032280D03*
X0153953Y0032280D03*
X0143953Y0032280D03*
X0133953Y0032280D03*
X0133953Y0072280D03*
X0133953Y0082280D03*
X0143953Y0082280D03*
X0153953Y0082280D03*
X0163953Y0082280D03*
X0173953Y0082280D03*
X0183953Y0082280D03*
X0193953Y0082280D03*
X0203953Y0082280D03*
X0213953Y0082280D03*
X0223953Y0082280D03*
X0223953Y0072280D03*
X0213953Y0072280D03*
X0203953Y0072280D03*
X0193953Y0072280D03*
X0183953Y0072280D03*
X0173953Y0072280D03*
X0163953Y0072280D03*
X0153953Y0072280D03*
X0143953Y0072280D03*
X0143953Y0092280D03*
X0143953Y0102280D03*
X0153953Y0102280D03*
X0163953Y0102280D03*
X0173953Y0102280D03*
X0183953Y0102280D03*
X0193953Y0102280D03*
X0203953Y0102280D03*
X0213953Y0102280D03*
X0223953Y0102280D03*
X0223953Y0092280D03*
X0213953Y0092280D03*
X0203953Y0092280D03*
X0193953Y0092280D03*
X0183953Y0092280D03*
X0173953Y0092280D03*
X0163953Y0092280D03*
X0153953Y0092280D03*
X0133953Y0092280D03*
X0133953Y0102280D03*
D19*
X0057693Y0099780D03*
X0050213Y0099780D03*
D20*
X0049453Y0109280D02*
X0058953Y0109280D01*
X0082953Y0085280D01*
X0082953Y0077780D01*
X0085453Y0075280D01*
X0086803Y0075280D01*
X0086953Y0075280D01*
X0088953Y0073280D01*
X0091453Y0073280D01*
X0095453Y0070280D02*
X0086803Y0070280D01*
X0085453Y0070280D01*
X0075453Y0080280D01*
X0049103Y0080280D01*
X0049453Y0109280D02*
X0038453Y0120280D01*
X0038453Y0129280D01*
X0041453Y0132280D01*
X0042603Y0132280D01*
X0042603Y0137280D02*
X0033453Y0137280D01*
X0016953Y0120780D01*
X0010953Y0120780D01*
X0007453Y0124280D01*
X0007453Y0172280D01*
X0022953Y0187780D01*
X0199953Y0187780D01*
X0219953Y0167780D01*
X0219953Y0154780D01*
X0214953Y0149780D01*
X0214053Y0149780D01*
X0209953Y0151780D02*
X0212953Y0154780D01*
X0214053Y0154780D01*
X0209953Y0151780D02*
X0209953Y0146780D01*
X0171953Y0108780D01*
X0084453Y0108780D01*
X0065953Y0127280D01*
X0042603Y0127280D01*
X0042603Y0122280D02*
X0054453Y0122280D01*
X0086453Y0090280D01*
X0086803Y0090280D01*
X0087953Y0090280D01*
X0108953Y0069280D01*
X0108953Y0041780D01*
X0128453Y0022280D01*
X0128453Y0018780D01*
X0131953Y0015280D01*
X0195953Y0015280D01*
X0200453Y0019780D01*
X0203953Y0019780D01*
X0143953Y0110780D02*
X0099953Y0110780D01*
X0098953Y0111780D01*
X0101953Y0112780D02*
X0115953Y0112780D01*
X0118953Y0115780D01*
X0118953Y0129280D01*
X0122953Y0133280D01*
X0123953Y0133280D01*
X0123953Y0133520D01*
X0127953Y0139780D02*
X0133953Y0133780D01*
X0133953Y0133520D01*
X0127953Y0139780D02*
X0098953Y0139780D01*
X0096453Y0137280D01*
X0080303Y0137280D01*
X0080303Y0142280D02*
X0135453Y0142280D01*
X0143953Y0133780D01*
X0143953Y0133520D01*
X0143953Y0126039D02*
X0143953Y0117280D01*
X0148453Y0115280D02*
X0148453Y0120280D01*
X0175953Y0147780D01*
X0176453Y0147780D01*
X0178453Y0149780D01*
X0178853Y0149780D01*
X0178853Y0154780D02*
X0159953Y0154780D01*
X0157953Y0156780D02*
X0149953Y0156780D01*
X0143953Y0162780D01*
X0143953Y0177280D01*
X0141953Y0181780D02*
X0139453Y0179280D01*
X0139453Y0168280D01*
X0118453Y0147280D01*
X0080303Y0147280D01*
X0080303Y0152280D02*
X0063953Y0152280D01*
X0045953Y0170280D01*
X0036453Y0170280D01*
X0034453Y0168280D01*
X0014953Y0168280D01*
X0013953Y0167280D01*
X0009453Y0171280D02*
X0023953Y0185780D01*
X0198953Y0185780D01*
X0217953Y0166780D01*
X0217953Y0162780D01*
X0214953Y0159780D01*
X0214053Y0159780D01*
X0214053Y0164780D02*
X0187953Y0164780D01*
X0168953Y0183780D01*
X0140953Y0183780D01*
X0139453Y0182280D01*
X0102453Y0182280D01*
X0113953Y0177280D02*
X0113953Y0168520D01*
X0112953Y0162280D02*
X0113953Y0161280D01*
X0113953Y0161039D01*
X0112953Y0162280D02*
X0080303Y0162280D01*
X0080303Y0157280D02*
X0109453Y0157280D01*
X0109953Y0156780D01*
X0119953Y0156780D01*
X0123953Y0160780D01*
X0123953Y0161039D01*
X0123953Y0168520D02*
X0123953Y0177280D01*
X0141953Y0181780D02*
X0145953Y0181780D01*
X0148953Y0178780D01*
X0148953Y0165280D01*
X0152953Y0161280D01*
X0153953Y0161280D01*
X0153953Y0161039D01*
X0157953Y0156780D02*
X0160953Y0159780D01*
X0178853Y0159780D01*
X0182953Y0161780D02*
X0182953Y0122780D01*
X0177453Y0117280D01*
X0153953Y0117280D01*
X0148453Y0115280D02*
X0143953Y0110780D01*
X0133953Y0117280D02*
X0133953Y0126039D01*
X0123953Y0126039D02*
X0123953Y0117280D01*
X0113953Y0117280D02*
X0113953Y0126039D01*
X0113953Y0133520D02*
X0113953Y0133780D01*
X0109953Y0137780D01*
X0099953Y0137780D01*
X0089453Y0127280D01*
X0080303Y0127280D01*
X0076453Y0129780D02*
X0078953Y0132280D01*
X0080303Y0132280D01*
X0076453Y0129780D02*
X0076453Y0119780D01*
X0076953Y0119280D01*
X0083453Y0119280D01*
X0084453Y0120280D01*
X0094453Y0120280D01*
X0101953Y0112780D01*
X0103953Y0117280D02*
X0103953Y0126039D01*
X0103953Y0133280D02*
X0102953Y0133280D01*
X0091953Y0122280D01*
X0080303Y0122280D01*
X0103953Y0133280D02*
X0103953Y0133520D01*
X0067453Y0147280D02*
X0042603Y0147280D01*
X0042603Y0152280D02*
X0038453Y0152280D01*
X0033453Y0147280D01*
X0032959Y0147280D01*
X0035453Y0142280D02*
X0015953Y0122780D01*
X0011953Y0122780D01*
X0009453Y0125280D01*
X0009453Y0171280D01*
X0026953Y0157280D02*
X0020453Y0150780D01*
X0020453Y0133780D01*
X0013953Y0127280D01*
X0013953Y0137280D02*
X0018453Y0141780D01*
X0018453Y0151780D01*
X0028953Y0162280D01*
X0042603Y0162280D01*
X0042603Y0157280D02*
X0026953Y0157280D01*
X0035453Y0142280D02*
X0042603Y0142280D01*
X0095453Y0070280D02*
X0095953Y0069780D01*
X0096197Y0069780D01*
X0182953Y0161780D02*
X0179953Y0164780D01*
X0178853Y0164780D01*
X0153953Y0168520D02*
X0153953Y0177280D01*
D21*
X0159953Y0154780D03*
X0102453Y0182280D03*
X0062453Y0169780D03*
X0053953Y0166280D03*
X0067453Y0147280D03*
X0025953Y0152280D03*
X0019453Y0156780D03*
X0009953Y0117780D03*
X0028453Y0104280D03*
X0091453Y0073280D03*
X0105953Y0066780D03*
X0098953Y0111780D03*
X0224953Y0109780D03*
D22*
X0234453Y0100280D01*
X0234453Y0022780D01*
X0223953Y0012280D01*
X0223953Y0009780D01*
X0233953Y0009780D02*
X0237359Y0009780D01*
X0236672Y0010467D02*
X0235513Y0013265D01*
X0235513Y0016294D01*
X0236672Y0019092D01*
X0238813Y0021234D01*
X0241612Y0022393D01*
X0244640Y0022393D01*
X0247439Y0021234D01*
X0249580Y0019092D01*
X0250739Y0016294D01*
X0250739Y0013265D01*
X0249580Y0010467D01*
X0247439Y0008325D01*
X0244640Y0007166D01*
X0241612Y0007166D01*
X0238813Y0008325D01*
X0236672Y0010467D01*
X0235963Y0012178D02*
X0233953Y0012178D01*
X0233953Y0014577D02*
X0235513Y0014577D01*
X0235795Y0016975D02*
X0233953Y0016975D01*
X0233953Y0017471D02*
X0236379Y0019897D01*
X0237335Y0020854D01*
X0237853Y0022103D01*
X0237853Y0100956D01*
X0237335Y0102205D01*
X0227835Y0111705D01*
X0226879Y0112662D01*
X0225629Y0113180D01*
X0224276Y0113180D01*
X0223027Y0112662D01*
X0222070Y0111705D01*
X0221553Y0110456D01*
X0221553Y0109103D01*
X0222070Y0107854D01*
X0222294Y0107630D01*
X0221737Y0107630D01*
X0218953Y0104846D01*
X0217719Y0106080D01*
X0219450Y0106080D01*
X0220153Y0106782D01*
X0220153Y0108777D01*
X0219450Y0109480D01*
X0176471Y0109480D01*
X0209603Y0142611D01*
X0209603Y0142368D01*
X0209691Y0142280D01*
X0209603Y0142191D01*
X0209603Y0137368D01*
X0209691Y0137280D01*
X0209603Y0137191D01*
X0209603Y0132368D01*
X0209691Y0132280D01*
X0209603Y0132191D01*
X0209603Y0127368D01*
X0209785Y0127186D01*
X0209753Y0127129D01*
X0209603Y0126569D01*
X0209603Y0124780D01*
X0214053Y0124780D01*
X0218503Y0124780D01*
X0218503Y0126569D01*
X0218353Y0127129D01*
X0218320Y0127186D01*
X0218503Y0127368D01*
X0218503Y0132191D01*
X0218414Y0132280D01*
X0218503Y0132368D01*
X0218503Y0137191D01*
X0218414Y0137280D01*
X0218503Y0137368D01*
X0218503Y0142191D01*
X0218414Y0142280D01*
X0218503Y0142368D01*
X0218503Y0147191D01*
X0218414Y0147280D01*
X0218503Y0147368D01*
X0218503Y0149511D01*
X0222242Y0153250D01*
X0222653Y0154242D01*
X0222653Y0168317D01*
X0222242Y0169309D01*
X0221482Y0170068D01*
X0201482Y0190068D01*
X0200490Y0190480D01*
X0094153Y0190480D01*
X0094153Y0196191D01*
X0092864Y0197480D01*
X0091507Y0197480D01*
X0094153Y0200126D01*
X0094153Y0204433D01*
X0091107Y0207480D01*
X0086799Y0207480D01*
X0083753Y0204433D01*
X0083753Y0200126D01*
X0086399Y0197480D01*
X0085041Y0197480D01*
X0083753Y0196191D01*
X0083753Y0190480D01*
X0022416Y0190480D01*
X0021423Y0190068D01*
X0020664Y0189309D01*
X0006453Y0175098D01*
X0006453Y0217280D01*
X0251453Y0217280D01*
X0251453Y0003200D01*
X0233953Y0003200D01*
X0233953Y0017471D01*
X0235855Y0019374D02*
X0236953Y0019374D01*
X0237716Y0021772D02*
X0240113Y0021772D01*
X0237853Y0024171D02*
X0251453Y0024171D01*
X0251453Y0026569D02*
X0237853Y0026569D01*
X0237853Y0028968D02*
X0251453Y0028968D01*
X0251453Y0031366D02*
X0237853Y0031366D01*
X0237853Y0033765D02*
X0251453Y0033765D01*
X0251453Y0036163D02*
X0237853Y0036163D01*
X0237853Y0038562D02*
X0251453Y0038562D01*
X0251453Y0040960D02*
X0237853Y0040960D01*
X0237853Y0043359D02*
X0251453Y0043359D01*
X0251453Y0045757D02*
X0237853Y0045757D01*
X0237853Y0048156D02*
X0251453Y0048156D01*
X0251453Y0050554D02*
X0237853Y0050554D01*
X0237853Y0052953D02*
X0251453Y0052953D01*
X0251453Y0055351D02*
X0237853Y0055351D01*
X0237853Y0057750D02*
X0251453Y0057750D01*
X0251453Y0060148D02*
X0237853Y0060148D01*
X0237853Y0062547D02*
X0251453Y0062547D01*
X0251453Y0064945D02*
X0237853Y0064945D01*
X0237853Y0067344D02*
X0251453Y0067344D01*
X0251453Y0069742D02*
X0237853Y0069742D01*
X0237853Y0072141D02*
X0251453Y0072141D01*
X0251453Y0074539D02*
X0237853Y0074539D01*
X0237853Y0076938D02*
X0251453Y0076938D01*
X0251453Y0079336D02*
X0237853Y0079336D01*
X0237853Y0081735D02*
X0251453Y0081735D01*
X0251453Y0084133D02*
X0237853Y0084133D01*
X0237853Y0086532D02*
X0251453Y0086532D01*
X0251453Y0088930D02*
X0237853Y0088930D01*
X0237853Y0091329D02*
X0251453Y0091329D01*
X0251453Y0093727D02*
X0237853Y0093727D01*
X0237853Y0096126D02*
X0251453Y0096126D01*
X0251453Y0098524D02*
X0237853Y0098524D01*
X0237853Y0100923D02*
X0251453Y0100923D01*
X0251453Y0103321D02*
X0236219Y0103321D01*
X0233821Y0105720D02*
X0251453Y0105720D01*
X0251453Y0108118D02*
X0231422Y0108118D01*
X0229024Y0110517D02*
X0251453Y0110517D01*
X0251453Y0112916D02*
X0226266Y0112916D01*
X0223639Y0112916D02*
X0179907Y0112916D01*
X0182306Y0115314D02*
X0251453Y0115314D01*
X0251453Y0117713D02*
X0184704Y0117713D01*
X0187103Y0120111D02*
X0251453Y0120111D01*
X0251453Y0122510D02*
X0218374Y0122510D01*
X0218353Y0122430D02*
X0218503Y0122990D01*
X0218503Y0124779D01*
X0214053Y0124779D01*
X0214053Y0121080D01*
X0216592Y0121080D01*
X0217152Y0121229D01*
X0217654Y0121519D01*
X0218063Y0121929D01*
X0218353Y0122430D01*
X0218503Y0124908D02*
X0251453Y0124908D01*
X0251453Y0127307D02*
X0218441Y0127307D01*
X0218503Y0129705D02*
X0251453Y0129705D01*
X0251453Y0132104D02*
X0218503Y0132104D01*
X0218503Y0134502D02*
X0251453Y0134502D01*
X0251453Y0136901D02*
X0218503Y0136901D01*
X0218503Y0139299D02*
X0251453Y0139299D01*
X0251453Y0141698D02*
X0218503Y0141698D01*
X0218503Y0144096D02*
X0251453Y0144096D01*
X0251453Y0146495D02*
X0218503Y0146495D01*
X0218503Y0148893D02*
X0251453Y0148893D01*
X0251453Y0151292D02*
X0220283Y0151292D01*
X0222424Y0153690D02*
X0251453Y0153690D01*
X0251453Y0156089D02*
X0222653Y0156089D01*
X0222653Y0158487D02*
X0251453Y0158487D01*
X0251453Y0160886D02*
X0222653Y0160886D01*
X0222653Y0163284D02*
X0251453Y0163284D01*
X0251453Y0165683D02*
X0222653Y0165683D01*
X0222653Y0168081D02*
X0251453Y0168081D01*
X0251453Y0170480D02*
X0221071Y0170480D01*
X0218672Y0172878D02*
X0251453Y0172878D01*
X0251453Y0175277D02*
X0216274Y0175277D01*
X0213875Y0177675D02*
X0251453Y0177675D01*
X0251453Y0180074D02*
X0211477Y0180074D01*
X0209078Y0182472D02*
X0251453Y0182472D01*
X0251453Y0184871D02*
X0206680Y0184871D01*
X0204281Y0187269D02*
X0214852Y0187269D01*
X0215041Y0187080D02*
X0222864Y0187080D01*
X0224153Y0188368D01*
X0224153Y0196191D01*
X0222864Y0197480D01*
X0221507Y0197480D01*
X0224153Y0200126D01*
X0224153Y0202279D01*
X0218953Y0202279D01*
X0218953Y0202280D01*
X0218953Y0202280D01*
X0218953Y0207480D01*
X0221107Y0207480D01*
X0224153Y0204433D01*
X0224153Y0202280D01*
X0218953Y0202280D01*
X0218953Y0207480D01*
X0216799Y0207480D01*
X0213753Y0204433D01*
X0213753Y0202280D01*
X0218953Y0202280D01*
X0224453Y0196780D01*
X0224453Y0133280D01*
X0215453Y0124280D01*
X0214053Y0124780D01*
X0214053Y0124779D01*
X0214053Y0124779D01*
X0214053Y0121080D01*
X0211513Y0121080D01*
X0210954Y0121229D01*
X0210452Y0121519D01*
X0210042Y0121929D01*
X0209753Y0122430D01*
X0209603Y0122990D01*
X0209603Y0124779D01*
X0214053Y0124779D01*
X0214053Y0124780D02*
X0214453Y0124780D01*
X0214453Y0114780D01*
X0223953Y0105280D01*
X0223953Y0102280D01*
X0223953Y0105971D01*
X0223953Y0105971D01*
X0223953Y0102280D01*
X0223953Y0102280D01*
X0224953Y0101780D01*
X0227953Y0101780D01*
X0230953Y0098780D01*
X0230953Y0027280D01*
X0228953Y0025280D01*
X0189953Y0025280D01*
X0184953Y0020280D01*
X0183953Y0019780D01*
X0181453Y0019780D01*
X0175453Y0025780D01*
X0128953Y0025780D01*
X0120453Y0034280D01*
X0120453Y0066780D01*
X0120406Y0066780D01*
X0125377Y0066780D01*
X0125377Y0067171D01*
X0125255Y0067944D01*
X0125013Y0068688D01*
X0124658Y0069385D01*
X0124198Y0070018D01*
X0123644Y0070572D01*
X0123011Y0071032D01*
X0122314Y0071387D01*
X0121570Y0071629D01*
X0120797Y0071751D01*
X0120406Y0071751D01*
X0120406Y0066780D01*
X0120406Y0066779D01*
X0125377Y0066779D01*
X0125377Y0066388D01*
X0125255Y0065615D01*
X0125013Y0064871D01*
X0124658Y0064174D01*
X0124198Y0063541D01*
X0123644Y0062987D01*
X0123011Y0062527D01*
X0122314Y0062172D01*
X0121570Y0061930D01*
X0120797Y0061808D01*
X0120406Y0061808D01*
X0120406Y0066779D01*
X0120405Y0066779D01*
X0120405Y0061808D01*
X0120014Y0061808D01*
X0119241Y0061930D01*
X0118497Y0062172D01*
X0117800Y0062527D01*
X0117167Y0062987D01*
X0116613Y0063541D01*
X0116153Y0064174D01*
X0115798Y0064871D01*
X0115556Y0065615D01*
X0115434Y0066388D01*
X0115434Y0066779D01*
X0120405Y0066779D01*
X0120405Y0066780D01*
X0120405Y0071751D01*
X0120014Y0071751D01*
X0119241Y0071629D01*
X0118497Y0071387D01*
X0117800Y0071032D01*
X0117167Y0070572D01*
X0116613Y0070018D01*
X0116153Y0069385D01*
X0115798Y0068688D01*
X0115556Y0067944D01*
X0115434Y0067171D01*
X0115434Y0066780D01*
X0120405Y0066780D01*
X0120406Y0066780D01*
X0120405Y0067344D02*
X0120406Y0067344D01*
X0120405Y0069742D02*
X0120406Y0069742D01*
X0116413Y0069742D02*
X0111653Y0069742D01*
X0111653Y0069817D02*
X0111242Y0070809D01*
X0091253Y0090798D01*
X0091253Y0092691D01*
X0089964Y0093980D01*
X0086571Y0093980D01*
X0055982Y0124568D01*
X0055955Y0124580D01*
X0064834Y0124580D01*
X0082164Y0107250D01*
X0082923Y0106491D01*
X0083916Y0106080D01*
X0130187Y0106080D01*
X0128603Y0104496D01*
X0128603Y0100063D01*
X0129187Y0099480D01*
X0127956Y0099480D01*
X0127253Y0098777D01*
X0127253Y0029780D01*
X0124771Y0029780D01*
X0111653Y0042898D01*
X0111653Y0069817D01*
X0111653Y0067344D02*
X0115461Y0067344D01*
X0115774Y0064945D02*
X0111653Y0064945D01*
X0111653Y0062547D02*
X0117773Y0062547D01*
X0120405Y0062547D02*
X0120406Y0062547D01*
X0120405Y0064945D02*
X0120406Y0064945D01*
X0123038Y0062547D02*
X0127253Y0062547D01*
X0127253Y0064945D02*
X0125037Y0064945D01*
X0125350Y0067344D02*
X0127253Y0067344D01*
X0127253Y0069742D02*
X0124398Y0069742D01*
X0127253Y0072141D02*
X0109910Y0072141D01*
X0107511Y0074539D02*
X0127253Y0074539D01*
X0127253Y0076938D02*
X0105113Y0076938D01*
X0102714Y0079336D02*
X0127253Y0079336D01*
X0127253Y0081735D02*
X0100316Y0081735D01*
X0097917Y0084133D02*
X0127253Y0084133D01*
X0127253Y0086532D02*
X0095519Y0086532D01*
X0093120Y0088930D02*
X0127253Y0088930D01*
X0127253Y0091329D02*
X0091253Y0091329D01*
X0090216Y0093727D02*
X0127253Y0093727D01*
X0127253Y0096126D02*
X0084425Y0096126D01*
X0082026Y0098524D02*
X0127253Y0098524D01*
X0128603Y0100923D02*
X0079628Y0100923D01*
X0077229Y0103321D02*
X0128603Y0103321D01*
X0129827Y0105720D02*
X0074831Y0105720D01*
X0072432Y0108118D02*
X0081295Y0108118D01*
X0082164Y0107250D02*
X0082164Y0107250D01*
X0078897Y0110517D02*
X0070034Y0110517D01*
X0067635Y0112916D02*
X0076498Y0112916D01*
X0074100Y0115314D02*
X0065237Y0115314D01*
X0062838Y0117713D02*
X0071701Y0117713D01*
X0069303Y0120111D02*
X0060440Y0120111D01*
X0058041Y0122510D02*
X0066904Y0122510D01*
X0052953Y0106280D02*
X0031453Y0106280D01*
X0019953Y0117780D01*
X0009953Y0117780D01*
X0006553Y0117713D02*
X0006453Y0117713D01*
X0006553Y0117103D02*
X0007070Y0115854D01*
X0008027Y0114897D01*
X0009276Y0114380D01*
X0018544Y0114380D01*
X0028976Y0103948D01*
X0028718Y0103689D01*
X0028428Y0103188D01*
X0028278Y0102628D01*
X0028278Y0099780D01*
X0032447Y0099780D01*
X0033790Y0099780D01*
X0033790Y0099779D01*
X0032447Y0099779D01*
X0032447Y0095020D01*
X0034705Y0095020D01*
X0035000Y0095099D01*
X0035079Y0095020D01*
X0040838Y0095020D01*
X0042127Y0096309D01*
X0042127Y0096380D01*
X0045454Y0096380D01*
X0045454Y0095719D01*
X0046053Y0095119D01*
X0046053Y0093980D01*
X0045941Y0093980D01*
X0044653Y0092691D01*
X0044653Y0088680D01*
X0042127Y0088680D01*
X0042127Y0089500D01*
X0040838Y0090789D01*
X0035079Y0090789D01*
X0035000Y0090710D01*
X0034705Y0090789D01*
X0032447Y0090789D01*
X0032447Y0086030D01*
X0032447Y0086030D01*
X0032447Y0090789D01*
X0030189Y0090789D01*
X0029629Y0090639D01*
X0029128Y0090349D01*
X0028718Y0089939D01*
X0028428Y0089438D01*
X0028278Y0088878D01*
X0028278Y0086030D01*
X0032447Y0086030D01*
X0031453Y0085780D01*
X0021453Y0085780D01*
X0009453Y0073780D01*
X0009453Y0069780D01*
X0012453Y0066780D01*
X0020453Y0066780D01*
X0045953Y0041280D01*
X0070453Y0041280D01*
X0083953Y0054780D01*
X0085953Y0054780D01*
X0086803Y0055280D01*
X0091253Y0055280D01*
X0091253Y0057069D01*
X0091103Y0057629D01*
X0091070Y0057686D01*
X0091253Y0057868D01*
X0091253Y0062691D01*
X0091164Y0062780D01*
X0091253Y0062868D01*
X0091253Y0067580D01*
X0092028Y0067580D01*
X0092028Y0066309D01*
X0093317Y0065020D01*
X0099077Y0065020D01*
X0099156Y0065099D01*
X0099451Y0065020D01*
X0101709Y0065020D01*
X0103967Y0065020D01*
X0104526Y0065170D01*
X0105028Y0065460D01*
X0105438Y0065870D01*
X0105727Y0066371D01*
X0105877Y0066931D01*
X0105877Y0068537D01*
X0106253Y0068161D01*
X0106253Y0041242D01*
X0106664Y0040250D01*
X0107423Y0039491D01*
X0117134Y0029780D01*
X0023953Y0029780D01*
X0023953Y0003200D01*
X0006453Y0003200D01*
X0006453Y0121461D01*
X0007639Y0120274D01*
X0007070Y0119705D01*
X0006553Y0118456D01*
X0006553Y0117103D01*
X0006453Y0115314D02*
X0007610Y0115314D01*
X0006453Y0112916D02*
X0020008Y0112916D01*
X0022407Y0110517D02*
X0006453Y0110517D01*
X0006453Y0108118D02*
X0024805Y0108118D01*
X0027204Y0105720D02*
X0006453Y0105720D01*
X0006453Y0103321D02*
X0028505Y0103321D01*
X0028453Y0104280D02*
X0031953Y0100780D01*
X0032447Y0099780D01*
X0032447Y0099779D01*
X0032447Y0099779D01*
X0032447Y0095020D01*
X0030189Y0095020D01*
X0029629Y0095170D01*
X0029128Y0095460D01*
X0028718Y0095870D01*
X0028428Y0096371D01*
X0028278Y0096931D01*
X0028278Y0099779D01*
X0032447Y0099779D01*
X0032447Y0099780D01*
X0032453Y0099780D01*
X0032453Y0086280D01*
X0032447Y0086030D01*
X0032447Y0086029D01*
X0028278Y0086029D01*
X0028278Y0083181D01*
X0028428Y0082621D01*
X0028718Y0082120D01*
X0029128Y0081710D01*
X0029629Y0081420D01*
X0030189Y0081270D01*
X0030635Y0081270D01*
X0024544Y0075180D01*
X0018131Y0075180D01*
X0017316Y0075994D01*
X0015489Y0076751D01*
X0013511Y0076751D01*
X0011684Y0075994D01*
X0010285Y0074596D01*
X0009528Y0072768D01*
X0009528Y0070791D01*
X0010285Y0068963D01*
X0011684Y0067565D01*
X0013511Y0066808D01*
X0015489Y0066808D01*
X0017316Y0067565D01*
X0018131Y0068380D01*
X0026629Y0068380D01*
X0027879Y0068897D01*
X0028835Y0069854D01*
X0040252Y0081270D01*
X0040838Y0081270D01*
X0041447Y0081880D01*
X0044653Y0081880D01*
X0044653Y0077868D01*
X0044741Y0077780D01*
X0044653Y0077691D01*
X0044653Y0072868D01*
X0044741Y0072780D01*
X0044653Y0072691D01*
X0044653Y0067868D01*
X0044741Y0067780D01*
X0044653Y0067691D01*
X0044653Y0062868D01*
X0044741Y0062780D01*
X0044653Y0062691D01*
X0044653Y0057868D01*
X0044741Y0057780D01*
X0044653Y0057691D01*
X0044653Y0052868D01*
X0044741Y0052780D01*
X0044653Y0052691D01*
X0044653Y0047868D01*
X0044741Y0047780D01*
X0044653Y0047691D01*
X0044653Y0042868D01*
X0045941Y0041580D01*
X0052264Y0041580D01*
X0053553Y0042868D01*
X0053553Y0047691D01*
X0053464Y0047780D01*
X0053553Y0047868D01*
X0053553Y0052691D01*
X0053464Y0052780D01*
X0053553Y0052868D01*
X0053553Y0057691D01*
X0053464Y0057780D01*
X0053553Y0057868D01*
X0053553Y0062691D01*
X0053464Y0062780D01*
X0053553Y0062868D01*
X0053553Y0067691D01*
X0053464Y0067780D01*
X0053553Y0067868D01*
X0053553Y0072691D01*
X0053464Y0072780D01*
X0053553Y0072868D01*
X0053553Y0077580D01*
X0074334Y0077580D01*
X0082353Y0069561D01*
X0082353Y0067868D01*
X0082441Y0067780D01*
X0082353Y0067691D01*
X0082353Y0062868D01*
X0082441Y0062780D01*
X0082353Y0062691D01*
X0082353Y0057868D01*
X0082535Y0057686D01*
X0082503Y0057629D01*
X0082353Y0057069D01*
X0082353Y0055280D01*
X0086803Y0055280D01*
X0086803Y0055279D01*
X0091253Y0055279D01*
X0091253Y0053490D01*
X0091103Y0052930D01*
X0091070Y0052874D01*
X0091253Y0052691D01*
X0091253Y0047868D01*
X0091164Y0047780D01*
X0091253Y0047691D01*
X0091253Y0042868D01*
X0089964Y0041580D01*
X0083641Y0041580D01*
X0082353Y0042868D01*
X0082353Y0047691D01*
X0082441Y0047780D01*
X0082353Y0047868D01*
X0082353Y0052691D01*
X0082535Y0052874D01*
X0082503Y0052930D01*
X0082353Y0053490D01*
X0082353Y0055279D01*
X0086803Y0055279D01*
X0086803Y0055280D02*
X0089453Y0055280D01*
X0101453Y0067280D01*
X0102453Y0066780D01*
X0105953Y0066780D01*
X0105877Y0067344D02*
X0106253Y0067344D01*
X0106253Y0064945D02*
X0091253Y0064945D01*
X0091253Y0062547D02*
X0106253Y0062547D01*
X0106253Y0060148D02*
X0091253Y0060148D01*
X0091134Y0057750D02*
X0106253Y0057750D01*
X0106253Y0055351D02*
X0091253Y0055351D01*
X0091109Y0052953D02*
X0106253Y0052953D01*
X0106253Y0050554D02*
X0091253Y0050554D01*
X0091253Y0048156D02*
X0106253Y0048156D01*
X0106253Y0045757D02*
X0091253Y0045757D01*
X0091253Y0043359D02*
X0106253Y0043359D01*
X0106370Y0040960D02*
X0006453Y0040960D01*
X0006453Y0038562D02*
X0108352Y0038562D01*
X0110751Y0036163D02*
X0006453Y0036163D01*
X0006453Y0033765D02*
X0113149Y0033765D01*
X0115548Y0031366D02*
X0006453Y0031366D01*
X0006453Y0028968D02*
X0023953Y0028968D01*
X0023953Y0026569D02*
X0006453Y0026569D01*
X0006453Y0024171D02*
X0023953Y0024171D01*
X0023953Y0021772D02*
X0017793Y0021772D01*
X0019092Y0021234D02*
X0016294Y0022393D01*
X0013265Y0022393D01*
X0010467Y0021234D01*
X0008325Y0019092D01*
X0007166Y0016294D01*
X0007166Y0013265D01*
X0008325Y0010467D01*
X0010467Y0008325D01*
X0013265Y0007166D01*
X0016294Y0007166D01*
X0019092Y0008325D01*
X0021234Y0010467D01*
X0022393Y0013265D01*
X0022393Y0016294D01*
X0021234Y0019092D01*
X0019092Y0021234D01*
X0020952Y0019374D02*
X0023953Y0019374D01*
X0023953Y0016975D02*
X0022111Y0016975D01*
X0022393Y0014577D02*
X0023953Y0014577D01*
X0023953Y0012178D02*
X0021943Y0012178D01*
X0020546Y0009780D02*
X0023953Y0009780D01*
X0023953Y0007381D02*
X0016813Y0007381D01*
X0012746Y0007381D02*
X0006453Y0007381D01*
X0006453Y0004983D02*
X0023953Y0004983D01*
X0009013Y0009780D02*
X0006453Y0009780D01*
X0006453Y0012178D02*
X0007616Y0012178D01*
X0007166Y0014577D02*
X0006453Y0014577D01*
X0006453Y0016975D02*
X0007448Y0016975D01*
X0006453Y0019374D02*
X0008607Y0019374D01*
X0006453Y0021772D02*
X0011766Y0021772D01*
X0006453Y0043359D02*
X0044653Y0043359D01*
X0044653Y0045757D02*
X0006453Y0045757D01*
X0006453Y0048156D02*
X0044653Y0048156D01*
X0044653Y0050554D02*
X0006453Y0050554D01*
X0006453Y0052953D02*
X0044653Y0052953D01*
X0044653Y0055351D02*
X0006453Y0055351D01*
X0006453Y0057750D02*
X0011499Y0057750D01*
X0011684Y0057565D02*
X0013511Y0056808D01*
X0015489Y0056808D01*
X0017316Y0057565D01*
X0018715Y0058963D01*
X0019472Y0060791D01*
X0019472Y0062768D01*
X0018715Y0064596D01*
X0017316Y0065994D01*
X0015489Y0066751D01*
X0013511Y0066751D01*
X0011684Y0065994D01*
X0010285Y0064596D01*
X0009528Y0062768D01*
X0009528Y0060791D01*
X0010285Y0058963D01*
X0011684Y0057565D01*
X0009794Y0060148D02*
X0006453Y0060148D01*
X0006453Y0062547D02*
X0009528Y0062547D01*
X0010635Y0064945D02*
X0006453Y0064945D01*
X0006453Y0067344D02*
X0012217Y0067344D01*
X0009963Y0069742D02*
X0006453Y0069742D01*
X0006453Y0072141D02*
X0009528Y0072141D01*
X0010262Y0074539D02*
X0006453Y0074539D01*
X0006453Y0076938D02*
X0026303Y0076938D01*
X0028701Y0079336D02*
X0006453Y0079336D01*
X0006453Y0081735D02*
X0029103Y0081735D01*
X0028278Y0084133D02*
X0006453Y0084133D01*
X0006453Y0086532D02*
X0028278Y0086532D01*
X0028292Y0088930D02*
X0006453Y0088930D01*
X0006453Y0091329D02*
X0044653Y0091329D01*
X0045689Y0093727D02*
X0006453Y0093727D01*
X0006453Y0096126D02*
X0028570Y0096126D01*
X0028278Y0098524D02*
X0006453Y0098524D01*
X0006453Y0100923D02*
X0028278Y0100923D01*
X0032447Y0098524D02*
X0032447Y0098524D01*
X0032447Y0096126D02*
X0032447Y0096126D01*
X0037959Y0099780D02*
X0050213Y0099780D01*
X0049953Y0099780D01*
X0049453Y0099280D01*
X0049453Y0090280D01*
X0049103Y0090280D01*
X0044653Y0088930D02*
X0042127Y0088930D01*
X0038953Y0085280D02*
X0038453Y0085780D01*
X0037959Y0086030D01*
X0038453Y0084280D01*
X0025953Y0071780D01*
X0014500Y0071780D01*
X0016783Y0067344D02*
X0044653Y0067344D01*
X0044653Y0069742D02*
X0028724Y0069742D01*
X0031122Y0072141D02*
X0044653Y0072141D01*
X0044653Y0074539D02*
X0033521Y0074539D01*
X0035919Y0076938D02*
X0044653Y0076938D01*
X0044653Y0079336D02*
X0038318Y0079336D01*
X0041303Y0081735D02*
X0044653Y0081735D01*
X0049103Y0085280D02*
X0038953Y0085280D01*
X0032447Y0086532D02*
X0032447Y0086532D01*
X0032447Y0088930D02*
X0032447Y0088930D01*
X0041944Y0096126D02*
X0045454Y0096126D01*
X0052953Y0106280D02*
X0057453Y0101780D01*
X0057453Y0099780D01*
X0057693Y0099780D01*
X0053553Y0076938D02*
X0074976Y0076938D01*
X0077375Y0074539D02*
X0053553Y0074539D01*
X0053553Y0072141D02*
X0079773Y0072141D01*
X0082172Y0069742D02*
X0053553Y0069742D01*
X0053553Y0067344D02*
X0082353Y0067344D01*
X0082353Y0064945D02*
X0053553Y0064945D01*
X0053553Y0062547D02*
X0082353Y0062547D01*
X0082353Y0060148D02*
X0053553Y0060148D01*
X0053494Y0057750D02*
X0082471Y0057750D01*
X0082353Y0055351D02*
X0053553Y0055351D01*
X0053553Y0052953D02*
X0082497Y0052953D01*
X0082353Y0050554D02*
X0053553Y0050554D01*
X0053553Y0048156D02*
X0082353Y0048156D01*
X0082353Y0045757D02*
X0053553Y0045757D01*
X0053553Y0043359D02*
X0082353Y0043359D01*
X0086803Y0055279D02*
X0086803Y0055280D01*
X0091253Y0067344D02*
X0092028Y0067344D01*
X0100365Y0069779D02*
X0101709Y0069779D01*
X0101709Y0065020D01*
X0101709Y0069779D01*
X0101709Y0069779D01*
X0101709Y0069780D02*
X0100953Y0070780D01*
X0100953Y0073280D01*
X0088953Y0085280D01*
X0086803Y0085280D01*
X0089134Y0085280D01*
X0089134Y0085279D01*
X0086803Y0085279D01*
X0086803Y0085280D01*
X0100365Y0069780D02*
X0101709Y0069780D01*
X0101453Y0069780D01*
X0101453Y0067280D01*
X0101709Y0067344D02*
X0101709Y0067344D01*
X0101709Y0069742D02*
X0101709Y0069742D01*
X0101709Y0069779D02*
X0101709Y0069780D01*
X0100365Y0069779D02*
X0100365Y0069780D01*
X0111653Y0060148D02*
X0127253Y0060148D01*
X0127253Y0057750D02*
X0111653Y0057750D01*
X0111653Y0055351D02*
X0127253Y0055351D01*
X0127253Y0052953D02*
X0111653Y0052953D01*
X0111653Y0050554D02*
X0127253Y0050554D01*
X0127253Y0048156D02*
X0111653Y0048156D01*
X0111653Y0045757D02*
X0127253Y0045757D01*
X0127253Y0043359D02*
X0111653Y0043359D01*
X0113590Y0040960D02*
X0127253Y0040960D01*
X0127253Y0038562D02*
X0115989Y0038562D01*
X0118387Y0036163D02*
X0127253Y0036163D01*
X0127253Y0033765D02*
X0120786Y0033765D01*
X0123185Y0031366D02*
X0127253Y0031366D01*
X0044712Y0057750D02*
X0017501Y0057750D01*
X0019206Y0060148D02*
X0044653Y0060148D01*
X0044653Y0062547D02*
X0019472Y0062547D01*
X0018365Y0064945D02*
X0044653Y0064945D01*
X0007476Y0120111D02*
X0006453Y0120111D01*
X0023153Y0133798D02*
X0023153Y0149661D01*
X0023278Y0149787D01*
X0023278Y0147280D01*
X0027447Y0147280D01*
X0027447Y0147280D01*
X0027447Y0152039D01*
X0029705Y0152039D01*
X0030000Y0151960D01*
X0030079Y0152039D01*
X0034393Y0152039D01*
X0036923Y0154568D01*
X0036950Y0154580D01*
X0028071Y0154580D01*
X0025530Y0152039D01*
X0027447Y0152039D01*
X0027447Y0147280D01*
X0026953Y0147280D01*
X0026953Y0151280D01*
X0025953Y0152280D01*
X0027447Y0151292D02*
X0027447Y0151292D01*
X0027182Y0153690D02*
X0036045Y0153690D01*
X0027447Y0148893D02*
X0027447Y0148893D01*
X0027447Y0147280D02*
X0027447Y0147279D01*
X0027447Y0142520D01*
X0029705Y0142520D01*
X0030000Y0142599D01*
X0030079Y0142520D01*
X0031875Y0142520D01*
X0023153Y0133798D01*
X0023153Y0134502D02*
X0023857Y0134502D01*
X0023153Y0136901D02*
X0026255Y0136901D01*
X0028654Y0139299D02*
X0023153Y0139299D01*
X0023153Y0141698D02*
X0031053Y0141698D01*
X0027447Y0142520D02*
X0027447Y0147279D01*
X0027447Y0147279D01*
X0023278Y0147279D01*
X0023278Y0144431D01*
X0023428Y0143871D01*
X0023718Y0143370D01*
X0024128Y0142960D01*
X0024629Y0142670D01*
X0025189Y0142520D01*
X0027447Y0142520D01*
X0027447Y0144096D02*
X0027447Y0144096D01*
X0027447Y0146495D02*
X0027447Y0146495D01*
X0023278Y0146495D02*
X0023153Y0146495D01*
X0023153Y0148893D02*
X0023278Y0148893D01*
X0023368Y0144096D02*
X0023153Y0144096D01*
X0019153Y0156298D02*
X0019153Y0159433D01*
X0016507Y0162080D01*
X0017864Y0162080D01*
X0019153Y0163368D01*
X0019153Y0165580D01*
X0034990Y0165580D01*
X0035982Y0165991D01*
X0036742Y0166750D01*
X0037571Y0167580D01*
X0038153Y0167580D01*
X0038153Y0167280D01*
X0042603Y0167280D01*
X0037453Y0167280D01*
X0035453Y0165280D01*
X0027953Y0165280D01*
X0019453Y0156780D01*
X0019153Y0156298D02*
X0027423Y0164568D01*
X0028416Y0164980D01*
X0038290Y0164980D01*
X0038153Y0165490D01*
X0038153Y0167279D01*
X0042603Y0167279D01*
X0042603Y0167280D01*
X0038153Y0165683D02*
X0035239Y0165683D01*
X0033334Y0170980D02*
X0019153Y0170980D01*
X0019153Y0171191D01*
X0017864Y0172480D01*
X0014471Y0172480D01*
X0025071Y0183080D01*
X0099104Y0183080D01*
X0099053Y0182956D01*
X0099053Y0181603D01*
X0099570Y0180354D01*
X0099763Y0180161D01*
X0099714Y0180112D01*
X0098953Y0178274D01*
X0098953Y0176285D01*
X0099714Y0174447D01*
X0101120Y0173041D01*
X0102958Y0172280D01*
X0104947Y0172280D01*
X0106785Y0173041D01*
X0108192Y0174447D01*
X0108953Y0176285D01*
X0109714Y0174447D01*
X0110882Y0173279D01*
X0109892Y0173279D01*
X0108603Y0171990D01*
X0108603Y0165049D01*
X0108673Y0164980D01*
X0084753Y0164980D01*
X0084753Y0169691D01*
X0083464Y0170980D01*
X0083353Y0170980D01*
X0083353Y0173785D01*
X0083377Y0173809D01*
X0083377Y0180750D01*
X0082088Y0182039D01*
X0076329Y0182039D01*
X0076250Y0181960D01*
X0075955Y0182039D01*
X0073697Y0182039D01*
X0073697Y0177280D01*
X0073697Y0177280D01*
X0073697Y0182039D01*
X0071439Y0182039D01*
X0070879Y0181889D01*
X0070378Y0181599D01*
X0069968Y0181189D01*
X0069678Y0180688D01*
X0069528Y0180128D01*
X0069528Y0177280D01*
X0073697Y0177280D01*
X0069953Y0177280D01*
X0062453Y0169780D01*
X0062569Y0169680D02*
X0053276Y0169680D01*
X0052027Y0169162D01*
X0051458Y0168593D01*
X0048242Y0171809D01*
X0047482Y0172568D01*
X0046490Y0172980D01*
X0035916Y0172980D01*
X0034923Y0172568D01*
X0033334Y0170980D01*
X0035671Y0172878D02*
X0014870Y0172878D01*
X0017268Y0175277D02*
X0069528Y0175277D01*
X0069528Y0174431D02*
X0069678Y0173871D01*
X0069968Y0173370D01*
X0070378Y0172960D01*
X0070879Y0172670D01*
X0071439Y0172520D01*
X0073697Y0172520D01*
X0075955Y0172520D01*
X0076250Y0172599D01*
X0076329Y0172520D01*
X0076553Y0172520D01*
X0076553Y0170391D01*
X0076341Y0170180D01*
X0063776Y0170180D01*
X0062569Y0169680D01*
X0064453Y0166780D02*
X0063953Y0166280D01*
X0053953Y0166280D01*
X0049571Y0170480D02*
X0076553Y0170480D01*
X0073697Y0172520D02*
X0073697Y0177279D01*
X0073697Y0177279D01*
X0073697Y0172520D01*
X0073697Y0172878D02*
X0073697Y0172878D01*
X0073697Y0175277D02*
X0073697Y0175277D01*
X0073697Y0177279D02*
X0069528Y0177279D01*
X0069528Y0174431D01*
X0070519Y0172878D02*
X0046734Y0172878D01*
X0064453Y0166780D02*
X0078953Y0166780D01*
X0080303Y0167280D01*
X0079953Y0167280D01*
X0079953Y0176780D01*
X0079453Y0177280D01*
X0079209Y0177280D01*
X0083377Y0177675D02*
X0098953Y0177675D01*
X0099370Y0175277D02*
X0083377Y0175277D01*
X0083353Y0172878D02*
X0101513Y0172878D01*
X0106393Y0172878D02*
X0109491Y0172878D01*
X0109370Y0175277D02*
X0108535Y0175277D01*
X0108953Y0176285D02*
X0108953Y0178274D01*
X0109493Y0179580D01*
X0108412Y0179580D01*
X0108953Y0178274D01*
X0108953Y0176285D01*
X0108953Y0177675D02*
X0108953Y0177675D01*
X0108603Y0170480D02*
X0083964Y0170480D01*
X0084753Y0168081D02*
X0108603Y0168081D01*
X0108603Y0165683D02*
X0084753Y0165683D01*
X0073697Y0177279D02*
X0073697Y0177280D01*
X0073697Y0177675D02*
X0073697Y0177675D01*
X0073697Y0180074D02*
X0073697Y0180074D01*
X0069528Y0180074D02*
X0022065Y0180074D01*
X0019667Y0177675D02*
X0069528Y0177675D01*
X0083377Y0180074D02*
X0099698Y0180074D01*
X0099053Y0182472D02*
X0024464Y0182472D01*
X0018624Y0187269D02*
X0006453Y0187269D01*
X0006453Y0184871D02*
X0016226Y0184871D01*
X0013827Y0182472D02*
X0006453Y0182472D01*
X0006453Y0180074D02*
X0011429Y0180074D01*
X0009030Y0177675D02*
X0006453Y0177675D01*
X0006453Y0175277D02*
X0006632Y0175277D01*
X0019069Y0163284D02*
X0026139Y0163284D01*
X0023741Y0160886D02*
X0017700Y0160886D01*
X0019153Y0158487D02*
X0021342Y0158487D01*
X0021023Y0189668D02*
X0006453Y0189668D01*
X0006453Y0192066D02*
X0083753Y0192066D01*
X0083753Y0194465D02*
X0006453Y0194465D01*
X0006453Y0196863D02*
X0084425Y0196863D01*
X0084616Y0199262D02*
X0006453Y0199262D01*
X0006453Y0201660D02*
X0010045Y0201660D01*
X0010467Y0201239D02*
X0008325Y0203380D01*
X0007166Y0206179D01*
X0007166Y0209207D01*
X0008325Y0212006D01*
X0010467Y0214147D01*
X0013265Y0215306D01*
X0016294Y0215306D01*
X0019092Y0214147D01*
X0021234Y0212006D01*
X0022393Y0209207D01*
X0022393Y0206179D01*
X0021234Y0203380D01*
X0019092Y0201239D01*
X0016294Y0200080D01*
X0013265Y0200080D01*
X0010467Y0201239D01*
X0008044Y0204059D02*
X0006453Y0204059D01*
X0006453Y0206457D02*
X0007166Y0206457D01*
X0007166Y0208856D02*
X0006453Y0208856D01*
X0006453Y0211254D02*
X0008014Y0211254D01*
X0006453Y0213653D02*
X0009973Y0213653D01*
X0006453Y0216052D02*
X0251453Y0216052D01*
X0251453Y0213653D02*
X0247933Y0213653D01*
X0247439Y0214147D02*
X0249580Y0212006D01*
X0250739Y0209207D01*
X0250739Y0206179D01*
X0249580Y0203380D01*
X0247439Y0201239D01*
X0244640Y0200080D01*
X0241612Y0200080D01*
X0238813Y0201239D01*
X0236672Y0203380D01*
X0235513Y0206179D01*
X0235513Y0209207D01*
X0236672Y0212006D01*
X0238813Y0214147D01*
X0241612Y0215306D01*
X0244640Y0215306D01*
X0247439Y0214147D01*
X0249891Y0211254D02*
X0251453Y0211254D01*
X0251453Y0208856D02*
X0250739Y0208856D01*
X0250739Y0206457D02*
X0251453Y0206457D01*
X0251453Y0204059D02*
X0249861Y0204059D01*
X0251453Y0201660D02*
X0247860Y0201660D01*
X0251453Y0199262D02*
X0223289Y0199262D01*
X0223480Y0196863D02*
X0251453Y0196863D01*
X0251453Y0194465D02*
X0224153Y0194465D01*
X0224153Y0192066D02*
X0251453Y0192066D01*
X0251453Y0189668D02*
X0224153Y0189668D01*
X0223054Y0187269D02*
X0251453Y0187269D01*
X0238391Y0201660D02*
X0224153Y0201660D01*
X0224153Y0204059D02*
X0236391Y0204059D01*
X0235513Y0206457D02*
X0222129Y0206457D01*
X0218953Y0206457D02*
X0218953Y0206457D01*
X0218953Y0204059D02*
X0218953Y0204059D01*
X0218953Y0202280D02*
X0218953Y0202279D01*
X0213753Y0202279D01*
X0213753Y0200126D01*
X0216399Y0197480D01*
X0215041Y0197480D01*
X0213753Y0196191D01*
X0213753Y0188368D01*
X0215041Y0187080D01*
X0213753Y0189668D02*
X0201883Y0189668D01*
X0213753Y0192066D02*
X0094153Y0192066D01*
X0094153Y0194465D02*
X0213753Y0194465D01*
X0214425Y0196863D02*
X0093480Y0196863D01*
X0093289Y0199262D02*
X0214616Y0199262D01*
X0213753Y0201660D02*
X0094153Y0201660D01*
X0094153Y0204059D02*
X0213753Y0204059D01*
X0215777Y0206457D02*
X0092129Y0206457D01*
X0085777Y0206457D02*
X0022393Y0206457D01*
X0022393Y0208856D02*
X0235513Y0208856D01*
X0236361Y0211254D02*
X0021545Y0211254D01*
X0019586Y0213653D02*
X0238319Y0213653D01*
X0209603Y0141698D02*
X0208689Y0141698D01*
X0209603Y0139299D02*
X0206291Y0139299D01*
X0203892Y0136901D02*
X0209603Y0136901D01*
X0209603Y0134502D02*
X0201494Y0134502D01*
X0199095Y0132104D02*
X0209603Y0132104D01*
X0209603Y0129705D02*
X0196697Y0129705D01*
X0194298Y0127307D02*
X0209664Y0127307D01*
X0209603Y0124908D02*
X0191900Y0124908D01*
X0189501Y0122510D02*
X0209731Y0122510D01*
X0214053Y0122510D02*
X0214053Y0122510D01*
X0214053Y0124779D02*
X0214053Y0124780D01*
X0221578Y0110517D02*
X0177509Y0110517D01*
X0218078Y0105720D02*
X0219827Y0105720D01*
X0220153Y0108118D02*
X0221961Y0108118D01*
X0223953Y0105720D02*
X0223953Y0105720D01*
X0223953Y0103321D02*
X0223953Y0103321D01*
X0229303Y0100621D02*
X0229303Y0100063D01*
X0228719Y0099480D01*
X0229950Y0099480D01*
X0230653Y0098777D01*
X0230653Y0029780D01*
X0231053Y0029780D01*
X0231053Y0098871D01*
X0229303Y0100621D01*
X0230653Y0098524D02*
X0231053Y0098524D01*
X0231053Y0096126D02*
X0230653Y0096126D01*
X0230653Y0093727D02*
X0231053Y0093727D01*
X0231053Y0091329D02*
X0230653Y0091329D01*
X0230653Y0088930D02*
X0231053Y0088930D01*
X0231053Y0086532D02*
X0230653Y0086532D01*
X0230653Y0084133D02*
X0231053Y0084133D01*
X0231053Y0081735D02*
X0230653Y0081735D01*
X0230653Y0079336D02*
X0231053Y0079336D01*
X0231053Y0076938D02*
X0230653Y0076938D01*
X0230653Y0074539D02*
X0231053Y0074539D01*
X0231053Y0072141D02*
X0230653Y0072141D01*
X0230653Y0069742D02*
X0231053Y0069742D01*
X0231053Y0067344D02*
X0230653Y0067344D01*
X0230653Y0064945D02*
X0231053Y0064945D01*
X0231053Y0062547D02*
X0230653Y0062547D01*
X0230653Y0060148D02*
X0231053Y0060148D01*
X0231053Y0057750D02*
X0230653Y0057750D01*
X0230653Y0055351D02*
X0231053Y0055351D01*
X0231053Y0052953D02*
X0230653Y0052953D01*
X0230653Y0050554D02*
X0231053Y0050554D01*
X0231053Y0048156D02*
X0230653Y0048156D01*
X0230653Y0045757D02*
X0231053Y0045757D01*
X0231053Y0043359D02*
X0230653Y0043359D01*
X0230653Y0040960D02*
X0231053Y0040960D01*
X0231053Y0038562D02*
X0230653Y0038562D01*
X0230653Y0036163D02*
X0231053Y0036163D01*
X0231053Y0033765D02*
X0230653Y0033765D01*
X0230653Y0031366D02*
X0231053Y0031366D01*
X0246139Y0021772D02*
X0251453Y0021772D01*
X0251453Y0019374D02*
X0249299Y0019374D01*
X0250457Y0016975D02*
X0251453Y0016975D01*
X0251453Y0014577D02*
X0250739Y0014577D01*
X0250289Y0012178D02*
X0251453Y0012178D01*
X0251453Y0009780D02*
X0248893Y0009780D01*
X0251453Y0007381D02*
X0245159Y0007381D01*
X0241093Y0007381D02*
X0233953Y0007381D01*
X0233953Y0004983D02*
X0251453Y0004983D01*
X0083753Y0201660D02*
X0019514Y0201660D01*
X0021515Y0204059D02*
X0083753Y0204059D01*
M02*
