G75*
%MOIN*%
%OFA0B0*%
%FSLAX25Y25*%
%IPPOS*%
%LPD*%
%AMOC8*
5,1,8,0,0,1.08239X$1,22.5*
%
%ADD10C,0.00000*%
%ADD11C,0.01600*%
%ADD12C,0.00600*%
%ADD13C,0.00300*%
%ADD14C,0.00500*%
%ADD15C,0.01000*%
%ADD16C,0.00800*%
%ADD17R,0.01013X0.00072*%
%ADD18R,0.01013X0.00072*%
%ADD19R,0.01013X0.00072*%
%ADD20R,0.01013X0.00072*%
%ADD21R,0.01013X0.00072*%
%ADD22R,0.01013X0.00072*%
%ADD23R,0.08178X0.00072*%
%ADD24R,0.00796X0.00072*%
%ADD25R,0.08178X0.00072*%
%ADD26R,0.01737X0.00072*%
%ADD27R,0.01665X0.00072*%
%ADD28R,0.00144X0.00072*%
%ADD29R,0.00145X0.00072*%
%ADD30R,0.01447X0.00072*%
%ADD31R,0.02171X0.00072*%
%ADD32R,0.02099X0.00072*%
%ADD33R,0.04342X0.00072*%
%ADD34R,0.01230X0.00072*%
%ADD35R,0.00144X0.00072*%
%ADD36R,0.00145X0.00072*%
%ADD37R,0.01448X0.00072*%
%ADD38R,0.02316X0.00072*%
%ADD39R,0.02461X0.00072*%
%ADD40R,0.04270X0.00072*%
%ADD41R,0.01375X0.00072*%
%ADD42R,0.00144X0.00072*%
%ADD43R,0.00941X0.00072*%
%ADD44R,0.00145X0.00072*%
%ADD45R,0.01448X0.00072*%
%ADD46R,0.02533X0.00072*%
%ADD47R,0.02750X0.00072*%
%ADD48R,0.04198X0.00072*%
%ADD49R,0.01158X0.00072*%
%ADD50R,0.01520X0.00072*%
%ADD51R,0.02678X0.00072*%
%ADD52R,0.03040X0.00072*%
%ADD53R,0.01592X0.00072*%
%ADD54R,0.01447X0.00072*%
%ADD55R,0.02894X0.00072*%
%ADD56R,0.03257X0.00072*%
%ADD57R,0.04125X0.00072*%
%ADD58R,0.01303X0.00072*%
%ADD59R,0.01665X0.00072*%
%ADD60R,0.00941X0.00072*%
%ADD61R,0.02967X0.00072*%
%ADD62R,0.03474X0.00072*%
%ADD63R,0.04125X0.00072*%
%ADD64R,0.01303X0.00072*%
%ADD65R,0.01737X0.00072*%
%ADD66R,0.00941X0.00072*%
%ADD67R,0.01520X0.00072*%
%ADD68R,0.03112X0.00072*%
%ADD69R,0.03691X0.00072*%
%ADD70R,0.04053X0.00072*%
%ADD71R,0.01375X0.00072*%
%ADD72R,0.00941X0.00072*%
%ADD73R,0.01520X0.00072*%
%ADD74R,0.03908X0.00072*%
%ADD75R,0.03980X0.00072*%
%ADD76R,0.01809X0.00072*%
%ADD77R,0.03329X0.00072*%
%ADD78R,0.03980X0.00072*%
%ADD79R,0.01809X0.00072*%
%ADD80R,0.01448X0.00072*%
%ADD81R,0.03474X0.00072*%
%ADD82R,0.04198X0.00072*%
%ADD83R,0.03908X0.00072*%
%ADD84R,0.01592X0.00072*%
%ADD85R,0.01809X0.00072*%
%ADD86R,0.01881X0.00072*%
%ADD87R,0.01085X0.00072*%
%ADD88R,0.01954X0.00072*%
%ADD89R,0.01954X0.00072*%
%ADD90R,0.03836X0.00072*%
%ADD91R,0.01592X0.00072*%
%ADD92R,0.01882X0.00072*%
%ADD93R,0.01447X0.00072*%
%ADD94R,0.00651X0.00072*%
%ADD95R,0.01158X0.00072*%
%ADD96R,0.01882X0.00072*%
%ADD97R,0.00941X0.00072*%
%ADD98R,0.00507X0.00072*%
%ADD99R,0.01086X0.00072*%
%ADD100R,0.01737X0.00072*%
%ADD101R,0.01230X0.00072*%
%ADD102R,0.00941X0.00072*%
%ADD103R,0.00434X0.00072*%
%ADD104R,0.01375X0.00072*%
%ADD105R,0.01375X0.00072*%
%ADD106R,0.01086X0.00072*%
%ADD107R,0.01809X0.00072*%
%ADD108R,0.00869X0.00072*%
%ADD109R,0.01230X0.00072*%
%ADD110R,0.00362X0.00072*%
%ADD111R,0.01303X0.00072*%
%ADD112R,0.01085X0.00072*%
%ADD113R,0.01881X0.00072*%
%ADD114R,0.01230X0.00072*%
%ADD115R,0.00217X0.00072*%
%ADD116R,0.02026X0.00072*%
%ADD117R,0.01085X0.00072*%
%ADD118R,0.02026X0.00072*%
%ADD119R,0.00217X0.00072*%
%ADD120R,0.00869X0.00072*%
%ADD121R,0.01158X0.00072*%
%ADD122R,0.01086X0.00072*%
%ADD123R,0.00434X0.00072*%
%ADD124R,0.00868X0.00072*%
%ADD125R,0.00579X0.00072*%
%ADD126R,0.00868X0.00072*%
%ADD127R,0.00724X0.00072*%
%ADD128R,0.00796X0.00072*%
%ADD129R,0.01375X0.00072*%
%ADD130R,0.02026X0.00072*%
%ADD131R,0.01882X0.00072*%
%ADD132R,0.01375X0.00072*%
%ADD133R,0.01737X0.00072*%
%ADD134R,0.00869X0.00072*%
%ADD135R,0.00289X0.00072*%
%ADD136R,0.02171X0.00072*%
%ADD137R,0.00579X0.00072*%
%ADD138R,0.02461X0.00072*%
%ADD139R,0.02822X0.00072*%
%ADD140R,0.03763X0.00072*%
%ADD141R,0.02606X0.00072*%
%ADD142R,0.06369X0.00072*%
%ADD143R,0.06224X0.00072*%
%ADD144R,0.06079X0.00072*%
%ADD145R,0.05935X0.00072*%
%ADD146R,0.05790X0.00072*%
%ADD147R,0.05717X0.00072*%
%ADD148R,0.05717X0.00072*%
%ADD149R,0.05645X0.00072*%
%ADD150R,0.00868X0.00072*%
%ADD151R,0.05573X0.00072*%
%ADD152R,0.05500X0.00072*%
%ADD153R,0.00724X0.00072*%
%ADD154R,0.04487X0.00072*%
%ADD155R,0.04270X0.00072*%
%ADD156R,0.02388X0.00072*%
%ADD157R,0.00724X0.00072*%
%ADD158R,0.02244X0.00072*%
%ADD159R,0.00724X0.00072*%
%ADD160R,0.03402X0.00072*%
%ADD161R,0.02967X0.00072*%
%ADD162R,0.02171X0.00072*%
%ADD163R,0.00651X0.00072*%
%ADD164R,0.02099X0.00072*%
%ADD165R,0.00072X0.00072*%
%ADD166R,0.00652X0.00072*%
%ADD167R,0.02244X0.00072*%
%ADD168R,0.01158X0.00072*%
%ADD169R,0.00290X0.00072*%
%ADD170R,0.00796X0.00072*%
%ADD171R,0.00724X0.00072*%
%ADD172R,0.00434X0.00072*%
%ADD173R,0.01520X0.00072*%
%ADD174R,0.00579X0.00072*%
%ADD175R,0.00651X0.00072*%
%ADD176R,0.00579X0.00072*%
%ADD177R,0.04270X0.00072*%
%ADD178R,0.03763X0.00072*%
%ADD179R,0.03329X0.00072*%
%ADD180R,0.04125X0.00072*%
%ADD181R,0.03474X0.00072*%
%ADD182R,0.03763X0.00072*%
%ADD183R,0.03981X0.00072*%
%ADD184R,0.03257X0.00072*%
%ADD185R,0.03836X0.00072*%
%ADD186R,0.00289X0.00072*%
%ADD187R,0.03329X0.00072*%
%ADD188R,0.03184X0.00072*%
%ADD189R,0.03619X0.00072*%
%ADD190R,0.03039X0.00072*%
%ADD191R,0.03908X0.00072*%
%ADD192R,0.03257X0.00072*%
%ADD193R,0.00796X0.00072*%
%ADD194R,0.03401X0.00072*%
%ADD195R,0.02895X0.00072*%
%ADD196R,0.00072X0.00072*%
%ADD197R,0.03185X0.00072*%
%ADD198R,0.03185X0.00072*%
%ADD199R,0.04053X0.00072*%
%ADD200R,0.02895X0.00072*%
%ADD201R,0.02605X0.00072*%
%ADD202R,0.04053X0.00072*%
%ADD203R,0.03185X0.00072*%
%ADD204R,0.02605X0.00072*%
%ADD205R,0.03112X0.00072*%
%ADD206R,0.02244X0.00072*%
%ADD207R,0.03112X0.00072*%
%ADD208R,0.01954X0.00072*%
%ADD209R,0.01302X0.00072*%
%ADD210R,0.01230X0.00072*%
%ADD211R,0.01302X0.00072*%
D10*
X0001000Y0001000D02*
X0256906Y0001000D01*
X0256906Y0221472D01*
X0001000Y0221472D01*
X0001000Y0001000D01*
X0009367Y0014780D02*
X0009369Y0014927D01*
X0009375Y0015073D01*
X0009385Y0015219D01*
X0009399Y0015365D01*
X0009417Y0015511D01*
X0009438Y0015656D01*
X0009464Y0015800D01*
X0009494Y0015944D01*
X0009527Y0016086D01*
X0009564Y0016228D01*
X0009605Y0016369D01*
X0009650Y0016508D01*
X0009699Y0016647D01*
X0009751Y0016784D01*
X0009808Y0016919D01*
X0009867Y0017053D01*
X0009931Y0017185D01*
X0009998Y0017315D01*
X0010068Y0017444D01*
X0010142Y0017571D01*
X0010219Y0017695D01*
X0010300Y0017818D01*
X0010384Y0017938D01*
X0010471Y0018056D01*
X0010561Y0018171D01*
X0010654Y0018284D01*
X0010751Y0018395D01*
X0010850Y0018503D01*
X0010952Y0018608D01*
X0011057Y0018710D01*
X0011165Y0018809D01*
X0011276Y0018906D01*
X0011389Y0018999D01*
X0011504Y0019089D01*
X0011622Y0019176D01*
X0011742Y0019260D01*
X0011865Y0019341D01*
X0011989Y0019418D01*
X0012116Y0019492D01*
X0012245Y0019562D01*
X0012375Y0019629D01*
X0012507Y0019693D01*
X0012641Y0019752D01*
X0012776Y0019809D01*
X0012913Y0019861D01*
X0013052Y0019910D01*
X0013191Y0019955D01*
X0013332Y0019996D01*
X0013474Y0020033D01*
X0013616Y0020066D01*
X0013760Y0020096D01*
X0013904Y0020122D01*
X0014049Y0020143D01*
X0014195Y0020161D01*
X0014341Y0020175D01*
X0014487Y0020185D01*
X0014633Y0020191D01*
X0014780Y0020193D01*
X0014927Y0020191D01*
X0015073Y0020185D01*
X0015219Y0020175D01*
X0015365Y0020161D01*
X0015511Y0020143D01*
X0015656Y0020122D01*
X0015800Y0020096D01*
X0015944Y0020066D01*
X0016086Y0020033D01*
X0016228Y0019996D01*
X0016369Y0019955D01*
X0016508Y0019910D01*
X0016647Y0019861D01*
X0016784Y0019809D01*
X0016919Y0019752D01*
X0017053Y0019693D01*
X0017185Y0019629D01*
X0017315Y0019562D01*
X0017444Y0019492D01*
X0017571Y0019418D01*
X0017695Y0019341D01*
X0017818Y0019260D01*
X0017938Y0019176D01*
X0018056Y0019089D01*
X0018171Y0018999D01*
X0018284Y0018906D01*
X0018395Y0018809D01*
X0018503Y0018710D01*
X0018608Y0018608D01*
X0018710Y0018503D01*
X0018809Y0018395D01*
X0018906Y0018284D01*
X0018999Y0018171D01*
X0019089Y0018056D01*
X0019176Y0017938D01*
X0019260Y0017818D01*
X0019341Y0017695D01*
X0019418Y0017571D01*
X0019492Y0017444D01*
X0019562Y0017315D01*
X0019629Y0017185D01*
X0019693Y0017053D01*
X0019752Y0016919D01*
X0019809Y0016784D01*
X0019861Y0016647D01*
X0019910Y0016508D01*
X0019955Y0016369D01*
X0019996Y0016228D01*
X0020033Y0016086D01*
X0020066Y0015944D01*
X0020096Y0015800D01*
X0020122Y0015656D01*
X0020143Y0015511D01*
X0020161Y0015365D01*
X0020175Y0015219D01*
X0020185Y0015073D01*
X0020191Y0014927D01*
X0020193Y0014780D01*
X0020191Y0014633D01*
X0020185Y0014487D01*
X0020175Y0014341D01*
X0020161Y0014195D01*
X0020143Y0014049D01*
X0020122Y0013904D01*
X0020096Y0013760D01*
X0020066Y0013616D01*
X0020033Y0013474D01*
X0019996Y0013332D01*
X0019955Y0013191D01*
X0019910Y0013052D01*
X0019861Y0012913D01*
X0019809Y0012776D01*
X0019752Y0012641D01*
X0019693Y0012507D01*
X0019629Y0012375D01*
X0019562Y0012245D01*
X0019492Y0012116D01*
X0019418Y0011989D01*
X0019341Y0011865D01*
X0019260Y0011742D01*
X0019176Y0011622D01*
X0019089Y0011504D01*
X0018999Y0011389D01*
X0018906Y0011276D01*
X0018809Y0011165D01*
X0018710Y0011057D01*
X0018608Y0010952D01*
X0018503Y0010850D01*
X0018395Y0010751D01*
X0018284Y0010654D01*
X0018171Y0010561D01*
X0018056Y0010471D01*
X0017938Y0010384D01*
X0017818Y0010300D01*
X0017695Y0010219D01*
X0017571Y0010142D01*
X0017444Y0010068D01*
X0017315Y0009998D01*
X0017185Y0009931D01*
X0017053Y0009867D01*
X0016919Y0009808D01*
X0016784Y0009751D01*
X0016647Y0009699D01*
X0016508Y0009650D01*
X0016369Y0009605D01*
X0016228Y0009564D01*
X0016086Y0009527D01*
X0015944Y0009494D01*
X0015800Y0009464D01*
X0015656Y0009438D01*
X0015511Y0009417D01*
X0015365Y0009399D01*
X0015219Y0009385D01*
X0015073Y0009375D01*
X0014927Y0009369D01*
X0014780Y0009367D01*
X0014633Y0009369D01*
X0014487Y0009375D01*
X0014341Y0009385D01*
X0014195Y0009399D01*
X0014049Y0009417D01*
X0013904Y0009438D01*
X0013760Y0009464D01*
X0013616Y0009494D01*
X0013474Y0009527D01*
X0013332Y0009564D01*
X0013191Y0009605D01*
X0013052Y0009650D01*
X0012913Y0009699D01*
X0012776Y0009751D01*
X0012641Y0009808D01*
X0012507Y0009867D01*
X0012375Y0009931D01*
X0012245Y0009998D01*
X0012116Y0010068D01*
X0011989Y0010142D01*
X0011865Y0010219D01*
X0011742Y0010300D01*
X0011622Y0010384D01*
X0011504Y0010471D01*
X0011389Y0010561D01*
X0011276Y0010654D01*
X0011165Y0010751D01*
X0011057Y0010850D01*
X0010952Y0010952D01*
X0010850Y0011057D01*
X0010751Y0011165D01*
X0010654Y0011276D01*
X0010561Y0011389D01*
X0010471Y0011504D01*
X0010384Y0011622D01*
X0010300Y0011742D01*
X0010219Y0011865D01*
X0010142Y0011989D01*
X0010068Y0012116D01*
X0009998Y0012245D01*
X0009931Y0012375D01*
X0009867Y0012507D01*
X0009808Y0012641D01*
X0009751Y0012776D01*
X0009699Y0012913D01*
X0009650Y0013052D01*
X0009605Y0013191D01*
X0009564Y0013332D01*
X0009527Y0013474D01*
X0009494Y0013616D01*
X0009464Y0013760D01*
X0009438Y0013904D01*
X0009417Y0014049D01*
X0009399Y0014195D01*
X0009385Y0014341D01*
X0009375Y0014487D01*
X0009369Y0014633D01*
X0009367Y0014780D01*
X0009367Y0207693D02*
X0009369Y0207840D01*
X0009375Y0207986D01*
X0009385Y0208132D01*
X0009399Y0208278D01*
X0009417Y0208424D01*
X0009438Y0208569D01*
X0009464Y0208713D01*
X0009494Y0208857D01*
X0009527Y0208999D01*
X0009564Y0209141D01*
X0009605Y0209282D01*
X0009650Y0209421D01*
X0009699Y0209560D01*
X0009751Y0209697D01*
X0009808Y0209832D01*
X0009867Y0209966D01*
X0009931Y0210098D01*
X0009998Y0210228D01*
X0010068Y0210357D01*
X0010142Y0210484D01*
X0010219Y0210608D01*
X0010300Y0210731D01*
X0010384Y0210851D01*
X0010471Y0210969D01*
X0010561Y0211084D01*
X0010654Y0211197D01*
X0010751Y0211308D01*
X0010850Y0211416D01*
X0010952Y0211521D01*
X0011057Y0211623D01*
X0011165Y0211722D01*
X0011276Y0211819D01*
X0011389Y0211912D01*
X0011504Y0212002D01*
X0011622Y0212089D01*
X0011742Y0212173D01*
X0011865Y0212254D01*
X0011989Y0212331D01*
X0012116Y0212405D01*
X0012245Y0212475D01*
X0012375Y0212542D01*
X0012507Y0212606D01*
X0012641Y0212665D01*
X0012776Y0212722D01*
X0012913Y0212774D01*
X0013052Y0212823D01*
X0013191Y0212868D01*
X0013332Y0212909D01*
X0013474Y0212946D01*
X0013616Y0212979D01*
X0013760Y0213009D01*
X0013904Y0213035D01*
X0014049Y0213056D01*
X0014195Y0213074D01*
X0014341Y0213088D01*
X0014487Y0213098D01*
X0014633Y0213104D01*
X0014780Y0213106D01*
X0014927Y0213104D01*
X0015073Y0213098D01*
X0015219Y0213088D01*
X0015365Y0213074D01*
X0015511Y0213056D01*
X0015656Y0213035D01*
X0015800Y0213009D01*
X0015944Y0212979D01*
X0016086Y0212946D01*
X0016228Y0212909D01*
X0016369Y0212868D01*
X0016508Y0212823D01*
X0016647Y0212774D01*
X0016784Y0212722D01*
X0016919Y0212665D01*
X0017053Y0212606D01*
X0017185Y0212542D01*
X0017315Y0212475D01*
X0017444Y0212405D01*
X0017571Y0212331D01*
X0017695Y0212254D01*
X0017818Y0212173D01*
X0017938Y0212089D01*
X0018056Y0212002D01*
X0018171Y0211912D01*
X0018284Y0211819D01*
X0018395Y0211722D01*
X0018503Y0211623D01*
X0018608Y0211521D01*
X0018710Y0211416D01*
X0018809Y0211308D01*
X0018906Y0211197D01*
X0018999Y0211084D01*
X0019089Y0210969D01*
X0019176Y0210851D01*
X0019260Y0210731D01*
X0019341Y0210608D01*
X0019418Y0210484D01*
X0019492Y0210357D01*
X0019562Y0210228D01*
X0019629Y0210098D01*
X0019693Y0209966D01*
X0019752Y0209832D01*
X0019809Y0209697D01*
X0019861Y0209560D01*
X0019910Y0209421D01*
X0019955Y0209282D01*
X0019996Y0209141D01*
X0020033Y0208999D01*
X0020066Y0208857D01*
X0020096Y0208713D01*
X0020122Y0208569D01*
X0020143Y0208424D01*
X0020161Y0208278D01*
X0020175Y0208132D01*
X0020185Y0207986D01*
X0020191Y0207840D01*
X0020193Y0207693D01*
X0020191Y0207546D01*
X0020185Y0207400D01*
X0020175Y0207254D01*
X0020161Y0207108D01*
X0020143Y0206962D01*
X0020122Y0206817D01*
X0020096Y0206673D01*
X0020066Y0206529D01*
X0020033Y0206387D01*
X0019996Y0206245D01*
X0019955Y0206104D01*
X0019910Y0205965D01*
X0019861Y0205826D01*
X0019809Y0205689D01*
X0019752Y0205554D01*
X0019693Y0205420D01*
X0019629Y0205288D01*
X0019562Y0205158D01*
X0019492Y0205029D01*
X0019418Y0204902D01*
X0019341Y0204778D01*
X0019260Y0204655D01*
X0019176Y0204535D01*
X0019089Y0204417D01*
X0018999Y0204302D01*
X0018906Y0204189D01*
X0018809Y0204078D01*
X0018710Y0203970D01*
X0018608Y0203865D01*
X0018503Y0203763D01*
X0018395Y0203664D01*
X0018284Y0203567D01*
X0018171Y0203474D01*
X0018056Y0203384D01*
X0017938Y0203297D01*
X0017818Y0203213D01*
X0017695Y0203132D01*
X0017571Y0203055D01*
X0017444Y0202981D01*
X0017315Y0202911D01*
X0017185Y0202844D01*
X0017053Y0202780D01*
X0016919Y0202721D01*
X0016784Y0202664D01*
X0016647Y0202612D01*
X0016508Y0202563D01*
X0016369Y0202518D01*
X0016228Y0202477D01*
X0016086Y0202440D01*
X0015944Y0202407D01*
X0015800Y0202377D01*
X0015656Y0202351D01*
X0015511Y0202330D01*
X0015365Y0202312D01*
X0015219Y0202298D01*
X0015073Y0202288D01*
X0014927Y0202282D01*
X0014780Y0202280D01*
X0014633Y0202282D01*
X0014487Y0202288D01*
X0014341Y0202298D01*
X0014195Y0202312D01*
X0014049Y0202330D01*
X0013904Y0202351D01*
X0013760Y0202377D01*
X0013616Y0202407D01*
X0013474Y0202440D01*
X0013332Y0202477D01*
X0013191Y0202518D01*
X0013052Y0202563D01*
X0012913Y0202612D01*
X0012776Y0202664D01*
X0012641Y0202721D01*
X0012507Y0202780D01*
X0012375Y0202844D01*
X0012245Y0202911D01*
X0012116Y0202981D01*
X0011989Y0203055D01*
X0011865Y0203132D01*
X0011742Y0203213D01*
X0011622Y0203297D01*
X0011504Y0203384D01*
X0011389Y0203474D01*
X0011276Y0203567D01*
X0011165Y0203664D01*
X0011057Y0203763D01*
X0010952Y0203865D01*
X0010850Y0203970D01*
X0010751Y0204078D01*
X0010654Y0204189D01*
X0010561Y0204302D01*
X0010471Y0204417D01*
X0010384Y0204535D01*
X0010300Y0204655D01*
X0010219Y0204778D01*
X0010142Y0204902D01*
X0010068Y0205029D01*
X0009998Y0205158D01*
X0009931Y0205288D01*
X0009867Y0205420D01*
X0009808Y0205554D01*
X0009751Y0205689D01*
X0009699Y0205826D01*
X0009650Y0205965D01*
X0009605Y0206104D01*
X0009564Y0206245D01*
X0009527Y0206387D01*
X0009494Y0206529D01*
X0009464Y0206673D01*
X0009438Y0206817D01*
X0009417Y0206962D01*
X0009399Y0207108D01*
X0009385Y0207254D01*
X0009375Y0207400D01*
X0009369Y0207546D01*
X0009367Y0207693D01*
X0237713Y0207693D02*
X0237715Y0207840D01*
X0237721Y0207986D01*
X0237731Y0208132D01*
X0237745Y0208278D01*
X0237763Y0208424D01*
X0237784Y0208569D01*
X0237810Y0208713D01*
X0237840Y0208857D01*
X0237873Y0208999D01*
X0237910Y0209141D01*
X0237951Y0209282D01*
X0237996Y0209421D01*
X0238045Y0209560D01*
X0238097Y0209697D01*
X0238154Y0209832D01*
X0238213Y0209966D01*
X0238277Y0210098D01*
X0238344Y0210228D01*
X0238414Y0210357D01*
X0238488Y0210484D01*
X0238565Y0210608D01*
X0238646Y0210731D01*
X0238730Y0210851D01*
X0238817Y0210969D01*
X0238907Y0211084D01*
X0239000Y0211197D01*
X0239097Y0211308D01*
X0239196Y0211416D01*
X0239298Y0211521D01*
X0239403Y0211623D01*
X0239511Y0211722D01*
X0239622Y0211819D01*
X0239735Y0211912D01*
X0239850Y0212002D01*
X0239968Y0212089D01*
X0240088Y0212173D01*
X0240211Y0212254D01*
X0240335Y0212331D01*
X0240462Y0212405D01*
X0240591Y0212475D01*
X0240721Y0212542D01*
X0240853Y0212606D01*
X0240987Y0212665D01*
X0241122Y0212722D01*
X0241259Y0212774D01*
X0241398Y0212823D01*
X0241537Y0212868D01*
X0241678Y0212909D01*
X0241820Y0212946D01*
X0241962Y0212979D01*
X0242106Y0213009D01*
X0242250Y0213035D01*
X0242395Y0213056D01*
X0242541Y0213074D01*
X0242687Y0213088D01*
X0242833Y0213098D01*
X0242979Y0213104D01*
X0243126Y0213106D01*
X0243273Y0213104D01*
X0243419Y0213098D01*
X0243565Y0213088D01*
X0243711Y0213074D01*
X0243857Y0213056D01*
X0244002Y0213035D01*
X0244146Y0213009D01*
X0244290Y0212979D01*
X0244432Y0212946D01*
X0244574Y0212909D01*
X0244715Y0212868D01*
X0244854Y0212823D01*
X0244993Y0212774D01*
X0245130Y0212722D01*
X0245265Y0212665D01*
X0245399Y0212606D01*
X0245531Y0212542D01*
X0245661Y0212475D01*
X0245790Y0212405D01*
X0245917Y0212331D01*
X0246041Y0212254D01*
X0246164Y0212173D01*
X0246284Y0212089D01*
X0246402Y0212002D01*
X0246517Y0211912D01*
X0246630Y0211819D01*
X0246741Y0211722D01*
X0246849Y0211623D01*
X0246954Y0211521D01*
X0247056Y0211416D01*
X0247155Y0211308D01*
X0247252Y0211197D01*
X0247345Y0211084D01*
X0247435Y0210969D01*
X0247522Y0210851D01*
X0247606Y0210731D01*
X0247687Y0210608D01*
X0247764Y0210484D01*
X0247838Y0210357D01*
X0247908Y0210228D01*
X0247975Y0210098D01*
X0248039Y0209966D01*
X0248098Y0209832D01*
X0248155Y0209697D01*
X0248207Y0209560D01*
X0248256Y0209421D01*
X0248301Y0209282D01*
X0248342Y0209141D01*
X0248379Y0208999D01*
X0248412Y0208857D01*
X0248442Y0208713D01*
X0248468Y0208569D01*
X0248489Y0208424D01*
X0248507Y0208278D01*
X0248521Y0208132D01*
X0248531Y0207986D01*
X0248537Y0207840D01*
X0248539Y0207693D01*
X0248537Y0207546D01*
X0248531Y0207400D01*
X0248521Y0207254D01*
X0248507Y0207108D01*
X0248489Y0206962D01*
X0248468Y0206817D01*
X0248442Y0206673D01*
X0248412Y0206529D01*
X0248379Y0206387D01*
X0248342Y0206245D01*
X0248301Y0206104D01*
X0248256Y0205965D01*
X0248207Y0205826D01*
X0248155Y0205689D01*
X0248098Y0205554D01*
X0248039Y0205420D01*
X0247975Y0205288D01*
X0247908Y0205158D01*
X0247838Y0205029D01*
X0247764Y0204902D01*
X0247687Y0204778D01*
X0247606Y0204655D01*
X0247522Y0204535D01*
X0247435Y0204417D01*
X0247345Y0204302D01*
X0247252Y0204189D01*
X0247155Y0204078D01*
X0247056Y0203970D01*
X0246954Y0203865D01*
X0246849Y0203763D01*
X0246741Y0203664D01*
X0246630Y0203567D01*
X0246517Y0203474D01*
X0246402Y0203384D01*
X0246284Y0203297D01*
X0246164Y0203213D01*
X0246041Y0203132D01*
X0245917Y0203055D01*
X0245790Y0202981D01*
X0245661Y0202911D01*
X0245531Y0202844D01*
X0245399Y0202780D01*
X0245265Y0202721D01*
X0245130Y0202664D01*
X0244993Y0202612D01*
X0244854Y0202563D01*
X0244715Y0202518D01*
X0244574Y0202477D01*
X0244432Y0202440D01*
X0244290Y0202407D01*
X0244146Y0202377D01*
X0244002Y0202351D01*
X0243857Y0202330D01*
X0243711Y0202312D01*
X0243565Y0202298D01*
X0243419Y0202288D01*
X0243273Y0202282D01*
X0243126Y0202280D01*
X0242979Y0202282D01*
X0242833Y0202288D01*
X0242687Y0202298D01*
X0242541Y0202312D01*
X0242395Y0202330D01*
X0242250Y0202351D01*
X0242106Y0202377D01*
X0241962Y0202407D01*
X0241820Y0202440D01*
X0241678Y0202477D01*
X0241537Y0202518D01*
X0241398Y0202563D01*
X0241259Y0202612D01*
X0241122Y0202664D01*
X0240987Y0202721D01*
X0240853Y0202780D01*
X0240721Y0202844D01*
X0240591Y0202911D01*
X0240462Y0202981D01*
X0240335Y0203055D01*
X0240211Y0203132D01*
X0240088Y0203213D01*
X0239968Y0203297D01*
X0239850Y0203384D01*
X0239735Y0203474D01*
X0239622Y0203567D01*
X0239511Y0203664D01*
X0239403Y0203763D01*
X0239298Y0203865D01*
X0239196Y0203970D01*
X0239097Y0204078D01*
X0239000Y0204189D01*
X0238907Y0204302D01*
X0238817Y0204417D01*
X0238730Y0204535D01*
X0238646Y0204655D01*
X0238565Y0204778D01*
X0238488Y0204902D01*
X0238414Y0205029D01*
X0238344Y0205158D01*
X0238277Y0205288D01*
X0238213Y0205420D01*
X0238154Y0205554D01*
X0238097Y0205689D01*
X0238045Y0205826D01*
X0237996Y0205965D01*
X0237951Y0206104D01*
X0237910Y0206245D01*
X0237873Y0206387D01*
X0237840Y0206529D01*
X0237810Y0206673D01*
X0237784Y0206817D01*
X0237763Y0206962D01*
X0237745Y0207108D01*
X0237731Y0207254D01*
X0237721Y0207400D01*
X0237715Y0207546D01*
X0237713Y0207693D01*
X0237713Y0014780D02*
X0237715Y0014927D01*
X0237721Y0015073D01*
X0237731Y0015219D01*
X0237745Y0015365D01*
X0237763Y0015511D01*
X0237784Y0015656D01*
X0237810Y0015800D01*
X0237840Y0015944D01*
X0237873Y0016086D01*
X0237910Y0016228D01*
X0237951Y0016369D01*
X0237996Y0016508D01*
X0238045Y0016647D01*
X0238097Y0016784D01*
X0238154Y0016919D01*
X0238213Y0017053D01*
X0238277Y0017185D01*
X0238344Y0017315D01*
X0238414Y0017444D01*
X0238488Y0017571D01*
X0238565Y0017695D01*
X0238646Y0017818D01*
X0238730Y0017938D01*
X0238817Y0018056D01*
X0238907Y0018171D01*
X0239000Y0018284D01*
X0239097Y0018395D01*
X0239196Y0018503D01*
X0239298Y0018608D01*
X0239403Y0018710D01*
X0239511Y0018809D01*
X0239622Y0018906D01*
X0239735Y0018999D01*
X0239850Y0019089D01*
X0239968Y0019176D01*
X0240088Y0019260D01*
X0240211Y0019341D01*
X0240335Y0019418D01*
X0240462Y0019492D01*
X0240591Y0019562D01*
X0240721Y0019629D01*
X0240853Y0019693D01*
X0240987Y0019752D01*
X0241122Y0019809D01*
X0241259Y0019861D01*
X0241398Y0019910D01*
X0241537Y0019955D01*
X0241678Y0019996D01*
X0241820Y0020033D01*
X0241962Y0020066D01*
X0242106Y0020096D01*
X0242250Y0020122D01*
X0242395Y0020143D01*
X0242541Y0020161D01*
X0242687Y0020175D01*
X0242833Y0020185D01*
X0242979Y0020191D01*
X0243126Y0020193D01*
X0243273Y0020191D01*
X0243419Y0020185D01*
X0243565Y0020175D01*
X0243711Y0020161D01*
X0243857Y0020143D01*
X0244002Y0020122D01*
X0244146Y0020096D01*
X0244290Y0020066D01*
X0244432Y0020033D01*
X0244574Y0019996D01*
X0244715Y0019955D01*
X0244854Y0019910D01*
X0244993Y0019861D01*
X0245130Y0019809D01*
X0245265Y0019752D01*
X0245399Y0019693D01*
X0245531Y0019629D01*
X0245661Y0019562D01*
X0245790Y0019492D01*
X0245917Y0019418D01*
X0246041Y0019341D01*
X0246164Y0019260D01*
X0246284Y0019176D01*
X0246402Y0019089D01*
X0246517Y0018999D01*
X0246630Y0018906D01*
X0246741Y0018809D01*
X0246849Y0018710D01*
X0246954Y0018608D01*
X0247056Y0018503D01*
X0247155Y0018395D01*
X0247252Y0018284D01*
X0247345Y0018171D01*
X0247435Y0018056D01*
X0247522Y0017938D01*
X0247606Y0017818D01*
X0247687Y0017695D01*
X0247764Y0017571D01*
X0247838Y0017444D01*
X0247908Y0017315D01*
X0247975Y0017185D01*
X0248039Y0017053D01*
X0248098Y0016919D01*
X0248155Y0016784D01*
X0248207Y0016647D01*
X0248256Y0016508D01*
X0248301Y0016369D01*
X0248342Y0016228D01*
X0248379Y0016086D01*
X0248412Y0015944D01*
X0248442Y0015800D01*
X0248468Y0015656D01*
X0248489Y0015511D01*
X0248507Y0015365D01*
X0248521Y0015219D01*
X0248531Y0015073D01*
X0248537Y0014927D01*
X0248539Y0014780D01*
X0248537Y0014633D01*
X0248531Y0014487D01*
X0248521Y0014341D01*
X0248507Y0014195D01*
X0248489Y0014049D01*
X0248468Y0013904D01*
X0248442Y0013760D01*
X0248412Y0013616D01*
X0248379Y0013474D01*
X0248342Y0013332D01*
X0248301Y0013191D01*
X0248256Y0013052D01*
X0248207Y0012913D01*
X0248155Y0012776D01*
X0248098Y0012641D01*
X0248039Y0012507D01*
X0247975Y0012375D01*
X0247908Y0012245D01*
X0247838Y0012116D01*
X0247764Y0011989D01*
X0247687Y0011865D01*
X0247606Y0011742D01*
X0247522Y0011622D01*
X0247435Y0011504D01*
X0247345Y0011389D01*
X0247252Y0011276D01*
X0247155Y0011165D01*
X0247056Y0011057D01*
X0246954Y0010952D01*
X0246849Y0010850D01*
X0246741Y0010751D01*
X0246630Y0010654D01*
X0246517Y0010561D01*
X0246402Y0010471D01*
X0246284Y0010384D01*
X0246164Y0010300D01*
X0246041Y0010219D01*
X0245917Y0010142D01*
X0245790Y0010068D01*
X0245661Y0009998D01*
X0245531Y0009931D01*
X0245399Y0009867D01*
X0245265Y0009808D01*
X0245130Y0009751D01*
X0244993Y0009699D01*
X0244854Y0009650D01*
X0244715Y0009605D01*
X0244574Y0009564D01*
X0244432Y0009527D01*
X0244290Y0009494D01*
X0244146Y0009464D01*
X0244002Y0009438D01*
X0243857Y0009417D01*
X0243711Y0009399D01*
X0243565Y0009385D01*
X0243419Y0009375D01*
X0243273Y0009369D01*
X0243126Y0009367D01*
X0242979Y0009369D01*
X0242833Y0009375D01*
X0242687Y0009385D01*
X0242541Y0009399D01*
X0242395Y0009417D01*
X0242250Y0009438D01*
X0242106Y0009464D01*
X0241962Y0009494D01*
X0241820Y0009527D01*
X0241678Y0009564D01*
X0241537Y0009605D01*
X0241398Y0009650D01*
X0241259Y0009699D01*
X0241122Y0009751D01*
X0240987Y0009808D01*
X0240853Y0009867D01*
X0240721Y0009931D01*
X0240591Y0009998D01*
X0240462Y0010068D01*
X0240335Y0010142D01*
X0240211Y0010219D01*
X0240088Y0010300D01*
X0239968Y0010384D01*
X0239850Y0010471D01*
X0239735Y0010561D01*
X0239622Y0010654D01*
X0239511Y0010751D01*
X0239403Y0010850D01*
X0239298Y0010952D01*
X0239196Y0011057D01*
X0239097Y0011165D01*
X0239000Y0011276D01*
X0238907Y0011389D01*
X0238817Y0011504D01*
X0238730Y0011622D01*
X0238646Y0011742D01*
X0238565Y0011865D01*
X0238488Y0011989D01*
X0238414Y0012116D01*
X0238344Y0012245D01*
X0238277Y0012375D01*
X0238213Y0012507D01*
X0238154Y0012641D01*
X0238097Y0012776D01*
X0238045Y0012913D01*
X0237996Y0013052D01*
X0237951Y0013191D01*
X0237910Y0013332D01*
X0237873Y0013474D01*
X0237840Y0013616D01*
X0237810Y0013760D01*
X0237784Y0013904D01*
X0237763Y0014049D01*
X0237745Y0014195D01*
X0237731Y0014341D01*
X0237721Y0014487D01*
X0237715Y0014633D01*
X0237713Y0014780D01*
D11*
X0230921Y0014780D02*
X0230925Y0015080D01*
X0230936Y0015379D01*
X0230954Y0015678D01*
X0230980Y0015976D01*
X0231013Y0016274D01*
X0231053Y0016571D01*
X0231101Y0016867D01*
X0231156Y0017161D01*
X0231218Y0017454D01*
X0231287Y0017746D01*
X0231363Y0018035D01*
X0231447Y0018323D01*
X0231537Y0018608D01*
X0231634Y0018892D01*
X0231739Y0019173D01*
X0231850Y0019451D01*
X0231968Y0019726D01*
X0232093Y0019998D01*
X0232224Y0020268D01*
X0232362Y0020533D01*
X0232507Y0020796D01*
X0232657Y0021055D01*
X0232815Y0021310D01*
X0232978Y0021561D01*
X0233147Y0021808D01*
X0233323Y0022051D01*
X0233504Y0022289D01*
X0233691Y0022523D01*
X0233884Y0022752D01*
X0234083Y0022976D01*
X0234287Y0023196D01*
X0234496Y0023410D01*
X0234710Y0023619D01*
X0234930Y0023823D01*
X0235154Y0024022D01*
X0235383Y0024215D01*
X0235617Y0024402D01*
X0235855Y0024583D01*
X0236098Y0024759D01*
X0236345Y0024928D01*
X0236596Y0025091D01*
X0236851Y0025249D01*
X0237110Y0025399D01*
X0237373Y0025544D01*
X0237638Y0025682D01*
X0237908Y0025813D01*
X0238180Y0025938D01*
X0238455Y0026056D01*
X0238733Y0026167D01*
X0239014Y0026272D01*
X0239298Y0026369D01*
X0239583Y0026459D01*
X0239871Y0026543D01*
X0240160Y0026619D01*
X0240452Y0026688D01*
X0240745Y0026750D01*
X0241039Y0026805D01*
X0241335Y0026853D01*
X0241632Y0026893D01*
X0241930Y0026926D01*
X0242228Y0026952D01*
X0242527Y0026970D01*
X0242826Y0026981D01*
X0243126Y0026985D01*
X0243426Y0026981D01*
X0243725Y0026970D01*
X0244024Y0026952D01*
X0244322Y0026926D01*
X0244620Y0026893D01*
X0244917Y0026853D01*
X0245213Y0026805D01*
X0245507Y0026750D01*
X0245800Y0026688D01*
X0246092Y0026619D01*
X0246381Y0026543D01*
X0246669Y0026459D01*
X0246954Y0026369D01*
X0247238Y0026272D01*
X0247519Y0026167D01*
X0247797Y0026056D01*
X0248072Y0025938D01*
X0248344Y0025813D01*
X0248614Y0025682D01*
X0248879Y0025544D01*
X0249142Y0025399D01*
X0249401Y0025249D01*
X0249656Y0025091D01*
X0249907Y0024928D01*
X0250154Y0024759D01*
X0250397Y0024583D01*
X0250635Y0024402D01*
X0250869Y0024215D01*
X0251098Y0024022D01*
X0251322Y0023823D01*
X0251542Y0023619D01*
X0251756Y0023410D01*
X0251965Y0023196D01*
X0252169Y0022976D01*
X0252368Y0022752D01*
X0252561Y0022523D01*
X0252748Y0022289D01*
X0252929Y0022051D01*
X0253105Y0021808D01*
X0253274Y0021561D01*
X0253437Y0021310D01*
X0253595Y0021055D01*
X0253745Y0020796D01*
X0253890Y0020533D01*
X0254028Y0020268D01*
X0254159Y0019998D01*
X0254284Y0019726D01*
X0254402Y0019451D01*
X0254513Y0019173D01*
X0254618Y0018892D01*
X0254715Y0018608D01*
X0254805Y0018323D01*
X0254889Y0018035D01*
X0254965Y0017746D01*
X0255034Y0017454D01*
X0255096Y0017161D01*
X0255151Y0016867D01*
X0255199Y0016571D01*
X0255239Y0016274D01*
X0255272Y0015976D01*
X0255298Y0015678D01*
X0255316Y0015379D01*
X0255327Y0015080D01*
X0255331Y0014780D01*
X0255327Y0014480D01*
X0255316Y0014181D01*
X0255298Y0013882D01*
X0255272Y0013584D01*
X0255239Y0013286D01*
X0255199Y0012989D01*
X0255151Y0012693D01*
X0255096Y0012399D01*
X0255034Y0012106D01*
X0254965Y0011814D01*
X0254889Y0011525D01*
X0254805Y0011237D01*
X0254715Y0010952D01*
X0254618Y0010668D01*
X0254513Y0010387D01*
X0254402Y0010109D01*
X0254284Y0009834D01*
X0254159Y0009562D01*
X0254028Y0009292D01*
X0253890Y0009027D01*
X0253745Y0008764D01*
X0253595Y0008505D01*
X0253437Y0008250D01*
X0253274Y0007999D01*
X0253105Y0007752D01*
X0252929Y0007509D01*
X0252748Y0007271D01*
X0252561Y0007037D01*
X0252368Y0006808D01*
X0252169Y0006584D01*
X0251965Y0006364D01*
X0251756Y0006150D01*
X0251542Y0005941D01*
X0251322Y0005737D01*
X0251098Y0005538D01*
X0250869Y0005345D01*
X0250635Y0005158D01*
X0250397Y0004977D01*
X0250154Y0004801D01*
X0249907Y0004632D01*
X0249656Y0004469D01*
X0249401Y0004311D01*
X0249142Y0004161D01*
X0248879Y0004016D01*
X0248614Y0003878D01*
X0248344Y0003747D01*
X0248072Y0003622D01*
X0247797Y0003504D01*
X0247519Y0003393D01*
X0247238Y0003288D01*
X0246954Y0003191D01*
X0246669Y0003101D01*
X0246381Y0003017D01*
X0246092Y0002941D01*
X0245800Y0002872D01*
X0245507Y0002810D01*
X0245213Y0002755D01*
X0244917Y0002707D01*
X0244620Y0002667D01*
X0244322Y0002634D01*
X0244024Y0002608D01*
X0243725Y0002590D01*
X0243426Y0002579D01*
X0243126Y0002575D01*
X0242826Y0002579D01*
X0242527Y0002590D01*
X0242228Y0002608D01*
X0241930Y0002634D01*
X0241632Y0002667D01*
X0241335Y0002707D01*
X0241039Y0002755D01*
X0240745Y0002810D01*
X0240452Y0002872D01*
X0240160Y0002941D01*
X0239871Y0003017D01*
X0239583Y0003101D01*
X0239298Y0003191D01*
X0239014Y0003288D01*
X0238733Y0003393D01*
X0238455Y0003504D01*
X0238180Y0003622D01*
X0237908Y0003747D01*
X0237638Y0003878D01*
X0237373Y0004016D01*
X0237110Y0004161D01*
X0236851Y0004311D01*
X0236596Y0004469D01*
X0236345Y0004632D01*
X0236098Y0004801D01*
X0235855Y0004977D01*
X0235617Y0005158D01*
X0235383Y0005345D01*
X0235154Y0005538D01*
X0234930Y0005737D01*
X0234710Y0005941D01*
X0234496Y0006150D01*
X0234287Y0006364D01*
X0234083Y0006584D01*
X0233884Y0006808D01*
X0233691Y0007037D01*
X0233504Y0007271D01*
X0233323Y0007509D01*
X0233147Y0007752D01*
X0232978Y0007999D01*
X0232815Y0008250D01*
X0232657Y0008505D01*
X0232507Y0008764D01*
X0232362Y0009027D01*
X0232224Y0009292D01*
X0232093Y0009562D01*
X0231968Y0009834D01*
X0231850Y0010109D01*
X0231739Y0010387D01*
X0231634Y0010668D01*
X0231537Y0010952D01*
X0231447Y0011237D01*
X0231363Y0011525D01*
X0231287Y0011814D01*
X0231218Y0012106D01*
X0231156Y0012399D01*
X0231101Y0012693D01*
X0231053Y0012989D01*
X0231013Y0013286D01*
X0230980Y0013584D01*
X0230954Y0013882D01*
X0230936Y0014181D01*
X0230925Y0014480D01*
X0230921Y0014780D01*
X0002575Y0014780D02*
X0002579Y0015080D01*
X0002590Y0015379D01*
X0002608Y0015678D01*
X0002634Y0015976D01*
X0002667Y0016274D01*
X0002707Y0016571D01*
X0002755Y0016867D01*
X0002810Y0017161D01*
X0002872Y0017454D01*
X0002941Y0017746D01*
X0003017Y0018035D01*
X0003101Y0018323D01*
X0003191Y0018608D01*
X0003288Y0018892D01*
X0003393Y0019173D01*
X0003504Y0019451D01*
X0003622Y0019726D01*
X0003747Y0019998D01*
X0003878Y0020268D01*
X0004016Y0020533D01*
X0004161Y0020796D01*
X0004311Y0021055D01*
X0004469Y0021310D01*
X0004632Y0021561D01*
X0004801Y0021808D01*
X0004977Y0022051D01*
X0005158Y0022289D01*
X0005345Y0022523D01*
X0005538Y0022752D01*
X0005737Y0022976D01*
X0005941Y0023196D01*
X0006150Y0023410D01*
X0006364Y0023619D01*
X0006584Y0023823D01*
X0006808Y0024022D01*
X0007037Y0024215D01*
X0007271Y0024402D01*
X0007509Y0024583D01*
X0007752Y0024759D01*
X0007999Y0024928D01*
X0008250Y0025091D01*
X0008505Y0025249D01*
X0008764Y0025399D01*
X0009027Y0025544D01*
X0009292Y0025682D01*
X0009562Y0025813D01*
X0009834Y0025938D01*
X0010109Y0026056D01*
X0010387Y0026167D01*
X0010668Y0026272D01*
X0010952Y0026369D01*
X0011237Y0026459D01*
X0011525Y0026543D01*
X0011814Y0026619D01*
X0012106Y0026688D01*
X0012399Y0026750D01*
X0012693Y0026805D01*
X0012989Y0026853D01*
X0013286Y0026893D01*
X0013584Y0026926D01*
X0013882Y0026952D01*
X0014181Y0026970D01*
X0014480Y0026981D01*
X0014780Y0026985D01*
X0015080Y0026981D01*
X0015379Y0026970D01*
X0015678Y0026952D01*
X0015976Y0026926D01*
X0016274Y0026893D01*
X0016571Y0026853D01*
X0016867Y0026805D01*
X0017161Y0026750D01*
X0017454Y0026688D01*
X0017746Y0026619D01*
X0018035Y0026543D01*
X0018323Y0026459D01*
X0018608Y0026369D01*
X0018892Y0026272D01*
X0019173Y0026167D01*
X0019451Y0026056D01*
X0019726Y0025938D01*
X0019998Y0025813D01*
X0020268Y0025682D01*
X0020533Y0025544D01*
X0020796Y0025399D01*
X0021055Y0025249D01*
X0021310Y0025091D01*
X0021561Y0024928D01*
X0021808Y0024759D01*
X0022051Y0024583D01*
X0022289Y0024402D01*
X0022523Y0024215D01*
X0022752Y0024022D01*
X0022976Y0023823D01*
X0023196Y0023619D01*
X0023410Y0023410D01*
X0023619Y0023196D01*
X0023823Y0022976D01*
X0024022Y0022752D01*
X0024215Y0022523D01*
X0024402Y0022289D01*
X0024583Y0022051D01*
X0024759Y0021808D01*
X0024928Y0021561D01*
X0025091Y0021310D01*
X0025249Y0021055D01*
X0025399Y0020796D01*
X0025544Y0020533D01*
X0025682Y0020268D01*
X0025813Y0019998D01*
X0025938Y0019726D01*
X0026056Y0019451D01*
X0026167Y0019173D01*
X0026272Y0018892D01*
X0026369Y0018608D01*
X0026459Y0018323D01*
X0026543Y0018035D01*
X0026619Y0017746D01*
X0026688Y0017454D01*
X0026750Y0017161D01*
X0026805Y0016867D01*
X0026853Y0016571D01*
X0026893Y0016274D01*
X0026926Y0015976D01*
X0026952Y0015678D01*
X0026970Y0015379D01*
X0026981Y0015080D01*
X0026985Y0014780D01*
X0026981Y0014480D01*
X0026970Y0014181D01*
X0026952Y0013882D01*
X0026926Y0013584D01*
X0026893Y0013286D01*
X0026853Y0012989D01*
X0026805Y0012693D01*
X0026750Y0012399D01*
X0026688Y0012106D01*
X0026619Y0011814D01*
X0026543Y0011525D01*
X0026459Y0011237D01*
X0026369Y0010952D01*
X0026272Y0010668D01*
X0026167Y0010387D01*
X0026056Y0010109D01*
X0025938Y0009834D01*
X0025813Y0009562D01*
X0025682Y0009292D01*
X0025544Y0009027D01*
X0025399Y0008764D01*
X0025249Y0008505D01*
X0025091Y0008250D01*
X0024928Y0007999D01*
X0024759Y0007752D01*
X0024583Y0007509D01*
X0024402Y0007271D01*
X0024215Y0007037D01*
X0024022Y0006808D01*
X0023823Y0006584D01*
X0023619Y0006364D01*
X0023410Y0006150D01*
X0023196Y0005941D01*
X0022976Y0005737D01*
X0022752Y0005538D01*
X0022523Y0005345D01*
X0022289Y0005158D01*
X0022051Y0004977D01*
X0021808Y0004801D01*
X0021561Y0004632D01*
X0021310Y0004469D01*
X0021055Y0004311D01*
X0020796Y0004161D01*
X0020533Y0004016D01*
X0020268Y0003878D01*
X0019998Y0003747D01*
X0019726Y0003622D01*
X0019451Y0003504D01*
X0019173Y0003393D01*
X0018892Y0003288D01*
X0018608Y0003191D01*
X0018323Y0003101D01*
X0018035Y0003017D01*
X0017746Y0002941D01*
X0017454Y0002872D01*
X0017161Y0002810D01*
X0016867Y0002755D01*
X0016571Y0002707D01*
X0016274Y0002667D01*
X0015976Y0002634D01*
X0015678Y0002608D01*
X0015379Y0002590D01*
X0015080Y0002579D01*
X0014780Y0002575D01*
X0014480Y0002579D01*
X0014181Y0002590D01*
X0013882Y0002608D01*
X0013584Y0002634D01*
X0013286Y0002667D01*
X0012989Y0002707D01*
X0012693Y0002755D01*
X0012399Y0002810D01*
X0012106Y0002872D01*
X0011814Y0002941D01*
X0011525Y0003017D01*
X0011237Y0003101D01*
X0010952Y0003191D01*
X0010668Y0003288D01*
X0010387Y0003393D01*
X0010109Y0003504D01*
X0009834Y0003622D01*
X0009562Y0003747D01*
X0009292Y0003878D01*
X0009027Y0004016D01*
X0008764Y0004161D01*
X0008505Y0004311D01*
X0008250Y0004469D01*
X0007999Y0004632D01*
X0007752Y0004801D01*
X0007509Y0004977D01*
X0007271Y0005158D01*
X0007037Y0005345D01*
X0006808Y0005538D01*
X0006584Y0005737D01*
X0006364Y0005941D01*
X0006150Y0006150D01*
X0005941Y0006364D01*
X0005737Y0006584D01*
X0005538Y0006808D01*
X0005345Y0007037D01*
X0005158Y0007271D01*
X0004977Y0007509D01*
X0004801Y0007752D01*
X0004632Y0007999D01*
X0004469Y0008250D01*
X0004311Y0008505D01*
X0004161Y0008764D01*
X0004016Y0009027D01*
X0003878Y0009292D01*
X0003747Y0009562D01*
X0003622Y0009834D01*
X0003504Y0010109D01*
X0003393Y0010387D01*
X0003288Y0010668D01*
X0003191Y0010952D01*
X0003101Y0011237D01*
X0003017Y0011525D01*
X0002941Y0011814D01*
X0002872Y0012106D01*
X0002810Y0012399D01*
X0002755Y0012693D01*
X0002707Y0012989D01*
X0002667Y0013286D01*
X0002634Y0013584D01*
X0002608Y0013882D01*
X0002590Y0014181D01*
X0002579Y0014480D01*
X0002575Y0014780D01*
X0002575Y0207693D02*
X0002579Y0207993D01*
X0002590Y0208292D01*
X0002608Y0208591D01*
X0002634Y0208889D01*
X0002667Y0209187D01*
X0002707Y0209484D01*
X0002755Y0209780D01*
X0002810Y0210074D01*
X0002872Y0210367D01*
X0002941Y0210659D01*
X0003017Y0210948D01*
X0003101Y0211236D01*
X0003191Y0211521D01*
X0003288Y0211805D01*
X0003393Y0212086D01*
X0003504Y0212364D01*
X0003622Y0212639D01*
X0003747Y0212911D01*
X0003878Y0213181D01*
X0004016Y0213446D01*
X0004161Y0213709D01*
X0004311Y0213968D01*
X0004469Y0214223D01*
X0004632Y0214474D01*
X0004801Y0214721D01*
X0004977Y0214964D01*
X0005158Y0215202D01*
X0005345Y0215436D01*
X0005538Y0215665D01*
X0005737Y0215889D01*
X0005941Y0216109D01*
X0006150Y0216323D01*
X0006364Y0216532D01*
X0006584Y0216736D01*
X0006808Y0216935D01*
X0007037Y0217128D01*
X0007271Y0217315D01*
X0007509Y0217496D01*
X0007752Y0217672D01*
X0007999Y0217841D01*
X0008250Y0218004D01*
X0008505Y0218162D01*
X0008764Y0218312D01*
X0009027Y0218457D01*
X0009292Y0218595D01*
X0009562Y0218726D01*
X0009834Y0218851D01*
X0010109Y0218969D01*
X0010387Y0219080D01*
X0010668Y0219185D01*
X0010952Y0219282D01*
X0011237Y0219372D01*
X0011525Y0219456D01*
X0011814Y0219532D01*
X0012106Y0219601D01*
X0012399Y0219663D01*
X0012693Y0219718D01*
X0012989Y0219766D01*
X0013286Y0219806D01*
X0013584Y0219839D01*
X0013882Y0219865D01*
X0014181Y0219883D01*
X0014480Y0219894D01*
X0014780Y0219898D01*
X0015080Y0219894D01*
X0015379Y0219883D01*
X0015678Y0219865D01*
X0015976Y0219839D01*
X0016274Y0219806D01*
X0016571Y0219766D01*
X0016867Y0219718D01*
X0017161Y0219663D01*
X0017454Y0219601D01*
X0017746Y0219532D01*
X0018035Y0219456D01*
X0018323Y0219372D01*
X0018608Y0219282D01*
X0018892Y0219185D01*
X0019173Y0219080D01*
X0019451Y0218969D01*
X0019726Y0218851D01*
X0019998Y0218726D01*
X0020268Y0218595D01*
X0020533Y0218457D01*
X0020796Y0218312D01*
X0021055Y0218162D01*
X0021310Y0218004D01*
X0021561Y0217841D01*
X0021808Y0217672D01*
X0022051Y0217496D01*
X0022289Y0217315D01*
X0022523Y0217128D01*
X0022752Y0216935D01*
X0022976Y0216736D01*
X0023196Y0216532D01*
X0023410Y0216323D01*
X0023619Y0216109D01*
X0023823Y0215889D01*
X0024022Y0215665D01*
X0024215Y0215436D01*
X0024402Y0215202D01*
X0024583Y0214964D01*
X0024759Y0214721D01*
X0024928Y0214474D01*
X0025091Y0214223D01*
X0025249Y0213968D01*
X0025399Y0213709D01*
X0025544Y0213446D01*
X0025682Y0213181D01*
X0025813Y0212911D01*
X0025938Y0212639D01*
X0026056Y0212364D01*
X0026167Y0212086D01*
X0026272Y0211805D01*
X0026369Y0211521D01*
X0026459Y0211236D01*
X0026543Y0210948D01*
X0026619Y0210659D01*
X0026688Y0210367D01*
X0026750Y0210074D01*
X0026805Y0209780D01*
X0026853Y0209484D01*
X0026893Y0209187D01*
X0026926Y0208889D01*
X0026952Y0208591D01*
X0026970Y0208292D01*
X0026981Y0207993D01*
X0026985Y0207693D01*
X0026981Y0207393D01*
X0026970Y0207094D01*
X0026952Y0206795D01*
X0026926Y0206497D01*
X0026893Y0206199D01*
X0026853Y0205902D01*
X0026805Y0205606D01*
X0026750Y0205312D01*
X0026688Y0205019D01*
X0026619Y0204727D01*
X0026543Y0204438D01*
X0026459Y0204150D01*
X0026369Y0203865D01*
X0026272Y0203581D01*
X0026167Y0203300D01*
X0026056Y0203022D01*
X0025938Y0202747D01*
X0025813Y0202475D01*
X0025682Y0202205D01*
X0025544Y0201940D01*
X0025399Y0201677D01*
X0025249Y0201418D01*
X0025091Y0201163D01*
X0024928Y0200912D01*
X0024759Y0200665D01*
X0024583Y0200422D01*
X0024402Y0200184D01*
X0024215Y0199950D01*
X0024022Y0199721D01*
X0023823Y0199497D01*
X0023619Y0199277D01*
X0023410Y0199063D01*
X0023196Y0198854D01*
X0022976Y0198650D01*
X0022752Y0198451D01*
X0022523Y0198258D01*
X0022289Y0198071D01*
X0022051Y0197890D01*
X0021808Y0197714D01*
X0021561Y0197545D01*
X0021310Y0197382D01*
X0021055Y0197224D01*
X0020796Y0197074D01*
X0020533Y0196929D01*
X0020268Y0196791D01*
X0019998Y0196660D01*
X0019726Y0196535D01*
X0019451Y0196417D01*
X0019173Y0196306D01*
X0018892Y0196201D01*
X0018608Y0196104D01*
X0018323Y0196014D01*
X0018035Y0195930D01*
X0017746Y0195854D01*
X0017454Y0195785D01*
X0017161Y0195723D01*
X0016867Y0195668D01*
X0016571Y0195620D01*
X0016274Y0195580D01*
X0015976Y0195547D01*
X0015678Y0195521D01*
X0015379Y0195503D01*
X0015080Y0195492D01*
X0014780Y0195488D01*
X0014480Y0195492D01*
X0014181Y0195503D01*
X0013882Y0195521D01*
X0013584Y0195547D01*
X0013286Y0195580D01*
X0012989Y0195620D01*
X0012693Y0195668D01*
X0012399Y0195723D01*
X0012106Y0195785D01*
X0011814Y0195854D01*
X0011525Y0195930D01*
X0011237Y0196014D01*
X0010952Y0196104D01*
X0010668Y0196201D01*
X0010387Y0196306D01*
X0010109Y0196417D01*
X0009834Y0196535D01*
X0009562Y0196660D01*
X0009292Y0196791D01*
X0009027Y0196929D01*
X0008764Y0197074D01*
X0008505Y0197224D01*
X0008250Y0197382D01*
X0007999Y0197545D01*
X0007752Y0197714D01*
X0007509Y0197890D01*
X0007271Y0198071D01*
X0007037Y0198258D01*
X0006808Y0198451D01*
X0006584Y0198650D01*
X0006364Y0198854D01*
X0006150Y0199063D01*
X0005941Y0199277D01*
X0005737Y0199497D01*
X0005538Y0199721D01*
X0005345Y0199950D01*
X0005158Y0200184D01*
X0004977Y0200422D01*
X0004801Y0200665D01*
X0004632Y0200912D01*
X0004469Y0201163D01*
X0004311Y0201418D01*
X0004161Y0201677D01*
X0004016Y0201940D01*
X0003878Y0202205D01*
X0003747Y0202475D01*
X0003622Y0202747D01*
X0003504Y0203022D01*
X0003393Y0203300D01*
X0003288Y0203581D01*
X0003191Y0203865D01*
X0003101Y0204150D01*
X0003017Y0204438D01*
X0002941Y0204727D01*
X0002872Y0205019D01*
X0002810Y0205312D01*
X0002755Y0205606D01*
X0002707Y0205902D01*
X0002667Y0206199D01*
X0002634Y0206497D01*
X0002608Y0206795D01*
X0002590Y0207094D01*
X0002579Y0207393D01*
X0002575Y0207693D01*
X0230921Y0207693D02*
X0230925Y0207993D01*
X0230936Y0208292D01*
X0230954Y0208591D01*
X0230980Y0208889D01*
X0231013Y0209187D01*
X0231053Y0209484D01*
X0231101Y0209780D01*
X0231156Y0210074D01*
X0231218Y0210367D01*
X0231287Y0210659D01*
X0231363Y0210948D01*
X0231447Y0211236D01*
X0231537Y0211521D01*
X0231634Y0211805D01*
X0231739Y0212086D01*
X0231850Y0212364D01*
X0231968Y0212639D01*
X0232093Y0212911D01*
X0232224Y0213181D01*
X0232362Y0213446D01*
X0232507Y0213709D01*
X0232657Y0213968D01*
X0232815Y0214223D01*
X0232978Y0214474D01*
X0233147Y0214721D01*
X0233323Y0214964D01*
X0233504Y0215202D01*
X0233691Y0215436D01*
X0233884Y0215665D01*
X0234083Y0215889D01*
X0234287Y0216109D01*
X0234496Y0216323D01*
X0234710Y0216532D01*
X0234930Y0216736D01*
X0235154Y0216935D01*
X0235383Y0217128D01*
X0235617Y0217315D01*
X0235855Y0217496D01*
X0236098Y0217672D01*
X0236345Y0217841D01*
X0236596Y0218004D01*
X0236851Y0218162D01*
X0237110Y0218312D01*
X0237373Y0218457D01*
X0237638Y0218595D01*
X0237908Y0218726D01*
X0238180Y0218851D01*
X0238455Y0218969D01*
X0238733Y0219080D01*
X0239014Y0219185D01*
X0239298Y0219282D01*
X0239583Y0219372D01*
X0239871Y0219456D01*
X0240160Y0219532D01*
X0240452Y0219601D01*
X0240745Y0219663D01*
X0241039Y0219718D01*
X0241335Y0219766D01*
X0241632Y0219806D01*
X0241930Y0219839D01*
X0242228Y0219865D01*
X0242527Y0219883D01*
X0242826Y0219894D01*
X0243126Y0219898D01*
X0243426Y0219894D01*
X0243725Y0219883D01*
X0244024Y0219865D01*
X0244322Y0219839D01*
X0244620Y0219806D01*
X0244917Y0219766D01*
X0245213Y0219718D01*
X0245507Y0219663D01*
X0245800Y0219601D01*
X0246092Y0219532D01*
X0246381Y0219456D01*
X0246669Y0219372D01*
X0246954Y0219282D01*
X0247238Y0219185D01*
X0247519Y0219080D01*
X0247797Y0218969D01*
X0248072Y0218851D01*
X0248344Y0218726D01*
X0248614Y0218595D01*
X0248879Y0218457D01*
X0249142Y0218312D01*
X0249401Y0218162D01*
X0249656Y0218004D01*
X0249907Y0217841D01*
X0250154Y0217672D01*
X0250397Y0217496D01*
X0250635Y0217315D01*
X0250869Y0217128D01*
X0251098Y0216935D01*
X0251322Y0216736D01*
X0251542Y0216532D01*
X0251756Y0216323D01*
X0251965Y0216109D01*
X0252169Y0215889D01*
X0252368Y0215665D01*
X0252561Y0215436D01*
X0252748Y0215202D01*
X0252929Y0214964D01*
X0253105Y0214721D01*
X0253274Y0214474D01*
X0253437Y0214223D01*
X0253595Y0213968D01*
X0253745Y0213709D01*
X0253890Y0213446D01*
X0254028Y0213181D01*
X0254159Y0212911D01*
X0254284Y0212639D01*
X0254402Y0212364D01*
X0254513Y0212086D01*
X0254618Y0211805D01*
X0254715Y0211521D01*
X0254805Y0211236D01*
X0254889Y0210948D01*
X0254965Y0210659D01*
X0255034Y0210367D01*
X0255096Y0210074D01*
X0255151Y0209780D01*
X0255199Y0209484D01*
X0255239Y0209187D01*
X0255272Y0208889D01*
X0255298Y0208591D01*
X0255316Y0208292D01*
X0255327Y0207993D01*
X0255331Y0207693D01*
X0255327Y0207393D01*
X0255316Y0207094D01*
X0255298Y0206795D01*
X0255272Y0206497D01*
X0255239Y0206199D01*
X0255199Y0205902D01*
X0255151Y0205606D01*
X0255096Y0205312D01*
X0255034Y0205019D01*
X0254965Y0204727D01*
X0254889Y0204438D01*
X0254805Y0204150D01*
X0254715Y0203865D01*
X0254618Y0203581D01*
X0254513Y0203300D01*
X0254402Y0203022D01*
X0254284Y0202747D01*
X0254159Y0202475D01*
X0254028Y0202205D01*
X0253890Y0201940D01*
X0253745Y0201677D01*
X0253595Y0201418D01*
X0253437Y0201163D01*
X0253274Y0200912D01*
X0253105Y0200665D01*
X0252929Y0200422D01*
X0252748Y0200184D01*
X0252561Y0199950D01*
X0252368Y0199721D01*
X0252169Y0199497D01*
X0251965Y0199277D01*
X0251756Y0199063D01*
X0251542Y0198854D01*
X0251322Y0198650D01*
X0251098Y0198451D01*
X0250869Y0198258D01*
X0250635Y0198071D01*
X0250397Y0197890D01*
X0250154Y0197714D01*
X0249907Y0197545D01*
X0249656Y0197382D01*
X0249401Y0197224D01*
X0249142Y0197074D01*
X0248879Y0196929D01*
X0248614Y0196791D01*
X0248344Y0196660D01*
X0248072Y0196535D01*
X0247797Y0196417D01*
X0247519Y0196306D01*
X0247238Y0196201D01*
X0246954Y0196104D01*
X0246669Y0196014D01*
X0246381Y0195930D01*
X0246092Y0195854D01*
X0245800Y0195785D01*
X0245507Y0195723D01*
X0245213Y0195668D01*
X0244917Y0195620D01*
X0244620Y0195580D01*
X0244322Y0195547D01*
X0244024Y0195521D01*
X0243725Y0195503D01*
X0243426Y0195492D01*
X0243126Y0195488D01*
X0242826Y0195492D01*
X0242527Y0195503D01*
X0242228Y0195521D01*
X0241930Y0195547D01*
X0241632Y0195580D01*
X0241335Y0195620D01*
X0241039Y0195668D01*
X0240745Y0195723D01*
X0240452Y0195785D01*
X0240160Y0195854D01*
X0239871Y0195930D01*
X0239583Y0196014D01*
X0239298Y0196104D01*
X0239014Y0196201D01*
X0238733Y0196306D01*
X0238455Y0196417D01*
X0238180Y0196535D01*
X0237908Y0196660D01*
X0237638Y0196791D01*
X0237373Y0196929D01*
X0237110Y0197074D01*
X0236851Y0197224D01*
X0236596Y0197382D01*
X0236345Y0197545D01*
X0236098Y0197714D01*
X0235855Y0197890D01*
X0235617Y0198071D01*
X0235383Y0198258D01*
X0235154Y0198451D01*
X0234930Y0198650D01*
X0234710Y0198854D01*
X0234496Y0199063D01*
X0234287Y0199277D01*
X0234083Y0199497D01*
X0233884Y0199721D01*
X0233691Y0199950D01*
X0233504Y0200184D01*
X0233323Y0200422D01*
X0233147Y0200665D01*
X0232978Y0200912D01*
X0232815Y0201163D01*
X0232657Y0201418D01*
X0232507Y0201677D01*
X0232362Y0201940D01*
X0232224Y0202205D01*
X0232093Y0202475D01*
X0231968Y0202747D01*
X0231850Y0203022D01*
X0231739Y0203300D01*
X0231634Y0203581D01*
X0231537Y0203865D01*
X0231447Y0204150D01*
X0231363Y0204438D01*
X0231287Y0204727D01*
X0231218Y0205019D01*
X0231156Y0205312D01*
X0231101Y0205606D01*
X0231053Y0205902D01*
X0231013Y0206199D01*
X0230980Y0206497D01*
X0230954Y0206795D01*
X0230936Y0207094D01*
X0230925Y0207393D01*
X0230921Y0207693D01*
D12*
X0017403Y0179350D02*
X0017403Y0175080D01*
X0017403Y0177215D02*
X0010997Y0177215D01*
X0013132Y0175080D01*
D13*
X0121100Y0100765D02*
X0123568Y0100765D01*
X0124803Y0099530D01*
X0123568Y0098296D01*
X0121100Y0098296D01*
X0121100Y0097081D02*
X0121100Y0094613D01*
X0122951Y0094613D01*
X0122334Y0095847D01*
X0122334Y0096464D01*
X0122951Y0097081D01*
X0124186Y0097081D01*
X0124803Y0096464D01*
X0124803Y0095230D01*
X0124186Y0094613D01*
X0122951Y0093398D02*
X0122951Y0090930D01*
X0121717Y0092164D02*
X0124186Y0092164D01*
X0232100Y0092147D02*
X0232100Y0090296D01*
X0235803Y0090296D01*
X0235803Y0092147D01*
X0235186Y0092765D01*
X0232717Y0092765D01*
X0232100Y0092147D01*
X0232100Y0089081D02*
X0235803Y0089081D01*
X0232100Y0086613D01*
X0235803Y0086613D01*
X0235186Y0085398D02*
X0233951Y0085398D01*
X0233951Y0084164D01*
X0232717Y0085398D02*
X0232100Y0084781D01*
X0232100Y0083547D01*
X0232717Y0082930D01*
X0235186Y0082930D01*
X0235803Y0083547D01*
X0235803Y0084781D01*
X0235186Y0085398D01*
D14*
X0230953Y0094780D02*
X0226953Y0098780D01*
X0129953Y0099780D02*
X0125953Y0096780D01*
X0123555Y0080559D02*
X0108453Y0080559D01*
X0123555Y0080559D02*
X0123555Y0069280D01*
X0123555Y0064280D02*
X0123555Y0053000D01*
X0108453Y0053000D01*
X0096953Y0035087D02*
X0090853Y0035087D01*
X0108354Y0080580D02*
X0108017Y0081535D01*
X0107659Y0082482D01*
X0107279Y0083421D01*
X0106876Y0084350D01*
X0106452Y0085270D01*
X0106007Y0086179D01*
X0105541Y0087078D01*
X0105053Y0087966D01*
X0104545Y0088842D01*
X0104017Y0089706D01*
X0103469Y0090557D01*
X0102901Y0091396D01*
X0102313Y0092221D01*
X0101706Y0093031D01*
X0101081Y0093828D01*
X0100437Y0094609D01*
X0099775Y0095376D01*
X0099095Y0096126D01*
X0098398Y0096861D01*
X0097684Y0097579D01*
X0096953Y0098280D01*
X0096753Y0098472D02*
X0090853Y0098472D01*
X0026552Y0052979D02*
X0026889Y0052024D01*
X0027247Y0051077D01*
X0027627Y0050138D01*
X0028030Y0049209D01*
X0028454Y0048289D01*
X0028899Y0047380D01*
X0029365Y0046481D01*
X0029853Y0045593D01*
X0030361Y0044717D01*
X0030889Y0043853D01*
X0031437Y0043002D01*
X0032005Y0042163D01*
X0032593Y0041338D01*
X0033200Y0040528D01*
X0033825Y0039731D01*
X0034469Y0038950D01*
X0035131Y0038183D01*
X0035811Y0037433D01*
X0036508Y0036698D01*
X0037222Y0035980D01*
X0037953Y0035279D01*
X0038153Y0035087D02*
X0044053Y0035087D01*
X0026453Y0053000D02*
X0011350Y0053000D01*
X0011350Y0059280D01*
X0011350Y0064280D02*
X0011350Y0069280D01*
X0011350Y0074280D02*
X0011350Y0080559D01*
X0026453Y0080559D01*
X0022453Y0069280D02*
X0022453Y0064280D01*
X0019953Y0066780D02*
X0024953Y0066780D01*
X0037953Y0098472D02*
X0044053Y0098472D01*
X0015903Y0107268D02*
X0015903Y0108019D01*
X0015152Y0108770D01*
X0011399Y0108770D01*
X0011399Y0109520D02*
X0011399Y0108019D01*
X0011399Y0111122D02*
X0011399Y0113374D01*
X0012150Y0114124D01*
X0013651Y0114124D01*
X0014401Y0113374D01*
X0014401Y0111122D01*
X0015903Y0111122D02*
X0011399Y0111122D01*
X0015903Y0107268D02*
X0015152Y0106518D01*
X0015903Y0115726D02*
X0015903Y0118728D01*
X0015903Y0117227D02*
X0011399Y0117227D01*
X0012900Y0115726D01*
X0037752Y0098279D02*
X0036993Y0097546D01*
X0036251Y0096793D01*
X0035529Y0096023D01*
X0034825Y0095236D01*
X0034140Y0094431D01*
X0033476Y0093610D01*
X0032831Y0092773D01*
X0032208Y0091921D01*
X0031605Y0091054D01*
X0031023Y0090172D01*
X0030464Y0089276D01*
X0029926Y0088367D01*
X0029411Y0087445D01*
X0028918Y0086511D01*
X0028448Y0085565D01*
X0028001Y0084608D01*
X0027578Y0083640D01*
X0027179Y0082663D01*
X0026803Y0081675D01*
X0026452Y0080679D01*
X0097153Y0035280D02*
X0097912Y0036013D01*
X0098654Y0036766D01*
X0099376Y0037536D01*
X0100080Y0038323D01*
X0100765Y0039128D01*
X0101429Y0039949D01*
X0102074Y0040786D01*
X0102697Y0041638D01*
X0103300Y0042505D01*
X0103882Y0043387D01*
X0104441Y0044283D01*
X0104979Y0045192D01*
X0105494Y0046114D01*
X0105987Y0047048D01*
X0106457Y0047994D01*
X0106904Y0048951D01*
X0107327Y0049919D01*
X0107726Y0050896D01*
X0108102Y0051884D01*
X0108453Y0052880D01*
X0028083Y0066780D02*
X0028095Y0067746D01*
X0028130Y0068712D01*
X0028190Y0069676D01*
X0028273Y0070639D01*
X0028379Y0071599D01*
X0028509Y0072557D01*
X0028663Y0073511D01*
X0028839Y0074461D01*
X0029040Y0075406D01*
X0029263Y0076346D01*
X0029509Y0077280D01*
X0029778Y0078209D01*
X0030070Y0079130D01*
X0030384Y0080043D01*
X0030721Y0080949D01*
X0031080Y0081846D01*
X0031461Y0082734D01*
X0031863Y0083613D01*
X0032287Y0084481D01*
X0032732Y0085339D01*
X0033198Y0086185D01*
X0033684Y0087020D01*
X0034191Y0087843D01*
X0034718Y0088653D01*
X0035265Y0089450D01*
X0035831Y0090233D01*
X0036416Y0091002D01*
X0037020Y0091756D01*
X0037642Y0092495D01*
X0038282Y0093219D01*
X0038939Y0093927D01*
X0039614Y0094619D01*
X0040306Y0095294D01*
X0041014Y0095951D01*
X0041738Y0096591D01*
X0042477Y0097213D01*
X0043231Y0097817D01*
X0044000Y0098402D01*
X0044783Y0098968D01*
X0045580Y0099515D01*
X0046390Y0100042D01*
X0047213Y0100549D01*
X0048048Y0101035D01*
X0048894Y0101501D01*
X0049752Y0101946D01*
X0050620Y0102370D01*
X0051499Y0102772D01*
X0052387Y0103153D01*
X0053284Y0103512D01*
X0054190Y0103849D01*
X0055103Y0104163D01*
X0056024Y0104455D01*
X0056953Y0104724D01*
X0057887Y0104970D01*
X0058827Y0105193D01*
X0059772Y0105394D01*
X0060722Y0105570D01*
X0061676Y0105724D01*
X0062634Y0105854D01*
X0063594Y0105960D01*
X0064557Y0106043D01*
X0065521Y0106103D01*
X0066487Y0106138D01*
X0067453Y0106150D01*
X0068419Y0106138D01*
X0069385Y0106103D01*
X0070349Y0106043D01*
X0071312Y0105960D01*
X0072272Y0105854D01*
X0073230Y0105724D01*
X0074184Y0105570D01*
X0075134Y0105394D01*
X0076079Y0105193D01*
X0077019Y0104970D01*
X0077953Y0104724D01*
X0078882Y0104455D01*
X0079803Y0104163D01*
X0080716Y0103849D01*
X0081622Y0103512D01*
X0082519Y0103153D01*
X0083407Y0102772D01*
X0084286Y0102370D01*
X0085154Y0101946D01*
X0086012Y0101501D01*
X0086858Y0101035D01*
X0087693Y0100549D01*
X0088516Y0100042D01*
X0089326Y0099515D01*
X0090123Y0098968D01*
X0090906Y0098402D01*
X0091675Y0097817D01*
X0092429Y0097213D01*
X0093168Y0096591D01*
X0093892Y0095951D01*
X0094600Y0095294D01*
X0095292Y0094619D01*
X0095967Y0093927D01*
X0096624Y0093219D01*
X0097264Y0092495D01*
X0097886Y0091756D01*
X0098490Y0091002D01*
X0099075Y0090233D01*
X0099641Y0089450D01*
X0100188Y0088653D01*
X0100715Y0087843D01*
X0101222Y0087020D01*
X0101708Y0086185D01*
X0102174Y0085339D01*
X0102619Y0084481D01*
X0103043Y0083613D01*
X0103445Y0082734D01*
X0103826Y0081846D01*
X0104185Y0080949D01*
X0104522Y0080043D01*
X0104836Y0079130D01*
X0105128Y0078209D01*
X0105397Y0077280D01*
X0105643Y0076346D01*
X0105866Y0075406D01*
X0106067Y0074461D01*
X0106243Y0073511D01*
X0106397Y0072557D01*
X0106527Y0071599D01*
X0106633Y0070639D01*
X0106716Y0069676D01*
X0106776Y0068712D01*
X0106811Y0067746D01*
X0106823Y0066780D01*
X0106811Y0065814D01*
X0106776Y0064848D01*
X0106716Y0063884D01*
X0106633Y0062921D01*
X0106527Y0061961D01*
X0106397Y0061003D01*
X0106243Y0060049D01*
X0106067Y0059099D01*
X0105866Y0058154D01*
X0105643Y0057214D01*
X0105397Y0056280D01*
X0105128Y0055351D01*
X0104836Y0054430D01*
X0104522Y0053517D01*
X0104185Y0052611D01*
X0103826Y0051714D01*
X0103445Y0050826D01*
X0103043Y0049947D01*
X0102619Y0049079D01*
X0102174Y0048221D01*
X0101708Y0047375D01*
X0101222Y0046540D01*
X0100715Y0045717D01*
X0100188Y0044907D01*
X0099641Y0044110D01*
X0099075Y0043327D01*
X0098490Y0042558D01*
X0097886Y0041804D01*
X0097264Y0041065D01*
X0096624Y0040341D01*
X0095967Y0039633D01*
X0095292Y0038941D01*
X0094600Y0038266D01*
X0093892Y0037609D01*
X0093168Y0036969D01*
X0092429Y0036347D01*
X0091675Y0035743D01*
X0090906Y0035158D01*
X0090123Y0034592D01*
X0089326Y0034045D01*
X0088516Y0033518D01*
X0087693Y0033011D01*
X0086858Y0032525D01*
X0086012Y0032059D01*
X0085154Y0031614D01*
X0084286Y0031190D01*
X0083407Y0030788D01*
X0082519Y0030407D01*
X0081622Y0030048D01*
X0080716Y0029711D01*
X0079803Y0029397D01*
X0078882Y0029105D01*
X0077953Y0028836D01*
X0077019Y0028590D01*
X0076079Y0028367D01*
X0075134Y0028166D01*
X0074184Y0027990D01*
X0073230Y0027836D01*
X0072272Y0027706D01*
X0071312Y0027600D01*
X0070349Y0027517D01*
X0069385Y0027457D01*
X0068419Y0027422D01*
X0067453Y0027410D01*
X0066487Y0027422D01*
X0065521Y0027457D01*
X0064557Y0027517D01*
X0063594Y0027600D01*
X0062634Y0027706D01*
X0061676Y0027836D01*
X0060722Y0027990D01*
X0059772Y0028166D01*
X0058827Y0028367D01*
X0057887Y0028590D01*
X0056953Y0028836D01*
X0056024Y0029105D01*
X0055103Y0029397D01*
X0054190Y0029711D01*
X0053284Y0030048D01*
X0052387Y0030407D01*
X0051499Y0030788D01*
X0050620Y0031190D01*
X0049752Y0031614D01*
X0048894Y0032059D01*
X0048048Y0032525D01*
X0047213Y0033011D01*
X0046390Y0033518D01*
X0045580Y0034045D01*
X0044783Y0034592D01*
X0044000Y0035158D01*
X0043231Y0035743D01*
X0042477Y0036347D01*
X0041738Y0036969D01*
X0041014Y0037609D01*
X0040306Y0038266D01*
X0039614Y0038941D01*
X0038939Y0039633D01*
X0038282Y0040341D01*
X0037642Y0041065D01*
X0037020Y0041804D01*
X0036416Y0042558D01*
X0035831Y0043327D01*
X0035265Y0044110D01*
X0034718Y0044907D01*
X0034191Y0045717D01*
X0033684Y0046540D01*
X0033198Y0047375D01*
X0032732Y0048221D01*
X0032287Y0049079D01*
X0031863Y0049947D01*
X0031461Y0050826D01*
X0031080Y0051714D01*
X0030721Y0052611D01*
X0030384Y0053517D01*
X0030070Y0054430D01*
X0029778Y0055351D01*
X0029509Y0056280D01*
X0029263Y0057214D01*
X0029040Y0058154D01*
X0028839Y0059099D01*
X0028663Y0060049D01*
X0028509Y0061003D01*
X0028379Y0061961D01*
X0028273Y0062921D01*
X0028190Y0063884D01*
X0028130Y0064848D01*
X0028095Y0065814D01*
X0028083Y0066780D01*
X0076999Y0188731D02*
X0076999Y0190232D01*
X0076999Y0189481D02*
X0080752Y0189481D01*
X0081503Y0188731D01*
X0081503Y0187980D01*
X0080752Y0187230D01*
X0080001Y0191833D02*
X0080001Y0194085D01*
X0079251Y0194836D01*
X0077750Y0194836D01*
X0076999Y0194085D01*
X0076999Y0191833D01*
X0081503Y0191833D01*
X0080752Y0196437D02*
X0081503Y0197188D01*
X0081503Y0198689D01*
X0080752Y0199440D01*
X0080001Y0199440D01*
X0079251Y0198689D01*
X0079251Y0197939D01*
X0079251Y0198689D02*
X0078500Y0199440D01*
X0077750Y0199440D01*
X0076999Y0198689D01*
X0076999Y0197188D01*
X0077750Y0196437D01*
X0206999Y0198689D02*
X0209251Y0196437D01*
X0209251Y0199440D01*
X0211503Y0198689D02*
X0206999Y0198689D01*
X0207750Y0194836D02*
X0209251Y0194836D01*
X0210001Y0194085D01*
X0210001Y0191833D01*
X0211503Y0191833D02*
X0206999Y0191833D01*
X0206999Y0194085D01*
X0207750Y0194836D01*
X0206999Y0190232D02*
X0206999Y0188731D01*
X0206999Y0189481D02*
X0210752Y0189481D01*
X0211503Y0188731D01*
X0211503Y0187980D01*
X0210752Y0187230D01*
D15*
X0213953Y0187280D02*
X0213953Y0197280D01*
X0223953Y0197280D01*
X0223953Y0207280D02*
X0223953Y0187280D01*
X0213953Y0187280D01*
X0213953Y0197280D02*
X0213953Y0207280D01*
X0223953Y0207280D01*
X0093953Y0207280D02*
X0093953Y0187280D01*
X0083953Y0187280D01*
X0083953Y0197280D01*
X0093953Y0197280D01*
X0083953Y0197280D02*
X0083953Y0207280D01*
X0093953Y0207280D01*
X0018953Y0172280D02*
X0018953Y0162280D01*
X0008953Y0162280D01*
X0018953Y0162280D02*
X0018953Y0122280D01*
X0008953Y0122280D01*
X0008953Y0172280D01*
X0018953Y0172280D01*
D16*
X0030429Y0184287D02*
X0030429Y0110272D01*
X0228825Y0110272D01*
X0228825Y0184287D01*
X0030429Y0184287D01*
D17*
X0035088Y0205747D03*
X0044424Y0205747D03*
X0044424Y0205964D03*
X0044424Y0206181D03*
X0044424Y0206398D03*
X0044424Y0206543D03*
X0044424Y0206760D03*
X0044424Y0206977D03*
X0044424Y0207194D03*
X0044424Y0207411D03*
X0044424Y0207628D03*
X0044424Y0207773D03*
X0044424Y0207990D03*
X0044424Y0208207D03*
X0044424Y0208424D03*
X0044424Y0208642D03*
X0044424Y0208859D03*
X0044424Y0209003D03*
X0044424Y0209221D03*
X0044424Y0210089D03*
X0044424Y0210234D03*
X0044424Y0210451D03*
X0044424Y0210668D03*
X0044424Y0210885D03*
X0044424Y0211102D03*
X0044424Y0211319D03*
X0044424Y0211464D03*
X0044424Y0211681D03*
X0044424Y0211898D03*
X0044424Y0212115D03*
X0044424Y0212333D03*
X0044424Y0212550D03*
X0044424Y0212694D03*
X0044424Y0212912D03*
X0044424Y0213129D03*
X0044424Y0213346D03*
X0049852Y0209655D03*
X0049707Y0209438D03*
X0049707Y0207411D03*
X0054339Y0209438D03*
X0059549Y0209438D03*
X0059549Y0207411D03*
X0062517Y0209221D03*
X0064543Y0209872D03*
X0064905Y0209003D03*
X0064977Y0208859D03*
X0065267Y0208207D03*
X0065339Y0207990D03*
X0065773Y0206977D03*
X0066280Y0205747D03*
X0066207Y0205530D03*
X0066135Y0205313D03*
X0066063Y0205168D03*
X0065846Y0204734D03*
X0065773Y0204516D03*
X0065701Y0204299D03*
X0065411Y0203720D03*
X0065339Y0203503D03*
X0065267Y0203286D03*
X0067365Y0208207D03*
X0067727Y0209003D03*
X0067800Y0209221D03*
X0068161Y0210089D03*
X0068234Y0210234D03*
D18*
X0068234Y0210161D03*
X0068161Y0209944D03*
X0067872Y0209293D03*
X0067800Y0209148D03*
X0067438Y0208352D03*
X0067438Y0208280D03*
X0067076Y0207484D03*
X0067004Y0207339D03*
X0066931Y0207122D03*
X0065701Y0207122D03*
X0066280Y0205602D03*
X0066207Y0205457D03*
X0066063Y0205240D03*
X0065846Y0204661D03*
X0065846Y0204589D03*
X0065701Y0204372D03*
X0065411Y0203648D03*
X0065339Y0203431D03*
X0065267Y0203359D03*
X0069826Y0206688D03*
X0064543Y0209944D03*
X0059622Y0209293D03*
X0059549Y0207339D03*
X0055062Y0207122D03*
X0054266Y0209582D03*
X0049779Y0209582D03*
X0049779Y0209510D03*
X0049707Y0207339D03*
X0044424Y0207339D03*
X0044424Y0207484D03*
X0044424Y0207701D03*
X0044424Y0207918D03*
X0044424Y0208063D03*
X0044424Y0208280D03*
X0044424Y0208352D03*
X0044424Y0208569D03*
X0044424Y0208714D03*
X0044424Y0208931D03*
X0044424Y0209148D03*
X0044424Y0209293D03*
X0044424Y0210161D03*
X0044424Y0210379D03*
X0044424Y0210523D03*
X0044424Y0210740D03*
X0044424Y0210813D03*
X0044424Y0211030D03*
X0044424Y0211175D03*
X0044424Y0211392D03*
X0044424Y0211609D03*
X0044424Y0211754D03*
X0044424Y0211971D03*
X0044424Y0212043D03*
X0044424Y0212260D03*
X0044424Y0212405D03*
X0044424Y0212622D03*
X0044424Y0212839D03*
X0044424Y0212984D03*
X0044424Y0213201D03*
X0044424Y0213273D03*
X0044424Y0213491D03*
X0041529Y0211754D03*
X0040298Y0211392D03*
X0041529Y0208352D03*
X0044424Y0207122D03*
X0044424Y0207049D03*
X0044424Y0206832D03*
X0044424Y0206688D03*
X0044424Y0206470D03*
X0044424Y0206253D03*
X0044424Y0206109D03*
X0044424Y0205891D03*
X0044424Y0205819D03*
D19*
X0044424Y0205674D03*
X0044424Y0206036D03*
X0044424Y0206326D03*
X0044424Y0206615D03*
X0044424Y0206905D03*
X0044424Y0207267D03*
X0044424Y0207556D03*
X0044424Y0207846D03*
X0044424Y0208135D03*
X0044424Y0208497D03*
X0044424Y0208786D03*
X0044424Y0209076D03*
X0044424Y0210306D03*
X0044424Y0210596D03*
X0044424Y0210957D03*
X0044424Y0211247D03*
X0044424Y0211536D03*
X0044424Y0211826D03*
X0044424Y0212188D03*
X0044424Y0212477D03*
X0044424Y0212767D03*
X0044424Y0213056D03*
X0044424Y0213418D03*
X0049779Y0207267D03*
X0059622Y0207556D03*
X0064615Y0209727D03*
X0064905Y0209076D03*
X0065267Y0208135D03*
X0065411Y0207846D03*
X0067004Y0207267D03*
X0067365Y0208135D03*
X0067872Y0209365D03*
X0068161Y0210017D03*
X0068306Y0210306D03*
X0069826Y0206615D03*
X0066280Y0205674D03*
X0066135Y0205385D03*
X0066063Y0205095D03*
X0065773Y0204444D03*
X0065411Y0203576D03*
X0035088Y0205674D03*
D20*
X0035160Y0205891D03*
X0049634Y0209293D03*
X0054411Y0209293D03*
X0054483Y0209148D03*
X0054845Y0207484D03*
X0054918Y0207339D03*
X0059477Y0209510D03*
X0059477Y0209582D03*
X0063095Y0210161D03*
X0064688Y0209582D03*
X0065049Y0208714D03*
X0065194Y0208352D03*
X0065556Y0207484D03*
X0065629Y0207339D03*
X0065990Y0205023D03*
X0065918Y0204878D03*
X0065629Y0204227D03*
X0065556Y0204010D03*
X0065484Y0203793D03*
X0067582Y0208714D03*
X0067944Y0209510D03*
X0067944Y0209582D03*
X0068089Y0209800D03*
D21*
X0068017Y0209727D03*
X0067655Y0208786D03*
X0067510Y0208497D03*
X0067221Y0207846D03*
X0065629Y0207267D03*
X0065122Y0208497D03*
X0064760Y0209365D03*
X0065918Y0204806D03*
X0065629Y0204155D03*
X0065484Y0203865D03*
X0059477Y0207267D03*
X0054990Y0207267D03*
X0054411Y0209365D03*
D22*
X0054918Y0207411D03*
X0052023Y0205530D03*
X0059405Y0209655D03*
X0064832Y0209221D03*
X0065484Y0207628D03*
X0066859Y0206977D03*
X0067148Y0207628D03*
X0067221Y0207773D03*
X0067293Y0207990D03*
X0067582Y0208642D03*
X0067655Y0208859D03*
X0068017Y0209655D03*
X0068089Y0209872D03*
X0065990Y0204951D03*
X0065629Y0204082D03*
X0065556Y0203937D03*
X0040516Y0211464D03*
X0034364Y0207411D03*
X0035160Y0205964D03*
D23*
X0037946Y0205530D03*
X0037946Y0213563D03*
D24*
X0039466Y0211102D03*
X0035703Y0207411D03*
X0057197Y0205530D03*
D25*
X0037946Y0205602D03*
X0037946Y0213635D03*
D26*
X0050720Y0210379D03*
X0053398Y0210379D03*
X0052095Y0205602D03*
X0070333Y0206109D03*
D27*
X0066316Y0206470D03*
X0058572Y0210379D03*
X0057197Y0205602D03*
D28*
X0033930Y0205674D03*
X0033930Y0206036D03*
X0033930Y0206326D03*
X0033930Y0206615D03*
X0033930Y0206905D03*
X0033930Y0207846D03*
X0033930Y0208135D03*
X0033930Y0208497D03*
X0033930Y0208786D03*
X0033930Y0209076D03*
X0033930Y0209365D03*
X0033930Y0209727D03*
X0033930Y0210017D03*
X0033930Y0210306D03*
X0033930Y0210596D03*
X0033930Y0210957D03*
X0033930Y0211247D03*
X0033930Y0211536D03*
X0033930Y0211826D03*
X0033930Y0212188D03*
X0033930Y0212477D03*
X0033930Y0212767D03*
X0033930Y0213056D03*
X0033930Y0213418D03*
D29*
X0041963Y0213418D03*
X0041963Y0213056D03*
X0041963Y0212767D03*
X0041963Y0212477D03*
X0041963Y0212188D03*
X0041963Y0211536D03*
X0041963Y0211247D03*
X0041963Y0210957D03*
X0041963Y0210596D03*
X0041963Y0210306D03*
X0041963Y0210017D03*
X0041963Y0208135D03*
X0041963Y0207846D03*
X0041963Y0207556D03*
X0041963Y0207267D03*
X0041963Y0206905D03*
X0041963Y0206615D03*
X0041963Y0206326D03*
X0041963Y0206036D03*
X0041963Y0205674D03*
X0053543Y0206905D03*
X0055786Y0210017D03*
D30*
X0058753Y0210306D03*
X0050503Y0210306D03*
X0047246Y0207556D03*
X0046957Y0207846D03*
X0047825Y0206905D03*
X0048042Y0206615D03*
X0048549Y0206036D03*
X0048911Y0205674D03*
D31*
X0052023Y0205674D03*
D32*
X0057197Y0205674D03*
X0044966Y0209727D03*
D33*
X0061938Y0205674D03*
D34*
X0070586Y0205674D03*
X0053940Y0210017D03*
X0047644Y0212188D03*
X0047282Y0211826D03*
X0046993Y0211536D03*
X0046124Y0210596D03*
X0045835Y0210306D03*
X0040841Y0211536D03*
D35*
X0033930Y0211464D03*
X0033930Y0211319D03*
X0033930Y0211102D03*
X0033930Y0210885D03*
X0033930Y0210668D03*
X0033930Y0210451D03*
X0033930Y0210234D03*
X0033930Y0210089D03*
X0033930Y0209872D03*
X0033930Y0209655D03*
X0033930Y0209438D03*
X0033930Y0209221D03*
X0033930Y0209003D03*
X0033930Y0208859D03*
X0033930Y0208642D03*
X0033930Y0208424D03*
X0033930Y0208207D03*
X0033930Y0207990D03*
X0033930Y0207773D03*
X0033930Y0207628D03*
X0033930Y0206760D03*
X0033930Y0206543D03*
X0033930Y0206398D03*
X0033930Y0206181D03*
X0033930Y0205964D03*
X0033930Y0205747D03*
X0033930Y0211681D03*
X0033930Y0211898D03*
X0033930Y0212115D03*
X0033930Y0212333D03*
X0033930Y0212550D03*
X0033930Y0212694D03*
X0033930Y0212912D03*
X0033930Y0213129D03*
X0033930Y0213346D03*
D36*
X0041963Y0213346D03*
X0041963Y0213129D03*
X0041963Y0212912D03*
X0041963Y0212694D03*
X0041963Y0212550D03*
X0041963Y0212333D03*
X0041963Y0212115D03*
X0041963Y0211898D03*
X0041963Y0211464D03*
X0041963Y0211319D03*
X0041963Y0211102D03*
X0041963Y0210885D03*
X0041963Y0210668D03*
X0041963Y0210451D03*
X0041963Y0210234D03*
X0041963Y0210089D03*
X0041963Y0209872D03*
X0041963Y0207990D03*
X0041963Y0207773D03*
X0041963Y0207628D03*
X0041963Y0207411D03*
X0041963Y0207194D03*
X0041963Y0206977D03*
X0041963Y0206760D03*
X0041963Y0206543D03*
X0041963Y0206398D03*
X0041963Y0206181D03*
X0041963Y0205964D03*
X0041963Y0205747D03*
D37*
X0041312Y0208424D03*
X0045944Y0209003D03*
X0046667Y0208207D03*
X0047029Y0207773D03*
X0047174Y0207628D03*
X0047536Y0207194D03*
X0047897Y0206760D03*
X0048259Y0206398D03*
X0048838Y0205747D03*
X0050431Y0206543D03*
X0055641Y0206543D03*
X0066280Y0206181D03*
D38*
X0051950Y0205747D03*
X0052023Y0211102D03*
X0045075Y0209438D03*
D39*
X0057233Y0205747D03*
D40*
X0061974Y0205747D03*
D41*
X0058862Y0210234D03*
X0053651Y0210234D03*
X0050394Y0210234D03*
X0046269Y0208642D03*
X0045762Y0209221D03*
X0070514Y0205747D03*
D42*
X0055714Y0209944D03*
X0033930Y0209944D03*
X0033930Y0209800D03*
X0033930Y0209582D03*
X0033930Y0209510D03*
X0033930Y0209293D03*
X0033930Y0209148D03*
X0033930Y0208931D03*
X0033930Y0208714D03*
X0033930Y0208569D03*
X0033930Y0208352D03*
X0033930Y0208280D03*
X0033930Y0208063D03*
X0033930Y0207918D03*
X0033930Y0207701D03*
X0033930Y0206832D03*
X0033930Y0206688D03*
X0033930Y0206470D03*
X0033930Y0206253D03*
X0033930Y0206109D03*
X0033930Y0205891D03*
X0033930Y0205819D03*
X0033930Y0210161D03*
X0033930Y0210379D03*
X0033930Y0210523D03*
X0033930Y0210740D03*
X0033930Y0210813D03*
X0033930Y0211030D03*
X0033930Y0211175D03*
X0033930Y0211392D03*
X0033930Y0211609D03*
X0033930Y0211754D03*
X0033930Y0211971D03*
X0033930Y0212043D03*
X0033930Y0212260D03*
X0033930Y0212405D03*
X0033930Y0212622D03*
X0033930Y0212839D03*
X0033930Y0212984D03*
X0033930Y0213201D03*
X0033930Y0213273D03*
X0033930Y0213491D03*
D43*
X0035341Y0206470D03*
X0035124Y0205819D03*
X0049670Y0207484D03*
X0054664Y0208063D03*
X0054737Y0207701D03*
X0054592Y0208714D03*
X0059658Y0209148D03*
X0059730Y0208931D03*
X0059730Y0207918D03*
X0059658Y0207701D03*
X0059585Y0207484D03*
X0066895Y0207049D03*
X0067329Y0208063D03*
X0067691Y0208931D03*
X0069790Y0208931D03*
X0069790Y0208714D03*
X0069790Y0208569D03*
X0069790Y0208352D03*
X0069790Y0208280D03*
X0069790Y0208063D03*
X0069790Y0207918D03*
X0069790Y0207701D03*
X0069790Y0207484D03*
X0069790Y0207339D03*
X0069790Y0207122D03*
X0069790Y0207049D03*
X0069790Y0206832D03*
X0069790Y0209148D03*
X0069790Y0209293D03*
X0069790Y0209510D03*
X0069790Y0209582D03*
X0069790Y0209800D03*
X0069790Y0209944D03*
X0069790Y0210161D03*
X0069790Y0211392D03*
X0069790Y0211609D03*
X0069790Y0211754D03*
X0069790Y0211971D03*
X0069790Y0212043D03*
X0069790Y0212260D03*
X0069790Y0212405D03*
X0069790Y0212622D03*
X0069790Y0212839D03*
X0069790Y0212984D03*
X0069790Y0213201D03*
X0069790Y0213273D03*
X0069790Y0213491D03*
D44*
X0064615Y0210740D03*
X0053470Y0206832D03*
X0041963Y0206832D03*
X0041963Y0206688D03*
X0041963Y0206470D03*
X0041963Y0206253D03*
X0041963Y0206109D03*
X0041963Y0205891D03*
X0041963Y0205819D03*
X0041963Y0207049D03*
X0041963Y0207122D03*
X0041963Y0207339D03*
X0041963Y0207484D03*
X0041963Y0207701D03*
X0041963Y0207918D03*
X0041963Y0208063D03*
X0041963Y0209800D03*
X0041963Y0209944D03*
X0041963Y0210161D03*
X0041963Y0210379D03*
X0041963Y0210523D03*
X0041963Y0210740D03*
X0041963Y0210813D03*
X0041963Y0211030D03*
X0041963Y0211175D03*
X0041963Y0211392D03*
X0041963Y0211971D03*
X0041963Y0212043D03*
X0041963Y0212260D03*
X0041963Y0212405D03*
X0041963Y0212622D03*
X0041963Y0212839D03*
X0041963Y0212984D03*
X0041963Y0213201D03*
X0041963Y0213273D03*
X0041963Y0213491D03*
D45*
X0046595Y0208280D03*
X0047101Y0207701D03*
X0047897Y0206832D03*
X0047970Y0206688D03*
X0048404Y0206253D03*
X0048694Y0205891D03*
X0048766Y0205819D03*
X0066280Y0206253D03*
D46*
X0051914Y0205819D03*
D47*
X0057233Y0205819D03*
D48*
X0062010Y0205819D03*
X0062010Y0205891D03*
X0062155Y0211175D03*
D49*
X0066280Y0205891D03*
X0066280Y0205819D03*
X0055279Y0206832D03*
X0054121Y0209800D03*
X0053977Y0209944D03*
X0050069Y0209944D03*
X0050069Y0206832D03*
X0034436Y0207484D03*
D50*
X0070441Y0205819D03*
D51*
X0051842Y0205891D03*
D52*
X0057233Y0205891D03*
X0069681Y0211175D03*
D53*
X0070405Y0205891D03*
X0058681Y0206470D03*
X0055786Y0206470D03*
X0050575Y0206470D03*
D54*
X0048621Y0205964D03*
X0048115Y0206543D03*
X0047753Y0206977D03*
X0046450Y0208424D03*
D55*
X0051806Y0205964D03*
D56*
X0051697Y0206181D03*
X0057197Y0205964D03*
X0069573Y0210668D03*
D57*
X0062119Y0211102D03*
X0062046Y0205964D03*
D58*
X0066280Y0205964D03*
X0059043Y0210089D03*
X0056510Y0210451D03*
X0053832Y0210089D03*
X0048766Y0213346D03*
X0048332Y0212912D03*
X0047970Y0212550D03*
X0046956Y0211464D03*
X0046812Y0211319D03*
X0046595Y0211102D03*
X0041384Y0211681D03*
D59*
X0070369Y0205964D03*
D60*
X0054519Y0209076D03*
X0049526Y0207846D03*
X0049598Y0207556D03*
X0035269Y0206326D03*
X0035196Y0206036D03*
D61*
X0051769Y0206036D03*
D62*
X0057233Y0206036D03*
D63*
X0062046Y0206036D03*
D64*
X0066280Y0206036D03*
X0050358Y0206615D03*
X0046450Y0210957D03*
X0046740Y0211247D03*
X0047897Y0212477D03*
X0048187Y0212767D03*
X0048477Y0213056D03*
X0048838Y0213418D03*
X0034509Y0207556D03*
D65*
X0070333Y0206036D03*
D66*
X0067184Y0207701D03*
X0067257Y0207918D03*
X0067546Y0208569D03*
X0054519Y0208931D03*
X0049598Y0209148D03*
X0049526Y0208931D03*
X0049526Y0207918D03*
X0049598Y0207701D03*
X0035269Y0206253D03*
X0035196Y0206109D03*
D67*
X0041276Y0211609D03*
X0048513Y0206109D03*
D68*
X0051697Y0206109D03*
D69*
X0057197Y0206109D03*
X0061901Y0210379D03*
X0040190Y0209510D03*
D70*
X0057233Y0206253D03*
X0062082Y0206109D03*
D71*
X0066316Y0206109D03*
X0050322Y0210161D03*
X0047427Y0207339D03*
X0046776Y0208063D03*
X0046342Y0208569D03*
X0046197Y0208714D03*
X0045835Y0209148D03*
D72*
X0049526Y0209003D03*
X0049598Y0209221D03*
X0049526Y0207773D03*
X0049598Y0207628D03*
X0054447Y0209221D03*
X0054519Y0209003D03*
X0035269Y0206398D03*
X0035196Y0206181D03*
D73*
X0048440Y0206181D03*
X0058789Y0206543D03*
D74*
X0057233Y0206181D03*
X0062010Y0210668D03*
D75*
X0062119Y0206181D03*
X0040045Y0209438D03*
D76*
X0070296Y0206181D03*
D77*
X0069464Y0210379D03*
X0069537Y0210523D03*
X0051661Y0206253D03*
D78*
X0062119Y0206253D03*
X0062046Y0210813D03*
D79*
X0070296Y0206253D03*
D80*
X0048332Y0206326D03*
X0047463Y0207267D03*
D81*
X0051661Y0206326D03*
D82*
X0057233Y0206326D03*
D83*
X0062155Y0206326D03*
D84*
X0066280Y0206326D03*
D85*
X0070296Y0206326D03*
D86*
X0050792Y0206398D03*
D87*
X0049960Y0206977D03*
X0052855Y0206398D03*
X0055026Y0207194D03*
X0055171Y0206977D03*
X0059296Y0206977D03*
X0059441Y0207194D03*
X0061033Y0206760D03*
X0061395Y0207411D03*
X0061540Y0207628D03*
X0061756Y0207990D03*
X0061901Y0208207D03*
X0062191Y0208642D03*
X0062263Y0208859D03*
X0062408Y0209003D03*
X0062625Y0209438D03*
X0062770Y0209655D03*
X0063059Y0210089D03*
X0063132Y0210234D03*
X0064651Y0209655D03*
X0064724Y0209438D03*
X0065086Y0208642D03*
X0065158Y0208424D03*
X0065447Y0207773D03*
X0065592Y0207411D03*
X0065665Y0207194D03*
D88*
X0066316Y0206760D03*
X0056039Y0206398D03*
X0035992Y0208207D03*
D89*
X0058428Y0206398D03*
D90*
X0062191Y0206398D03*
X0052059Y0210668D03*
D91*
X0066280Y0206398D03*
D92*
X0070260Y0206398D03*
D93*
X0048187Y0206470D03*
X0047680Y0207049D03*
X0047608Y0207122D03*
X0047319Y0207484D03*
X0046522Y0208352D03*
X0046016Y0208931D03*
D94*
X0053072Y0206470D03*
X0038236Y0210379D03*
X0037946Y0210161D03*
D95*
X0059187Y0209944D03*
X0060852Y0206470D03*
D96*
X0070260Y0206470D03*
X0035450Y0207918D03*
D97*
X0035413Y0206760D03*
X0035341Y0206543D03*
X0040045Y0211319D03*
X0054592Y0208859D03*
X0054664Y0207990D03*
X0054737Y0207773D03*
X0054809Y0207628D03*
X0059658Y0207628D03*
X0059730Y0207773D03*
X0059730Y0209003D03*
X0059658Y0209221D03*
X0066967Y0207194D03*
X0067040Y0207411D03*
X0067474Y0208424D03*
X0067908Y0209438D03*
X0069790Y0209438D03*
X0069790Y0209655D03*
X0069790Y0209872D03*
X0069790Y0210089D03*
X0069790Y0210234D03*
X0069790Y0209221D03*
X0069790Y0209003D03*
X0069790Y0208859D03*
X0069790Y0208642D03*
X0069790Y0208424D03*
X0069790Y0208207D03*
X0069790Y0207990D03*
X0069790Y0207773D03*
X0069790Y0207628D03*
X0069790Y0207411D03*
X0069790Y0207194D03*
X0069790Y0206977D03*
X0069790Y0206760D03*
X0069790Y0211319D03*
X0069790Y0211464D03*
X0069790Y0211681D03*
X0069790Y0211898D03*
X0069790Y0212115D03*
X0069790Y0212333D03*
X0069790Y0212550D03*
X0069790Y0212694D03*
X0069790Y0212912D03*
X0069790Y0213129D03*
X0069790Y0213346D03*
X0069790Y0213563D03*
D98*
X0053217Y0206543D03*
D99*
X0049815Y0207194D03*
X0054230Y0209655D03*
X0060888Y0206543D03*
X0061250Y0207194D03*
X0061612Y0207773D03*
X0062046Y0208424D03*
X0062915Y0209872D03*
D100*
X0066280Y0206543D03*
X0035522Y0207990D03*
D101*
X0034690Y0207628D03*
X0045618Y0210089D03*
X0045762Y0210234D03*
X0045980Y0210451D03*
X0046197Y0210668D03*
X0046414Y0210885D03*
X0047138Y0211681D03*
X0047355Y0211898D03*
X0047572Y0212115D03*
X0047789Y0212333D03*
X0050249Y0210089D03*
X0055388Y0206760D03*
X0059079Y0206760D03*
X0069934Y0206543D03*
D102*
X0069790Y0206905D03*
X0069790Y0207267D03*
X0069790Y0207556D03*
X0069790Y0207846D03*
X0069790Y0208135D03*
X0069790Y0208497D03*
X0069790Y0208786D03*
X0069790Y0209076D03*
X0069790Y0209365D03*
X0069790Y0209727D03*
X0069790Y0210017D03*
X0069790Y0210306D03*
X0069790Y0211247D03*
X0069790Y0211536D03*
X0069790Y0211826D03*
X0069790Y0212188D03*
X0069790Y0212477D03*
X0069790Y0212767D03*
X0069790Y0213056D03*
X0069790Y0213418D03*
X0067763Y0209076D03*
X0067112Y0207556D03*
X0064579Y0210017D03*
X0059585Y0209365D03*
X0059730Y0207846D03*
X0054809Y0207556D03*
X0054737Y0207846D03*
X0054664Y0208135D03*
X0054592Y0208786D03*
X0049670Y0209365D03*
X0035486Y0206905D03*
X0035341Y0206615D03*
D103*
X0053253Y0206615D03*
D104*
X0055533Y0206615D03*
X0046124Y0208786D03*
D105*
X0045907Y0209076D03*
X0046414Y0208497D03*
X0046703Y0208135D03*
X0052059Y0211247D03*
X0058862Y0206615D03*
D106*
X0059224Y0206905D03*
X0060888Y0206615D03*
X0061322Y0207267D03*
X0061684Y0207846D03*
X0062046Y0208497D03*
X0062842Y0209727D03*
D107*
X0066316Y0206615D03*
D108*
X0059767Y0208063D03*
X0059767Y0208280D03*
X0059767Y0208352D03*
X0059767Y0208569D03*
X0059767Y0208714D03*
X0054700Y0207918D03*
X0054628Y0208280D03*
X0054628Y0208352D03*
X0054628Y0208569D03*
X0049490Y0208569D03*
X0049490Y0208714D03*
X0049490Y0208352D03*
X0049490Y0208280D03*
X0049490Y0208063D03*
X0039647Y0211175D03*
X0035739Y0207484D03*
X0035667Y0207339D03*
X0035522Y0207049D03*
X0035450Y0206832D03*
X0035377Y0206688D03*
X0034292Y0207339D03*
D109*
X0045690Y0210161D03*
X0045907Y0210379D03*
X0046052Y0210523D03*
X0046269Y0210740D03*
X0046342Y0210813D03*
X0047065Y0211609D03*
X0047210Y0211754D03*
X0047427Y0211971D03*
X0047499Y0212043D03*
X0050249Y0206688D03*
X0055460Y0206688D03*
X0059151Y0206832D03*
D110*
X0053362Y0206688D03*
X0034038Y0207049D03*
D111*
X0046522Y0211030D03*
X0046667Y0211175D03*
X0047825Y0212405D03*
X0048042Y0212622D03*
X0048259Y0212839D03*
X0048404Y0212984D03*
X0048621Y0213201D03*
X0048694Y0213273D03*
X0048911Y0213491D03*
X0053760Y0210161D03*
X0058970Y0210161D03*
X0058970Y0206688D03*
D112*
X0059296Y0207049D03*
X0059368Y0207122D03*
X0060960Y0206688D03*
X0061033Y0206832D03*
X0061395Y0207339D03*
X0061467Y0207484D03*
X0061829Y0208063D03*
X0061974Y0208280D03*
X0061974Y0208352D03*
X0062191Y0208714D03*
X0062336Y0208931D03*
X0062553Y0209293D03*
X0062697Y0209510D03*
X0062770Y0209582D03*
X0062987Y0209944D03*
X0064724Y0209510D03*
X0064796Y0209293D03*
X0064869Y0209148D03*
X0065086Y0208569D03*
X0065231Y0208280D03*
X0065447Y0207701D03*
X0059296Y0209800D03*
X0049960Y0209800D03*
X0049888Y0207122D03*
X0049888Y0207049D03*
D113*
X0066280Y0206688D03*
D114*
X0050177Y0206760D03*
D115*
X0053434Y0206760D03*
D116*
X0057161Y0211175D03*
X0066280Y0206832D03*
X0044930Y0209800D03*
X0035232Y0207701D03*
D117*
X0049888Y0209727D03*
X0050032Y0206905D03*
X0054158Y0209727D03*
X0055243Y0206905D03*
X0059368Y0209727D03*
X0061829Y0208135D03*
X0061467Y0207556D03*
X0061105Y0206905D03*
X0062263Y0208786D03*
X0062408Y0209076D03*
X0062625Y0209365D03*
X0062987Y0210017D03*
X0063204Y0210306D03*
X0065013Y0208786D03*
X0065520Y0207556D03*
D118*
X0066280Y0206905D03*
D119*
X0064651Y0210668D03*
X0033966Y0206977D03*
D120*
X0035522Y0206977D03*
X0035811Y0207628D03*
X0049490Y0207990D03*
X0049490Y0208207D03*
X0049490Y0208424D03*
X0049490Y0208642D03*
X0049490Y0208859D03*
X0054628Y0208642D03*
X0054628Y0208424D03*
X0054628Y0208207D03*
X0059767Y0208207D03*
X0059767Y0207990D03*
X0059767Y0208424D03*
X0059767Y0208642D03*
X0059767Y0208859D03*
X0064543Y0210089D03*
D121*
X0061142Y0206977D03*
X0059260Y0209872D03*
X0054049Y0209872D03*
X0049996Y0209872D03*
D122*
X0054302Y0209510D03*
X0055098Y0207049D03*
X0061178Y0207049D03*
X0061250Y0207122D03*
X0061612Y0207701D03*
X0061684Y0207918D03*
X0062119Y0208569D03*
X0062480Y0209148D03*
X0062842Y0209800D03*
X0064579Y0209800D03*
X0064941Y0208931D03*
X0065303Y0208063D03*
X0065375Y0207918D03*
X0065737Y0207049D03*
D123*
X0064615Y0210523D03*
X0055931Y0210161D03*
X0034075Y0207122D03*
D124*
X0035594Y0207122D03*
D125*
X0034147Y0207194D03*
D126*
X0035594Y0207194D03*
D127*
X0034219Y0207267D03*
X0037042Y0209365D03*
X0037404Y0209727D03*
X0037765Y0210017D03*
X0038127Y0210306D03*
X0038561Y0210596D03*
D128*
X0039177Y0210957D03*
X0035775Y0207556D03*
X0035630Y0207267D03*
D129*
X0046052Y0208859D03*
X0046848Y0207990D03*
X0047355Y0207411D03*
D130*
X0035305Y0207773D03*
D131*
X0035377Y0207846D03*
X0035811Y0208135D03*
D132*
X0045690Y0209293D03*
X0046920Y0207918D03*
D133*
X0035594Y0208063D03*
D134*
X0039864Y0211247D03*
X0049490Y0208786D03*
X0049490Y0208497D03*
X0049490Y0208135D03*
X0054628Y0208497D03*
X0059694Y0209076D03*
X0059767Y0208786D03*
X0059767Y0208497D03*
X0059767Y0208135D03*
D135*
X0057233Y0211319D03*
X0041891Y0208207D03*
D136*
X0045003Y0209582D03*
X0045003Y0209944D03*
X0036173Y0208280D03*
D137*
X0041746Y0208280D03*
D138*
X0036463Y0208352D03*
X0057306Y0211030D03*
D139*
X0057414Y0210885D03*
X0036788Y0208424D03*
D140*
X0037404Y0208497D03*
D141*
X0040733Y0208497D03*
D142*
X0038851Y0208569D03*
D143*
X0038923Y0208642D03*
D144*
X0038996Y0208714D03*
D145*
X0039068Y0208786D03*
D146*
X0039141Y0208859D03*
D147*
X0039177Y0208931D03*
D148*
X0039177Y0209003D03*
D149*
X0039213Y0209076D03*
D150*
X0049562Y0209076D03*
D151*
X0039249Y0209148D03*
D152*
X0039285Y0209221D03*
D153*
X0038417Y0210523D03*
X0038779Y0210740D03*
X0037476Y0209800D03*
X0037187Y0209510D03*
X0036969Y0209293D03*
D154*
X0039792Y0209293D03*
D155*
X0039900Y0209365D03*
D156*
X0040841Y0209727D03*
X0045111Y0209365D03*
D157*
X0038996Y0210885D03*
X0038634Y0210668D03*
X0038344Y0210451D03*
X0037838Y0210089D03*
X0037331Y0209655D03*
X0037114Y0209438D03*
D158*
X0045039Y0209510D03*
D159*
X0037259Y0209582D03*
D160*
X0040335Y0209582D03*
D161*
X0040552Y0209655D03*
D162*
X0045003Y0209655D03*
D163*
X0037585Y0209872D03*
X0064579Y0210234D03*
D164*
X0058283Y0210451D03*
X0044966Y0209872D03*
D165*
X0052059Y0211319D03*
X0055677Y0209872D03*
D166*
X0037657Y0209944D03*
D167*
X0045039Y0210017D03*
D168*
X0050141Y0210017D03*
X0059115Y0210017D03*
D169*
X0055858Y0210089D03*
D170*
X0056256Y0210379D03*
X0064579Y0210161D03*
D171*
X0038055Y0210234D03*
D172*
X0056003Y0210234D03*
X0064615Y0210451D03*
D173*
X0057197Y0211247D03*
X0053579Y0210306D03*
D174*
X0056075Y0210306D03*
X0041746Y0211826D03*
D175*
X0064579Y0210306D03*
D176*
X0064615Y0210379D03*
D177*
X0052059Y0210451D03*
D178*
X0061938Y0210451D03*
D179*
X0069537Y0210451D03*
D180*
X0062119Y0211030D03*
X0052059Y0210523D03*
D181*
X0057595Y0210523D03*
D182*
X0061938Y0210523D03*
D183*
X0052059Y0210596D03*
D184*
X0057559Y0210596D03*
D185*
X0061974Y0210596D03*
D186*
X0064615Y0210596D03*
D187*
X0069537Y0210596D03*
D188*
X0057523Y0210668D03*
D189*
X0052023Y0210740D03*
D190*
X0057523Y0210740D03*
D191*
X0062010Y0210740D03*
D192*
X0069573Y0210740D03*
D193*
X0039321Y0211030D03*
X0038887Y0210813D03*
D194*
X0052059Y0210813D03*
D195*
X0057451Y0210813D03*
D196*
X0064652Y0210813D03*
D197*
X0069609Y0210813D03*
D198*
X0069609Y0210885D03*
X0052023Y0210885D03*
D199*
X0062082Y0210885D03*
D200*
X0052023Y0210957D03*
D201*
X0057378Y0210957D03*
D202*
X0062082Y0210957D03*
D203*
X0069609Y0210957D03*
D204*
X0052023Y0211030D03*
D205*
X0069645Y0211030D03*
D206*
X0057269Y0211102D03*
D207*
X0069645Y0211102D03*
D208*
X0052059Y0211175D03*
D209*
X0046884Y0211392D03*
D210*
X0047717Y0212260D03*
D211*
X0048115Y0212694D03*
X0048549Y0213129D03*
M02*
