G75*
%MOIN*%
%OFA0B0*%
%FSLAX25Y25*%
%IPPOS*%
%LPD*%
%AMOC8*
5,1,8,0,0,1.08239X$1,22.5*
%
%ADD10C,0.00000*%
%ADD11C,0.11227*%
%ADD12R,0.06400X0.06400*%
%ADD13OC8,0.06400*%
%ADD14C,0.06000*%
%ADD15C,0.05943*%
%ADD16OC8,0.06700*%
D10*
X0001000Y0001000D02*
X0256906Y0001000D01*
X0256906Y0221472D01*
X0001000Y0221472D01*
X0001000Y0001000D01*
X0009367Y0014780D02*
X0009369Y0014927D01*
X0009375Y0015073D01*
X0009385Y0015219D01*
X0009399Y0015365D01*
X0009417Y0015511D01*
X0009438Y0015656D01*
X0009464Y0015800D01*
X0009494Y0015944D01*
X0009527Y0016086D01*
X0009564Y0016228D01*
X0009605Y0016369D01*
X0009650Y0016508D01*
X0009699Y0016647D01*
X0009751Y0016784D01*
X0009808Y0016919D01*
X0009867Y0017053D01*
X0009931Y0017185D01*
X0009998Y0017315D01*
X0010068Y0017444D01*
X0010142Y0017571D01*
X0010219Y0017695D01*
X0010300Y0017818D01*
X0010384Y0017938D01*
X0010471Y0018056D01*
X0010561Y0018171D01*
X0010654Y0018284D01*
X0010751Y0018395D01*
X0010850Y0018503D01*
X0010952Y0018608D01*
X0011057Y0018710D01*
X0011165Y0018809D01*
X0011276Y0018906D01*
X0011389Y0018999D01*
X0011504Y0019089D01*
X0011622Y0019176D01*
X0011742Y0019260D01*
X0011865Y0019341D01*
X0011989Y0019418D01*
X0012116Y0019492D01*
X0012245Y0019562D01*
X0012375Y0019629D01*
X0012507Y0019693D01*
X0012641Y0019752D01*
X0012776Y0019809D01*
X0012913Y0019861D01*
X0013052Y0019910D01*
X0013191Y0019955D01*
X0013332Y0019996D01*
X0013474Y0020033D01*
X0013616Y0020066D01*
X0013760Y0020096D01*
X0013904Y0020122D01*
X0014049Y0020143D01*
X0014195Y0020161D01*
X0014341Y0020175D01*
X0014487Y0020185D01*
X0014633Y0020191D01*
X0014780Y0020193D01*
X0014927Y0020191D01*
X0015073Y0020185D01*
X0015219Y0020175D01*
X0015365Y0020161D01*
X0015511Y0020143D01*
X0015656Y0020122D01*
X0015800Y0020096D01*
X0015944Y0020066D01*
X0016086Y0020033D01*
X0016228Y0019996D01*
X0016369Y0019955D01*
X0016508Y0019910D01*
X0016647Y0019861D01*
X0016784Y0019809D01*
X0016919Y0019752D01*
X0017053Y0019693D01*
X0017185Y0019629D01*
X0017315Y0019562D01*
X0017444Y0019492D01*
X0017571Y0019418D01*
X0017695Y0019341D01*
X0017818Y0019260D01*
X0017938Y0019176D01*
X0018056Y0019089D01*
X0018171Y0018999D01*
X0018284Y0018906D01*
X0018395Y0018809D01*
X0018503Y0018710D01*
X0018608Y0018608D01*
X0018710Y0018503D01*
X0018809Y0018395D01*
X0018906Y0018284D01*
X0018999Y0018171D01*
X0019089Y0018056D01*
X0019176Y0017938D01*
X0019260Y0017818D01*
X0019341Y0017695D01*
X0019418Y0017571D01*
X0019492Y0017444D01*
X0019562Y0017315D01*
X0019629Y0017185D01*
X0019693Y0017053D01*
X0019752Y0016919D01*
X0019809Y0016784D01*
X0019861Y0016647D01*
X0019910Y0016508D01*
X0019955Y0016369D01*
X0019996Y0016228D01*
X0020033Y0016086D01*
X0020066Y0015944D01*
X0020096Y0015800D01*
X0020122Y0015656D01*
X0020143Y0015511D01*
X0020161Y0015365D01*
X0020175Y0015219D01*
X0020185Y0015073D01*
X0020191Y0014927D01*
X0020193Y0014780D01*
X0020191Y0014633D01*
X0020185Y0014487D01*
X0020175Y0014341D01*
X0020161Y0014195D01*
X0020143Y0014049D01*
X0020122Y0013904D01*
X0020096Y0013760D01*
X0020066Y0013616D01*
X0020033Y0013474D01*
X0019996Y0013332D01*
X0019955Y0013191D01*
X0019910Y0013052D01*
X0019861Y0012913D01*
X0019809Y0012776D01*
X0019752Y0012641D01*
X0019693Y0012507D01*
X0019629Y0012375D01*
X0019562Y0012245D01*
X0019492Y0012116D01*
X0019418Y0011989D01*
X0019341Y0011865D01*
X0019260Y0011742D01*
X0019176Y0011622D01*
X0019089Y0011504D01*
X0018999Y0011389D01*
X0018906Y0011276D01*
X0018809Y0011165D01*
X0018710Y0011057D01*
X0018608Y0010952D01*
X0018503Y0010850D01*
X0018395Y0010751D01*
X0018284Y0010654D01*
X0018171Y0010561D01*
X0018056Y0010471D01*
X0017938Y0010384D01*
X0017818Y0010300D01*
X0017695Y0010219D01*
X0017571Y0010142D01*
X0017444Y0010068D01*
X0017315Y0009998D01*
X0017185Y0009931D01*
X0017053Y0009867D01*
X0016919Y0009808D01*
X0016784Y0009751D01*
X0016647Y0009699D01*
X0016508Y0009650D01*
X0016369Y0009605D01*
X0016228Y0009564D01*
X0016086Y0009527D01*
X0015944Y0009494D01*
X0015800Y0009464D01*
X0015656Y0009438D01*
X0015511Y0009417D01*
X0015365Y0009399D01*
X0015219Y0009385D01*
X0015073Y0009375D01*
X0014927Y0009369D01*
X0014780Y0009367D01*
X0014633Y0009369D01*
X0014487Y0009375D01*
X0014341Y0009385D01*
X0014195Y0009399D01*
X0014049Y0009417D01*
X0013904Y0009438D01*
X0013760Y0009464D01*
X0013616Y0009494D01*
X0013474Y0009527D01*
X0013332Y0009564D01*
X0013191Y0009605D01*
X0013052Y0009650D01*
X0012913Y0009699D01*
X0012776Y0009751D01*
X0012641Y0009808D01*
X0012507Y0009867D01*
X0012375Y0009931D01*
X0012245Y0009998D01*
X0012116Y0010068D01*
X0011989Y0010142D01*
X0011865Y0010219D01*
X0011742Y0010300D01*
X0011622Y0010384D01*
X0011504Y0010471D01*
X0011389Y0010561D01*
X0011276Y0010654D01*
X0011165Y0010751D01*
X0011057Y0010850D01*
X0010952Y0010952D01*
X0010850Y0011057D01*
X0010751Y0011165D01*
X0010654Y0011276D01*
X0010561Y0011389D01*
X0010471Y0011504D01*
X0010384Y0011622D01*
X0010300Y0011742D01*
X0010219Y0011865D01*
X0010142Y0011989D01*
X0010068Y0012116D01*
X0009998Y0012245D01*
X0009931Y0012375D01*
X0009867Y0012507D01*
X0009808Y0012641D01*
X0009751Y0012776D01*
X0009699Y0012913D01*
X0009650Y0013052D01*
X0009605Y0013191D01*
X0009564Y0013332D01*
X0009527Y0013474D01*
X0009494Y0013616D01*
X0009464Y0013760D01*
X0009438Y0013904D01*
X0009417Y0014049D01*
X0009399Y0014195D01*
X0009385Y0014341D01*
X0009375Y0014487D01*
X0009369Y0014633D01*
X0009367Y0014780D01*
X0009367Y0207693D02*
X0009369Y0207840D01*
X0009375Y0207986D01*
X0009385Y0208132D01*
X0009399Y0208278D01*
X0009417Y0208424D01*
X0009438Y0208569D01*
X0009464Y0208713D01*
X0009494Y0208857D01*
X0009527Y0208999D01*
X0009564Y0209141D01*
X0009605Y0209282D01*
X0009650Y0209421D01*
X0009699Y0209560D01*
X0009751Y0209697D01*
X0009808Y0209832D01*
X0009867Y0209966D01*
X0009931Y0210098D01*
X0009998Y0210228D01*
X0010068Y0210357D01*
X0010142Y0210484D01*
X0010219Y0210608D01*
X0010300Y0210731D01*
X0010384Y0210851D01*
X0010471Y0210969D01*
X0010561Y0211084D01*
X0010654Y0211197D01*
X0010751Y0211308D01*
X0010850Y0211416D01*
X0010952Y0211521D01*
X0011057Y0211623D01*
X0011165Y0211722D01*
X0011276Y0211819D01*
X0011389Y0211912D01*
X0011504Y0212002D01*
X0011622Y0212089D01*
X0011742Y0212173D01*
X0011865Y0212254D01*
X0011989Y0212331D01*
X0012116Y0212405D01*
X0012245Y0212475D01*
X0012375Y0212542D01*
X0012507Y0212606D01*
X0012641Y0212665D01*
X0012776Y0212722D01*
X0012913Y0212774D01*
X0013052Y0212823D01*
X0013191Y0212868D01*
X0013332Y0212909D01*
X0013474Y0212946D01*
X0013616Y0212979D01*
X0013760Y0213009D01*
X0013904Y0213035D01*
X0014049Y0213056D01*
X0014195Y0213074D01*
X0014341Y0213088D01*
X0014487Y0213098D01*
X0014633Y0213104D01*
X0014780Y0213106D01*
X0014927Y0213104D01*
X0015073Y0213098D01*
X0015219Y0213088D01*
X0015365Y0213074D01*
X0015511Y0213056D01*
X0015656Y0213035D01*
X0015800Y0213009D01*
X0015944Y0212979D01*
X0016086Y0212946D01*
X0016228Y0212909D01*
X0016369Y0212868D01*
X0016508Y0212823D01*
X0016647Y0212774D01*
X0016784Y0212722D01*
X0016919Y0212665D01*
X0017053Y0212606D01*
X0017185Y0212542D01*
X0017315Y0212475D01*
X0017444Y0212405D01*
X0017571Y0212331D01*
X0017695Y0212254D01*
X0017818Y0212173D01*
X0017938Y0212089D01*
X0018056Y0212002D01*
X0018171Y0211912D01*
X0018284Y0211819D01*
X0018395Y0211722D01*
X0018503Y0211623D01*
X0018608Y0211521D01*
X0018710Y0211416D01*
X0018809Y0211308D01*
X0018906Y0211197D01*
X0018999Y0211084D01*
X0019089Y0210969D01*
X0019176Y0210851D01*
X0019260Y0210731D01*
X0019341Y0210608D01*
X0019418Y0210484D01*
X0019492Y0210357D01*
X0019562Y0210228D01*
X0019629Y0210098D01*
X0019693Y0209966D01*
X0019752Y0209832D01*
X0019809Y0209697D01*
X0019861Y0209560D01*
X0019910Y0209421D01*
X0019955Y0209282D01*
X0019996Y0209141D01*
X0020033Y0208999D01*
X0020066Y0208857D01*
X0020096Y0208713D01*
X0020122Y0208569D01*
X0020143Y0208424D01*
X0020161Y0208278D01*
X0020175Y0208132D01*
X0020185Y0207986D01*
X0020191Y0207840D01*
X0020193Y0207693D01*
X0020191Y0207546D01*
X0020185Y0207400D01*
X0020175Y0207254D01*
X0020161Y0207108D01*
X0020143Y0206962D01*
X0020122Y0206817D01*
X0020096Y0206673D01*
X0020066Y0206529D01*
X0020033Y0206387D01*
X0019996Y0206245D01*
X0019955Y0206104D01*
X0019910Y0205965D01*
X0019861Y0205826D01*
X0019809Y0205689D01*
X0019752Y0205554D01*
X0019693Y0205420D01*
X0019629Y0205288D01*
X0019562Y0205158D01*
X0019492Y0205029D01*
X0019418Y0204902D01*
X0019341Y0204778D01*
X0019260Y0204655D01*
X0019176Y0204535D01*
X0019089Y0204417D01*
X0018999Y0204302D01*
X0018906Y0204189D01*
X0018809Y0204078D01*
X0018710Y0203970D01*
X0018608Y0203865D01*
X0018503Y0203763D01*
X0018395Y0203664D01*
X0018284Y0203567D01*
X0018171Y0203474D01*
X0018056Y0203384D01*
X0017938Y0203297D01*
X0017818Y0203213D01*
X0017695Y0203132D01*
X0017571Y0203055D01*
X0017444Y0202981D01*
X0017315Y0202911D01*
X0017185Y0202844D01*
X0017053Y0202780D01*
X0016919Y0202721D01*
X0016784Y0202664D01*
X0016647Y0202612D01*
X0016508Y0202563D01*
X0016369Y0202518D01*
X0016228Y0202477D01*
X0016086Y0202440D01*
X0015944Y0202407D01*
X0015800Y0202377D01*
X0015656Y0202351D01*
X0015511Y0202330D01*
X0015365Y0202312D01*
X0015219Y0202298D01*
X0015073Y0202288D01*
X0014927Y0202282D01*
X0014780Y0202280D01*
X0014633Y0202282D01*
X0014487Y0202288D01*
X0014341Y0202298D01*
X0014195Y0202312D01*
X0014049Y0202330D01*
X0013904Y0202351D01*
X0013760Y0202377D01*
X0013616Y0202407D01*
X0013474Y0202440D01*
X0013332Y0202477D01*
X0013191Y0202518D01*
X0013052Y0202563D01*
X0012913Y0202612D01*
X0012776Y0202664D01*
X0012641Y0202721D01*
X0012507Y0202780D01*
X0012375Y0202844D01*
X0012245Y0202911D01*
X0012116Y0202981D01*
X0011989Y0203055D01*
X0011865Y0203132D01*
X0011742Y0203213D01*
X0011622Y0203297D01*
X0011504Y0203384D01*
X0011389Y0203474D01*
X0011276Y0203567D01*
X0011165Y0203664D01*
X0011057Y0203763D01*
X0010952Y0203865D01*
X0010850Y0203970D01*
X0010751Y0204078D01*
X0010654Y0204189D01*
X0010561Y0204302D01*
X0010471Y0204417D01*
X0010384Y0204535D01*
X0010300Y0204655D01*
X0010219Y0204778D01*
X0010142Y0204902D01*
X0010068Y0205029D01*
X0009998Y0205158D01*
X0009931Y0205288D01*
X0009867Y0205420D01*
X0009808Y0205554D01*
X0009751Y0205689D01*
X0009699Y0205826D01*
X0009650Y0205965D01*
X0009605Y0206104D01*
X0009564Y0206245D01*
X0009527Y0206387D01*
X0009494Y0206529D01*
X0009464Y0206673D01*
X0009438Y0206817D01*
X0009417Y0206962D01*
X0009399Y0207108D01*
X0009385Y0207254D01*
X0009375Y0207400D01*
X0009369Y0207546D01*
X0009367Y0207693D01*
X0237713Y0207693D02*
X0237715Y0207840D01*
X0237721Y0207986D01*
X0237731Y0208132D01*
X0237745Y0208278D01*
X0237763Y0208424D01*
X0237784Y0208569D01*
X0237810Y0208713D01*
X0237840Y0208857D01*
X0237873Y0208999D01*
X0237910Y0209141D01*
X0237951Y0209282D01*
X0237996Y0209421D01*
X0238045Y0209560D01*
X0238097Y0209697D01*
X0238154Y0209832D01*
X0238213Y0209966D01*
X0238277Y0210098D01*
X0238344Y0210228D01*
X0238414Y0210357D01*
X0238488Y0210484D01*
X0238565Y0210608D01*
X0238646Y0210731D01*
X0238730Y0210851D01*
X0238817Y0210969D01*
X0238907Y0211084D01*
X0239000Y0211197D01*
X0239097Y0211308D01*
X0239196Y0211416D01*
X0239298Y0211521D01*
X0239403Y0211623D01*
X0239511Y0211722D01*
X0239622Y0211819D01*
X0239735Y0211912D01*
X0239850Y0212002D01*
X0239968Y0212089D01*
X0240088Y0212173D01*
X0240211Y0212254D01*
X0240335Y0212331D01*
X0240462Y0212405D01*
X0240591Y0212475D01*
X0240721Y0212542D01*
X0240853Y0212606D01*
X0240987Y0212665D01*
X0241122Y0212722D01*
X0241259Y0212774D01*
X0241398Y0212823D01*
X0241537Y0212868D01*
X0241678Y0212909D01*
X0241820Y0212946D01*
X0241962Y0212979D01*
X0242106Y0213009D01*
X0242250Y0213035D01*
X0242395Y0213056D01*
X0242541Y0213074D01*
X0242687Y0213088D01*
X0242833Y0213098D01*
X0242979Y0213104D01*
X0243126Y0213106D01*
X0243273Y0213104D01*
X0243419Y0213098D01*
X0243565Y0213088D01*
X0243711Y0213074D01*
X0243857Y0213056D01*
X0244002Y0213035D01*
X0244146Y0213009D01*
X0244290Y0212979D01*
X0244432Y0212946D01*
X0244574Y0212909D01*
X0244715Y0212868D01*
X0244854Y0212823D01*
X0244993Y0212774D01*
X0245130Y0212722D01*
X0245265Y0212665D01*
X0245399Y0212606D01*
X0245531Y0212542D01*
X0245661Y0212475D01*
X0245790Y0212405D01*
X0245917Y0212331D01*
X0246041Y0212254D01*
X0246164Y0212173D01*
X0246284Y0212089D01*
X0246402Y0212002D01*
X0246517Y0211912D01*
X0246630Y0211819D01*
X0246741Y0211722D01*
X0246849Y0211623D01*
X0246954Y0211521D01*
X0247056Y0211416D01*
X0247155Y0211308D01*
X0247252Y0211197D01*
X0247345Y0211084D01*
X0247435Y0210969D01*
X0247522Y0210851D01*
X0247606Y0210731D01*
X0247687Y0210608D01*
X0247764Y0210484D01*
X0247838Y0210357D01*
X0247908Y0210228D01*
X0247975Y0210098D01*
X0248039Y0209966D01*
X0248098Y0209832D01*
X0248155Y0209697D01*
X0248207Y0209560D01*
X0248256Y0209421D01*
X0248301Y0209282D01*
X0248342Y0209141D01*
X0248379Y0208999D01*
X0248412Y0208857D01*
X0248442Y0208713D01*
X0248468Y0208569D01*
X0248489Y0208424D01*
X0248507Y0208278D01*
X0248521Y0208132D01*
X0248531Y0207986D01*
X0248537Y0207840D01*
X0248539Y0207693D01*
X0248537Y0207546D01*
X0248531Y0207400D01*
X0248521Y0207254D01*
X0248507Y0207108D01*
X0248489Y0206962D01*
X0248468Y0206817D01*
X0248442Y0206673D01*
X0248412Y0206529D01*
X0248379Y0206387D01*
X0248342Y0206245D01*
X0248301Y0206104D01*
X0248256Y0205965D01*
X0248207Y0205826D01*
X0248155Y0205689D01*
X0248098Y0205554D01*
X0248039Y0205420D01*
X0247975Y0205288D01*
X0247908Y0205158D01*
X0247838Y0205029D01*
X0247764Y0204902D01*
X0247687Y0204778D01*
X0247606Y0204655D01*
X0247522Y0204535D01*
X0247435Y0204417D01*
X0247345Y0204302D01*
X0247252Y0204189D01*
X0247155Y0204078D01*
X0247056Y0203970D01*
X0246954Y0203865D01*
X0246849Y0203763D01*
X0246741Y0203664D01*
X0246630Y0203567D01*
X0246517Y0203474D01*
X0246402Y0203384D01*
X0246284Y0203297D01*
X0246164Y0203213D01*
X0246041Y0203132D01*
X0245917Y0203055D01*
X0245790Y0202981D01*
X0245661Y0202911D01*
X0245531Y0202844D01*
X0245399Y0202780D01*
X0245265Y0202721D01*
X0245130Y0202664D01*
X0244993Y0202612D01*
X0244854Y0202563D01*
X0244715Y0202518D01*
X0244574Y0202477D01*
X0244432Y0202440D01*
X0244290Y0202407D01*
X0244146Y0202377D01*
X0244002Y0202351D01*
X0243857Y0202330D01*
X0243711Y0202312D01*
X0243565Y0202298D01*
X0243419Y0202288D01*
X0243273Y0202282D01*
X0243126Y0202280D01*
X0242979Y0202282D01*
X0242833Y0202288D01*
X0242687Y0202298D01*
X0242541Y0202312D01*
X0242395Y0202330D01*
X0242250Y0202351D01*
X0242106Y0202377D01*
X0241962Y0202407D01*
X0241820Y0202440D01*
X0241678Y0202477D01*
X0241537Y0202518D01*
X0241398Y0202563D01*
X0241259Y0202612D01*
X0241122Y0202664D01*
X0240987Y0202721D01*
X0240853Y0202780D01*
X0240721Y0202844D01*
X0240591Y0202911D01*
X0240462Y0202981D01*
X0240335Y0203055D01*
X0240211Y0203132D01*
X0240088Y0203213D01*
X0239968Y0203297D01*
X0239850Y0203384D01*
X0239735Y0203474D01*
X0239622Y0203567D01*
X0239511Y0203664D01*
X0239403Y0203763D01*
X0239298Y0203865D01*
X0239196Y0203970D01*
X0239097Y0204078D01*
X0239000Y0204189D01*
X0238907Y0204302D01*
X0238817Y0204417D01*
X0238730Y0204535D01*
X0238646Y0204655D01*
X0238565Y0204778D01*
X0238488Y0204902D01*
X0238414Y0205029D01*
X0238344Y0205158D01*
X0238277Y0205288D01*
X0238213Y0205420D01*
X0238154Y0205554D01*
X0238097Y0205689D01*
X0238045Y0205826D01*
X0237996Y0205965D01*
X0237951Y0206104D01*
X0237910Y0206245D01*
X0237873Y0206387D01*
X0237840Y0206529D01*
X0237810Y0206673D01*
X0237784Y0206817D01*
X0237763Y0206962D01*
X0237745Y0207108D01*
X0237731Y0207254D01*
X0237721Y0207400D01*
X0237715Y0207546D01*
X0237713Y0207693D01*
X0237713Y0014780D02*
X0237715Y0014927D01*
X0237721Y0015073D01*
X0237731Y0015219D01*
X0237745Y0015365D01*
X0237763Y0015511D01*
X0237784Y0015656D01*
X0237810Y0015800D01*
X0237840Y0015944D01*
X0237873Y0016086D01*
X0237910Y0016228D01*
X0237951Y0016369D01*
X0237996Y0016508D01*
X0238045Y0016647D01*
X0238097Y0016784D01*
X0238154Y0016919D01*
X0238213Y0017053D01*
X0238277Y0017185D01*
X0238344Y0017315D01*
X0238414Y0017444D01*
X0238488Y0017571D01*
X0238565Y0017695D01*
X0238646Y0017818D01*
X0238730Y0017938D01*
X0238817Y0018056D01*
X0238907Y0018171D01*
X0239000Y0018284D01*
X0239097Y0018395D01*
X0239196Y0018503D01*
X0239298Y0018608D01*
X0239403Y0018710D01*
X0239511Y0018809D01*
X0239622Y0018906D01*
X0239735Y0018999D01*
X0239850Y0019089D01*
X0239968Y0019176D01*
X0240088Y0019260D01*
X0240211Y0019341D01*
X0240335Y0019418D01*
X0240462Y0019492D01*
X0240591Y0019562D01*
X0240721Y0019629D01*
X0240853Y0019693D01*
X0240987Y0019752D01*
X0241122Y0019809D01*
X0241259Y0019861D01*
X0241398Y0019910D01*
X0241537Y0019955D01*
X0241678Y0019996D01*
X0241820Y0020033D01*
X0241962Y0020066D01*
X0242106Y0020096D01*
X0242250Y0020122D01*
X0242395Y0020143D01*
X0242541Y0020161D01*
X0242687Y0020175D01*
X0242833Y0020185D01*
X0242979Y0020191D01*
X0243126Y0020193D01*
X0243273Y0020191D01*
X0243419Y0020185D01*
X0243565Y0020175D01*
X0243711Y0020161D01*
X0243857Y0020143D01*
X0244002Y0020122D01*
X0244146Y0020096D01*
X0244290Y0020066D01*
X0244432Y0020033D01*
X0244574Y0019996D01*
X0244715Y0019955D01*
X0244854Y0019910D01*
X0244993Y0019861D01*
X0245130Y0019809D01*
X0245265Y0019752D01*
X0245399Y0019693D01*
X0245531Y0019629D01*
X0245661Y0019562D01*
X0245790Y0019492D01*
X0245917Y0019418D01*
X0246041Y0019341D01*
X0246164Y0019260D01*
X0246284Y0019176D01*
X0246402Y0019089D01*
X0246517Y0018999D01*
X0246630Y0018906D01*
X0246741Y0018809D01*
X0246849Y0018710D01*
X0246954Y0018608D01*
X0247056Y0018503D01*
X0247155Y0018395D01*
X0247252Y0018284D01*
X0247345Y0018171D01*
X0247435Y0018056D01*
X0247522Y0017938D01*
X0247606Y0017818D01*
X0247687Y0017695D01*
X0247764Y0017571D01*
X0247838Y0017444D01*
X0247908Y0017315D01*
X0247975Y0017185D01*
X0248039Y0017053D01*
X0248098Y0016919D01*
X0248155Y0016784D01*
X0248207Y0016647D01*
X0248256Y0016508D01*
X0248301Y0016369D01*
X0248342Y0016228D01*
X0248379Y0016086D01*
X0248412Y0015944D01*
X0248442Y0015800D01*
X0248468Y0015656D01*
X0248489Y0015511D01*
X0248507Y0015365D01*
X0248521Y0015219D01*
X0248531Y0015073D01*
X0248537Y0014927D01*
X0248539Y0014780D01*
X0248537Y0014633D01*
X0248531Y0014487D01*
X0248521Y0014341D01*
X0248507Y0014195D01*
X0248489Y0014049D01*
X0248468Y0013904D01*
X0248442Y0013760D01*
X0248412Y0013616D01*
X0248379Y0013474D01*
X0248342Y0013332D01*
X0248301Y0013191D01*
X0248256Y0013052D01*
X0248207Y0012913D01*
X0248155Y0012776D01*
X0248098Y0012641D01*
X0248039Y0012507D01*
X0247975Y0012375D01*
X0247908Y0012245D01*
X0247838Y0012116D01*
X0247764Y0011989D01*
X0247687Y0011865D01*
X0247606Y0011742D01*
X0247522Y0011622D01*
X0247435Y0011504D01*
X0247345Y0011389D01*
X0247252Y0011276D01*
X0247155Y0011165D01*
X0247056Y0011057D01*
X0246954Y0010952D01*
X0246849Y0010850D01*
X0246741Y0010751D01*
X0246630Y0010654D01*
X0246517Y0010561D01*
X0246402Y0010471D01*
X0246284Y0010384D01*
X0246164Y0010300D01*
X0246041Y0010219D01*
X0245917Y0010142D01*
X0245790Y0010068D01*
X0245661Y0009998D01*
X0245531Y0009931D01*
X0245399Y0009867D01*
X0245265Y0009808D01*
X0245130Y0009751D01*
X0244993Y0009699D01*
X0244854Y0009650D01*
X0244715Y0009605D01*
X0244574Y0009564D01*
X0244432Y0009527D01*
X0244290Y0009494D01*
X0244146Y0009464D01*
X0244002Y0009438D01*
X0243857Y0009417D01*
X0243711Y0009399D01*
X0243565Y0009385D01*
X0243419Y0009375D01*
X0243273Y0009369D01*
X0243126Y0009367D01*
X0242979Y0009369D01*
X0242833Y0009375D01*
X0242687Y0009385D01*
X0242541Y0009399D01*
X0242395Y0009417D01*
X0242250Y0009438D01*
X0242106Y0009464D01*
X0241962Y0009494D01*
X0241820Y0009527D01*
X0241678Y0009564D01*
X0241537Y0009605D01*
X0241398Y0009650D01*
X0241259Y0009699D01*
X0241122Y0009751D01*
X0240987Y0009808D01*
X0240853Y0009867D01*
X0240721Y0009931D01*
X0240591Y0009998D01*
X0240462Y0010068D01*
X0240335Y0010142D01*
X0240211Y0010219D01*
X0240088Y0010300D01*
X0239968Y0010384D01*
X0239850Y0010471D01*
X0239735Y0010561D01*
X0239622Y0010654D01*
X0239511Y0010751D01*
X0239403Y0010850D01*
X0239298Y0010952D01*
X0239196Y0011057D01*
X0239097Y0011165D01*
X0239000Y0011276D01*
X0238907Y0011389D01*
X0238817Y0011504D01*
X0238730Y0011622D01*
X0238646Y0011742D01*
X0238565Y0011865D01*
X0238488Y0011989D01*
X0238414Y0012116D01*
X0238344Y0012245D01*
X0238277Y0012375D01*
X0238213Y0012507D01*
X0238154Y0012641D01*
X0238097Y0012776D01*
X0238045Y0012913D01*
X0237996Y0013052D01*
X0237951Y0013191D01*
X0237910Y0013332D01*
X0237873Y0013474D01*
X0237840Y0013616D01*
X0237810Y0013760D01*
X0237784Y0013904D01*
X0237763Y0014049D01*
X0237745Y0014195D01*
X0237731Y0014341D01*
X0237721Y0014487D01*
X0237715Y0014633D01*
X0237713Y0014780D01*
D11*
X0243126Y0014780D03*
X0243126Y0207693D03*
X0014780Y0207693D03*
X0014780Y0014780D03*
D12*
X0013953Y0167280D03*
X0088953Y0192280D03*
X0218953Y0192280D03*
X0223953Y0009780D03*
D13*
X0223953Y0019780D03*
X0213953Y0019780D03*
X0203953Y0019780D03*
X0193953Y0019780D03*
X0183953Y0019780D03*
X0173953Y0019780D03*
X0163953Y0019780D03*
X0153953Y0019780D03*
X0143953Y0019780D03*
X0133953Y0019780D03*
X0123953Y0019780D03*
X0113953Y0019780D03*
X0103953Y0019780D03*
X0093953Y0019780D03*
X0083953Y0019780D03*
X0073953Y0019780D03*
X0063953Y0019780D03*
X0053953Y0019780D03*
X0043953Y0019780D03*
X0033953Y0019780D03*
X0033953Y0009780D03*
X0043953Y0009780D03*
X0053953Y0009780D03*
X0063953Y0009780D03*
X0073953Y0009780D03*
X0083953Y0009780D03*
X0093953Y0009780D03*
X0103953Y0009780D03*
X0113953Y0009780D03*
X0123953Y0009780D03*
X0133953Y0009780D03*
X0143953Y0009780D03*
X0153953Y0009780D03*
X0163953Y0009780D03*
X0173953Y0009780D03*
X0183953Y0009780D03*
X0193953Y0009780D03*
X0203953Y0009780D03*
X0213953Y0009780D03*
X0013953Y0127280D03*
X0013953Y0137280D03*
X0013953Y0147280D03*
X0013953Y0157280D03*
X0088953Y0202280D03*
X0218953Y0202280D03*
D14*
X0153953Y0177280D03*
X0143953Y0177280D03*
X0133953Y0177280D03*
X0123953Y0177280D03*
X0113953Y0177280D03*
X0103953Y0177280D03*
X0103953Y0117280D03*
X0113953Y0117280D03*
X0123953Y0117280D03*
X0133953Y0117280D03*
X0143953Y0117280D03*
X0153953Y0117280D03*
D15*
X0120406Y0066780D03*
X0014500Y0071780D03*
X0014500Y0061780D03*
D16*
X0133953Y0062280D03*
X0143953Y0062280D03*
X0153953Y0062280D03*
X0163953Y0062280D03*
X0173953Y0062280D03*
X0183953Y0062280D03*
X0193953Y0062280D03*
X0203953Y0062280D03*
X0213953Y0062280D03*
X0223953Y0062280D03*
X0223953Y0052280D03*
X0213953Y0052280D03*
X0203953Y0052280D03*
X0193953Y0052280D03*
X0183953Y0052280D03*
X0173953Y0052280D03*
X0163953Y0052280D03*
X0153953Y0052280D03*
X0143953Y0052280D03*
X0133953Y0052280D03*
X0133953Y0042280D03*
X0143953Y0042280D03*
X0153953Y0042280D03*
X0163953Y0042280D03*
X0173953Y0042280D03*
X0183953Y0042280D03*
X0193953Y0042280D03*
X0203953Y0042280D03*
X0213953Y0042280D03*
X0223953Y0042280D03*
X0223953Y0032280D03*
X0213953Y0032280D03*
X0203953Y0032280D03*
X0193953Y0032280D03*
X0183953Y0032280D03*
X0173953Y0032280D03*
X0163953Y0032280D03*
X0153953Y0032280D03*
X0143953Y0032280D03*
X0133953Y0032280D03*
X0133953Y0072280D03*
X0133953Y0082280D03*
X0143953Y0082280D03*
X0153953Y0082280D03*
X0163953Y0082280D03*
X0173953Y0082280D03*
X0183953Y0082280D03*
X0193953Y0082280D03*
X0203953Y0082280D03*
X0213953Y0082280D03*
X0223953Y0082280D03*
X0223953Y0072280D03*
X0213953Y0072280D03*
X0203953Y0072280D03*
X0193953Y0072280D03*
X0183953Y0072280D03*
X0173953Y0072280D03*
X0163953Y0072280D03*
X0153953Y0072280D03*
X0143953Y0072280D03*
X0143953Y0092280D03*
X0143953Y0102280D03*
X0153953Y0102280D03*
X0163953Y0102280D03*
X0173953Y0102280D03*
X0183953Y0102280D03*
X0193953Y0102280D03*
X0203953Y0102280D03*
X0213953Y0102280D03*
X0223953Y0102280D03*
X0223953Y0092280D03*
X0213953Y0092280D03*
X0203953Y0092280D03*
X0193953Y0092280D03*
X0183953Y0092280D03*
X0173953Y0092280D03*
X0163953Y0092280D03*
X0153953Y0092280D03*
X0133953Y0092280D03*
X0133953Y0102280D03*
M02*
