%
M48
M72
T01C0.01200
T02C0.03150
T03C0.03543
T04C0.03600
T05C0.04000
T06C0.10827
%
T01
X91453Y73280
X105953Y66780
X98953Y111780
X67453Y147280
X53953Y166280
X62453Y169780
X25953Y152280
X19453Y156780
X9953Y117780
X28453Y104280
X102453Y182280
X159953Y154780
X224953Y109780
T02
X153953Y117280
X143953Y117280
X133953Y117280
X123953Y117280
X113953Y117280
X103953Y117280
X103953Y177280
X113953Y177280
X123953Y177280
X133953Y177280
X143953Y177280
X153953Y177280
T03
X120406Y66780
X14500Y71780
X14500Y61780
T04
X133953Y62280
X143953Y62280
X153953Y62280
X163953Y62280
X173953Y62280
X183953Y62280
X193953Y62280
X203953Y62280
X213953Y62280
X223953Y62280
X223953Y52280
X213953Y52280
X203953Y52280
X193953Y52280
X183953Y52280
X173953Y52280
X163953Y52280
X153953Y52280
X143953Y52280
X133953Y52280
X133953Y42280
X143953Y42280
X153953Y42280
X163953Y42280
X173953Y42280
X183953Y42280
X193953Y42280
X203953Y42280
X213953Y42280
X223953Y42280
X223953Y32280
X213953Y32280
X203953Y32280
X193953Y32280
X183953Y32280
X173953Y32280
X163953Y32280
X153953Y32280
X143953Y32280
X133953Y32280
X133953Y72280
X133953Y82280
X143953Y82280
X153953Y82280
X163953Y82280
X173953Y82280
X183953Y82280
X193953Y82280
X203953Y82280
X213953Y82280
X223953Y82280
X223953Y72280
X213953Y72280
X203953Y72280
X193953Y72280
X183953Y72280
X173953Y72280
X163953Y72280
X153953Y72280
X143953Y72280
X143953Y92280
X143953Y102280
X153953Y102280
X163953Y102280
X173953Y102280
X183953Y102280
X193953Y102280
X203953Y102280
X213953Y102280
X223953Y102280
X223953Y92280
X213953Y92280
X203953Y92280
X193953Y92280
X183953Y92280
X173953Y92280
X163953Y92280
X153953Y92280
X133953Y92280
X133953Y102280
T05
X133953Y19780
X123953Y19780
X113953Y19780
X103953Y19780
X93953Y19780
X83953Y19780
X73953Y19780
X63953Y19780
X53953Y19780
X43953Y19780
X33953Y19780
X33953Y9780
X43953Y9780
X53953Y9780
X63953Y9780
X73953Y9780
X83953Y9780
X93953Y9780
X103953Y9780
X113953Y9780
X123953Y9780
X133953Y9780
X143953Y9780
X143953Y19780
X153953Y19780
X163953Y19780
X173953Y19780
X183953Y19780
X193953Y19780
X203953Y19780
X213953Y19780
X223953Y19780
X223953Y9780
X213953Y9780
X203953Y9780
X193953Y9780
X183953Y9780
X173953Y9780
X163953Y9780
X153953Y9780
X13953Y127280
X13953Y137280
X13953Y147280
X13953Y157280
X13953Y167280
X88953Y192280
X88953Y202280
X218953Y202280
X218953Y192280
T06
X14780Y14780
X14780Y207693
X243126Y207693
X243126Y14780
M30
